# MagicaVoxel @ ephtracy

# material
mtllib monorail.mtl
usemtl palette

# normals
vn -1 0 0
vn 1 0 0
vn 0 -1 0
vn 0 1 0
vn 0 0 -1
vn 0 0 1

# texcoords
vt 0.681641 0.5
vt 0.962891 0.5

# verts
v 0 9 38
v 0 11 38
v 0 9 40
v 0 11 40
v 15 4 36
v 15 16 36
v 15 5 37
v 15 15 37
v 15 5 49
v 15 15 49
v 15 4 50
v 15 16 50
v 21 4 36
v 21 16 36
v 21 5 37
v 21 15 37
v 21 5 49
v 21 15 49
v 21 4 50
v 21 16 50
v 17 4 36
v 17 16 36
v 17 5 37
v 17 15 37
v 17 5 49
v 17 15 49
v 17 4 50
v 17 16 50
v 23 4 36
v 23 16 36
v 23 5 37
v 23 15 37
v 23 5 49
v 23 15 49
v 23 4 50
v 23 16 50
v 40 9 38
v 40 11 38
v 40 9 40
v 40 11 40
v 15 4 36
v 15 4 50
v 17 4 36
v 17 4 50
v 21 4 36
v 21 4 50
v 23 4 36
v 23 4 50
v 0 9 38
v 0 9 40
v 5 9 38
v 5 9 40
v 15 9 38
v 15 9 40
v 25 9 38
v 25 9 40
v 35 9 38
v 35 9 40
v 40 9 38
v 40 9 40
v 15 15 37
v 15 15 49
v 17 15 37
v 17 15 49
v 21 15 37
v 21 15 49
v 23 15 37
v 23 15 49
v 15 5 37
v 15 5 49
v 17 5 37
v 17 5 49
v 21 5 37
v 21 5 49
v 23 5 37
v 23 5 49
v 0 11 38
v 0 11 40
v 5 11 38
v 5 11 40
v 15 11 38
v 15 11 40
v 25 11 38
v 25 11 40
v 35 11 38
v 35 11 40
v 40 11 38
v 40 11 40
v 15 16 36
v 15 16 50
v 17 16 36
v 17 16 50
v 21 16 36
v 21 16 50
v 23 16 36
v 23 16 50
v 15 4 36
v 17 4 36
v 21 4 36
v 23 4 36
v 15 16 36
v 17 16 36
v 21 16 36
v 23 16 36
v 0 9 38
v 5 9 38
v 15 9 38
v 25 9 38
v 35 9 38
v 40 9 38
v 0 11 38
v 5 11 38
v 15 11 38
v 25 11 38
v 35 11 38
v 40 11 38
v 15 5 49
v 17 5 49
v 21 5 49
v 23 5 49
v 15 15 49
v 17 15 49
v 21 15 49
v 23 15 49
v 15 5 37
v 17 5 37
v 21 5 37
v 23 5 37
v 15 15 37
v 17 15 37
v 21 15 37
v 23 15 37
v 0 9 40
v 5 9 40
v 15 9 40
v 25 9 40
v 35 9 40
v 40 9 40
v 0 11 40
v 5 11 40
v 15 11 40
v 25 11 40
v 35 11 40
v 40 11 40
v 15 4 50
v 17 4 50
v 21 4 50
v 23 4 50
v 15 16 50
v 17 16 50
v 21 16 50
v 23 16 50

# faces
f 3/2/1 2/2/1 1/2/1
f 4/2/1 2/2/1 3/2/1
f 7/2/1 6/2/1 5/2/1
f 8/2/1 6/2/1 7/2/1
f 9/2/1 7/2/1 5/2/1
f 10/2/1 6/2/1 8/2/1
f 11/2/1 9/2/1 5/2/1
f 11/2/1 10/2/1 9/2/1
f 12/2/1 6/2/1 10/2/1
f 12/2/1 10/2/1 11/2/1
f 15/2/1 14/2/1 13/2/1
f 16/2/1 14/2/1 15/2/1
f 17/2/1 15/2/1 13/2/1
f 18/2/1 14/2/1 16/2/1
f 19/2/1 17/2/1 13/2/1
f 19/2/1 18/2/1 17/2/1
f 20/2/1 14/2/1 18/2/1
f 20/2/1 18/2/1 19/2/1
f 21/2/2 22/2/2 23/2/2
f 23/2/2 22/2/2 24/2/2
f 21/2/2 23/2/2 25/2/2
f 24/2/2 22/2/2 26/2/2
f 21/2/2 25/2/2 27/2/2
f 25/2/2 26/2/2 27/2/2
f 26/2/2 22/2/2 28/2/2
f 27/2/2 26/2/2 28/2/2
f 29/2/2 30/2/2 31/2/2
f 31/2/2 30/2/2 32/2/2
f 29/2/2 31/2/2 33/2/2
f 32/2/2 30/2/2 34/2/2
f 29/2/2 33/2/2 35/2/2
f 33/2/2 34/2/2 35/2/2
f 34/2/2 30/2/2 36/2/2
f 35/2/2 34/2/2 36/2/2
f 37/2/2 38/2/2 39/2/2
f 39/2/2 38/2/2 40/2/2
f 43/2/3 42/2/3 41/2/3
f 44/2/3 42/2/3 43/2/3
f 47/2/3 46/2/3 45/2/3
f 48/2/3 46/2/3 47/2/3
f 51/2/3 50/2/3 49/2/3
f 52/2/3 50/2/3 51/2/3
f 53/1/3 52/1/3 51/1/3
f 54/1/3 52/1/3 53/1/3
f 55/2/3 54/2/3 53/2/3
f 56/2/3 54/2/3 55/2/3
f 57/1/3 56/1/3 55/1/3
f 58/1/3 56/1/3 57/1/3
f 59/2/3 58/2/3 57/2/3
f 60/2/3 58/2/3 59/2/3
f 63/2/3 62/2/3 61/2/3
f 64/2/3 62/2/3 63/2/3
f 67/2/3 66/2/3 65/2/3
f 68/2/3 66/2/3 67/2/3
f 69/2/4 70/2/4 71/2/4
f 71/2/4 70/2/4 72/2/4
f 73/2/4 74/2/4 75/2/4
f 75/2/4 74/2/4 76/2/4
f 77/2/4 78/2/4 79/2/4
f 79/2/4 78/2/4 80/2/4
f 79/1/4 80/1/4 81/1/4
f 81/1/4 80/1/4 82/1/4
f 81/2/4 82/2/4 83/2/4
f 83/2/4 82/2/4 84/2/4
f 83/1/4 84/1/4 85/1/4
f 85/1/4 84/1/4 86/1/4
f 85/2/4 86/2/4 87/2/4
f 87/2/4 86/2/4 88/2/4
f 89/2/4 90/2/4 91/2/4
f 91/2/4 90/2/4 92/2/4
f 93/2/4 94/2/4 95/2/4
f 95/2/4 94/2/4 96/2/4
f 101/2/5 98/2/5 97/2/5
f 102/2/5 98/2/5 101/2/5
f 103/2/5 100/2/5 99/2/5
f 104/2/5 100/2/5 103/2/5
f 111/2/5 106/2/5 105/2/5
f 112/1/5 107/1/5 106/1/5
f 112/2/5 106/2/5 111/2/5
f 113/2/5 108/2/5 107/2/5
f 113/1/5 107/1/5 112/1/5
f 114/1/5 109/1/5 108/1/5
f 114/2/5 108/2/5 113/2/5
f 115/2/5 110/2/5 109/2/5
f 115/1/5 109/1/5 114/1/5
f 116/2/5 110/2/5 115/2/5
f 121/2/5 118/2/5 117/2/5
f 122/2/5 118/2/5 121/2/5
f 123/2/5 120/2/5 119/2/5
f 124/2/5 120/2/5 123/2/5
f 125/2/6 126/2/6 129/2/6
f 129/2/6 126/2/6 130/2/6
f 127/2/6 128/2/6 131/2/6
f 131/2/6 128/2/6 132/2/6
f 133/2/6 134/2/6 139/2/6
f 134/1/6 135/1/6 140/1/6
f 139/2/6 134/2/6 140/2/6
f 135/2/6 136/2/6 141/2/6
f 140/1/6 135/1/6 141/1/6
f 136/1/6 137/1/6 142/1/6
f 141/2/6 136/2/6 142/2/6
f 137/2/6 138/2/6 143/2/6
f 142/1/6 137/1/6 143/1/6
f 143/2/6 138/2/6 144/2/6
f 145/2/6 146/2/6 149/2/6
f 149/2/6 146/2/6 150/2/6
f 147/2/6 148/2/6 151/2/6
f 151/2/6 148/2/6 152/2/6
