# MagicaVoxel @ ephtracy

# material
mtllib monorail struts.mtl
usemtl palette

# normals
vn -1 0 0
vn 1 0 0
vn 0 -1 0
vn 0 1 0
vn 0 0 -1
vn 0 0 1

# texcoords
vt 0.681641 0.5
vt 0.931641 0.5
vt 0.962891 0.5

# verts
v 0 9 38
v 0 11 38
v 0 9 40
v 0 11 40
v 15 9 25
v 15 11 25
v 15 4 36
v 15 9 36
v 15 11 36
v 15 16 36
v 15 5 37
v 15 15 37
v 15 5 49
v 15 15 49
v 15 4 50
v 15 16 50
v 21 9 25
v 21 10 25
v 21 11 25
v 21 4 36
v 21 9 36
v 21 10 36
v 21 11 36
v 21 16 36
v 21 5 37
v 21 15 37
v 21 5 49
v 21 15 49
v 21 4 50
v 21 16 50
v 17 9 25
v 17 11 25
v 17 4 36
v 17 9 36
v 17 11 36
v 17 16 36
v 17 5 37
v 17 15 37
v 17 5 49
v 17 15 49
v 17 4 50
v 17 16 50
v 23 9 25
v 23 11 25
v 23 4 36
v 23 9 36
v 23 11 36
v 23 16 36
v 23 5 37
v 23 15 37
v 23 5 49
v 23 15 49
v 23 4 50
v 23 16 50
v 40 9 38
v 40 11 38
v 40 9 40
v 40 11 40
v 15 4 36
v 15 4 50
v 17 4 36
v 17 4 50
v 21 4 36
v 21 4 50
v 23 4 36
v 23 4 50
v 0 9 38
v 0 9 40
v 5 9 38
v 5 9 40
v 15 9 25
v 15 9 36
v 15 9 38
v 15 9 40
v 17 9 25
v 17 9 36
v 21 9 25
v 21 9 36
v 22 9 25
v 22 9 36
v 23 9 25
v 23 9 36
v 25 9 38
v 25 9 40
v 35 9 38
v 35 9 40
v 40 9 38
v 40 9 40
v 15 15 37
v 15 15 49
v 17 15 37
v 17 15 49
v 21 15 37
v 21 15 49
v 23 15 37
v 23 15 49
v 15 5 37
v 15 5 49
v 17 5 37
v 17 5 49
v 21 5 37
v 21 5 49
v 23 5 37
v 23 5 49
v 0 11 38
v 0 11 40
v 5 11 38
v 5 11 40
v 15 11 25
v 15 11 36
v 15 11 38
v 15 11 40
v 17 11 25
v 17 11 36
v 21 11 25
v 21 11 36
v 23 11 25
v 23 11 36
v 25 11 38
v 25 11 40
v 35 11 38
v 35 11 40
v 40 11 38
v 40 11 40
v 15 16 36
v 15 16 50
v 17 16 36
v 17 16 50
v 21 16 36
v 21 16 50
v 23 16 36
v 23 16 50
v 15 9 25
v 17 9 25
v 21 9 25
v 22 9 25
v 23 9 25
v 21 10 25
v 22 10 25
v 15 11 25
v 17 11 25
v 21 11 25
v 23 11 25
v 15 4 36
v 17 4 36
v 21 4 36
v 23 4 36
v 15 9 36
v 17 9 36
v 21 9 36
v 22 9 36
v 23 9 36
v 15 11 36
v 17 11 36
v 21 11 36
v 23 11 36
v 15 16 36
v 17 16 36
v 21 16 36
v 23 16 36
v 0 9 38
v 5 9 38
v 15 9 38
v 25 9 38
v 35 9 38
v 40 9 38
v 0 11 38
v 5 11 38
v 15 11 38
v 25 11 38
v 35 11 38
v 40 11 38
v 15 5 49
v 17 5 49
v 21 5 49
v 23 5 49
v 15 15 49
v 17 15 49
v 21 15 49
v 23 15 49
v 15 5 37
v 17 5 37
v 21 5 37
v 23 5 37
v 15 15 37
v 17 15 37
v 21 15 37
v 23 15 37
v 0 9 40
v 5 9 40
v 15 9 40
v 25 9 40
v 35 9 40
v 40 9 40
v 0 11 40
v 5 11 40
v 15 11 40
v 25 11 40
v 35 11 40
v 40 11 40
v 15 4 50
v 17 4 50
v 21 4 50
v 23 4 50
v 15 16 50
v 17 16 50
v 21 16 50
v 23 16 50

# faces
f 3/3/1 2/3/1 1/3/1
f 4/3/1 2/3/1 3/3/1
f 8/2/1 6/2/1 5/2/1
f 9/2/1 6/2/1 8/2/1
f 11/3/1 8/3/1 7/3/1
f 11/3/1 10/3/1 9/3/1
f 11/3/1 9/3/1 8/3/1
f 12/3/1 10/3/1 11/3/1
f 13/3/1 11/3/1 7/3/1
f 14/3/1 10/3/1 12/3/1
f 15/3/1 13/3/1 7/3/1
f 15/3/1 14/3/1 13/3/1
f 16/3/1 10/3/1 14/3/1
f 16/3/1 14/3/1 15/3/1
f 21/3/1 18/3/1 17/3/1
f 22/2/1 19/2/1 18/2/1
f 22/3/1 18/3/1 21/3/1
f 23/2/1 19/2/1 22/2/1
f 25/3/1 21/3/1 20/3/1
f 25/3/1 24/3/1 23/3/1
f 25/3/1 23/3/1 22/3/1
f 25/3/1 22/3/1 21/3/1
f 26/3/1 24/3/1 25/3/1
f 27/3/1 25/3/1 20/3/1
f 28/3/1 24/3/1 26/3/1
f 29/3/1 27/3/1 20/3/1
f 29/3/1 28/3/1 27/3/1
f 30/3/1 24/3/1 28/3/1
f 30/3/1 28/3/1 29/3/1
f 31/2/2 32/2/2 34/2/2
f 34/2/2 32/2/2 35/2/2
f 33/3/2 34/3/2 37/3/2
f 35/3/2 36/3/2 37/3/2
f 34/3/2 35/3/2 37/3/2
f 37/3/2 36/3/2 38/3/2
f 33/3/2 37/3/2 39/3/2
f 38/3/2 36/3/2 40/3/2
f 33/3/2 39/3/2 41/3/2
f 39/3/2 40/3/2 41/3/2
f 40/3/2 36/3/2 42/3/2
f 41/3/2 40/3/2 42/3/2
f 43/2/2 44/2/2 46/2/2
f 46/2/2 44/2/2 47/2/2
f 45/3/2 46/3/2 49/3/2
f 47/3/2 48/3/2 49/3/2
f 46/3/2 47/3/2 49/3/2
f 49/3/2 48/3/2 50/3/2
f 45/3/2 49/3/2 51/3/2
f 50/3/2 48/3/2 52/3/2
f 45/3/2 51/3/2 53/3/2
f 51/3/2 52/3/2 53/3/2
f 52/3/2 48/3/2 54/3/2
f 53/3/2 52/3/2 54/3/2
f 55/3/2 56/3/2 57/3/2
f 57/3/2 56/3/2 58/3/2
f 61/3/3 60/3/3 59/3/3
f 62/3/3 60/3/3 61/3/3
f 65/3/3 64/3/3 63/3/3
f 66/3/3 64/3/3 65/3/3
f 69/3/3 68/3/3 67/3/3
f 70/3/3 68/3/3 69/3/3
f 73/1/3 70/1/3 69/1/3
f 74/1/3 70/1/3 73/1/3
f 75/2/3 72/2/3 71/2/3
f 76/2/3 72/2/3 75/2/3
f 79/3/3 78/3/3 77/3/3
f 80/3/3 78/3/3 79/3/3
f 81/2/3 80/2/3 79/2/3
f 82/2/3 80/2/3 81/2/3
f 83/3/3 74/3/3 73/3/3
f 84/3/3 74/3/3 83/3/3
f 85/1/3 84/1/3 83/1/3
f 86/1/3 84/1/3 85/1/3
f 87/3/3 86/3/3 85/3/3
f 88/3/3 86/3/3 87/3/3
f 91/3/3 90/3/3 89/3/3
f 92/3/3 90/3/3 91/3/3
f 95/3/3 94/3/3 93/3/3
f 96/3/3 94/3/3 95/3/3
f 97/3/4 98/3/4 99/3/4
f 99/3/4 98/3/4 100/3/4
f 101/3/4 102/3/4 103/3/4
f 103/3/4 102/3/4 104/3/4
f 105/3/4 106/3/4 107/3/4
f 107/3/4 106/3/4 108/3/4
f 107/1/4 108/1/4 111/1/4
f 111/1/4 108/1/4 112/1/4
f 109/2/4 110/2/4 113/2/4
f 113/2/4 110/2/4 114/2/4
f 115/2/4 116/2/4 117/2/4
f 117/2/4 116/2/4 118/2/4
f 111/3/4 112/3/4 119/3/4
f 119/3/4 112/3/4 120/3/4
f 119/1/4 120/1/4 121/1/4
f 121/1/4 120/1/4 122/1/4
f 121/3/4 122/3/4 123/3/4
f 123/3/4 122/3/4 124/3/4
f 125/3/4 126/3/4 127/3/4
f 127/3/4 126/3/4 128/3/4
f 129/3/4 130/3/4 131/3/4
f 131/3/4 130/3/4 132/3/4
f 138/3/5 136/3/5 135/3/5
f 139/2/5 137/2/5 136/2/5
f 139/3/5 136/3/5 138/3/5
f 140/2/5 134/2/5 133/2/5
f 141/2/5 134/2/5 140/2/5
f 142/2/5 139/2/5 138/2/5
f 143/2/5 137/2/5 139/2/5
f 143/2/5 139/2/5 142/2/5
f 148/3/5 145/3/5 144/3/5
f 149/3/5 145/3/5 148/3/5
f 150/3/5 147/3/5 146/3/5
f 151/3/5 147/3/5 150/3/5
f 152/3/5 147/3/5 151/3/5
f 157/3/5 154/3/5 153/3/5
f 158/3/5 154/3/5 157/3/5
f 159/3/5 156/3/5 155/3/5
f 160/3/5 156/3/5 159/3/5
f 167/3/5 162/3/5 161/3/5
f 168/1/5 163/1/5 162/1/5
f 168/3/5 162/3/5 167/3/5
f 169/3/5 164/3/5 163/3/5
f 169/1/5 163/1/5 168/1/5
f 170/1/5 165/1/5 164/1/5
f 170/3/5 164/3/5 169/3/5
f 171/3/5 166/3/5 165/3/5
f 171/1/5 165/1/5 170/1/5
f 172/3/5 166/3/5 171/3/5
f 177/3/5 174/3/5 173/3/5
f 178/3/5 174/3/5 177/3/5
f 179/3/5 176/3/5 175/3/5
f 180/3/5 176/3/5 179/3/5
f 181/3/6 182/3/6 185/3/6
f 185/3/6 182/3/6 186/3/6
f 183/3/6 184/3/6 187/3/6
f 187/3/6 184/3/6 188/3/6
f 189/3/6 190/3/6 195/3/6
f 190/1/6 191/1/6 196/1/6
f 195/3/6 190/3/6 196/3/6
f 191/3/6 192/3/6 197/3/6
f 196/1/6 191/1/6 197/1/6
f 192/1/6 193/1/6 198/1/6
f 197/3/6 192/3/6 198/3/6
f 193/3/6 194/3/6 199/3/6
f 198/1/6 193/1/6 199/1/6
f 199/3/6 194/3/6 200/3/6
f 201/3/6 202/3/6 205/3/6
f 205/3/6 202/3/6 206/3/6
f 203/3/6 204/3/6 207/3/6
f 207/3/6 204/3/6 208/3/6
