# MagicaVoxel @ ephtracy

# material
mtllib research base destroyed.mtl
usemtl palette

# normals
vn -1 0 0
vn 1 0 0
vn 0 -1 0
vn 0 1 0
vn 0 0 -1
vn 0 0 1

# texcoords
vt 0.990234 0.5

# verts
v 2 6 50
v 2 22 50
v 2 10 58
v 2 15 58
v 2 15 61
v 2 18 61
v 2 6 64
v 2 10 64
v 2 18 64
v 2 22 64
v 3 26 50
v 3 46 50
v 3 35 52
v 3 43 52
v 3 26 56
v 3 35 56
v 3 43 56
v 3 46 56
v 7 21 50
v 7 26 50
v 7 45 50
v 7 49 50
v 7 45 53
v 7 49 53
v 7 26 56
v 7 21 58
v 7 26 58
v 8 32 50
v 8 41 50
v 8 35 53
v 8 38 53
v 8 32 56
v 8 35 56
v 8 38 56
v 8 41 56
v 10 8 50
v 10 14 50
v 10 8 60
v 10 12 60
v 10 12 62
v 10 14 62
v 12 21 50
v 12 26 50
v 12 21 55
v 12 26 55
v 15 44 50
v 15 46 50
v 15 44 53
v 15 46 53
v 16 12 50
v 16 22 50
v 16 41 50
v 16 44 50
v 16 16 53
v 16 20 53
v 16 44 53
v 16 6 55
v 16 12 55
v 16 14 55
v 16 16 55
v 16 41 55
v 16 44 55
v 16 10 57
v 16 14 57
v 16 20 57
v 16 22 57
v 16 6 60
v 16 10 60
v 17 27 50
v 17 32 50
v 17 32 51
v 17 28 53
v 17 30 53
v 17 27 56
v 17 28 56
v 17 30 56
v 17 32 56
v 4 8 50
v 4 17 50
v 4 21 50
v 4 22 50
v 4 27 50
v 4 45 50
v 4 35 52
v 4 43 52
v 4 27 56
v 4 35 56
v 4 43 56
v 4 45 56
v 4 10 58
v 4 15 58
v 4 17 58
v 4 21 58
v 4 15 61
v 4 18 61
v 4 8 64
v 4 10 64
v 4 18 64
v 4 22 64
v 5 45 50
v 5 46 50
v 5 45 56
v 5 46 56
v 6 6 60
v 6 8 60
v 6 6 64
v 6 8 64
v 8 17 50
v 8 26 50
v 8 46 51
v 8 49 51
v 8 46 53
v 8 49 53
v 8 26 56
v 8 17 58
v 8 26 58
v 9 32 51
v 9 40 51
v 9 35 53
v 9 38 53
v 9 32 56
v 9 35 56
v 9 38 56
v 9 40 56
v 11 12 50
v 11 14 50
v 11 6 55
v 11 12 55
v 11 6 60
v 11 12 60
v 11 12 62
v 11 14 62
v 13 21 50
v 13 26 50
v 13 45 50
v 13 49 50
v 13 46 51
v 13 49 51
v 13 45 53
v 13 46 53
v 13 21 55
v 13 26 55
v 17 6 50
v 17 22 50
v 17 16 53
v 17 20 53
v 17 14 55
v 17 16 55
v 17 10 57
v 17 14 57
v 17 20 57
v 17 22 57
v 17 6 60
v 17 10 60
v 18 26 50
v 18 32 50
v 18 40 50
v 18 46 50
v 18 32 51
v 18 40 51
v 18 28 53
v 18 30 53
v 18 44 53
v 18 46 53
v 18 41 55
v 18 44 55
v 18 26 56
v 18 28 56
v 18 30 56
v 18 32 56
v 18 40 56
v 18 41 56
v 20 32 50
v 20 40 50
v 20 32 51
v 20 40 51
v 2 6 50
v 2 6 64
v 6 6 60
v 6 6 64
v 11 6 55
v 11 6 60
v 16 6 55
v 16 6 60
v 17 6 50
v 17 6 60
v 10 12 60
v 10 12 62
v 11 12 60
v 11 12 62
v 2 15 58
v 2 15 61
v 4 15 58
v 4 15 61
v 4 17 50
v 4 17 58
v 8 17 50
v 8 17 58
v 2 18 61
v 2 18 64
v 4 18 61
v 4 18 64
v 16 20 53
v 16 20 57
v 17 20 53
v 17 20 57
v 12 21 50
v 12 21 55
v 13 21 50
v 13 21 55
v 3 26 50
v 3 26 56
v 7 26 50
v 7 26 56
v 8 26 50
v 8 26 56
v 12 26 50
v 12 26 55
v 13 26 50
v 13 26 55
v 18 26 50
v 18 26 56
v 17 30 53
v 17 30 56
v 18 30 53
v 18 30 56
v 8 32 50
v 8 32 56
v 9 32 51
v 9 32 56
v 17 32 50
v 17 32 51
v 18 32 50
v 18 32 51
v 20 32 50
v 20 32 51
v 8 38 53
v 8 38 56
v 9 38 53
v 9 38 56
v 9 40 51
v 9 40 56
v 18 40 51
v 18 40 56
v 3 43 52
v 3 43 56
v 4 43 52
v 4 43 56
v 15 44 50
v 15 44 53
v 16 44 50
v 16 44 53
v 4 45 50
v 4 45 56
v 5 45 50
v 5 45 56
v 7 45 50
v 7 45 53
v 13 45 50
v 13 45 53
v 4 8 50
v 4 8 64
v 6 8 60
v 6 8 64
v 10 8 50
v 10 8 60
v 2 10 58
v 2 10 64
v 4 10 58
v 4 10 64
v 16 10 57
v 16 10 60
v 17 10 57
v 17 10 60
v 11 12 50
v 11 12 55
v 16 12 50
v 16 12 55
v 10 14 50
v 10 14 62
v 11 14 50
v 11 14 62
v 16 14 55
v 16 14 57
v 17 14 55
v 17 14 57
v 16 16 53
v 16 16 55
v 17 16 53
v 17 16 55
v 4 21 50
v 4 21 58
v 7 21 50
v 7 21 58
v 2 22 50
v 2 22 64
v 4 22 50
v 4 22 64
v 16 22 50
v 16 22 57
v 17 22 50
v 17 22 57
v 7 26 56
v 7 26 58
v 8 26 56
v 8 26 58
v 4 27 50
v 4 27 56
v 17 27 50
v 17 27 56
v 17 28 53
v 17 28 56
v 18 28 53
v 18 28 56
v 17 32 51
v 17 32 56
v 18 32 51
v 18 32 56
v 3 35 52
v 3 35 56
v 4 35 52
v 4 35 56
v 8 35 53
v 8 35 56
v 9 35 53
v 9 35 56
v 18 40 50
v 18 40 51
v 20 40 50
v 20 40 51
v 8 41 50
v 8 41 56
v 16 41 50
v 16 41 55
v 18 41 55
v 18 41 56
v 16 44 53
v 16 44 55
v 18 44 53
v 18 44 55
v 3 46 50
v 3 46 56
v 5 46 50
v 5 46 56
v 8 46 51
v 8 46 53
v 13 46 51
v 13 46 53
v 15 46 50
v 15 46 53
v 18 46 50
v 18 46 53
v 7 49 50
v 7 49 53
v 8 49 51
v 8 49 53
v 13 49 50
v 13 49 51
v 2 6 50
v 17 6 50
v 4 8 50
v 10 8 50
v 11 12 50
v 16 12 50
v 10 14 50
v 11 14 50
v 4 17 50
v 8 17 50
v 4 21 50
v 7 21 50
v 12 21 50
v 13 21 50
v 2 22 50
v 4 22 50
v 16 22 50
v 17 22 50
v 3 26 50
v 7 26 50
v 8 26 50
v 12 26 50
v 13 26 50
v 18 26 50
v 4 27 50
v 17 27 50
v 8 32 50
v 17 32 50
v 18 32 50
v 20 32 50
v 18 40 50
v 20 40 50
v 8 41 50
v 16 41 50
v 15 44 50
v 16 44 50
v 4 45 50
v 5 45 50
v 7 45 50
v 13 45 50
v 3 46 50
v 5 46 50
v 15 46 50
v 18 46 50
v 7 49 50
v 13 49 50
v 9 32 51
v 17 32 51
v 18 32 51
v 20 32 51
v 9 40 51
v 18 40 51
v 20 40 51
v 8 46 51
v 13 46 51
v 8 49 51
v 13 49 51
v 3 35 52
v 4 35 52
v 3 43 52
v 4 43 52
v 16 16 53
v 17 16 53
v 16 20 53
v 17 20 53
v 17 28 53
v 18 28 53
v 17 30 53
v 18 30 53
v 8 35 53
v 9 35 53
v 8 38 53
v 9 38 53
v 15 44 53
v 16 44 53
v 18 44 53
v 7 45 53
v 13 45 53
v 8 46 53
v 13 46 53
v 15 46 53
v 18 46 53
v 7 49 53
v 8 49 53
v 11 6 55
v 16 6 55
v 11 12 55
v 16 12 55
v 16 14 55
v 17 14 55
v 16 16 55
v 17 16 55
v 12 21 55
v 13 21 55
v 12 26 55
v 13 26 55
v 16 41 55
v 18 41 55
v 16 44 55
v 18 44 55
v 3 26 56
v 7 26 56
v 8 26 56
v 18 26 56
v 4 27 56
v 17 27 56
v 17 28 56
v 18 28 56
v 17 30 56
v 18 30 56
v 8 32 56
v 9 32 56
v 17 32 56
v 18 32 56
v 3 35 56
v 4 35 56
v 8 35 56
v 9 35 56
v 8 38 56
v 9 38 56
v 9 40 56
v 18 40 56
v 8 41 56
v 18 41 56
v 3 43 56
v 4 43 56
v 4 45 56
v 5 45 56
v 3 46 56
v 5 46 56
v 16 10 57
v 17 10 57
v 16 14 57
v 17 14 57
v 16 20 57
v 17 20 57
v 16 22 57
v 17 22 57
v 2 10 58
v 4 10 58
v 2 15 58
v 4 15 58
v 4 17 58
v 8 17 58
v 4 21 58
v 7 21 58
v 7 26 58
v 8 26 58
v 6 6 60
v 11 6 60
v 16 6 60
v 17 6 60
v 6 8 60
v 10 8 60
v 16 10 60
v 17 10 60
v 10 12 60
v 11 12 60
v 2 15 61
v 4 15 61
v 2 18 61
v 4 18 61
v 10 12 62
v 11 12 62
v 10 14 62
v 11 14 62
v 2 6 64
v 6 6 64
v 4 8 64
v 6 8 64
v 2 10 64
v 4 10 64
v 2 18 64
v 4 18 64
v 2 22 64
v 4 22 64

# faces
f 3/1/1 2/1/1 1/1/1
f 4/1/1 2/1/1 3/1/1
f 5/1/1 2/1/1 4/1/1
f 6/1/1 2/1/1 5/1/1
f 7/1/1 3/1/1 1/1/1
f 8/1/1 3/1/1 7/1/1
f 9/1/1 2/1/1 6/1/1
f 10/1/1 2/1/1 9/1/1
f 13/1/1 12/1/1 11/1/1
f 14/1/1 12/1/1 13/1/1
f 15/1/1 13/1/1 11/1/1
f 16/1/1 13/1/1 15/1/1
f 17/1/1 12/1/1 14/1/1
f 18/1/1 12/1/1 17/1/1
f 23/1/1 22/1/1 21/1/1
f 24/1/1 22/1/1 23/1/1
f 25/1/1 20/1/1 19/1/1
f 26/1/1 25/1/1 19/1/1
f 27/1/1 25/1/1 26/1/1
f 30/1/1 29/1/1 28/1/1
f 31/1/1 29/1/1 30/1/1
f 32/1/1 30/1/1 28/1/1
f 33/1/1 30/1/1 32/1/1
f 34/1/1 29/1/1 31/1/1
f 35/1/1 29/1/1 34/1/1
f 38/1/1 37/1/1 36/1/1
f 39/1/1 37/1/1 38/1/1
f 40/1/1 37/1/1 39/1/1
f 41/1/1 37/1/1 40/1/1
f 44/1/1 43/1/1 42/1/1
f 45/1/1 43/1/1 44/1/1
f 48/1/1 47/1/1 46/1/1
f 49/1/1 47/1/1 48/1/1
f 54/1/1 51/1/1 50/1/1
f 55/1/1 51/1/1 54/1/1
f 56/1/1 53/1/1 52/1/1
f 58/1/1 54/1/1 50/1/1
f 59/1/1 54/1/1 58/1/1
f 60/1/1 54/1/1 59/1/1
f 61/1/1 56/1/1 52/1/1
f 62/1/1 56/1/1 61/1/1
f 63/1/1 58/1/1 57/1/1
f 63/1/1 59/1/1 58/1/1
f 64/1/1 59/1/1 63/1/1
f 65/1/1 51/1/1 55/1/1
f 66/1/1 51/1/1 65/1/1
f 67/1/1 63/1/1 57/1/1
f 68/1/1 63/1/1 67/1/1
f 71/1/1 70/1/1 69/1/1
f 72/1/1 71/1/1 69/1/1
f 73/1/1 71/1/1 72/1/1
f 74/1/1 72/1/1 69/1/1
f 75/1/1 72/1/1 74/1/1
f 76/1/1 71/1/1 73/1/1
f 77/1/1 71/1/1 76/1/1
f 82/1/2 83/1/2 84/1/2
f 84/1/2 83/1/2 85/1/2
f 82/1/2 84/1/2 86/1/2
f 86/1/2 84/1/2 87/1/2
f 85/1/2 83/1/2 88/1/2
f 88/1/2 83/1/2 89/1/2
f 78/1/2 79/1/2 90/1/2
f 90/1/2 79/1/2 91/1/2
f 91/1/2 79/1/2 92/1/2
f 80/1/2 81/1/2 93/1/2
f 91/1/2 92/1/2 94/1/2
f 92/1/2 93/1/2 94/1/2
f 94/1/2 93/1/2 95/1/2
f 78/1/2 90/1/2 96/1/2
f 96/1/2 90/1/2 97/1/2
f 95/1/2 93/1/2 98/1/2
f 93/1/2 81/1/2 99/1/2
f 98/1/2 93/1/2 99/1/2
f 100/1/2 101/1/2 102/1/2
f 102/1/2 101/1/2 103/1/2
f 104/1/2 105/1/2 106/1/2
f 106/1/2 105/1/2 107/1/2
f 110/1/2 111/1/2 112/1/2
f 112/1/2 111/1/2 113/1/2
f 108/1/2 109/1/2 114/1/2
f 108/1/2 114/1/2 115/1/2
f 115/1/2 114/1/2 116/1/2
f 117/1/2 118/1/2 119/1/2
f 119/1/2 118/1/2 120/1/2
f 117/1/2 119/1/2 121/1/2
f 121/1/2 119/1/2 122/1/2
f 120/1/2 118/1/2 123/1/2
f 123/1/2 118/1/2 124/1/2
f 125/1/2 126/1/2 128/1/2
f 127/1/2 128/1/2 129/1/2
f 128/1/2 126/1/2 130/1/2
f 129/1/2 128/1/2 130/1/2
f 130/1/2 126/1/2 131/1/2
f 131/1/2 126/1/2 132/1/2
f 135/1/2 136/1/2 137/1/2
f 137/1/2 136/1/2 138/1/2
f 135/1/2 137/1/2 139/1/2
f 139/1/2 137/1/2 140/1/2
f 133/1/2 134/1/2 141/1/2
f 141/1/2 134/1/2 142/1/2
f 143/1/2 144/1/2 145/1/2
f 145/1/2 144/1/2 146/1/2
f 143/1/2 145/1/2 147/1/2
f 147/1/2 145/1/2 148/1/2
f 143/1/2 147/1/2 149/1/2
f 149/1/2 147/1/2 150/1/2
f 146/1/2 144/1/2 151/1/2
f 151/1/2 144/1/2 152/1/2
f 143/1/2 149/1/2 153/1/2
f 153/1/2 149/1/2 154/1/2
f 155/1/2 156/1/2 159/1/2
f 157/1/2 158/1/2 160/1/2
f 155/1/2 159/1/2 161/1/2
f 161/1/2 159/1/2 162/1/2
f 160/1/2 158/1/2 163/1/2
f 163/1/2 158/1/2 164/1/2
f 160/1/2 163/1/2 165/1/2
f 165/1/2 163/1/2 166/1/2
f 155/1/2 161/1/2 167/1/2
f 167/1/2 161/1/2 168/1/2
f 162/1/2 159/1/2 169/1/2
f 169/1/2 159/1/2 170/1/2
f 160/1/2 165/1/2 171/1/2
f 171/1/2 165/1/2 172/1/2
f 173/1/2 174/1/2 175/1/2
f 175/1/2 174/1/2 176/1/2
f 179/1/3 178/1/3 177/1/3
f 180/1/3 178/1/3 179/1/3
f 181/1/3 179/1/3 177/1/3
f 182/1/3 179/1/3 181/1/3
f 183/1/3 181/1/3 177/1/3
f 185/1/3 183/1/3 177/1/3
f 185/1/3 184/1/3 183/1/3
f 186/1/3 184/1/3 185/1/3
f 189/1/3 188/1/3 187/1/3
f 190/1/3 188/1/3 189/1/3
f 193/1/3 192/1/3 191/1/3
f 194/1/3 192/1/3 193/1/3
f 197/1/3 196/1/3 195/1/3
f 198/1/3 196/1/3 197/1/3
f 201/1/3 200/1/3 199/1/3
f 202/1/3 200/1/3 201/1/3
f 205/1/3 204/1/3 203/1/3
f 206/1/3 204/1/3 205/1/3
f 209/1/3 208/1/3 207/1/3
f 210/1/3 208/1/3 209/1/3
f 213/1/3 212/1/3 211/1/3
f 214/1/3 212/1/3 213/1/3
f 217/1/3 216/1/3 215/1/3
f 218/1/3 216/1/3 217/1/3
f 220/1/3 216/1/3 218/1/3
f 221/1/3 220/1/3 219/1/3
f 222/1/3 216/1/3 220/1/3
f 222/1/3 220/1/3 221/1/3
f 225/1/3 224/1/3 223/1/3
f 226/1/3 224/1/3 225/1/3
f 229/1/3 228/1/3 227/1/3
f 230/1/3 228/1/3 229/1/3
f 231/1/3 229/1/3 227/1/3
f 232/1/3 229/1/3 231/1/3
f 235/1/3 234/1/3 233/1/3
f 236/1/3 234/1/3 235/1/3
f 239/1/3 238/1/3 237/1/3
f 240/1/3 238/1/3 239/1/3
f 243/1/3 242/1/3 241/1/3
f 244/1/3 242/1/3 243/1/3
f 247/1/3 246/1/3 245/1/3
f 248/1/3 246/1/3 247/1/3
f 251/1/3 250/1/3 249/1/3
f 252/1/3 250/1/3 251/1/3
f 255/1/3 254/1/3 253/1/3
f 256/1/3 254/1/3 255/1/3
f 259/1/3 258/1/3 257/1/3
f 260/1/3 258/1/3 259/1/3
f 261/1/4 262/1/4 263/1/4
f 263/1/4 262/1/4 264/1/4
f 261/1/4 263/1/4 265/1/4
f 265/1/4 263/1/4 266/1/4
f 267/1/4 268/1/4 269/1/4
f 269/1/4 268/1/4 270/1/4
f 271/1/4 272/1/4 273/1/4
f 273/1/4 272/1/4 274/1/4
f 275/1/4 276/1/4 277/1/4
f 277/1/4 276/1/4 278/1/4
f 279/1/4 280/1/4 281/1/4
f 281/1/4 280/1/4 282/1/4
f 283/1/4 284/1/4 285/1/4
f 285/1/4 284/1/4 286/1/4
f 287/1/4 288/1/4 289/1/4
f 289/1/4 288/1/4 290/1/4
f 291/1/4 292/1/4 293/1/4
f 293/1/4 292/1/4 294/1/4
f 295/1/4 296/1/4 297/1/4
f 297/1/4 296/1/4 298/1/4
f 299/1/4 300/1/4 301/1/4
f 301/1/4 300/1/4 302/1/4
f 303/1/4 304/1/4 305/1/4
f 305/1/4 304/1/4 306/1/4
f 307/1/4 308/1/4 309/1/4
f 309/1/4 308/1/4 310/1/4
f 311/1/4 312/1/4 313/1/4
f 313/1/4 312/1/4 314/1/4
f 315/1/4 316/1/4 317/1/4
f 317/1/4 316/1/4 318/1/4
f 319/1/4 320/1/4 321/1/4
f 321/1/4 320/1/4 322/1/4
f 323/1/4 324/1/4 325/1/4
f 325/1/4 324/1/4 326/1/4
f 327/1/4 328/1/4 329/1/4
f 329/1/4 328/1/4 330/1/4
f 331/1/4 332/1/4 333/1/4
f 333/1/4 332/1/4 334/1/4
f 334/1/4 332/1/4 335/1/4
f 335/1/4 332/1/4 336/1/4
f 337/1/4 338/1/4 339/1/4
f 339/1/4 338/1/4 340/1/4
f 341/1/4 342/1/4 343/1/4
f 343/1/4 342/1/4 344/1/4
f 345/1/4 346/1/4 347/1/4
f 347/1/4 346/1/4 348/1/4
f 349/1/4 350/1/4 351/1/4
f 351/1/4 350/1/4 352/1/4
f 353/1/4 354/1/4 355/1/4
f 355/1/4 354/1/4 356/1/4
f 353/1/4 355/1/4 357/1/4
f 357/1/4 355/1/4 358/1/4
f 361/1/5 360/1/5 359/1/5
f 362/1/5 360/1/5 361/1/5
f 363/1/5 360/1/5 362/1/5
f 364/1/5 360/1/5 363/1/5
f 365/1/5 363/1/5 362/1/5
f 366/1/5 363/1/5 365/1/5
f 367/1/5 361/1/5 359/1/5
f 369/1/5 367/1/5 359/1/5
f 369/1/5 368/1/5 367/1/5
f 370/1/5 368/1/5 369/1/5
f 373/1/5 369/1/5 359/1/5
f 374/1/5 369/1/5 373/1/5
f 375/1/5 360/1/5 364/1/5
f 376/1/5 360/1/5 375/1/5
f 378/1/5 368/1/5 370/1/5
f 379/1/5 368/1/5 378/1/5
f 380/1/5 372/1/5 371/1/5
f 381/1/5 372/1/5 380/1/5
f 383/1/5 381/1/5 380/1/5
f 383/1/5 382/1/5 381/1/5
f 383/1/5 380/1/5 379/1/5
f 383/1/5 379/1/5 378/1/5
f 383/1/5 378/1/5 377/1/5
f 384/1/5 382/1/5 383/1/5
f 386/1/5 382/1/5 384/1/5
f 387/1/5 382/1/5 386/1/5
f 389/1/5 386/1/5 385/1/5
f 389/1/5 388/1/5 387/1/5
f 389/1/5 387/1/5 386/1/5
f 390/1/5 388/1/5 389/1/5
f 391/1/5 389/1/5 385/1/5
f 392/1/5 389/1/5 391/1/5
f 394/1/5 389/1/5 392/1/5
f 395/1/5 383/1/5 377/1/5
f 399/1/5 395/1/5 377/1/5
f 399/1/5 396/1/5 395/1/5
f 400/1/5 396/1/5 399/1/5
f 401/1/5 394/1/5 393/1/5
f 402/1/5 389/1/5 394/1/5
f 402/1/5 394/1/5 401/1/5
f 403/1/5 398/1/5 397/1/5
f 404/1/5 398/1/5 403/1/5
f 405/1/6 406/1/6 409/1/6
f 407/1/6 408/1/6 409/1/6
f 406/1/6 407/1/6 409/1/6
f 409/1/6 408/1/6 410/1/6
f 410/1/6 408/1/6 411/1/6
f 412/1/6 413/1/6 414/1/6
f 414/1/6 413/1/6 415/1/6
f 416/1/6 417/1/6 418/1/6
f 418/1/6 417/1/6 419/1/6
f 420/1/6 421/1/6 422/1/6
f 422/1/6 421/1/6 423/1/6
f 424/1/6 425/1/6 426/1/6
f 426/1/6 425/1/6 427/1/6
f 428/1/6 429/1/6 430/1/6
f 430/1/6 429/1/6 431/1/6
f 435/1/6 436/1/6 437/1/6
f 437/1/6 436/1/6 438/1/6
f 432/1/6 433/1/6 439/1/6
f 433/1/6 434/1/6 439/1/6
f 439/1/6 434/1/6 440/1/6
f 435/1/6 437/1/6 441/1/6
f 441/1/6 437/1/6 442/1/6
f 443/1/6 444/1/6 445/1/6
f 445/1/6 444/1/6 446/1/6
f 447/1/6 448/1/6 449/1/6
f 449/1/6 448/1/6 450/1/6
f 451/1/6 452/1/6 453/1/6
f 453/1/6 452/1/6 454/1/6
f 455/1/6 456/1/6 457/1/6
f 457/1/6 456/1/6 458/1/6
f 459/1/6 460/1/6 463/1/6
f 461/1/6 462/1/6 463/1/6
f 460/1/6 461/1/6 463/1/6
f 463/1/6 462/1/6 464/1/6
f 464/1/6 462/1/6 465/1/6
f 465/1/6 462/1/6 466/1/6
f 467/1/6 468/1/6 471/1/6
f 471/1/6 468/1/6 472/1/6
f 459/1/6 463/1/6 473/1/6
f 473/1/6 463/1/6 474/1/6
f 469/1/6 470/1/6 475/1/6
f 475/1/6 470/1/6 476/1/6
f 477/1/6 478/1/6 479/1/6
f 477/1/6 479/1/6 481/1/6
f 479/1/6 480/1/6 481/1/6
f 481/1/6 480/1/6 482/1/6
f 483/1/6 484/1/6 485/1/6
f 483/1/6 485/1/6 487/1/6
f 485/1/6 486/1/6 487/1/6
f 487/1/6 486/1/6 488/1/6
f 489/1/6 490/1/6 491/1/6
f 491/1/6 490/1/6 492/1/6
f 493/1/6 494/1/6 495/1/6
f 495/1/6 494/1/6 496/1/6
f 497/1/6 498/1/6 499/1/6
f 499/1/6 498/1/6 500/1/6
f 501/1/6 502/1/6 503/1/6
f 503/1/6 502/1/6 504/1/6
f 504/1/6 502/1/6 505/1/6
f 505/1/6 502/1/6 506/1/6
f 507/1/6 508/1/6 511/1/6
f 511/1/6 508/1/6 512/1/6
f 509/1/6 510/1/6 513/1/6
f 513/1/6 510/1/6 514/1/6
f 512/1/6 508/1/6 515/1/6
f 515/1/6 508/1/6 516/1/6
f 517/1/6 518/1/6 519/1/6
f 519/1/6 518/1/6 520/1/6
f 521/1/6 522/1/6 523/1/6
f 523/1/6 522/1/6 524/1/6
f 525/1/6 526/1/6 527/1/6
f 527/1/6 526/1/6 528/1/6
f 525/1/6 527/1/6 529/1/6
f 529/1/6 527/1/6 530/1/6
f 531/1/6 532/1/6 533/1/6
f 533/1/6 532/1/6 534/1/6
