# MagicaVoxel @ ephtracy

# material
mtllib skimmer.mtl
usemtl palette

# normals
vn -1 0 0
vn 1 0 0
vn 0 -1 0
vn 0 1 0
vn 0 0 -1
vn 0 0 1

# texcoords
vt 0.00195312 0.5
vt 0.228516 0.5
vt 0.255859 0.5
vt 0.318359 0.5
vt 0.330078 0.5
vt 0.728516 0.5
vt 0.986328 0.5

# verts
v 0 2 20
v 0 8 20
v 0 2 22
v 0 8 22
v 4 2 16
v 4 6 16
v 4 8 16
v 4 10 16
v 4 16 16
v 4 2 20
v 4 6 20
v 4 8 20
v 4 2 22
v 4 6 22
v 4 8 22
v 4 2 28
v 4 6 28
v 4 8 28
v 4 10 28
v 4 16 28
v 5 0 17
v 5 2 17
v 5 0 22
v 5 2 22
v 5 0 23
v 5 2 23
v 5 0 27
v 5 2 27
v 6 16 18
v 6 21 18
v 6 16 27
v 6 21 27
v 10 0 18
v 10 7 18
v 10 20 19
v 10 21 19
v 10 0 21
v 10 7 21
v 10 0 24
v 10 7 24
v 10 0 26
v 10 7 26
v 10 20 26
v 10 21 26
v 14 8 18
v 14 10 18
v 14 13 18
v 14 34 18
v 14 36 18
v 14 38 18
v 14 42 18
v 14 10 25
v 14 13 25
v 14 8 26
v 14 34 26
v 14 36 26
v 14 38 26
v 14 42 26
v 16 12 26
v 16 19 26
v 16 12 28
v 16 19 28
v 18 41 21
v 18 43 21
v 18 41 23
v 18 43 23
v 18 19 26
v 18 25 26
v 18 14 28
v 18 19 28
v 18 14 30
v 18 25 30
v 21 8 20
v 21 9 20
v 21 8 24
v 21 9 24
v 28 8 20
v 28 9 20
v 28 41 20
v 28 42 20
v 28 8 24
v 28 9 24
v 28 41 24
v 28 42 24
v 32 2 16
v 32 6 16
v 32 8 16
v 32 10 16
v 32 16 16
v 32 10 18
v 32 13 18
v 32 10 25
v 32 13 25
v 32 2 28
v 32 6 28
v 32 8 28
v 32 10 28
v 32 16 28
v 33 0 17
v 33 2 17
v 33 16 18
v 33 21 18
v 33 0 22
v 33 2 22
v 33 0 23
v 33 2 23
v 33 0 27
v 33 2 27
v 33 16 27
v 33 21 27
v 37 20 19
v 37 21 19
v 37 20 26
v 37 21 26
v 38 0 18
v 38 7 18
v 38 0 21
v 38 7 21
v 38 0 24
v 38 7 24
v 38 0 26
v 38 7 26
v 6 0 18
v 6 7 18
v 6 0 21
v 6 7 21
v 6 0 24
v 6 7 24
v 6 0 26
v 6 7 26
v 7 20 19
v 7 21 19
v 7 20 26
v 7 21 26
v 11 0 17
v 11 2 17
v 11 16 18
v 11 21 18
v 11 0 22
v 11 2 22
v 11 0 23
v 11 2 23
v 11 0 27
v 11 2 27
v 11 16 27
v 11 21 27
v 12 2 16
v 12 6 16
v 12 8 16
v 12 10 16
v 12 16 16
v 12 10 18
v 12 13 18
v 12 10 25
v 12 13 25
v 12 2 28
v 12 6 28
v 12 8 28
v 12 10 28
v 12 16 28
v 16 8 20
v 16 9 20
v 16 41 20
v 16 42 20
v 16 8 24
v 16 9 24
v 16 41 24
v 16 42 24
v 23 8 20
v 23 9 20
v 23 8 24
v 23 9 24
v 26 41 21
v 26 43 21
v 26 41 23
v 26 43 23
v 26 19 26
v 26 25 26
v 26 14 28
v 26 19 28
v 26 14 30
v 26 25 30
v 28 12 26
v 28 19 26
v 28 12 28
v 28 19 28
v 30 8 18
v 30 10 18
v 30 13 18
v 30 34 18
v 30 36 18
v 30 38 18
v 30 42 18
v 30 10 25
v 30 13 25
v 30 8 26
v 30 34 26
v 30 36 26
v 30 38 26
v 30 42 26
v 34 0 18
v 34 7 18
v 34 20 19
v 34 21 19
v 34 0 21
v 34 7 21
v 34 0 24
v 34 7 24
v 34 0 26
v 34 7 26
v 34 20 26
v 34 21 26
v 38 16 18
v 38 21 18
v 38 16 27
v 38 21 27
v 39 0 17
v 39 2 17
v 39 0 22
v 39 2 22
v 39 0 23
v 39 2 23
v 39 0 27
v 39 2 27
v 40 2 16
v 40 6 16
v 40 8 16
v 40 10 16
v 40 16 16
v 40 2 20
v 40 6 20
v 40 8 20
v 40 2 22
v 40 6 22
v 40 8 22
v 40 2 28
v 40 6 28
v 40 8 28
v 40 10 28
v 40 16 28
v 44 2 20
v 44 8 20
v 44 2 22
v 44 8 22
v 5 0 17
v 5 0 22
v 5 0 23
v 5 0 27
v 6 0 18
v 6 0 21
v 6 0 24
v 6 0 26
v 10 0 18
v 10 0 21
v 10 0 24
v 10 0 26
v 11 0 17
v 11 0 22
v 11 0 23
v 11 0 27
v 33 0 17
v 33 0 22
v 33 0 23
v 33 0 27
v 34 0 18
v 34 0 21
v 34 0 24
v 34 0 26
v 38 0 18
v 38 0 21
v 38 0 24
v 38 0 26
v 39 0 17
v 39 0 22
v 39 0 23
v 39 0 27
v 0 2 20
v 0 2 22
v 4 2 16
v 4 2 20
v 4 2 22
v 4 2 28
v 5 2 17
v 5 2 22
v 5 2 23
v 5 2 27
v 11 2 17
v 11 2 22
v 11 2 23
v 11 2 27
v 12 2 16
v 12 2 28
v 32 2 16
v 32 2 28
v 33 2 17
v 33 2 22
v 33 2 23
v 33 2 27
v 39 2 17
v 39 2 22
v 39 2 23
v 39 2 27
v 40 2 16
v 40 2 20
v 40 2 22
v 40 2 28
v 44 2 20
v 44 2 22
v 6 7 18
v 6 7 21
v 6 7 24
v 6 7 26
v 10 7 18
v 10 7 21
v 10 7 24
v 10 7 26
v 34 7 18
v 34 7 21
v 34 7 24
v 34 7 26
v 38 7 18
v 38 7 21
v 38 7 24
v 38 7 26
v 14 8 18
v 14 8 26
v 16 8 20
v 16 8 24
v 21 8 20
v 21 8 24
v 23 8 20
v 23 8 24
v 28 8 20
v 28 8 24
v 30 8 18
v 30 8 26
v 16 9 20
v 16 9 24
v 21 9 20
v 21 9 24
v 23 9 20
v 23 9 24
v 28 9 20
v 28 9 24
v 12 10 18
v 12 10 25
v 14 10 18
v 14 10 25
v 30 10 18
v 30 10 25
v 32 10 18
v 32 10 25
v 16 12 26
v 16 12 28
v 28 12 26
v 28 12 28
v 18 14 28
v 18 14 30
v 26 14 28
v 26 14 30
v 0 8 20
v 0 8 22
v 4 8 20
v 4 8 22
v 40 8 20
v 40 8 22
v 44 8 20
v 44 8 22
v 12 13 18
v 12 13 25
v 14 13 18
v 14 13 25
v 30 13 18
v 30 13 25
v 32 13 18
v 32 13 25
v 4 16 16
v 4 16 28
v 6 16 18
v 6 16 27
v 11 16 18
v 11 16 27
v 12 16 16
v 12 16 28
v 32 16 16
v 32 16 28
v 33 16 18
v 33 16 27
v 38 16 18
v 38 16 27
v 40 16 16
v 40 16 28
v 16 19 26
v 16 19 28
v 18 19 26
v 18 19 28
v 26 19 26
v 26 19 28
v 28 19 26
v 28 19 28
v 7 20 19
v 7 20 26
v 10 20 19
v 10 20 26
v 34 20 19
v 34 20 26
v 37 20 19
v 37 20 26
v 6 21 18
v 6 21 27
v 7 21 19
v 7 21 26
v 10 21 19
v 10 21 26
v 11 21 18
v 11 21 27
v 33 21 18
v 33 21 27
v 34 21 19
v 34 21 26
v 37 21 19
v 37 21 26
v 38 21 18
v 38 21 27
v 18 25 26
v 18 25 30
v 26 25 26
v 26 25 30
v 16 41 20
v 16 41 24
v 18 41 21
v 18 41 23
v 26 41 21
v 26 41 23
v 28 41 20
v 28 41 24
v 14 42 18
v 14 42 26
v 16 42 20
v 16 42 24
v 28 42 20
v 28 42 24
v 30 42 18
v 30 42 26
v 18 43 21
v 18 43 23
v 26 43 21
v 26 43 23
v 4 2 16
v 12 2 16
v 32 2 16
v 40 2 16
v 4 6 16
v 12 6 16
v 32 6 16
v 40 6 16
v 4 8 16
v 12 8 16
v 32 8 16
v 40 8 16
v 4 10 16
v 12 10 16
v 32 10 16
v 40 10 16
v 4 16 16
v 12 16 16
v 32 16 16
v 40 16 16
v 5 0 17
v 11 0 17
v 33 0 17
v 39 0 17
v 5 2 17
v 11 2 17
v 33 2 17
v 39 2 17
v 14 8 18
v 30 8 18
v 12 10 18
v 14 10 18
v 30 10 18
v 32 10 18
v 12 13 18
v 14 13 18
v 30 13 18
v 32 13 18
v 6 16 18
v 11 16 18
v 33 16 18
v 38 16 18
v 6 21 18
v 11 21 18
v 33 21 18
v 38 21 18
v 14 34 18
v 30 34 18
v 14 36 18
v 30 36 18
v 14 38 18
v 30 38 18
v 14 42 18
v 30 42 18
v 0 2 20
v 4 2 20
v 40 2 20
v 44 2 20
v 4 6 20
v 40 6 20
v 0 8 20
v 4 8 20
v 40 8 20
v 44 8 20
v 6 0 21
v 10 0 21
v 34 0 21
v 38 0 21
v 6 7 21
v 10 7 21
v 34 7 21
v 38 7 21
v 18 41 21
v 26 41 21
v 18 43 21
v 26 43 21
v 5 0 23
v 11 0 23
v 33 0 23
v 39 0 23
v 5 2 23
v 11 2 23
v 33 2 23
v 39 2 23
v 16 8 24
v 21 8 24
v 23 8 24
v 28 8 24
v 16 9 24
v 21 9 24
v 23 9 24
v 28 9 24
v 16 41 24
v 28 41 24
v 16 42 24
v 28 42 24
v 6 0 26
v 10 0 26
v 34 0 26
v 38 0 26
v 6 7 26
v 10 7 26
v 34 7 26
v 38 7 26
v 7 20 26
v 10 20 26
v 34 20 26
v 37 20 26
v 7 21 26
v 10 21 26
v 34 21 26
v 37 21 26
v 6 0 18
v 10 0 18
v 34 0 18
v 38 0 18
v 6 7 18
v 10 7 18
v 34 7 18
v 38 7 18
v 7 20 19
v 10 20 19
v 34 20 19
v 37 20 19
v 7 21 19
v 10 21 19
v 34 21 19
v 37 21 19
v 16 8 20
v 21 8 20
v 23 8 20
v 28 8 20
v 16 9 20
v 21 9 20
v 23 9 20
v 28 9 20
v 16 41 20
v 28 41 20
v 16 42 20
v 28 42 20
v 5 0 22
v 11 0 22
v 33 0 22
v 39 0 22
v 0 2 22
v 4 2 22
v 5 2 22
v 11 2 22
v 33 2 22
v 39 2 22
v 40 2 22
v 44 2 22
v 4 6 22
v 40 6 22
v 0 8 22
v 4 8 22
v 40 8 22
v 44 8 22
v 18 41 23
v 26 41 23
v 18 43 23
v 26 43 23
v 6 0 24
v 10 0 24
v 34 0 24
v 38 0 24
v 6 7 24
v 10 7 24
v 34 7 24
v 38 7 24
v 12 10 25
v 14 10 25
v 30 10 25
v 32 10 25
v 12 13 25
v 14 13 25
v 30 13 25
v 32 13 25
v 14 8 26
v 30 8 26
v 16 12 26
v 28 12 26
v 16 19 26
v 18 19 26
v 26 19 26
v 28 19 26
v 18 25 26
v 26 25 26
v 14 34 26
v 30 34 26
v 14 36 26
v 30 36 26
v 14 38 26
v 30 38 26
v 14 42 26
v 30 42 26
v 5 0 27
v 11 0 27
v 33 0 27
v 39 0 27
v 5 2 27
v 11 2 27
v 33 2 27
v 39 2 27
v 6 16 27
v 11 16 27
v 33 16 27
v 38 16 27
v 6 21 27
v 11 21 27
v 33 21 27
v 38 21 27
v 4 2 28
v 12 2 28
v 32 2 28
v 40 2 28
v 4 6 28
v 12 6 28
v 32 6 28
v 40 6 28
v 4 8 28
v 12 8 28
v 32 8 28
v 40 8 28
v 4 10 28
v 12 10 28
v 32 10 28
v 40 10 28
v 16 12 28
v 28 12 28
v 18 14 28
v 26 14 28
v 4 16 28
v 12 16 28
v 32 16 28
v 40 16 28
v 16 19 28
v 18 19 28
v 26 19 28
v 28 19 28
v 18 14 30
v 26 14 30
v 18 25 30
v 26 25 30

# faces
f 3/1/1 2/1/1 1/1/1
f 4/1/1 2/1/1 3/1/1
f 10/2/1 6/2/1 5/2/1
f 11/1/1 7/1/1 6/1/1
f 11/2/1 6/2/1 10/2/1
f 12/2/1 8/2/1 7/2/1
f 12/1/1 7/1/1 11/1/1
f 15/2/1 8/2/1 12/2/1
f 16/2/1 14/2/1 13/2/1
f 17/1/1 15/1/1 14/1/1
f 17/2/1 14/2/1 16/2/1
f 18/2/1 8/2/1 15/2/1
f 18/1/1 15/1/1 17/1/1
f 19/1/1 9/1/1 8/1/1
f 19/2/1 8/2/1 18/2/1
f 20/1/1 9/1/1 19/1/1
f 23/4/1 22/4/1 21/4/1
f 24/4/1 22/4/1 23/4/1
f 27/4/1 26/4/1 25/4/1
f 28/4/1 26/4/1 27/4/1
f 31/1/1 30/1/1 29/1/1
f 32/1/1 30/1/1 31/1/1
f 37/4/1 34/4/1 33/4/1
f 38/4/1 34/4/1 37/4/1
f 41/4/1 40/4/1 39/4/1
f 42/4/1 40/4/1 41/4/1
f 43/1/1 36/1/1 35/1/1
f 44/1/1 36/1/1 43/1/1
f 52/1/1 46/1/1 45/1/1
f 53/1/1 48/1/1 47/1/1
f 54/1/1 52/1/1 45/1/1
f 54/1/1 53/1/1 52/1/1
f 55/1/1 48/1/1 53/1/1
f 55/1/1 53/1/1 54/1/1
f 55/2/1 49/2/1 48/2/1
f 56/1/1 50/1/1 49/1/1
f 56/2/1 49/2/1 55/2/1
f 57/2/1 51/2/1 50/2/1
f 57/1/1 50/1/1 56/1/1
f 58/2/1 51/2/1 57/2/1
f 61/1/1 60/1/1 59/1/1
f 62/1/1 60/1/1 61/1/1
f 65/3/1 64/3/1 63/3/1
f 66/3/1 64/3/1 65/3/1
f 70/4/1 68/4/1 67/4/1
f 71/4/1 70/4/1 69/4/1
f 72/4/1 68/4/1 70/4/1
f 72/4/1 70/4/1 71/4/1
f 75/1/1 74/1/1 73/1/1
f 76/1/1 74/1/1 75/1/1
f 81/1/1 78/1/1 77/1/1
f 82/1/1 78/1/1 81/1/1
f 83/2/1 80/2/1 79/2/1
f 84/2/1 80/2/1 83/2/1
f 90/2/1 88/2/1 87/2/1
f 90/1/1 89/1/1 88/1/1
f 91/1/1 89/1/1 90/1/1
f 92/2/1 90/2/1 87/2/1
f 93/1/1 89/1/1 91/1/1
f 94/2/1 86/2/1 85/2/1
f 95/1/1 87/1/1 86/1/1
f 95/2/1 86/2/1 94/2/1
f 96/2/1 92/2/1 87/2/1
f 96/1/1 87/1/1 95/1/1
f 97/1/1 93/1/1 92/1/1
f 97/2/1 92/2/1 96/2/1
f 98/1/1 89/1/1 93/1/1
f 98/1/1 93/1/1 97/1/1
f 103/4/1 100/4/1 99/4/1
f 104/4/1 100/4/1 103/4/1
f 107/4/1 106/4/1 105/4/1
f 108/4/1 106/4/1 107/4/1
f 109/1/1 102/1/1 101/1/1
f 110/1/1 102/1/1 109/1/1
f 113/1/1 112/1/1 111/1/1
f 114/1/1 112/1/1 113/1/1
f 117/4/1 116/4/1 115/4/1
f 118/4/1 116/4/1 117/4/1
f 121/4/1 120/4/1 119/4/1
f 122/4/1 120/4/1 121/4/1
f 123/4/2 124/4/2 125/4/2
f 125/4/2 124/4/2 126/4/2
f 127/4/2 128/4/2 129/4/2
f 129/4/2 128/4/2 130/4/2
f 131/1/2 132/1/2 133/1/2
f 133/1/2 132/1/2 134/1/2
f 135/4/2 136/4/2 139/4/2
f 139/4/2 136/4/2 140/4/2
f 141/4/2 142/4/2 143/4/2
f 143/4/2 142/4/2 144/4/2
f 137/1/2 138/1/2 145/1/2
f 145/1/2 138/1/2 146/1/2
f 149/2/2 150/2/2 152/2/2
f 150/1/2 151/1/2 152/1/2
f 152/1/2 151/1/2 153/1/2
f 149/2/2 152/2/2 154/2/2
f 153/1/2 151/1/2 155/1/2
f 147/2/2 148/2/2 156/2/2
f 148/1/2 149/1/2 157/1/2
f 156/2/2 148/2/2 157/2/2
f 149/2/2 154/2/2 158/2/2
f 157/1/2 149/1/2 158/1/2
f 154/1/2 155/1/2 159/1/2
f 158/2/2 154/2/2 159/2/2
f 155/1/2 151/1/2 160/1/2
f 159/1/2 155/1/2 160/1/2
f 161/1/2 162/1/2 165/1/2
f 165/1/2 162/1/2 166/1/2
f 163/2/2 164/2/2 167/2/2
f 167/2/2 164/2/2 168/2/2
f 169/1/2 170/1/2 171/1/2
f 171/1/2 170/1/2 172/1/2
f 173/3/2 174/3/2 175/3/2
f 175/3/2 174/3/2 176/3/2
f 177/4/2 178/4/2 180/4/2
f 179/4/2 180/4/2 181/4/2
f 180/4/2 178/4/2 182/4/2
f 181/4/2 180/4/2 182/4/2
f 183/1/2 184/1/2 185/1/2
f 185/1/2 184/1/2 186/1/2
f 187/1/2 188/1/2 194/1/2
f 189/1/2 190/1/2 195/1/2
f 187/1/2 194/1/2 196/1/2
f 194/1/2 195/1/2 196/1/2
f 195/1/2 190/1/2 197/1/2
f 196/1/2 195/1/2 197/1/2
f 190/2/2 191/2/2 197/2/2
f 191/1/2 192/1/2 198/1/2
f 197/2/2 191/2/2 198/2/2
f 192/2/2 193/2/2 199/2/2
f 198/1/2 192/1/2 199/1/2
f 199/2/2 193/2/2 200/2/2
f 201/4/2 202/4/2 205/4/2
f 205/4/2 202/4/2 206/4/2
f 207/4/2 208/4/2 209/4/2
f 209/4/2 208/4/2 210/4/2
f 203/1/2 204/1/2 211/1/2
f 211/1/2 204/1/2 212/1/2
f 213/1/2 214/1/2 215/1/2
f 215/1/2 214/1/2 216/1/2
f 217/4/2 218/4/2 219/4/2
f 219/4/2 218/4/2 220/4/2
f 221/4/2 222/4/2 223/4/2
f 223/4/2 222/4/2 224/4/2
f 225/2/2 226/2/2 230/2/2
f 226/1/2 227/1/2 231/1/2
f 230/2/2 226/2/2 231/2/2
f 227/2/2 228/2/2 232/2/2
f 231/1/2 227/1/2 232/1/2
f 232/2/2 228/2/2 235/2/2
f 233/2/2 234/2/2 236/2/2
f 234/1/2 235/1/2 237/1/2
f 236/2/2 234/2/2 237/2/2
f 235/2/2 228/2/2 238/2/2
f 237/1/2 235/1/2 238/1/2
f 228/1/2 229/1/2 239/1/2
f 238/2/2 228/2/2 239/2/2
f 239/1/2 229/1/2 240/1/2
f 241/1/2 242/1/2 243/1/2
f 243/1/2 242/1/2 244/1/2
f 249/4/3 246/4/3 245/4/3
f 250/4/3 246/4/3 249/4/3
f 251/4/3 248/4/3 247/4/3
f 252/4/3 248/4/3 251/4/3
f 253/4/3 249/4/3 245/4/3
f 254/4/3 246/4/3 250/4/3
f 255/4/3 251/4/3 247/4/3
f 256/4/3 248/4/3 252/4/3
f 257/4/3 253/4/3 245/4/3
f 257/4/3 254/4/3 253/4/3
f 258/4/3 246/4/3 254/4/3
f 258/4/3 254/4/3 257/4/3
f 259/4/3 256/4/3 255/4/3
f 259/4/3 255/4/3 247/4/3
f 260/4/3 248/4/3 256/4/3
f 260/4/3 256/4/3 259/4/3
f 265/4/3 262/4/3 261/4/3
f 266/4/3 262/4/3 265/4/3
f 267/4/3 264/4/3 263/4/3
f 268/4/3 264/4/3 267/4/3
f 269/4/3 265/4/3 261/4/3
f 270/4/3 262/4/3 266/4/3
f 271/4/3 267/4/3 263/4/3
f 272/4/3 264/4/3 268/4/3
f 273/4/3 269/4/3 261/4/3
f 273/4/3 270/4/3 269/4/3
f 274/4/3 262/4/3 270/4/3
f 274/4/3 270/4/3 273/4/3
f 275/4/3 272/4/3 271/4/3
f 275/4/3 271/4/3 263/4/3
f 276/4/3 264/4/3 272/4/3
f 276/4/3 272/4/3 275/4/3
f 280/1/3 278/1/3 277/1/3
f 281/1/3 278/1/3 280/1/3
f 283/2/3 280/2/3 279/2/3
f 283/2/3 282/2/3 281/2/3
f 283/2/3 281/2/3 280/2/3
f 284/2/3 282/2/3 283/2/3
f 285/2/3 282/2/3 284/2/3
f 286/2/3 282/2/3 285/2/3
f 287/2/3 283/2/3 279/2/3
f 288/2/3 285/2/3 284/2/3
f 289/2/3 285/2/3 288/2/3
f 290/2/3 282/2/3 286/2/3
f 291/2/3 289/2/3 288/2/3
f 291/2/3 290/2/3 289/2/3
f 291/2/3 287/2/3 279/2/3
f 291/2/3 288/2/3 287/2/3
f 292/2/3 282/2/3 290/2/3
f 292/2/3 290/2/3 291/2/3
f 295/2/3 294/2/3 293/2/3
f 296/2/3 294/2/3 295/2/3
f 297/2/3 294/2/3 296/2/3
f 298/2/3 294/2/3 297/2/3
f 299/2/3 295/2/3 293/2/3
f 300/2/3 297/2/3 296/2/3
f 301/2/3 297/2/3 300/2/3
f 302/2/3 294/2/3 298/2/3
f 303/2/3 301/2/3 300/2/3
f 303/2/3 302/2/3 301/2/3
f 303/2/3 299/2/3 293/2/3
f 303/2/3 300/2/3 299/2/3
f 304/2/3 302/2/3 303/2/3
f 305/2/3 302/2/3 304/2/3
f 306/2/3 294/2/3 302/2/3
f 306/2/3 302/2/3 305/2/3
f 307/1/3 305/1/3 304/1/3
f 308/1/3 305/1/3 307/1/3
f 313/4/3 310/4/3 309/4/3
f 314/4/3 310/4/3 313/4/3
f 315/4/3 312/4/3 311/4/3
f 316/4/3 312/4/3 315/4/3
f 321/4/3 318/4/3 317/4/3
f 322/4/3 318/4/3 321/4/3
f 323/4/3 320/4/3 319/4/3
f 324/4/3 320/4/3 323/4/3
f 327/1/3 326/1/3 325/1/3
f 328/1/3 326/1/3 327/1/3
f 329/1/3 327/1/3 325/1/3
f 330/1/3 326/1/3 328/1/3
f 331/1/3 329/1/3 325/1/3
f 331/1/3 330/1/3 329/1/3
f 332/1/3 326/1/3 330/1/3
f 332/1/3 330/1/3 331/1/3
f 333/1/3 331/1/3 325/1/3
f 334/1/3 326/1/3 332/1/3
f 335/1/3 333/1/3 325/1/3
f 335/1/3 334/1/3 333/1/3
f 336/1/3 326/1/3 334/1/3
f 336/1/3 334/1/3 335/1/3
f 339/5/3 338/5/3 337/5/3
f 340/5/3 338/5/3 339/5/3
f 343/5/3 342/5/3 341/5/3
f 344/5/3 342/5/3 343/5/3
f 347/4/3 346/4/3 345/4/3
f 348/4/3 346/4/3 347/4/3
f 351/4/3 350/4/3 349/4/3
f 352/4/3 350/4/3 351/4/3
f 355/1/3 354/1/3 353/1/3
f 356/1/3 354/1/3 355/1/3
f 359/4/3 358/4/3 357/4/3
f 360/4/3 358/4/3 359/4/3
f 361/1/4 362/1/4 363/1/4
f 363/1/4 362/1/4 364/1/4
f 365/1/4 366/1/4 367/1/4
f 367/1/4 366/1/4 368/1/4
f 369/4/4 370/4/4 371/4/4
f 371/4/4 370/4/4 372/4/4
f 373/4/4 374/4/4 375/4/4
f 375/4/4 374/4/4 376/4/4
f 377/1/4 378/1/4 379/1/4
f 379/1/4 378/1/4 380/1/4
f 377/1/4 379/1/4 381/1/4
f 380/1/4 378/1/4 382/1/4
f 377/1/4 381/1/4 383/1/4
f 381/1/4 382/1/4 383/1/4
f 382/1/4 378/1/4 384/1/4
f 383/1/4 382/1/4 384/1/4
f 385/1/4 386/1/4 387/1/4
f 387/1/4 386/1/4 388/1/4
f 385/1/4 387/1/4 389/1/4
f 388/1/4 386/1/4 390/1/4
f 385/1/4 389/1/4 391/1/4
f 389/1/4 390/1/4 391/1/4
f 390/1/4 386/1/4 392/1/4
f 391/1/4 390/1/4 392/1/4
f 393/1/4 394/1/4 395/1/4
f 395/1/4 394/1/4 396/1/4
f 397/1/4 398/1/4 399/1/4
f 399/1/4 398/1/4 400/1/4
f 401/3/4 402/3/4 403/3/4
f 403/3/4 402/3/4 404/3/4
f 405/3/4 406/3/4 407/3/4
f 407/3/4 406/3/4 408/3/4
f 409/1/4 410/1/4 411/1/4
f 411/1/4 410/1/4 412/1/4
f 409/1/4 411/1/4 413/1/4
f 412/1/4 410/1/4 414/1/4
f 409/1/4 413/1/4 415/1/4
f 413/1/4 414/1/4 415/1/4
f 414/1/4 410/1/4 416/1/4
f 415/1/4 414/1/4 416/1/4
f 417/1/4 418/1/4 419/1/4
f 419/1/4 418/1/4 420/1/4
f 417/1/4 419/1/4 421/1/4
f 420/1/4 418/1/4 422/1/4
f 417/1/4 421/1/4 423/1/4
f 421/1/4 422/1/4 423/1/4
f 422/1/4 418/1/4 424/1/4
f 423/1/4 422/1/4 424/1/4
f 425/4/4 426/4/4 427/4/4
f 427/4/4 426/4/4 428/4/4
f 429/4/4 430/4/4 431/4/4
f 431/4/4 430/4/4 432/4/4
f 429/4/4 431/4/4 433/4/4
f 432/4/4 430/4/4 434/4/4
f 429/4/4 433/4/4 435/4/4
f 433/4/4 434/4/4 435/4/4
f 434/4/4 430/4/4 436/4/4
f 435/4/4 434/4/4 436/4/4
f 437/2/4 438/2/4 439/2/4
f 439/2/4 438/2/4 440/2/4
f 437/2/4 439/2/4 441/2/4
f 440/2/4 438/2/4 442/2/4
f 437/2/4 441/2/4 443/2/4
f 441/2/4 442/2/4 443/2/4
f 442/2/4 438/2/4 444/2/4
f 443/2/4 442/2/4 444/2/4
f 445/3/4 446/3/4 447/3/4
f 447/3/4 446/3/4 448/3/4
f 453/2/5 450/2/5 449/2/5
f 454/2/5 450/2/5 453/2/5
f 455/2/5 452/2/5 451/2/5
f 456/2/5 452/2/5 455/2/5
f 457/1/5 454/1/5 453/1/5
f 458/1/5 454/1/5 457/1/5
f 459/1/5 456/1/5 455/1/5
f 460/1/5 456/1/5 459/1/5
f 461/2/5 458/2/5 457/2/5
f 462/2/5 458/2/5 461/2/5
f 463/2/5 460/2/5 459/2/5
f 464/2/5 460/2/5 463/2/5
f 465/1/5 462/1/5 461/1/5
f 466/1/5 462/1/5 465/1/5
f 467/1/5 464/1/5 463/1/5
f 468/1/5 464/1/5 467/1/5
f 473/4/5 470/4/5 469/4/5
f 474/4/5 470/4/5 473/4/5
f 475/4/5 472/4/5 471/4/5
f 476/4/5 472/4/5 475/4/5
f 480/1/5 478/1/5 477/1/5
f 481/1/5 478/1/5 480/1/5
f 483/4/5 480/4/5 479/4/5
f 484/1/5 481/1/5 480/1/5
f 484/4/5 480/4/5 483/4/5
f 485/4/5 482/4/5 481/4/5
f 485/1/5 481/1/5 484/1/5
f 486/4/5 482/4/5 485/4/5
f 491/1/5 488/1/5 487/1/5
f 492/1/5 488/1/5 491/1/5
f 493/1/5 490/1/5 489/1/5
f 494/1/5 490/1/5 493/1/5
f 495/1/5 485/1/5 484/1/5
f 496/1/5 485/1/5 495/1/5
f 497/2/5 496/2/5 495/2/5
f 498/2/5 496/2/5 497/2/5
f 499/1/5 498/1/5 497/1/5
f 500/1/5 498/1/5 499/1/5
f 501/2/5 500/2/5 499/2/5
f 502/2/5 500/2/5 501/2/5
f 507/1/5 504/1/5 503/1/5
f 508/1/5 506/1/5 505/1/5
f 509/1/5 507/1/5 503/1/5
f 510/1/5 507/1/5 509/1/5
f 511/1/5 506/1/5 508/1/5
f 512/1/5 506/1/5 511/1/5
f 517/4/5 514/4/5 513/4/5
f 518/4/5 514/4/5 517/4/5
f 519/4/5 516/4/5 515/4/5
f 520/4/5 516/4/5 519/4/5
f 523/3/5 522/3/5 521/3/5
f 524/3/5 522/3/5 523/3/5
f 529/4/5 526/4/5 525/4/5
f 530/4/5 526/4/5 529/4/5
f 531/4/5 528/4/5 527/4/5
f 532/4/5 528/4/5 531/4/5
f 537/1/5 534/1/5 533/1/5
f 538/1/5 534/1/5 537/1/5
f 539/1/5 536/1/5 535/1/5
f 540/1/5 536/1/5 539/1/5
f 543/2/5 542/2/5 541/2/5
f 544/2/5 542/2/5 543/2/5
f 549/4/5 546/4/5 545/4/5
f 550/4/5 546/4/5 549/4/5
f 551/4/5 548/4/5 547/4/5
f 552/4/5 548/4/5 551/4/5
f 557/1/5 554/1/5 553/1/5
f 558/1/5 554/1/5 557/1/5
f 559/1/5 556/1/5 555/1/5
f 560/1/5 556/1/5 559/1/5
f 561/4/6 562/4/6 565/4/6
f 565/4/6 562/4/6 566/4/6
f 563/4/6 564/4/6 567/4/6
f 567/4/6 564/4/6 568/4/6
f 569/1/6 570/1/6 573/1/6
f 573/1/6 570/1/6 574/1/6
f 571/1/6 572/1/6 575/1/6
f 575/1/6 572/1/6 576/1/6
f 577/1/6 578/1/6 581/1/6
f 581/1/6 578/1/6 582/1/6
f 579/1/6 580/1/6 583/1/6
f 583/1/6 580/1/6 584/1/6
f 585/2/6 586/2/6 587/2/6
f 587/2/6 586/2/6 588/2/6
f 589/4/6 590/4/6 595/4/6
f 595/4/6 590/4/6 596/4/6
f 591/4/6 592/4/6 597/4/6
f 597/4/6 592/4/6 598/4/6
f 593/1/6 594/1/6 601/1/6
f 599/1/6 600/1/6 602/1/6
f 593/1/6 601/1/6 603/1/6
f 603/1/6 601/1/6 604/1/6
f 602/1/6 600/1/6 605/1/6
f 605/1/6 600/1/6 606/1/6
f 607/3/6 608/3/6 609/3/6
f 609/3/6 608/3/6 610/3/6
f 611/4/6 612/4/6 615/4/6
f 615/4/6 612/4/6 616/4/6
f 613/4/6 614/4/6 617/4/6
f 617/4/6 614/4/6 618/4/6
f 619/4/6 620/4/6 623/4/6
f 623/4/6 620/4/6 624/4/6
f 621/4/6 622/4/6 625/4/6
f 625/4/6 622/4/6 626/4/6
f 627/1/6 628/1/6 629/1/6
f 629/1/6 628/1/6 630/1/6
f 627/1/6 629/1/6 631/1/6
f 630/1/6 628/1/6 634/1/6
f 631/1/6 632/1/6 635/1/6
f 633/1/6 634/1/6 636/1/6
f 631/1/6 635/1/6 637/1/6
f 635/1/6 636/1/6 637/1/6
f 627/1/6 631/1/6 637/1/6
f 636/1/6 634/1/6 638/1/6
f 637/1/6 636/1/6 638/1/6
f 634/1/6 628/1/6 638/1/6
f 637/2/6 638/2/6 639/2/6
f 639/2/6 638/2/6 640/2/6
f 639/1/6 640/1/6 641/1/6
f 641/1/6 640/1/6 642/1/6
f 641/2/6 642/2/6 643/2/6
f 643/2/6 642/2/6 644/2/6
f 645/4/6 646/4/6 649/4/6
f 649/4/6 646/4/6 650/4/6
f 647/4/6 648/4/6 651/4/6
f 651/4/6 648/4/6 652/4/6
f 653/1/6 654/1/6 657/1/6
f 657/1/6 654/1/6 658/1/6
f 655/1/6 656/1/6 659/1/6
f 659/1/6 656/1/6 660/1/6
f 661/2/6 662/2/6 665/2/6
f 665/2/6 662/2/6 666/2/6
f 663/2/6 664/2/6 667/2/6
f 667/2/6 664/2/6 668/2/6
f 665/1/6 666/1/6 669/1/6
f 669/1/6 666/1/6 670/1/6
f 667/1/6 668/1/6 671/1/6
f 671/1/6 668/1/6 672/1/6
f 669/2/6 670/2/6 673/2/6
f 673/2/6 670/2/6 674/2/6
f 671/2/6 672/2/6 675/2/6
f 675/2/6 672/2/6 676/2/6
f 677/1/6 678/1/6 679/1/6
f 679/1/6 678/1/6 680/1/6
f 673/1/6 674/1/6 681/1/6
f 681/1/6 674/1/6 682/1/6
f 675/1/6 676/1/6 683/1/6
f 683/1/6 676/1/6 684/1/6
f 677/1/6 679/1/6 685/1/6
f 685/1/6 679/1/6 686/1/6
f 680/1/6 678/1/6 687/1/6
f 687/1/6 678/1/6 688/1/6
f 689/4/6 690/4/6 691/4/6
f 691/4/6 690/4/6 692/4/6
