# MagicaVoxel @ ephtracy

# material
mtllib sp cruiser.mtl
usemtl palette

# normals
vn -1 0 0
vn 1 0 0
vn 0 -1 0
vn 0 1 0
vn 0 0 -1
vn 0 0 1

# texcoords
vt 0.00195312 0.5
vt 0.00585938 0.5
vt 0.193359 0.5
vt 0.228516 0.5
vt 0.318359 0.5

# verts
v 0 3 14
v 0 7 14
v 0 8 14
v 0 9 14
v 0 12 14
v 0 3 21
v 0 7 21
v 0 8 21
v 0 9 21
v 0 12 21
v 1 2 15
v 1 3 15
v 1 2 20
v 1 3 20
v 4 17 15
v 4 22 15
v 4 2 16
v 4 7 16
v 4 17 17
v 4 22 17
v 4 2 19
v 4 7 19
v 5 11 15
v 5 12 15
v 5 11 20
v 5 12 20
v 7 1 12
v 7 4 12
v 7 5 12
v 7 6 12
v 7 9 12
v 7 9 13
v 7 26 13
v 7 7 14
v 7 10 14
v 7 17 15
v 7 22 15
v 7 10 16
v 7 15 16
v 7 16 16
v 7 17 16
v 7 22 16
v 7 26 16
v 7 7 17
v 7 9 17
v 7 10 17
v 7 17 17
v 7 22 17
v 7 10 21
v 7 15 21
v 7 16 21
v 7 26 21
v 7 1 24
v 7 4 24
v 7 5 24
v 7 6 24
v 7 9 24
v 8 0 13
v 8 1 13
v 8 0 18
v 8 1 18
v 8 0 19
v 8 1 19
v 8 0 23
v 8 1 23
v 9 26 14
v 9 29 14
v 9 26 16
v 9 18 21
v 9 26 21
v 9 18 22
v 9 29 22
v 11 0 14
v 11 5 14
v 11 0 17
v 11 5 17
v 11 0 20
v 11 3 20
v 11 0 22
v 11 3 22
v 12 8 18
v 12 9 18
v 12 8 23
v 12 9 23
v 15 1 12
v 15 4 12
v 15 5 12
v 15 6 12
v 15 9 12
v 15 6 13
v 15 9 13
v 15 6 17
v 15 9 17
v 15 1 24
v 15 4 24
v 15 5 24
v 15 6 24
v 15 9 24
v 16 0 13
v 16 1 13
v 16 0 18
v 16 1 18
v 16 0 19
v 16 1 19
v 16 0 23
v 16 1 23
v 19 0 14
v 19 5 14
v 19 0 17
v 19 5 17
v 19 0 20
v 19 3 20
v 19 0 22
v 19 3 22
v 20 8 18
v 20 9 18
v 20 8 23
v 20 9 23
v 22 3 14
v 22 7 14
v 22 10 14
v 22 12 14
v 22 7 17
v 22 8 17
v 22 9 17
v 22 10 17
v 22 3 21
v 22 7 21
v 22 8 21
v 22 9 21
v 22 12 21
v 23 2 15
v 23 3 15
v 23 2 20
v 23 3 20
v 26 2 16
v 26 7 16
v 26 2 19
v 26 7 19
v 27 11 15
v 27 12 15
v 27 11 20
v 27 12 20
v 1 11 15
v 1 12 15
v 1 11 20
v 1 12 20
v 2 2 16
v 2 7 16
v 2 2 19
v 2 7 19
v 5 2 15
v 5 3 15
v 5 2 20
v 5 3 20
v 6 3 14
v 6 7 14
v 6 10 14
v 6 12 14
v 6 7 17
v 6 8 17
v 6 9 17
v 6 10 17
v 6 3 21
v 6 7 21
v 6 8 21
v 6 9 21
v 6 12 21
v 8 8 18
v 8 9 18
v 8 8 23
v 8 9 23
v 9 0 14
v 9 5 14
v 9 0 17
v 9 5 17
v 9 0 20
v 9 3 20
v 9 0 22
v 9 3 22
v 12 0 13
v 12 1 13
v 12 0 18
v 12 1 18
v 12 0 19
v 12 1 19
v 12 0 23
v 12 1 23
v 13 1 12
v 13 4 12
v 13 5 12
v 13 6 12
v 13 9 12
v 13 6 13
v 13 9 13
v 13 6 17
v 13 9 17
v 13 1 24
v 13 4 24
v 13 5 24
v 13 6 24
v 13 9 24
v 16 8 18
v 16 9 18
v 16 8 23
v 16 9 23
v 17 0 14
v 17 5 14
v 17 0 17
v 17 5 17
v 17 0 20
v 17 3 20
v 17 0 22
v 17 3 22
v 19 26 14
v 19 29 14
v 19 26 16
v 19 18 21
v 19 26 21
v 19 18 22
v 19 29 22
v 20 0 13
v 20 1 13
v 20 0 18
v 20 1 18
v 20 0 19
v 20 1 19
v 20 0 23
v 20 1 23
v 21 1 12
v 21 4 12
v 21 5 12
v 21 6 12
v 21 9 12
v 21 9 13
v 21 26 13
v 21 7 14
v 21 10 14
v 21 17 15
v 21 22 15
v 21 10 16
v 21 15 16
v 21 16 16
v 21 17 16
v 21 22 16
v 21 26 16
v 21 7 17
v 21 9 17
v 21 10 17
v 21 17 17
v 21 22 17
v 21 10 21
v 21 15 21
v 21 16 21
v 21 26 21
v 21 1 24
v 21 4 24
v 21 5 24
v 21 6 24
v 21 9 24
v 23 11 15
v 23 12 15
v 23 11 20
v 23 12 20
v 24 17 15
v 24 22 15
v 24 2 16
v 24 7 16
v 24 17 17
v 24 22 17
v 24 2 19
v 24 7 19
v 27 2 15
v 27 3 15
v 27 2 20
v 27 3 20
v 28 3 14
v 28 7 14
v 28 8 14
v 28 9 14
v 28 12 14
v 28 3 21
v 28 7 21
v 28 8 21
v 28 9 21
v 28 12 21
v 8 0 13
v 8 0 18
v 8 0 19
v 8 0 23
v 9 0 14
v 9 0 17
v 9 0 20
v 9 0 22
v 11 0 14
v 11 0 17
v 11 0 20
v 11 0 22
v 12 0 13
v 12 0 18
v 12 0 19
v 12 0 23
v 16 0 13
v 16 0 18
v 16 0 19
v 16 0 23
v 17 0 14
v 17 0 17
v 17 0 20
v 17 0 22
v 19 0 14
v 19 0 17
v 19 0 20
v 19 0 22
v 20 0 13
v 20 0 18
v 20 0 19
v 20 0 23
v 7 1 12
v 7 1 24
v 8 1 13
v 8 1 18
v 8 1 19
v 8 1 23
v 12 1 13
v 12 1 18
v 12 1 19
v 12 1 23
v 13 1 12
v 13 1 24
v 15 1 12
v 15 1 24
v 16 1 13
v 16 1 18
v 16 1 19
v 16 1 23
v 20 1 13
v 20 1 18
v 20 1 19
v 20 1 23
v 21 1 12
v 21 1 24
v 1 2 15
v 1 2 20
v 2 2 16
v 2 2 19
v 4 2 16
v 4 2 19
v 5 2 15
v 5 2 20
v 23 2 15
v 23 2 20
v 24 2 16
v 24 2 19
v 26 2 16
v 26 2 19
v 27 2 15
v 27 2 20
v 0 3 14
v 0 3 21
v 1 3 15
v 1 3 20
v 5 3 15
v 5 3 20
v 6 3 14
v 6 3 21
v 9 3 20
v 9 3 22
v 11 3 20
v 11 3 22
v 17 3 20
v 17 3 22
v 19 3 20
v 19 3 22
v 22 3 14
v 22 3 21
v 23 3 15
v 23 3 20
v 27 3 15
v 27 3 20
v 28 3 14
v 28 3 21
v 9 5 14
v 9 5 17
v 11 5 14
v 11 5 17
v 17 5 14
v 17 5 17
v 19 5 14
v 19 5 17
v 13 6 13
v 13 6 17
v 15 6 13
v 15 6 17
v 2 7 16
v 2 7 19
v 4 7 16
v 4 7 19
v 6 7 14
v 6 7 17
v 7 7 14
v 7 7 17
v 21 7 14
v 21 7 17
v 22 7 14
v 22 7 17
v 24 7 16
v 24 7 19
v 26 7 16
v 26 7 19
v 7 10 17
v 7 10 21
v 21 10 17
v 21 10 21
v 4 17 15
v 4 17 17
v 7 17 15
v 7 17 16
v 7 17 17
v 21 17 15
v 21 17 16
v 21 17 17
v 24 17 15
v 24 17 17
v 9 18 21
v 9 18 22
v 19 18 21
v 19 18 22
v 8 8 18
v 8 8 23
v 12 8 18
v 12 8 23
v 16 8 18
v 16 8 23
v 20 8 18
v 20 8 23
v 7 9 12
v 7 9 13
v 7 9 17
v 7 9 24
v 8 9 18
v 8 9 23
v 12 9 18
v 12 9 23
v 13 9 12
v 13 9 13
v 13 9 17
v 13 9 24
v 15 9 12
v 15 9 13
v 15 9 17
v 15 9 24
v 16 9 18
v 16 9 23
v 20 9 18
v 20 9 23
v 21 9 12
v 21 9 13
v 21 9 17
v 21 9 24
v 6 10 14
v 6 10 17
v 7 10 14
v 7 10 16
v 7 10 17
v 21 10 14
v 21 10 16
v 21 10 17
v 22 10 14
v 22 10 17
v 1 11 15
v 1 11 20
v 5 11 15
v 5 11 20
v 23 11 15
v 23 11 20
v 27 11 15
v 27 11 20
v 0 12 14
v 0 12 21
v 1 12 15
v 1 12 20
v 5 12 15
v 5 12 20
v 6 12 14
v 6 12 21
v 22 12 14
v 22 12 21
v 23 12 15
v 23 12 20
v 27 12 15
v 27 12 20
v 28 12 14
v 28 12 21
v 4 22 15
v 4 22 17
v 7 22 15
v 7 22 16
v 7 22 17
v 21 22 15
v 21 22 16
v 21 22 17
v 24 22 15
v 24 22 17
v 7 26 13
v 7 26 16
v 7 26 21
v 9 26 14
v 9 26 16
v 9 26 21
v 19 26 14
v 19 26 16
v 19 26 21
v 21 26 13
v 21 26 16
v 21 26 21
v 9 29 14
v 9 29 22
v 19 29 14
v 19 29 22
v 7 1 12
v 13 1 12
v 15 1 12
v 21 1 12
v 7 4 12
v 13 4 12
v 15 4 12
v 21 4 12
v 7 5 12
v 13 5 12
v 15 5 12
v 21 5 12
v 7 6 12
v 13 6 12
v 15 6 12
v 21 6 12
v 7 9 12
v 13 9 12
v 15 9 12
v 21 9 12
v 8 0 13
v 12 0 13
v 16 0 13
v 20 0 13
v 8 1 13
v 12 1 13
v 16 1 13
v 20 1 13
v 13 6 13
v 15 6 13
v 7 9 13
v 13 9 13
v 15 9 13
v 21 9 13
v 7 26 13
v 21 26 13
v 0 3 14
v 6 3 14
v 22 3 14
v 28 3 14
v 0 7 14
v 6 7 14
v 7 7 14
v 21 7 14
v 22 7 14
v 28 7 14
v 0 8 14
v 6 8 14
v 22 8 14
v 28 8 14
v 0 9 14
v 6 9 14
v 22 9 14
v 28 9 14
v 6 10 14
v 7 10 14
v 21 10 14
v 22 10 14
v 0 12 14
v 6 12 14
v 22 12 14
v 28 12 14
v 9 26 14
v 19 26 14
v 9 29 14
v 19 29 14
v 1 2 15
v 5 2 15
v 23 2 15
v 27 2 15
v 1 3 15
v 5 3 15
v 23 3 15
v 27 3 15
v 4 17 15
v 7 17 15
v 21 17 15
v 24 17 15
v 4 22 15
v 7 22 15
v 21 22 15
v 24 22 15
v 9 0 17
v 11 0 17
v 17 0 17
v 19 0 17
v 9 5 17
v 11 5 17
v 17 5 17
v 19 5 17
v 8 0 19
v 12 0 19
v 16 0 19
v 20 0 19
v 8 1 19
v 12 1 19
v 16 1 19
v 20 1 19
v 2 2 19
v 4 2 19
v 24 2 19
v 26 2 19
v 2 7 19
v 4 7 19
v 24 7 19
v 26 7 19
v 1 11 20
v 5 11 20
v 23 11 20
v 27 11 20
v 1 12 20
v 5 12 20
v 23 12 20
v 27 12 20
v 9 0 22
v 11 0 22
v 17 0 22
v 19 0 22
v 9 3 22
v 11 3 22
v 17 3 22
v 19 3 22
v 8 8 23
v 12 8 23
v 16 8 23
v 20 8 23
v 8 9 23
v 12 9 23
v 16 9 23
v 20 9 23
v 9 0 14
v 11 0 14
v 17 0 14
v 19 0 14
v 9 5 14
v 11 5 14
v 17 5 14
v 19 5 14
v 1 11 15
v 5 11 15
v 23 11 15
v 27 11 15
v 1 12 15
v 5 12 15
v 23 12 15
v 27 12 15
v 2 2 16
v 4 2 16
v 24 2 16
v 26 2 16
v 2 7 16
v 4 7 16
v 24 7 16
v 26 7 16
v 13 6 17
v 15 6 17
v 6 7 17
v 7 7 17
v 21 7 17
v 22 7 17
v 6 8 17
v 22 8 17
v 6 9 17
v 7 9 17
v 13 9 17
v 15 9 17
v 21 9 17
v 22 9 17
v 6 10 17
v 7 10 17
v 21 10 17
v 22 10 17
v 4 17 17
v 7 17 17
v 21 17 17
v 24 17 17
v 4 22 17
v 7 22 17
v 21 22 17
v 24 22 17
v 8 0 18
v 12 0 18
v 16 0 18
v 20 0 18
v 8 1 18
v 12 1 18
v 16 1 18
v 20 1 18
v 8 8 18
v 12 8 18
v 16 8 18
v 20 8 18
v 8 9 18
v 12 9 18
v 16 9 18
v 20 9 18
v 9 0 20
v 11 0 20
v 17 0 20
v 19 0 20
v 1 2 20
v 5 2 20
v 23 2 20
v 27 2 20
v 1 3 20
v 5 3 20
v 9 3 20
v 11 3 20
v 17 3 20
v 19 3 20
v 23 3 20
v 27 3 20
v 0 3 21
v 6 3 21
v 22 3 21
v 28 3 21
v 0 7 21
v 6 7 21
v 22 7 21
v 28 7 21
v 0 8 21
v 6 8 21
v 22 8 21
v 28 8 21
v 0 9 21
v 6 9 21
v 22 9 21
v 28 9 21
v 7 10 21
v 21 10 21
v 0 12 21
v 6 12 21
v 11 12 21
v 17 12 21
v 22 12 21
v 28 12 21
v 12 13 21
v 16 13 21
v 7 15 21
v 11 15 21
v 17 15 21
v 21 15 21
v 7 16 21
v 12 16 21
v 16 16 21
v 21 16 21
v 9 18 21
v 19 18 21
v 7 26 21
v 9 26 21
v 19 26 21
v 21 26 21
v 9 18 22
v 19 18 22
v 9 29 22
v 19 29 22
v 8 0 23
v 12 0 23
v 16 0 23
v 20 0 23
v 8 1 23
v 12 1 23
v 16 1 23
v 20 1 23
v 7 1 24
v 13 1 24
v 15 1 24
v 21 1 24
v 7 4 24
v 13 4 24
v 15 4 24
v 21 4 24
v 7 5 24
v 13 5 24
v 15 5 24
v 21 5 24
v 7 6 24
v 13 6 24
v 15 6 24
v 21 6 24
v 7 9 24
v 13 9 24
v 15 9 24
v 21 9 24

# faces
f 6/1/1 2/1/1 1/1/1
f 7/4/1 3/4/1 2/4/1
f 7/1/1 2/1/1 6/1/1
f 8/1/1 4/1/1 3/1/1
f 8/4/1 3/4/1 7/4/1
f 9/4/1 5/4/1 4/4/1
f 9/1/1 4/1/1 8/1/1
f 10/4/1 5/4/1 9/4/1
f 13/5/1 12/5/1 11/5/1
f 14/5/1 12/5/1 13/5/1
f 19/4/1 16/4/1 15/4/1
f 20/4/1 16/4/1 19/4/1
f 21/5/1 18/5/1 17/5/1
f 22/5/1 18/5/1 21/5/1
f 25/4/1 24/4/1 23/4/1
f 26/4/1 24/4/1 25/4/1
f 32/4/1 31/4/1 30/4/1
f 34/4/1 32/4/1 30/4/1
f 34/4/1 33/4/1 32/4/1
f 35/4/1 33/4/1 34/4/1
f 36/4/1 33/4/1 35/4/1
f 37/4/1 33/4/1 36/4/1
f 38/4/1 36/4/1 35/4/1
f 39/4/1 36/4/1 38/4/1
f 40/4/1 36/4/1 39/4/1
f 41/4/1 36/4/1 40/4/1
f 42/4/1 33/4/1 37/4/1
f 43/4/1 33/4/1 42/4/1
f 44/4/1 34/4/1 30/4/1
f 46/1/1 39/1/1 38/1/1
f 47/1/1 41/1/1 40/1/1
f 48/1/1 43/1/1 42/1/1
f 49/1/1 39/1/1 46/1/1
f 50/2/1 40/2/1 39/2/1
f 50/1/1 39/1/1 49/1/1
f 51/1/1 48/1/1 47/1/1
f 51/2/1 40/2/1 50/2/1
f 51/1/1 47/1/1 40/1/1
f 52/1/1 43/1/1 48/1/1
f 52/1/1 48/1/1 51/1/1
f 53/1/1 28/1/1 27/1/1
f 54/4/1 29/4/1 28/4/1
f 54/1/1 28/1/1 53/1/1
f 55/1/1 30/1/1 29/1/1
f 55/4/1 29/4/1 54/4/1
f 56/4/1 45/4/1 44/4/1
f 56/1/1 30/1/1 55/1/1
f 56/4/1 44/4/1 30/4/1
f 57/4/1 45/4/1 56/4/1
f 60/5/1 59/5/1 58/5/1
f 61/5/1 59/5/1 60/5/1
f 64/5/1 63/5/1 62/5/1
f 65/5/1 63/5/1 64/5/1
f 68/5/1 67/5/1 66/5/1
f 70/5/1 67/5/1 68/5/1
f 71/5/1 70/5/1 69/5/1
f 72/5/1 67/5/1 70/5/1
f 72/5/1 70/5/1 71/5/1
f 75/5/1 74/5/1 73/5/1
f 76/5/1 74/5/1 75/5/1
f 79/5/1 78/5/1 77/5/1
f 80/5/1 78/5/1 79/5/1
f 83/4/1 82/4/1 81/4/1
f 84/4/1 82/4/1 83/4/1
f 90/1/1 88/1/1 87/1/1
f 90/4/1 89/4/1 88/4/1
f 91/4/1 89/4/1 90/4/1
f 92/1/1 90/1/1 87/1/1
f 94/1/1 86/1/1 85/1/1
f 95/4/1 87/4/1 86/4/1
f 95/1/1 86/1/1 94/1/1
f 96/1/1 92/1/1 87/1/1
f 96/4/1 87/4/1 95/4/1
f 97/4/1 93/4/1 92/4/1
f 97/1/1 92/1/1 96/1/1
f 98/4/1 93/4/1 97/4/1
f 101/5/1 100/5/1 99/5/1
f 102/5/1 100/5/1 101/5/1
f 105/5/1 104/5/1 103/5/1
f 106/5/1 104/5/1 105/5/1
f 109/5/1 108/5/1 107/5/1
f 110/5/1 108/5/1 109/5/1
f 113/5/1 112/5/1 111/5/1
f 114/5/1 112/5/1 113/5/1
f 117/4/1 116/4/1 115/4/1
f 118/4/1 116/4/1 117/4/1
f 123/1/1 120/1/1 119/1/1
f 126/4/1 122/4/1 121/4/1
f 127/1/1 123/1/1 119/1/1
f 128/4/1 124/4/1 123/4/1
f 128/1/1 123/1/1 127/1/1
f 129/1/1 125/1/1 124/1/1
f 129/4/1 124/4/1 128/4/1
f 130/4/1 126/4/1 125/4/1
f 130/1/1 125/1/1 129/1/1
f 131/4/1 122/4/1 126/4/1
f 131/4/1 126/4/1 130/4/1
f 134/5/1 133/5/1 132/5/1
f 135/5/1 133/5/1 134/5/1
f 138/5/1 137/5/1 136/5/1
f 139/5/1 137/5/1 138/5/1
f 142/4/1 141/4/1 140/4/1
f 143/4/1 141/4/1 142/4/1
f 144/4/2 145/4/2 146/4/2
f 146/4/2 145/4/2 147/4/2
f 148/5/2 149/5/2 150/5/2
f 150/5/2 149/5/2 151/5/2
f 152/5/2 153/5/2 154/5/2
f 154/5/2 153/5/2 155/5/2
f 156/1/2 157/1/2 160/1/2
f 158/4/2 159/4/2 163/4/2
f 156/1/2 160/1/2 164/1/2
f 160/4/2 161/4/2 165/4/2
f 164/1/2 160/1/2 165/1/2
f 161/1/2 162/1/2 166/1/2
f 165/4/2 161/4/2 166/4/2
f 162/4/2 163/4/2 167/4/2
f 166/1/2 162/1/2 167/1/2
f 163/4/2 159/4/2 168/4/2
f 167/4/2 163/4/2 168/4/2
f 169/4/2 170/4/2 171/4/2
f 171/4/2 170/4/2 172/4/2
f 173/5/2 174/5/2 175/5/2
f 175/5/2 174/5/2 176/5/2
f 177/5/2 178/5/2 179/5/2
f 179/5/2 178/5/2 180/5/2
f 181/5/2 182/5/2 183/5/2
f 183/5/2 182/5/2 184/5/2
f 185/5/2 186/5/2 187/5/2
f 187/5/2 186/5/2 188/5/2
f 191/1/2 192/1/2 194/1/2
f 192/4/2 193/4/2 194/4/2
f 194/4/2 193/4/2 195/4/2
f 191/1/2 194/1/2 196/1/2
f 189/1/2 190/1/2 198/1/2
f 190/4/2 191/4/2 199/4/2
f 198/1/2 190/1/2 199/1/2
f 191/1/2 196/1/2 200/1/2
f 199/4/2 191/4/2 200/4/2
f 196/4/2 197/4/2 201/4/2
f 200/1/2 196/1/2 201/1/2
f 201/4/2 197/4/2 202/4/2
f 203/4/2 204/4/2 205/4/2
f 205/4/2 204/4/2 206/4/2
f 207/5/2 208/5/2 209/5/2
f 209/5/2 208/5/2 210/5/2
f 211/5/2 212/5/2 213/5/2
f 213/5/2 212/5/2 214/5/2
f 215/5/2 216/5/2 217/5/2
f 217/5/2 216/5/2 219/5/2
f 218/5/2 219/5/2 220/5/2
f 219/5/2 216/5/2 221/5/2
f 220/5/2 219/5/2 221/5/2
f 222/5/2 223/5/2 224/5/2
f 224/5/2 223/5/2 225/5/2
f 226/5/2 227/5/2 228/5/2
f 228/5/2 227/5/2 229/5/2
f 233/4/2 234/4/2 235/4/2
f 233/4/2 235/4/2 237/4/2
f 235/4/2 236/4/2 237/4/2
f 237/4/2 236/4/2 238/4/2
f 238/4/2 236/4/2 239/4/2
f 239/4/2 236/4/2 240/4/2
f 238/4/2 239/4/2 241/4/2
f 241/4/2 239/4/2 242/4/2
f 242/4/2 239/4/2 243/4/2
f 243/4/2 239/4/2 244/4/2
f 240/4/2 236/4/2 245/4/2
f 245/4/2 236/4/2 246/4/2
f 233/4/2 237/4/2 247/4/2
f 241/1/2 242/1/2 249/1/2
f 243/1/2 244/1/2 250/1/2
f 245/1/2 246/1/2 251/1/2
f 249/1/2 242/1/2 252/1/2
f 242/2/2 243/2/2 253/2/2
f 252/1/2 242/1/2 253/1/2
f 250/1/2 251/1/2 254/1/2
f 253/2/2 243/2/2 254/2/2
f 243/1/2 250/1/2 254/1/2
f 251/1/2 246/1/2 255/1/2
f 254/1/2 251/1/2 255/1/2
f 230/1/2 231/1/2 256/1/2
f 231/4/2 232/4/2 257/4/2
f 256/1/2 231/1/2 257/1/2
f 232/1/2 233/1/2 258/1/2
f 257/4/2 232/4/2 258/4/2
f 247/4/2 248/4/2 259/4/2
f 258/1/2 233/1/2 259/1/2
f 233/4/2 247/4/2 259/4/2
f 259/4/2 248/4/2 260/4/2
f 261/4/2 262/4/2 263/4/2
f 263/4/2 262/4/2 264/4/2
f 265/4/2 266/4/2 269/4/2
f 269/4/2 266/4/2 270/4/2
f 267/5/2 268/5/2 271/5/2
f 271/5/2 268/5/2 272/5/2
f 273/5/2 274/5/2 275/5/2
f 275/5/2 274/5/2 276/5/2
f 277/1/2 278/1/2 282/1/2
f 278/4/2 279/4/2 283/4/2
f 282/1/2 278/1/2 283/1/2
f 279/1/2 280/1/2 284/1/2
f 283/4/2 279/4/2 284/4/2
f 280/4/2 281/4/2 285/4/2
f 284/1/2 280/1/2 285/1/2
f 285/4/2 281/4/2 286/4/2
f 291/5/3 288/5/3 287/5/3
f 292/5/3 288/5/3 291/5/3
f 293/5/3 290/5/3 289/5/3
f 294/5/3 290/5/3 293/5/3
f 295/5/3 291/5/3 287/5/3
f 296/5/3 288/5/3 292/5/3
f 297/5/3 293/5/3 289/5/3
f 298/5/3 290/5/3 294/5/3
f 299/5/3 295/5/3 287/5/3
f 299/5/3 296/5/3 295/5/3
f 300/5/3 288/5/3 296/5/3
f 300/5/3 296/5/3 299/5/3
f 301/5/3 298/5/3 297/5/3
f 301/5/3 297/5/3 289/5/3
f 302/5/3 290/5/3 298/5/3
f 302/5/3 298/5/3 301/5/3
f 307/5/3 304/5/3 303/5/3
f 308/5/3 304/5/3 307/5/3
f 309/5/3 306/5/3 305/5/3
f 310/5/3 306/5/3 309/5/3
f 311/5/3 307/5/3 303/5/3
f 312/5/3 304/5/3 308/5/3
f 313/5/3 309/5/3 305/5/3
f 314/5/3 306/5/3 310/5/3
f 315/5/3 311/5/3 303/5/3
f 315/5/3 312/5/3 311/5/3
f 316/5/3 304/5/3 312/5/3
f 316/5/3 312/5/3 315/5/3
f 317/5/3 314/5/3 313/5/3
f 317/5/3 313/5/3 305/5/3
f 318/5/3 306/5/3 314/5/3
f 318/5/3 314/5/3 317/5/3
f 321/1/3 320/1/3 319/1/3
f 322/1/3 320/1/3 321/1/3
f 323/1/3 320/1/3 322/1/3
f 324/1/3 320/1/3 323/1/3
f 325/1/3 321/1/3 319/1/3
f 326/1/3 323/1/3 322/1/3
f 327/1/3 323/1/3 326/1/3
f 328/1/3 320/1/3 324/1/3
f 329/1/3 327/1/3 326/1/3
f 329/1/3 328/1/3 327/1/3
f 329/1/3 325/1/3 319/1/3
f 329/1/3 326/1/3 325/1/3
f 330/1/3 320/1/3 328/1/3
f 330/1/3 328/1/3 329/1/3
f 333/1/3 332/1/3 331/1/3
f 334/1/3 332/1/3 333/1/3
f 335/1/3 332/1/3 334/1/3
f 336/1/3 332/1/3 335/1/3
f 337/1/3 333/1/3 331/1/3
f 338/1/3 335/1/3 334/1/3
f 339/1/3 335/1/3 338/1/3
f 340/1/3 332/1/3 336/1/3
f 341/1/3 339/1/3 338/1/3
f 341/1/3 340/1/3 339/1/3
f 341/1/3 337/1/3 331/1/3
f 341/1/3 338/1/3 337/1/3
f 342/1/3 332/1/3 340/1/3
f 342/1/3 340/1/3 341/1/3
f 345/5/3 344/5/3 343/5/3
f 346/5/3 344/5/3 345/5/3
f 347/5/3 345/5/3 343/5/3
f 348/5/3 344/5/3 346/5/3
f 349/5/3 347/5/3 343/5/3
f 349/5/3 348/5/3 347/5/3
f 350/5/3 344/5/3 348/5/3
f 350/5/3 348/5/3 349/5/3
f 353/5/3 352/5/3 351/5/3
f 354/5/3 352/5/3 353/5/3
f 355/5/3 353/5/3 351/5/3
f 356/5/3 352/5/3 354/5/3
f 357/5/3 355/5/3 351/5/3
f 357/5/3 356/5/3 355/5/3
f 358/5/3 352/5/3 356/5/3
f 358/5/3 356/5/3 357/5/3
f 361/1/3 360/1/3 359/1/3
f 362/1/3 360/1/3 361/1/3
f 363/1/3 361/1/3 359/1/3
f 364/1/3 360/1/3 362/1/3
f 365/1/3 363/1/3 359/1/3
f 365/1/3 364/1/3 363/1/3
f 366/1/3 360/1/3 364/1/3
f 366/1/3 364/1/3 365/1/3
f 369/5/3 368/5/3 367/5/3
f 370/5/3 368/5/3 369/5/3
f 373/5/3 372/5/3 371/5/3
f 374/5/3 372/5/3 373/5/3
f 377/1/3 376/1/3 375/1/3
f 378/1/3 376/1/3 377/1/3
f 379/1/3 377/1/3 375/1/3
f 380/1/3 376/1/3 378/1/3
f 381/1/3 379/1/3 375/1/3
f 381/1/3 380/1/3 379/1/3
f 382/1/3 376/1/3 380/1/3
f 382/1/3 380/1/3 381/1/3
f 385/5/3 384/5/3 383/5/3
f 386/5/3 384/5/3 385/5/3
f 389/5/3 388/5/3 387/5/3
f 390/5/3 388/5/3 389/5/3
f 393/4/3 392/4/3 391/4/3
f 394/4/3 392/4/3 393/4/3
f 397/5/3 396/5/3 395/5/3
f 398/5/3 396/5/3 397/5/3
f 401/4/3 400/4/3 399/4/3
f 402/4/3 400/4/3 401/4/3
f 405/4/3 404/4/3 403/4/3
f 406/4/3 404/4/3 405/4/3
f 409/5/3 408/5/3 407/5/3
f 410/5/3 408/5/3 409/5/3
f 413/1/3 412/1/3 411/1/3
f 414/1/3 412/1/3 413/1/3
f 417/4/3 416/4/3 415/4/3
f 418/4/3 416/4/3 417/4/3
f 419/4/3 416/4/3 418/4/3
f 423/4/3 421/4/3 420/4/3
f 423/4/3 422/4/3 421/4/3
f 424/4/3 422/4/3 423/4/3
f 427/5/3 426/5/3 425/5/3
f 428/5/3 426/5/3 427/5/3
f 429/3/4 430/3/4 431/3/4
f 431/3/4 430/3/4 432/3/4
f 433/3/4 434/3/4 435/3/4
f 435/3/4 434/3/4 436/3/4
f 439/4/4 440/4/4 441/4/4
f 441/4/4 440/4/4 442/4/4
f 439/4/4 441/4/4 443/4/4
f 442/4/4 440/4/4 444/4/4
f 437/4/4 438/4/4 445/4/4
f 445/4/4 438/4/4 446/4/4
f 443/4/4 444/4/4 447/4/4
f 439/4/4 443/4/4 447/4/4
f 444/4/4 440/4/4 448/4/4
f 447/4/4 444/4/4 448/4/4
f 451/4/4 452/4/4 453/4/4
f 453/4/4 452/4/4 454/4/4
f 451/4/4 453/4/4 455/4/4
f 454/4/4 452/4/4 456/4/4
f 449/4/4 450/4/4 457/4/4
f 457/4/4 450/4/4 458/4/4
f 455/4/4 456/4/4 459/4/4
f 451/4/4 455/4/4 459/4/4
f 456/4/4 452/4/4 460/4/4
f 459/4/4 456/4/4 460/4/4
f 461/4/4 462/4/4 463/4/4
f 463/4/4 462/4/4 464/4/4
f 464/4/4 462/4/4 465/4/4
f 466/4/4 467/4/4 469/4/4
f 467/4/4 468/4/4 469/4/4
f 469/4/4 468/4/4 470/4/4
f 471/3/4 472/3/4 473/3/4
f 473/3/4 472/3/4 474/3/4
f 475/3/4 476/3/4 477/3/4
f 477/3/4 476/3/4 478/3/4
f 479/4/4 480/4/4 481/4/4
f 481/4/4 480/4/4 482/4/4
f 479/4/4 481/4/4 483/4/4
f 482/4/4 480/4/4 484/4/4
f 479/4/4 483/4/4 485/4/4
f 483/4/4 484/4/4 485/4/4
f 484/4/4 480/4/4 486/4/4
f 485/4/4 484/4/4 486/4/4
f 487/4/4 488/4/4 489/4/4
f 489/4/4 488/4/4 490/4/4
f 487/4/4 489/4/4 491/4/4
f 490/4/4 488/4/4 492/4/4
f 487/4/4 491/4/4 493/4/4
f 491/4/4 492/4/4 493/4/4
f 492/4/4 488/4/4 494/4/4
f 493/4/4 492/4/4 494/4/4
f 495/4/4 496/4/4 497/4/4
f 497/4/4 496/4/4 498/4/4
f 498/4/4 496/4/4 499/4/4
f 500/4/4 501/4/4 503/4/4
f 501/4/4 502/4/4 503/4/4
f 503/4/4 502/4/4 504/4/4
f 505/4/4 506/4/4 508/4/4
f 506/1/4 507/1/4 509/1/4
f 508/4/4 506/4/4 509/4/4
f 509/1/4 507/1/4 510/1/4
f 505/4/4 508/4/4 511/4/4
f 505/4/4 511/4/4 514/4/4
f 511/4/4 512/4/4 514/4/4
f 512/1/4 513/1/4 515/1/4
f 514/4/4 512/4/4 515/4/4
f 515/1/4 513/1/4 516/1/4
f 517/5/4 518/5/4 519/5/4
f 519/5/4 518/5/4 520/5/4
f 525/1/5 522/1/5 521/1/5
f 526/1/5 522/1/5 525/1/5
f 527/1/5 524/1/5 523/1/5
f 528/1/5 524/1/5 527/1/5
f 529/4/5 526/4/5 525/4/5
f 530/4/5 526/4/5 529/4/5
f 531/4/5 528/4/5 527/4/5
f 532/4/5 528/4/5 531/4/5
f 533/1/5 530/1/5 529/1/5
f 534/1/5 530/1/5 533/1/5
f 535/1/5 532/1/5 531/1/5
f 536/1/5 532/1/5 535/1/5
f 537/4/5 534/4/5 533/4/5
f 538/4/5 534/4/5 537/4/5
f 539/4/5 536/4/5 535/4/5
f 540/4/5 536/4/5 539/4/5
f 545/5/5 542/5/5 541/5/5
f 546/5/5 542/5/5 545/5/5
f 547/5/5 544/5/5 543/5/5
f 548/5/5 544/5/5 547/5/5
f 552/4/5 550/4/5 549/4/5
f 553/4/5 550/4/5 552/4/5
f 555/4/5 553/4/5 552/4/5
f 555/4/5 554/4/5 553/4/5
f 555/4/5 552/4/5 551/4/5
f 556/4/5 554/4/5 555/4/5
f 561/1/5 558/1/5 557/1/5
f 562/1/5 558/1/5 561/1/5
f 565/1/5 560/1/5 559/1/5
f 566/1/5 560/1/5 565/1/5
f 567/4/5 563/4/5 562/4/5
f 567/4/5 562/4/5 561/4/5
f 568/4/5 563/4/5 567/4/5
f 569/4/5 566/4/5 565/4/5
f 569/4/5 565/4/5 564/4/5
f 570/4/5 566/4/5 569/4/5
f 571/1/5 568/1/5 567/1/5
f 572/4/5 563/4/5 568/4/5
f 572/1/5 568/1/5 571/1/5
f 573/4/5 569/4/5 564/4/5
f 573/1/5 570/1/5 569/1/5
f 574/1/5 570/1/5 573/1/5
f 575/4/5 563/4/5 572/4/5
f 575/4/5 572/4/5 571/4/5
f 576/4/5 563/4/5 575/4/5
f 577/4/5 574/4/5 573/4/5
f 577/4/5 573/4/5 564/4/5
f 578/4/5 574/4/5 577/4/5
f 579/4/5 575/4/5 571/4/5
f 580/4/5 575/4/5 579/4/5
f 581/4/5 574/4/5 578/4/5
f 582/4/5 574/4/5 581/4/5
f 585/5/5 584/5/5 583/5/5
f 586/5/5 584/5/5 585/5/5
f 591/5/5 588/5/5 587/5/5
f 592/5/5 588/5/5 591/5/5
f 593/5/5 590/5/5 589/5/5
f 594/5/5 590/5/5 593/5/5
f 599/4/5 596/4/5 595/4/5
f 600/4/5 596/4/5 599/4/5
f 601/4/5 598/4/5 597/4/5
f 602/4/5 598/4/5 601/4/5
f 607/5/5 604/5/5 603/5/5
f 608/5/5 604/5/5 607/5/5
f 609/5/5 606/5/5 605/5/5
f 610/5/5 606/5/5 609/5/5
f 615/5/5 612/5/5 611/5/5
f 616/5/5 612/5/5 615/5/5
f 617/5/5 614/5/5 613/5/5
f 618/5/5 614/5/5 617/5/5
f 623/5/5 620/5/5 619/5/5
f 624/5/5 620/5/5 623/5/5
f 625/5/5 622/5/5 621/5/5
f 626/5/5 622/5/5 625/5/5
f 631/4/5 628/4/5 627/4/5
f 632/4/5 628/4/5 631/4/5
f 633/4/5 630/4/5 629/4/5
f 634/4/5 630/4/5 633/4/5
f 639/5/5 636/5/5 635/5/5
f 640/5/5 636/5/5 639/5/5
f 641/5/5 638/5/5 637/5/5
f 642/5/5 638/5/5 641/5/5
f 647/4/5 644/4/5 643/4/5
f 648/4/5 644/4/5 647/4/5
f 649/4/5 646/4/5 645/4/5
f 650/4/5 646/4/5 649/4/5
f 651/5/6 652/5/6 655/5/6
f 655/5/6 652/5/6 656/5/6
f 653/5/6 654/5/6 657/5/6
f 657/5/6 654/5/6 658/5/6
f 659/4/6 660/4/6 663/4/6
f 663/4/6 660/4/6 664/4/6
f 661/4/6 662/4/6 665/4/6
f 665/4/6 662/4/6 666/4/6
f 667/5/6 668/5/6 671/5/6
f 671/5/6 668/5/6 672/5/6
f 669/5/6 670/5/6 673/5/6
f 673/5/6 670/5/6 674/5/6
f 677/4/6 678/4/6 681/4/6
f 679/4/6 680/4/6 682/4/6
f 681/4/6 678/4/6 683/4/6
f 683/4/6 678/4/6 684/4/6
f 675/4/6 676/4/6 685/4/6
f 685/4/6 676/4/6 686/4/6
f 679/4/6 682/4/6 687/4/6
f 687/4/6 682/4/6 688/4/6
f 683/4/6 684/4/6 689/4/6
f 685/4/6 686/4/6 689/4/6
f 687/4/6 688/4/6 689/4/6
f 686/4/6 687/4/6 689/4/6
f 684/4/6 685/4/6 689/4/6
f 689/4/6 688/4/6 690/4/6
f 690/4/6 688/4/6 691/4/6
f 691/4/6 688/4/6 692/4/6
f 693/4/6 694/4/6 697/4/6
f 697/4/6 694/4/6 698/4/6
f 695/4/6 696/4/6 699/4/6
f 699/4/6 696/4/6 700/4/6
f 701/5/6 702/5/6 705/5/6
f 705/5/6 702/5/6 706/5/6
f 703/5/6 704/5/6 707/5/6
f 707/5/6 704/5/6 708/5/6
f 709/4/6 710/4/6 713/4/6
f 713/4/6 710/4/6 714/4/6
f 711/4/6 712/4/6 715/4/6
f 715/4/6 712/4/6 716/4/6
f 721/5/6 722/5/6 725/5/6
f 725/5/6 722/5/6 726/5/6
f 717/5/6 718/5/6 727/5/6
f 727/5/6 718/5/6 728/5/6
f 719/5/6 720/5/6 729/5/6
f 729/5/6 720/5/6 730/5/6
f 723/5/6 724/5/6 731/5/6
f 731/5/6 724/5/6 732/5/6
f 733/1/6 734/1/6 737/1/6
f 737/1/6 734/1/6 738/1/6
f 735/1/6 736/1/6 739/1/6
f 739/1/6 736/1/6 740/1/6
f 737/4/6 738/4/6 741/4/6
f 741/4/6 738/4/6 742/4/6
f 739/4/6 740/4/6 743/4/6
f 743/4/6 740/4/6 744/4/6
f 741/1/6 742/1/6 745/1/6
f 745/1/6 742/1/6 746/1/6
f 743/1/6 744/1/6 747/1/6
f 747/1/6 744/1/6 748/1/6
f 745/4/6 746/4/6 751/4/6
f 751/4/6 746/4/6 752/4/6
f 749/1/6 750/1/6 753/1/6
f 753/1/6 750/1/6 754/1/6
f 747/4/6 748/4/6 755/4/6
f 755/4/6 748/4/6 756/4/6
f 753/2/6 754/2/6 757/2/6
f 757/2/6 754/2/6 758/2/6
f 749/1/6 753/1/6 759/1/6
f 753/2/6 757/2/6 760/2/6
f 759/1/6 753/1/6 760/1/6
f 754/1/6 750/1/6 761/1/6
f 758/2/6 754/2/6 761/2/6
f 761/1/6 750/1/6 762/1/6
f 759/2/6 760/2/6 763/2/6
f 760/2/6 757/2/6 764/2/6
f 763/2/6 760/2/6 764/2/6
f 757/1/6 758/1/6 764/1/6
f 761/2/6 762/2/6 765/2/6
f 764/1/6 758/1/6 765/1/6
f 758/2/6 761/2/6 765/2/6
f 765/2/6 762/2/6 766/2/6
f 763/1/6 764/1/6 767/1/6
f 764/1/6 765/1/6 767/1/6
f 765/1/6 766/1/6 767/1/6
f 767/1/6 766/1/6 768/1/6
f 763/1/6 767/1/6 769/1/6
f 769/1/6 767/1/6 770/1/6
f 768/1/6 766/1/6 771/1/6
f 771/1/6 766/1/6 772/1/6
f 773/5/6 774/5/6 775/5/6
f 775/5/6 774/5/6 776/5/6
f 777/5/6 778/5/6 781/5/6
f 781/5/6 778/5/6 782/5/6
f 779/5/6 780/5/6 783/5/6
f 783/5/6 780/5/6 784/5/6
f 785/1/6 786/1/6 789/1/6
f 789/1/6 786/1/6 790/1/6
f 787/1/6 788/1/6 791/1/6
f 791/1/6 788/1/6 792/1/6
f 789/4/6 790/4/6 793/4/6
f 793/4/6 790/4/6 794/4/6
f 791/4/6 792/4/6 795/4/6
f 795/4/6 792/4/6 796/4/6
f 793/1/6 794/1/6 797/1/6
f 797/1/6 794/1/6 798/1/6
f 795/1/6 796/1/6 799/1/6
f 799/1/6 796/1/6 800/1/6
f 797/4/6 798/4/6 801/4/6
f 801/4/6 798/4/6 802/4/6
f 799/4/6 800/4/6 803/4/6
f 803/4/6 800/4/6 804/4/6
