# MagicaVoxel @ ephtracy

# material
mtllib spaceship chunky.mtl
usemtl palette

# normals
vn -1 0 0
vn 1 0 0
vn 0 -1 0
vn 0 1 0
vn 0 0 -1
vn 0 0 1

# texcoords
vt 0.00195312 0.5
vt 0.00585938 0.5
vt 0.130859 0.5
vt 0.193359 0.5
vt 0.228516 0.5
vt 0.306641 0.5
vt 0.380859 0.5

# verts
v 8 44 48
v 8 56 48
v 8 44 56
v 8 56 56
v 10 4 44
v 10 10 44
v 10 12 44
v 10 16 44
v 10 18 44
v 10 20 44
v 10 24 44
v 10 28 44
v 10 8 48
v 10 10 48
v 10 10 50
v 10 12 50
v 10 10 58
v 10 12 58
v 10 8 60
v 10 10 60
v 10 4 64
v 10 10 64
v 10 12 64
v 10 16 64
v 10 18 64
v 10 20 64
v 10 24 64
v 10 28 64
v 12 40 44
v 12 44 44
v 12 58 44
v 12 60 44
v 12 68 44
v 12 2 46
v 12 4 46
v 12 60 47
v 12 64 47
v 12 44 48
v 12 56 48
v 12 58 49
v 12 62 49
v 12 44 56
v 12 56 56
v 12 58 58
v 12 62 58
v 12 60 60
v 12 64 60
v 12 2 62
v 12 4 62
v 12 40 64
v 12 44 64
v 12 58 64
v 12 60 64
v 12 68 64
v 16 36 40
v 16 58 40
v 16 60 40
v 16 72 40
v 16 74 40
v 16 40 44
v 16 44 44
v 16 58 44
v 16 60 44
v 16 68 44
v 16 40 64
v 16 44 64
v 16 58 64
v 16 60 64
v 16 68 64
v 16 36 68
v 16 58 68
v 16 60 68
v 16 72 68
v 16 74 68
v 18 74 42
v 18 78 42
v 18 82 42
v 18 74 66
v 18 78 66
v 18 82 66
v 20 2 48
v 20 8 48
v 20 2 60
v 20 8 60
v 24 28 48
v 24 36 48
v 24 80 49
v 24 84 49
v 24 28 56
v 24 36 56
v 24 80 59
v 24 84 59
v 28 20 56
v 28 36 56
v 28 20 62
v 28 36 62
v 33 80 49
v 33 84 49
v 33 80 59
v 33 84 59
v 40 4 44
v 40 28 44
v 40 12 48
v 40 28 48
v 40 12 56
v 40 16 56
v 40 18 56
v 40 20 56
v 40 24 56
v 40 28 56
v 40 4 64
v 40 16 64
v 40 18 64
v 40 20 64
v 40 24 64
v 40 28 64
v 42 2 46
v 42 4 46
v 42 80 46
v 42 82 46
v 42 2 62
v 42 4 62
v 42 80 62
v 42 82 62
v 50 2 48
v 50 8 48
v 50 2 60
v 50 8 60
v 14 2 48
v 14 8 48
v 14 2 60
v 14 8 60
v 22 2 46
v 22 4 46
v 22 80 46
v 22 82 46
v 22 2 62
v 22 4 62
v 22 80 62
v 22 82 62
v 24 4 44
v 24 10 44
v 24 12 44
v 24 16 44
v 24 18 44
v 24 20 44
v 24 24 44
v 24 28 44
v 24 12 48
v 24 16 48
v 24 18 48
v 24 20 48
v 24 24 48
v 24 28 48
v 24 12 56
v 24 16 56
v 24 18 56
v 24 20 56
v 24 24 56
v 24 28 56
v 24 4 64
v 24 10 64
v 24 12 64
v 24 16 64
v 24 18 64
v 24 20 64
v 24 24 64
v 24 28 64
v 30 80 49
v 30 84 49
v 30 80 59
v 30 84 59
v 36 20 56
v 36 36 56
v 36 20 62
v 36 36 62
v 40 28 48
v 40 36 48
v 40 80 49
v 40 84 49
v 40 28 56
v 40 36 56
v 40 80 59
v 40 84 59
v 44 2 48
v 44 8 48
v 44 2 60
v 44 8 60
v 46 74 42
v 46 78 42
v 46 82 42
v 46 74 66
v 46 78 66
v 46 82 66
v 48 36 40
v 48 58 40
v 48 60 40
v 48 72 40
v 48 74 40
v 48 40 44
v 48 44 44
v 48 58 44
v 48 60 44
v 48 68 44
v 48 40 64
v 48 44 64
v 48 58 64
v 48 60 64
v 48 68 64
v 48 36 68
v 48 58 68
v 48 60 68
v 48 72 68
v 48 74 68
v 52 40 44
v 52 44 44
v 52 58 44
v 52 60 44
v 52 68 44
v 52 2 46
v 52 4 46
v 52 60 47
v 52 64 47
v 52 44 48
v 52 56 48
v 52 58 49
v 52 62 49
v 52 44 56
v 52 56 56
v 52 58 58
v 52 62 58
v 52 60 60
v 52 64 60
v 52 2 62
v 52 4 62
v 52 40 64
v 52 44 64
v 52 58 64
v 52 60 64
v 52 68 64
v 54 4 44
v 54 16 44
v 54 18 44
v 54 20 44
v 54 24 44
v 54 28 44
v 54 4 64
v 54 16 64
v 54 18 64
v 54 20 64
v 54 24 64
v 54 28 64
v 56 44 48
v 56 56 48
v 56 44 56
v 56 56 56
v 12 2 46
v 12 2 62
v 14 2 48
v 14 2 60
v 20 2 48
v 20 2 60
v 22 2 46
v 22 2 62
v 42 2 46
v 42 2 62
v 44 2 48
v 44 2 60
v 50 2 48
v 50 2 60
v 52 2 46
v 52 2 62
v 10 4 44
v 10 4 64
v 12 4 46
v 12 4 62
v 22 4 46
v 22 4 62
v 24 4 44
v 24 4 64
v 40 4 44
v 40 4 64
v 42 4 46
v 42 4 62
v 52 4 46
v 52 4 62
v 54 4 44
v 54 4 64
v 14 8 48
v 14 8 60
v 20 8 48
v 20 8 60
v 44 8 48
v 44 8 60
v 50 8 48
v 50 8 60
v 24 12 48
v 24 12 56
v 40 12 48
v 40 12 56
v 28 20 56
v 28 20 62
v 36 20 56
v 36 20 62
v 16 36 40
v 16 36 68
v 24 36 48
v 24 36 56
v 28 36 56
v 28 36 62
v 36 36 56
v 36 36 62
v 40 36 48
v 40 36 56
v 48 36 40
v 48 36 68
v 12 40 44
v 12 40 64
v 16 40 44
v 16 40 64
v 48 40 44
v 48 40 64
v 52 40 44
v 52 40 64
v 8 44 48
v 8 44 56
v 12 44 48
v 12 44 56
v 52 44 48
v 52 44 56
v 56 44 48
v 56 44 56
v 10 28 44
v 10 28 64
v 24 28 44
v 24 28 48
v 24 28 56
v 24 28 64
v 40 28 44
v 40 28 48
v 40 28 56
v 40 28 64
v 54 28 44
v 54 28 64
v 8 56 48
v 8 56 56
v 12 56 48
v 12 56 56
v 52 56 48
v 52 56 56
v 56 56 48
v 56 56 56
v 12 68 44
v 12 68 64
v 16 68 44
v 16 68 64
v 48 68 44
v 48 68 64
v 52 68 44
v 52 68 64
v 16 74 40
v 16 74 68
v 18 74 42
v 18 74 66
v 46 74 42
v 46 74 66
v 48 74 40
v 48 74 68
v 22 80 46
v 22 80 62
v 24 80 49
v 24 80 59
v 30 80 49
v 30 80 59
v 33 80 49
v 33 80 59
v 40 80 49
v 40 80 59
v 42 80 46
v 42 80 62
v 18 82 42
v 18 82 66
v 22 82 46
v 22 82 62
v 42 82 46
v 42 82 62
v 46 82 42
v 46 82 66
v 24 84 49
v 24 84 59
v 30 84 49
v 30 84 59
v 33 84 49
v 33 84 59
v 40 84 49
v 40 84 59
v 16 36 40
v 48 36 40
v 16 58 40
v 48 58 40
v 16 60 40
v 48 60 40
v 16 72 40
v 48 72 40
v 16 74 40
v 48 74 40
v 18 74 42
v 46 74 42
v 18 78 42
v 46 78 42
v 18 82 42
v 46 82 42
v 10 4 44
v 24 4 44
v 40 4 44
v 54 4 44
v 10 10 44
v 24 10 44
v 10 12 44
v 24 12 44
v 10 16 44
v 24 16 44
v 50 16 44
v 54 16 44
v 10 18 44
v 24 18 44
v 50 18 44
v 54 18 44
v 10 20 44
v 24 20 44
v 48 20 44
v 54 20 44
v 10 24 44
v 24 24 44
v 48 24 44
v 54 24 44
v 10 28 44
v 24 28 44
v 40 28 44
v 54 28 44
v 12 40 44
v 16 40 44
v 48 40 44
v 52 40 44
v 12 44 44
v 16 44 44
v 48 44 44
v 52 44 44
v 12 58 44
v 16 58 44
v 48 58 44
v 52 58 44
v 12 60 44
v 16 60 44
v 48 60 44
v 52 60 44
v 12 68 44
v 16 68 44
v 48 68 44
v 52 68 44
v 12 2 46
v 22 2 46
v 42 2 46
v 52 2 46
v 12 4 46
v 22 4 46
v 42 4 46
v 52 4 46
v 24 12 48
v 40 12 48
v 24 16 48
v 24 18 48
v 24 20 48
v 24 24 48
v 24 28 48
v 40 28 48
v 24 36 48
v 40 36 48
v 8 44 48
v 12 44 48
v 52 44 48
v 56 44 48
v 8 56 48
v 12 56 48
v 52 56 48
v 56 56 48
v 24 80 49
v 30 80 49
v 33 80 49
v 40 80 49
v 24 84 49
v 30 84 49
v 33 84 49
v 40 84 49
v 14 2 60
v 20 2 60
v 44 2 60
v 50 2 60
v 14 8 60
v 20 8 60
v 44 8 60
v 50 8 60
v 22 80 62
v 42 80 62
v 22 82 62
v 42 82 62
v 22 80 46
v 42 80 46
v 22 82 46
v 42 82 46
v 14 2 48
v 20 2 48
v 44 2 48
v 50 2 48
v 14 8 48
v 20 8 48
v 44 8 48
v 50 8 48
v 24 12 56
v 40 12 56
v 24 16 56
v 40 16 56
v 24 18 56
v 40 18 56
v 24 20 56
v 28 20 56
v 36 20 56
v 40 20 56
v 24 24 56
v 40 24 56
v 24 28 56
v 40 28 56
v 24 36 56
v 28 36 56
v 36 36 56
v 40 36 56
v 8 44 56
v 12 44 56
v 52 44 56
v 56 44 56
v 8 56 56
v 12 56 56
v 52 56 56
v 56 56 56
v 24 80 59
v 30 80 59
v 33 80 59
v 40 80 59
v 24 84 59
v 30 84 59
v 33 84 59
v 40 84 59
v 12 2 62
v 22 2 62
v 42 2 62
v 52 2 62
v 12 4 62
v 22 4 62
v 42 4 62
v 52 4 62
v 28 20 62
v 36 20 62
v 28 36 62
v 36 36 62
v 10 4 64
v 24 4 64
v 40 4 64
v 54 4 64
v 10 10 64
v 24 10 64
v 10 12 64
v 24 12 64
v 10 16 64
v 24 16 64
v 40 16 64
v 54 16 64
v 10 18 64
v 24 18 64
v 40 18 64
v 54 18 64
v 10 20 64
v 24 20 64
v 40 20 64
v 54 20 64
v 10 24 64
v 24 24 64
v 40 24 64
v 54 24 64
v 10 28 64
v 24 28 64
v 40 28 64
v 54 28 64
v 12 40 64
v 16 40 64
v 48 40 64
v 52 40 64
v 12 44 64
v 16 44 64
v 48 44 64
v 52 44 64
v 12 58 64
v 16 58 64
v 48 58 64
v 52 58 64
v 12 60 64
v 16 60 64
v 48 60 64
v 52 60 64
v 12 68 64
v 16 68 64
v 48 68 64
v 52 68 64
v 18 74 66
v 46 74 66
v 18 78 66
v 46 78 66
v 18 82 66
v 46 82 66
v 16 36 68
v 48 36 68
v 16 58 68
v 26 58 68
v 38 58 68
v 48 58 68
v 16 60 68
v 24 60 68
v 40 60 68
v 48 60 68
v 26 64 68
v 38 64 68
v 24 66 68
v 40 66 68
v 16 72 68
v 48 72 68
v 16 74 68
v 48 74 68

# faces
f 3/1/1 2/1/1 1/1/1
f 4/1/1 2/1/1 3/1/1
f 13/1/1 6/1/1 5/1/1
f 14/2/1 7/2/1 6/2/1
f 14/1/1 6/1/1 13/1/1
f 15/2/1 14/2/1 13/2/1
f 15/2/1 7/2/1 14/2/1
f 16/1/1 8/1/1 7/1/1
f 16/2/1 7/2/1 15/2/1
f 17/2/1 15/2/1 13/2/1
f 17/1/1 16/1/1 15/1/1
f 18/1/1 8/1/1 16/1/1
f 18/1/1 16/1/1 17/1/1
f 19/1/1 13/1/1 5/1/1
f 19/2/1 17/2/1 13/2/1
f 19/2/1 18/2/1 17/2/1
f 20/2/1 18/2/1 19/2/1
f 21/1/1 19/1/1 5/1/1
f 21/1/1 20/1/1 19/1/1
f 22/2/1 18/2/1 20/2/1
f 22/1/1 20/1/1 21/1/1
f 23/1/1 8/1/1 18/1/1
f 23/2/1 18/2/1 22/2/1
f 24/5/1 9/5/1 8/5/1
f 24/1/1 8/1/1 23/1/1
f 25/1/1 10/1/1 9/1/1
f 25/5/1 9/5/1 24/5/1
f 26/5/1 11/5/1 10/5/1
f 26/1/1 10/1/1 25/1/1
f 27/1/1 12/1/1 11/1/1
f 27/5/1 11/5/1 26/5/1
f 28/1/1 12/1/1 27/1/1
f 36/2/1 32/2/1 31/2/1
f 36/1/1 33/1/1 32/1/1
f 37/1/1 33/1/1 36/1/1
f 38/5/1 30/5/1 29/5/1
f 38/1/1 31/1/1 30/1/1
f 39/1/1 31/1/1 38/1/1
f 40/2/1 37/2/1 36/2/1
f 40/1/1 31/1/1 39/1/1
f 40/2/1 36/2/1 31/2/1
f 41/2/1 37/2/1 40/2/1
f 42/5/1 38/5/1 29/5/1
f 43/1/1 40/1/1 39/1/1
f 43/1/1 41/1/1 40/1/1
f 44/1/1 41/1/1 43/1/1
f 44/1/1 43/1/1 42/1/1
f 45/2/1 37/2/1 41/2/1
f 45/1/1 41/1/1 44/1/1
f 46/2/1 45/2/1 44/2/1
f 47/1/1 33/1/1 37/1/1
f 47/2/1 45/2/1 46/2/1
f 47/2/1 37/2/1 45/2/1
f 48/7/1 35/7/1 34/7/1
f 49/7/1 35/7/1 48/7/1
f 50/5/1 42/5/1 29/5/1
f 51/1/1 44/1/1 42/1/1
f 51/5/1 42/5/1 50/5/1
f 52/2/1 46/2/1 44/2/1
f 52/1/1 44/1/1 51/1/1
f 53/1/1 47/1/1 46/1/1
f 53/2/1 46/2/1 52/2/1
f 54/1/1 33/1/1 47/1/1
f 54/1/1 47/1/1 53/1/1
f 60/1/1 56/1/1 55/1/1
f 61/1/1 56/1/1 60/1/1
f 62/2/1 57/2/1 56/2/1
f 62/1/1 56/1/1 61/1/1
f 63/1/1 58/1/1 57/1/1
f 63/2/1 57/2/1 62/2/1
f 64/1/1 58/1/1 63/1/1
f 65/1/1 60/1/1 55/1/1
f 69/1/1 58/1/1 64/1/1
f 70/1/1 65/1/1 55/1/1
f 70/1/1 66/1/1 65/1/1
f 70/1/1 67/1/1 66/1/1
f 71/2/1 68/2/1 67/2/1
f 71/1/1 67/1/1 70/1/1
f 72/1/1 69/1/1 68/1/1
f 72/2/1 68/2/1 71/2/1
f 73/5/1 59/5/1 58/5/1
f 73/1/1 69/1/1 72/1/1
f 73/1/1 58/1/1 69/1/1
f 74/5/1 59/5/1 73/5/1
f 78/1/1 76/1/1 75/1/1
f 79/5/1 77/5/1 76/5/1
f 79/1/1 76/1/1 78/1/1
f 80/5/1 77/5/1 79/5/1
f 83/7/1 82/7/1 81/7/1
f 84/7/1 82/7/1 83/7/1
f 89/1/1 86/1/1 85/1/1
f 90/1/1 86/1/1 89/1/1
f 91/3/1 88/3/1 87/3/1
f 92/3/1 88/3/1 91/3/1
f 95/1/1 94/1/1 93/1/1
f 96/1/1 94/1/1 95/1/1
f 99/3/1 98/3/1 97/3/1
f 100/3/1 98/3/1 99/3/1
f 103/1/1 102/1/1 101/1/1
f 104/1/1 102/1/1 103/1/1
f 105/1/1 103/1/1 101/1/1
f 111/1/1 105/1/1 101/1/1
f 111/1/1 106/1/1 105/1/1
f 112/5/1 107/5/1 106/5/1
f 112/1/1 106/1/1 111/1/1
f 113/1/1 108/1/1 107/1/1
f 113/5/1 107/5/1 112/5/1
f 114/5/1 109/5/1 108/5/1
f 114/1/1 108/1/1 113/1/1
f 115/1/1 110/1/1 109/1/1
f 115/5/1 109/5/1 114/5/1
f 116/1/1 110/1/1 115/1/1
f 121/7/1 118/7/1 117/7/1
f 122/7/1 118/7/1 121/7/1
f 123/5/1 120/5/1 119/5/1
f 124/5/1 120/5/1 123/5/1
f 127/7/1 126/7/1 125/7/1
f 128/7/1 126/7/1 127/7/1
f 129/7/2 130/7/2 131/7/2
f 131/7/2 130/7/2 132/7/2
f 133/7/2 134/7/2 137/7/2
f 137/7/2 134/7/2 138/7/2
f 135/5/2 136/5/2 139/5/2
f 139/5/2 136/5/2 140/5/2
f 142/2/2 143/2/2 149/2/2
f 143/1/2 144/1/2 149/1/2
f 144/5/2 145/5/2 150/5/2
f 149/1/2 144/1/2 150/1/2
f 145/1/2 146/1/2 151/1/2
f 150/5/2 145/5/2 151/5/2
f 146/5/2 147/5/2 152/5/2
f 151/1/2 146/1/2 152/1/2
f 147/1/2 148/1/2 153/1/2
f 152/5/2 147/5/2 153/5/2
f 153/1/2 148/1/2 154/1/2
f 142/2/2 149/2/2 155/2/2
f 141/1/2 142/1/2 161/1/2
f 142/2/2 155/2/2 162/2/2
f 161/1/2 142/1/2 162/1/2
f 155/1/2 156/1/2 163/1/2
f 162/2/2 155/2/2 163/2/2
f 156/5/2 157/5/2 164/5/2
f 163/1/2 156/1/2 164/1/2
f 157/1/2 158/1/2 165/1/2
f 164/5/2 157/5/2 165/5/2
f 158/5/2 159/5/2 166/5/2
f 165/1/2 158/1/2 166/1/2
f 159/1/2 160/1/2 167/1/2
f 166/5/2 159/5/2 167/5/2
f 167/1/2 160/1/2 168/1/2
f 169/3/2 170/3/2 171/3/2
f 171/3/2 170/3/2 172/3/2
f 173/1/2 174/1/2 175/1/2
f 175/1/2 174/1/2 176/1/2
f 177/1/2 178/1/2 181/1/2
f 181/1/2 178/1/2 182/1/2
f 179/3/2 180/3/2 183/3/2
f 183/3/2 180/3/2 184/3/2
f 185/7/2 186/7/2 187/7/2
f 187/7/2 186/7/2 188/7/2
f 189/1/2 190/1/2 192/1/2
f 190/5/2 191/5/2 193/5/2
f 192/1/2 190/1/2 193/1/2
f 193/5/2 191/5/2 194/5/2
f 195/1/2 196/1/2 200/1/2
f 200/1/2 196/1/2 201/1/2
f 196/2/2 197/2/2 202/2/2
f 201/1/2 196/1/2 202/1/2
f 197/1/2 198/1/2 203/1/2
f 202/2/2 197/2/2 203/2/2
f 203/1/2 198/1/2 204/1/2
f 195/1/2 200/1/2 205/1/2
f 204/1/2 198/1/2 209/1/2
f 195/1/2 205/1/2 210/1/2
f 205/1/2 206/1/2 210/1/2
f 206/1/2 207/1/2 210/1/2
f 207/2/2 208/2/2 211/2/2
f 210/1/2 207/1/2 211/1/2
f 208/1/2 209/1/2 212/1/2
f 211/2/2 208/2/2 212/2/2
f 198/5/2 199/5/2 213/5/2
f 212/1/2 209/1/2 213/1/2
f 209/1/2 198/1/2 213/1/2
f 213/5/2 199/5/2 214/5/2
f 217/2/2 218/2/2 222/2/2
f 218/1/2 219/1/2 222/1/2
f 222/1/2 219/1/2 223/1/2
f 215/5/2 216/5/2 224/5/2
f 216/1/2 217/1/2 224/1/2
f 224/1/2 217/1/2 225/1/2
f 222/2/2 223/2/2 226/2/2
f 225/1/2 217/1/2 226/1/2
f 217/2/2 222/2/2 226/2/2
f 226/2/2 223/2/2 227/2/2
f 215/5/2 224/5/2 228/5/2
f 225/1/2 226/1/2 229/1/2
f 226/1/2 227/1/2 229/1/2
f 229/1/2 227/1/2 230/1/2
f 228/1/2 229/1/2 230/1/2
f 227/2/2 223/2/2 231/2/2
f 230/1/2 227/1/2 231/1/2
f 230/2/2 231/2/2 232/2/2
f 223/1/2 219/1/2 233/1/2
f 232/2/2 231/2/2 233/2/2
f 231/2/2 223/2/2 233/2/2
f 220/7/2 221/7/2 234/7/2
f 234/7/2 221/7/2 235/7/2
f 215/5/2 228/5/2 236/5/2
f 228/1/2 230/1/2 237/1/2
f 236/5/2 228/5/2 237/5/2
f 230/2/2 232/2/2 238/2/2
f 237/1/2 230/1/2 238/1/2
f 232/1/2 233/1/2 239/1/2
f 238/2/2 232/2/2 239/2/2
f 233/1/2 219/1/2 240/1/2
f 239/1/2 233/1/2 240/1/2
f 241/1/2 242/1/2 247/1/2
f 242/5/2 243/5/2 248/5/2
f 247/1/2 242/1/2 248/1/2
f 243/1/2 244/1/2 249/1/2
f 248/5/2 243/5/2 249/5/2
f 244/5/2 245/5/2 250/5/2
f 249/1/2 244/1/2 250/1/2
f 245/1/2 246/1/2 251/1/2
f 250/5/2 245/5/2 251/5/2
f 251/1/2 246/1/2 252/1/2
f 253/1/2 254/1/2 255/1/2
f 255/1/2 254/1/2 256/1/2
f 259/7/3 258/7/3 257/7/3
f 260/7/3 258/7/3 259/7/3
f 261/7/3 259/7/3 257/7/3
f 262/7/3 258/7/3 260/7/3
f 263/7/3 261/7/3 257/7/3
f 263/7/3 262/7/3 261/7/3
f 264/7/3 258/7/3 262/7/3
f 264/7/3 262/7/3 263/7/3
f 267/7/3 266/7/3 265/7/3
f 268/7/3 266/7/3 267/7/3
f 269/7/3 267/7/3 265/7/3
f 270/7/3 266/7/3 268/7/3
f 271/7/3 269/7/3 265/7/3
f 271/7/3 270/7/3 269/7/3
f 272/7/3 266/7/3 270/7/3
f 272/7/3 270/7/3 271/7/3
f 275/1/3 274/1/3 273/1/3
f 276/1/3 274/1/3 275/1/3
f 277/1/3 275/1/3 273/1/3
f 278/1/3 274/1/3 276/1/3
f 279/1/3 277/1/3 273/1/3
f 279/1/3 278/1/3 277/1/3
f 280/1/3 274/1/3 278/1/3
f 280/1/3 278/1/3 279/1/3
f 283/1/3 282/1/3 281/1/3
f 284/1/3 282/1/3 283/1/3
f 285/1/3 283/1/3 281/1/3
f 286/1/3 282/1/3 284/1/3
f 287/1/3 285/1/3 281/1/3
f 287/1/3 286/1/3 285/1/3
f 288/1/3 282/1/3 286/1/3
f 288/1/3 286/1/3 287/1/3
f 291/7/3 290/7/3 289/7/3
f 292/7/3 290/7/3 291/7/3
f 295/7/3 294/7/3 293/7/3
f 296/7/3 294/7/3 295/7/3
f 299/1/3 298/1/3 297/1/3
f 300/1/3 298/1/3 299/1/3
f 303/1/3 302/1/3 301/1/3
f 304/1/3 302/1/3 303/1/3
f 307/1/3 306/1/3 305/1/3
f 308/1/3 306/1/3 307/1/3
f 309/1/3 306/1/3 308/1/3
f 310/1/3 306/1/3 309/1/3
f 312/1/3 306/1/3 310/1/3
f 313/1/3 307/1/3 305/1/3
f 314/1/3 312/1/3 311/1/3
f 315/1/3 313/1/3 305/1/3
f 315/1/3 314/1/3 313/1/3
f 316/1/3 312/1/3 314/1/3
f 316/1/3 314/1/3 315/1/3
f 316/1/3 306/1/3 312/1/3
f 319/5/3 318/5/3 317/5/3
f 320/5/3 318/5/3 319/5/3
f 323/5/3 322/5/3 321/5/3
f 324/5/3 322/5/3 323/5/3
f 327/1/3 326/1/3 325/1/3
f 328/1/3 326/1/3 327/1/3
f 331/1/3 330/1/3 329/1/3
f 332/1/3 330/1/3 331/1/3
f 333/1/4 334/1/4 335/1/4
f 335/1/4 334/1/4 336/1/4
f 336/1/4 334/1/4 337/1/4
f 337/1/4 334/1/4 338/1/4
f 339/1/4 340/1/4 343/1/4
f 341/1/4 342/1/4 343/1/4
f 340/1/4 341/1/4 343/1/4
f 343/1/4 342/1/4 344/1/4
f 345/1/4 346/1/4 347/1/4
f 347/1/4 346/1/4 348/1/4
f 349/1/4 350/1/4 351/1/4
f 351/1/4 350/1/4 352/1/4
f 353/1/4 354/1/4 355/1/4
f 355/1/4 354/1/4 356/1/4
f 357/1/4 358/1/4 359/1/4
f 359/1/4 358/1/4 360/1/4
f 361/5/4 362/5/4 363/5/4
f 363/5/4 362/5/4 364/5/4
f 361/5/4 363/5/4 365/5/4
f 364/5/4 362/5/4 366/5/4
f 361/5/4 365/5/4 367/5/4
f 365/5/4 366/5/4 367/5/4
f 366/5/4 362/5/4 368/5/4
f 367/5/4 366/5/4 368/5/4
f 369/4/4 370/4/4 371/4/4
f 371/4/4 370/4/4 372/4/4
f 369/4/4 371/4/4 373/4/4
f 372/4/4 370/4/4 374/4/4
f 369/4/4 373/4/4 375/4/4
f 373/4/4 374/4/4 375/4/4
f 374/4/4 370/4/4 376/4/4
f 375/4/4 374/4/4 376/4/4
f 369/4/4 375/4/4 377/4/4
f 376/4/4 370/4/4 378/4/4
f 369/4/4 377/4/4 379/4/4
f 377/4/4 378/4/4 379/4/4
f 378/4/4 370/4/4 380/4/4
f 379/4/4 378/4/4 380/4/4
f 381/5/4 382/5/4 383/5/4
f 383/5/4 382/5/4 384/5/4
f 381/5/4 383/5/4 385/5/4
f 384/5/4 382/5/4 386/5/4
f 381/5/4 385/5/4 387/5/4
f 385/5/4 386/5/4 387/5/4
f 386/5/4 382/5/4 388/5/4
f 387/5/4 386/5/4 388/5/4
f 389/3/4 390/3/4 391/3/4
f 391/3/4 390/3/4 392/3/4
f 393/3/4 394/3/4 395/3/4
f 395/3/4 394/3/4 396/3/4
f 399/1/5 398/1/5 397/1/5
f 400/1/5 398/1/5 399/1/5
f 401/2/5 400/2/5 399/2/5
f 402/2/5 400/2/5 401/2/5
f 403/1/5 402/1/5 401/1/5
f 404/1/5 402/1/5 403/1/5
f 405/5/5 404/5/5 403/5/5
f 406/5/5 404/5/5 405/5/5
f 409/1/5 408/1/5 407/1/5
f 410/1/5 408/1/5 409/1/5
f 411/5/5 410/5/5 409/5/5
f 412/5/5 410/5/5 411/5/5
f 417/1/5 414/1/5 413/1/5
f 418/1/5 414/1/5 417/1/5
f 419/2/5 418/2/5 417/2/5
f 420/2/5 418/2/5 419/2/5
f 421/1/5 420/1/5 419/1/5
f 422/1/5 420/1/5 421/1/5
f 423/1/5 416/1/5 415/1/5
f 424/1/5 416/1/5 423/1/5
f 425/5/5 422/5/5 421/5/5
f 426/5/5 422/5/5 425/5/5
f 427/1/5 423/1/5 415/1/5
f 427/5/5 424/5/5 423/5/5
f 428/5/5 424/5/5 427/5/5
f 429/1/5 426/1/5 425/1/5
f 430/1/5 426/1/5 429/1/5
f 431/1/5 427/1/5 415/1/5
f 431/1/5 428/1/5 427/1/5
f 432/1/5 428/1/5 431/1/5
f 433/5/5 430/5/5 429/5/5
f 434/5/5 430/5/5 433/5/5
f 435/1/5 431/1/5 415/1/5
f 435/5/5 432/5/5 431/5/5
f 436/5/5 432/5/5 435/5/5
f 437/1/5 434/1/5 433/1/5
f 438/1/5 434/1/5 437/1/5
f 439/1/5 435/1/5 415/1/5
f 439/1/5 436/1/5 435/1/5
f 440/1/5 436/1/5 439/1/5
f 445/5/5 442/5/5 441/5/5
f 446/5/5 442/5/5 445/5/5
f 447/5/5 444/5/5 443/5/5
f 448/5/5 444/5/5 447/5/5
f 449/1/5 446/1/5 445/1/5
f 450/1/5 446/1/5 449/1/5
f 451/1/5 448/1/5 447/1/5
f 452/1/5 448/1/5 451/1/5
f 453/2/5 450/2/5 449/2/5
f 454/2/5 450/2/5 453/2/5
f 455/2/5 452/2/5 451/2/5
f 456/2/5 452/2/5 455/2/5
f 457/1/5 454/1/5 453/1/5
f 458/1/5 454/1/5 457/1/5
f 459/1/5 456/1/5 455/1/5
f 460/1/5 456/1/5 459/1/5
f 465/7/5 462/7/5 461/7/5
f 466/7/5 462/7/5 465/7/5
f 467/7/5 464/7/5 463/7/5
f 468/7/5 464/7/5 467/7/5
f 471/1/5 470/1/5 469/1/5
f 472/1/5 470/1/5 471/1/5
f 473/1/5 470/1/5 472/1/5
f 474/1/5 470/1/5 473/1/5
f 475/1/5 470/1/5 474/1/5
f 476/1/5 470/1/5 475/1/5
f 477/1/5 476/1/5 475/1/5
f 478/1/5 476/1/5 477/1/5
f 483/1/5 480/1/5 479/1/5
f 484/1/5 480/1/5 483/1/5
f 485/1/5 482/1/5 481/1/5
f 486/1/5 482/1/5 485/1/5
f 491/3/5 488/3/5 487/3/5
f 492/3/5 488/3/5 491/3/5
f 493/3/5 490/3/5 489/3/5
f 494/3/5 490/3/5 493/3/5
f 499/7/5 496/7/5 495/7/5
f 500/7/5 496/7/5 499/7/5
f 501/7/5 498/7/5 497/7/5
f 502/7/5 498/7/5 501/7/5
f 505/5/5 504/5/5 503/5/5
f 506/5/5 504/5/5 505/5/5
f 507/5/6 508/5/6 509/5/6
f 509/5/6 508/5/6 510/5/6
f 511/7/6 512/7/6 515/7/6
f 515/7/6 512/7/6 516/7/6
f 513/7/6 514/7/6 517/7/6
f 517/7/6 514/7/6 518/7/6
f 519/1/6 520/1/6 521/1/6
f 521/1/6 520/1/6 522/1/6
f 521/1/6 522/1/6 523/1/6
f 523/1/6 522/1/6 524/1/6
f 523/1/6 524/1/6 525/1/6
f 525/1/6 524/1/6 526/1/6
f 526/1/6 524/1/6 527/1/6
f 527/1/6 524/1/6 528/1/6
f 525/1/6 526/1/6 529/1/6
f 527/1/6 528/1/6 530/1/6
f 529/1/6 526/1/6 531/1/6
f 527/1/6 530/1/6 532/1/6
f 531/1/6 526/1/6 533/1/6
f 533/1/6 526/1/6 534/1/6
f 527/1/6 532/1/6 535/1/6
f 535/1/6 532/1/6 536/1/6
f 537/1/6 538/1/6 541/1/6
f 541/1/6 538/1/6 542/1/6
f 539/1/6 540/1/6 543/1/6
f 543/1/6 540/1/6 544/1/6
f 545/3/6 546/3/6 549/3/6
f 549/3/6 546/3/6 550/3/6
f 547/3/6 548/3/6 551/3/6
f 551/3/6 548/3/6 552/3/6
f 553/7/6 554/7/6 557/7/6
f 557/7/6 554/7/6 558/7/6
f 555/7/6 556/7/6 559/7/6
f 559/7/6 556/7/6 560/7/6
f 561/1/6 562/1/6 563/1/6
f 563/1/6 562/1/6 564/1/6
f 565/1/6 566/1/6 569/1/6
f 569/1/6 566/1/6 570/1/6
f 569/2/6 570/2/6 571/2/6
f 571/2/6 570/2/6 572/2/6
f 571/1/6 572/1/6 573/1/6
f 573/1/6 572/1/6 574/1/6
f 567/1/6 568/1/6 575/1/6
f 575/1/6 568/1/6 576/1/6
f 573/5/6 574/5/6 577/5/6
f 577/5/6 574/5/6 578/5/6
f 575/5/6 576/5/6 579/5/6
f 579/5/6 576/5/6 580/5/6
f 577/1/6 578/1/6 581/1/6
f 581/1/6 578/1/6 582/1/6
f 579/1/6 580/1/6 583/1/6
f 583/1/6 580/1/6 584/1/6
f 581/5/6 582/5/6 585/5/6
f 585/5/6 582/5/6 586/5/6
f 583/5/6 584/5/6 587/5/6
f 587/5/6 584/5/6 588/5/6
f 585/1/6 586/1/6 589/1/6
f 589/1/6 586/1/6 590/1/6
f 587/1/6 588/1/6 591/1/6
f 591/1/6 588/1/6 592/1/6
f 593/5/6 594/5/6 597/5/6
f 597/5/6 594/5/6 598/5/6
f 595/5/6 596/5/6 599/5/6
f 599/5/6 596/5/6 600/5/6
f 597/1/6 598/1/6 601/1/6
f 601/1/6 598/1/6 602/1/6
f 599/1/6 600/1/6 603/1/6
f 603/1/6 600/1/6 604/1/6
f 601/2/6 602/2/6 605/2/6
f 605/2/6 602/2/6 606/2/6
f 603/2/6 604/2/6 607/2/6
f 607/2/6 604/2/6 608/2/6
f 605/1/6 606/1/6 609/1/6
f 609/1/6 606/1/6 610/1/6
f 607/1/6 608/1/6 611/1/6
f 611/1/6 608/1/6 612/1/6
f 613/1/6 614/1/6 615/1/6
f 615/1/6 614/1/6 616/1/6
f 615/5/6 616/5/6 617/5/6
f 617/5/6 616/5/6 618/5/6
f 619/1/6 620/1/6 621/1/6
f 621/1/6 620/1/6 622/1/6
f 622/1/6 620/1/6 623/1/6
f 623/1/6 620/1/6 624/1/6
f 621/2/6 622/2/6 625/2/6
f 625/2/6 622/2/6 626/2/6
f 623/2/6 624/2/6 627/2/6
f 627/2/6 624/2/6 628/2/6
f 622/1/6 623/1/6 629/1/6
f 626/2/6 622/2/6 629/2/6
f 623/2/6 627/2/6 630/2/6
f 629/1/6 623/1/6 630/1/6
f 625/1/6 626/1/6 631/1/6
f 626/2/6 629/2/6 631/2/6
f 629/2/6 630/2/6 631/2/6
f 627/1/6 628/1/6 632/1/6
f 631/2/6 630/2/6 632/2/6
f 630/2/6 627/2/6 632/2/6
f 625/1/6 631/1/6 633/1/6
f 631/1/6 632/1/6 633/1/6
f 632/1/6 628/1/6 634/1/6
f 633/1/6 632/1/6 634/1/6
f 633/5/6 634/5/6 635/5/6
f 635/5/6 634/5/6 636/5/6
