# MagicaVoxel @ ephtracy

# material
mtllib Spaceship small 3.mtl
usemtl palette

# normals
vn -1 0 0
vn 1 0 0
vn 0 -1 0
vn 0 1 0
vn 0 0 -1
vn 0 0 1

# texcoords
vt 0.00195312 0.5
vt 0.103516 0.5
vt 0.287109 0.5
vt 0.318359 0.5
vt 0.373047 0.5
vt 0.501953 0.5

# verts
v 1 11 24
v 1 21 24
v 1 11 28
v 1 21 28
v 8 10 22
v 8 24 22
v 8 25 22
v 8 27 22
v 8 31 22
v 8 11 24
v 8 21 24
v 8 11 28
v 8 21 28
v 8 10 30
v 8 24 30
v 8 25 30
v 8 27 30
v 8 31 30
v 14 9 21
v 14 35 21
v 14 10 22
v 14 24 22
v 14 25 22
v 14 27 22
v 14 31 22
v 14 10 30
v 14 24 30
v 14 25 30
v 14 27 30
v 14 31 30
v 14 9 33
v 14 35 33
v 17 1 22
v 17 5 22
v 17 1 30
v 17 5 30
v 18 35 21
v 18 47 21
v 18 5 23
v 18 9 23
v 18 5 29
v 18 9 29
v 18 30 33
v 18 35 33
v 18 30 35
v 18 47 35
v 24 1 24
v 24 3 24
v 24 1 28
v 24 3 28
v 30 1 22
v 30 5 22
v 30 1 30
v 30 5 30
v 31 5 23
v 31 9 23
v 31 5 29
v 31 9 29
v 37 1 24
v 37 3 24
v 37 1 28
v 37 3 28
v 19 1 24
v 19 3 24
v 19 1 28
v 19 3 28
v 25 5 23
v 25 9 23
v 25 5 29
v 25 9 29
v 26 1 22
v 26 5 22
v 26 1 30
v 26 5 30
v 32 1 24
v 32 3 24
v 32 1 28
v 32 3 28
v 37 35 21
v 37 47 21
v 37 30 33
v 37 35 33
v 37 30 35
v 37 47 35
v 38 5 23
v 38 9 23
v 38 5 29
v 38 9 29
v 39 1 22
v 39 5 22
v 39 1 30
v 39 5 30
v 41 9 21
v 41 35 21
v 41 11 22
v 41 24 22
v 41 25 22
v 41 27 22
v 41 31 22
v 41 11 30
v 41 24 30
v 41 25 30
v 41 27 30
v 41 31 30
v 41 9 33
v 41 35 33
v 47 11 22
v 47 24 22
v 47 25 22
v 47 27 22
v 47 31 22
v 47 13 24
v 47 21 24
v 47 13 28
v 47 21 28
v 47 11 30
v 47 24 30
v 47 25 30
v 47 27 30
v 47 31 30
v 54 13 24
v 54 21 24
v 54 13 28
v 54 21 28
v 17 1 22
v 17 1 30
v 19 1 24
v 19 1 28
v 24 1 24
v 24 1 28
v 26 1 22
v 26 1 30
v 30 1 22
v 30 1 30
v 32 1 24
v 32 1 28
v 37 1 24
v 37 1 28
v 39 1 22
v 39 1 30
v 19 3 24
v 19 3 28
v 24 3 24
v 24 3 28
v 32 3 24
v 32 3 28
v 37 3 24
v 37 3 28
v 14 9 21
v 14 9 33
v 18 9 23
v 18 9 29
v 25 9 23
v 25 9 29
v 31 9 23
v 31 9 29
v 38 9 23
v 38 9 29
v 41 9 21
v 41 9 33
v 8 10 22
v 8 10 30
v 14 10 22
v 14 10 30
v 1 11 24
v 1 11 28
v 8 11 24
v 8 11 28
v 41 11 22
v 41 11 30
v 47 11 22
v 47 11 30
v 47 13 24
v 47 13 28
v 54 13 24
v 54 13 28
v 18 30 33
v 18 30 35
v 37 30 33
v 37 30 35
v 17 5 22
v 17 5 30
v 18 5 23
v 18 5 29
v 25 5 23
v 25 5 29
v 26 5 22
v 26 5 30
v 30 5 22
v 30 5 30
v 31 5 23
v 31 5 29
v 38 5 23
v 38 5 29
v 39 5 22
v 39 5 30
v 1 21 24
v 1 21 28
v 8 21 24
v 8 21 28
v 47 21 24
v 47 21 28
v 54 21 24
v 54 21 28
v 8 31 22
v 8 31 30
v 14 31 22
v 14 31 30
v 41 31 22
v 41 31 30
v 47 31 22
v 47 31 30
v 14 35 21
v 14 35 33
v 18 35 21
v 18 35 33
v 37 35 21
v 37 35 33
v 41 35 21
v 41 35 33
v 18 47 21
v 18 47 35
v 37 47 21
v 37 47 35
v 14 9 21
v 41 9 21
v 14 35 21
v 18 35 21
v 37 35 21
v 41 35 21
v 18 47 21
v 37 47 21
v 17 1 22
v 26 1 22
v 30 1 22
v 39 1 22
v 17 5 22
v 26 5 22
v 30 5 22
v 39 5 22
v 8 10 22
v 14 10 22
v 41 11 22
v 47 11 22
v 8 24 22
v 14 24 22
v 41 24 22
v 47 24 22
v 8 25 22
v 14 25 22
v 41 25 22
v 47 25 22
v 8 27 22
v 14 27 22
v 41 27 22
v 47 27 22
v 8 31 22
v 14 31 22
v 41 31 22
v 47 31 22
v 18 5 23
v 25 5 23
v 31 5 23
v 38 5 23
v 18 9 23
v 25 9 23
v 31 9 23
v 38 9 23
v 1 11 24
v 8 11 24
v 47 13 24
v 54 13 24
v 1 21 24
v 8 21 24
v 47 21 24
v 54 21 24
v 19 1 28
v 24 1 28
v 32 1 28
v 37 1 28
v 19 3 28
v 24 3 28
v 32 3 28
v 37 3 28
v 19 1 24
v 24 1 24
v 32 1 24
v 37 1 24
v 19 3 24
v 24 3 24
v 32 3 24
v 37 3 24
v 1 11 28
v 8 11 28
v 47 13 28
v 54 13 28
v 1 21 28
v 8 21 28
v 47 21 28
v 54 21 28
v 18 5 29
v 25 5 29
v 31 5 29
v 38 5 29
v 18 9 29
v 25 9 29
v 31 9 29
v 38 9 29
v 17 1 30
v 26 1 30
v 30 1 30
v 39 1 30
v 17 5 30
v 26 5 30
v 30 5 30
v 39 5 30
v 8 10 30
v 14 10 30
v 41 11 30
v 47 11 30
v 8 24 30
v 14 24 30
v 41 24 30
v 47 24 30
v 8 25 30
v 14 25 30
v 41 25 30
v 47 25 30
v 8 27 30
v 14 27 30
v 41 27 30
v 47 27 30
v 8 31 30
v 14 31 30
v 41 31 30
v 47 31 30
v 14 9 33
v 41 9 33
v 18 30 33
v 37 30 33
v 14 35 33
v 18 35 33
v 37 35 33
v 41 35 33
v 18 30 35
v 37 30 35
v 18 47 35
v 37 47 35

# faces
f 3/1/1 2/1/1 1/1/1
f 4/1/1 2/1/1 3/1/1
f 10/1/1 6/1/1 5/1/1
f 11/1/1 6/1/1 10/1/1
f 12/1/1 10/1/1 5/1/1
f 13/1/1 6/1/1 11/1/1
f 14/1/1 12/1/1 5/1/1
f 14/1/1 13/1/1 12/1/1
f 15/3/1 7/3/1 6/3/1
f 15/1/1 13/1/1 14/1/1
f 15/1/1 6/1/1 13/1/1
f 16/1/1 8/1/1 7/1/1
f 16/3/1 7/3/1 15/3/1
f 17/3/1 9/3/1 8/3/1
f 17/1/1 8/1/1 16/1/1
f 18/3/1 9/3/1 17/3/1
f 21/1/1 20/1/1 19/1/1
f 22/1/1 20/1/1 21/1/1
f 23/1/1 20/1/1 22/1/1
f 24/1/1 20/1/1 23/1/1
f 25/1/1 20/1/1 24/1/1
f 26/1/1 21/1/1 19/1/1
f 30/1/1 20/1/1 25/1/1
f 31/1/1 29/1/1 28/1/1
f 31/1/1 30/1/1 29/1/1
f 31/1/1 26/1/1 19/1/1
f 31/1/1 27/1/1 26/1/1
f 31/1/1 28/1/1 27/1/1
f 32/1/1 20/1/1 30/1/1
f 32/1/1 30/1/1 31/1/1
f 35/4/1 34/4/1 33/4/1
f 36/4/1 34/4/1 35/4/1
f 41/4/1 40/4/1 39/4/1
f 42/4/1 40/4/1 41/4/1
f 44/4/1 38/4/1 37/4/1
f 45/4/1 44/4/1 43/4/1
f 46/4/1 38/4/1 44/4/1
f 46/4/1 44/4/1 45/4/1
f 49/4/1 48/4/1 47/4/1
f 50/4/1 48/4/1 49/4/1
f 53/4/1 52/4/1 51/4/1
f 54/4/1 52/4/1 53/4/1
f 57/4/1 56/4/1 55/4/1
f 58/4/1 56/4/1 57/4/1
f 61/4/1 60/4/1 59/4/1
f 62/4/1 60/4/1 61/4/1
f 63/4/2 64/4/2 65/4/2
f 65/4/2 64/4/2 66/4/2
f 67/4/2 68/4/2 69/4/2
f 69/4/2 68/4/2 70/4/2
f 71/4/2 72/4/2 73/4/2
f 73/4/2 72/4/2 74/4/2
f 75/4/2 76/4/2 77/4/2
f 77/4/2 76/4/2 78/4/2
f 79/4/2 80/4/2 82/4/2
f 81/4/2 82/4/2 83/4/2
f 82/4/2 80/4/2 84/4/2
f 83/4/2 82/4/2 84/4/2
f 85/4/2 86/4/2 87/4/2
f 87/4/2 86/4/2 88/4/2
f 89/4/2 90/4/2 91/4/2
f 91/4/2 90/4/2 92/4/2
f 93/1/2 94/1/2 95/1/2
f 95/1/2 94/1/2 96/1/2
f 96/1/2 94/1/2 97/1/2
f 97/1/2 94/1/2 98/1/2
f 98/1/2 94/1/2 99/1/2
f 93/1/2 95/1/2 100/1/2
f 99/1/2 94/1/2 104/1/2
f 102/1/2 103/1/2 105/1/2
f 103/1/2 104/1/2 105/1/2
f 93/1/2 100/1/2 105/1/2
f 100/1/2 101/1/2 105/1/2
f 101/1/2 102/1/2 105/1/2
f 104/1/2 94/1/2 106/1/2
f 105/1/2 104/1/2 106/1/2
f 107/1/2 108/1/2 112/1/2
f 112/1/2 108/1/2 113/1/2
f 107/1/2 112/1/2 114/1/2
f 113/1/2 108/1/2 115/1/2
f 107/1/2 114/1/2 116/1/2
f 114/1/2 115/1/2 116/1/2
f 108/3/2 109/3/2 117/3/2
f 116/1/2 115/1/2 117/1/2
f 115/1/2 108/1/2 117/1/2
f 109/1/2 110/1/2 118/1/2
f 117/3/2 109/3/2 118/3/2
f 110/3/2 111/3/2 119/3/2
f 118/1/2 110/1/2 119/1/2
f 119/3/2 111/3/2 120/3/2
f 121/1/2 122/1/2 123/1/2
f 123/1/2 122/1/2 124/1/2
f 127/4/3 126/4/3 125/4/3
f 128/4/3 126/4/3 127/4/3
f 129/4/3 127/4/3 125/4/3
f 130/4/3 126/4/3 128/4/3
f 131/4/3 129/4/3 125/4/3
f 131/4/3 130/4/3 129/4/3
f 132/4/3 126/4/3 130/4/3
f 132/4/3 130/4/3 131/4/3
f 135/4/3 134/4/3 133/4/3
f 136/4/3 134/4/3 135/4/3
f 137/4/3 135/4/3 133/4/3
f 138/4/3 134/4/3 136/4/3
f 139/4/3 137/4/3 133/4/3
f 139/4/3 138/4/3 137/4/3
f 140/4/3 134/4/3 138/4/3
f 140/4/3 138/4/3 139/4/3
f 143/4/3 142/4/3 141/4/3
f 144/4/3 142/4/3 143/4/3
f 147/4/3 146/4/3 145/4/3
f 148/4/3 146/4/3 147/4/3
f 151/1/3 150/1/3 149/1/3
f 152/1/3 150/1/3 151/1/3
f 153/1/3 151/1/3 149/1/3
f 154/1/3 150/1/3 152/1/3
f 155/1/3 153/1/3 149/1/3
f 155/1/3 154/1/3 153/1/3
f 156/1/3 150/1/3 154/1/3
f 156/1/3 154/1/3 155/1/3
f 157/1/3 155/1/3 149/1/3
f 158/1/3 150/1/3 156/1/3
f 159/1/3 157/1/3 149/1/3
f 159/1/3 158/1/3 157/1/3
f 160/1/3 150/1/3 158/1/3
f 160/1/3 158/1/3 159/1/3
f 163/1/3 162/1/3 161/1/3
f 164/1/3 162/1/3 163/1/3
f 167/1/3 166/1/3 165/1/3
f 168/1/3 166/1/3 167/1/3
f 171/1/3 170/1/3 169/1/3
f 172/1/3 170/1/3 171/1/3
f 175/1/3 174/1/3 173/1/3
f 176/1/3 174/1/3 175/1/3
f 179/4/3 178/4/3 177/4/3
f 180/4/3 178/4/3 179/4/3
f 181/4/4 182/4/4 183/4/4
f 183/4/4 182/4/4 184/4/4
f 181/4/4 183/4/4 185/4/4
f 184/4/4 182/4/4 186/4/4
f 181/4/4 185/4/4 187/4/4
f 185/4/4 186/4/4 187/4/4
f 186/4/4 182/4/4 188/4/4
f 187/4/4 186/4/4 188/4/4
f 189/4/4 190/4/4 191/4/4
f 191/4/4 190/4/4 192/4/4
f 189/4/4 191/4/4 193/4/4
f 192/4/4 190/4/4 194/4/4
f 189/4/4 193/4/4 195/4/4
f 193/4/4 194/4/4 195/4/4
f 194/4/4 190/4/4 196/4/4
f 195/4/4 194/4/4 196/4/4
f 197/1/4 198/1/4 199/1/4
f 199/1/4 198/1/4 200/1/4
f 201/1/4 202/1/4 203/1/4
f 203/1/4 202/1/4 204/1/4
f 205/3/4 206/3/4 207/3/4
f 207/3/4 206/3/4 208/3/4
f 209/3/4 210/3/4 211/3/4
f 211/3/4 210/3/4 212/3/4
f 213/1/4 214/1/4 215/1/4
f 215/1/4 214/1/4 216/1/4
f 217/1/4 218/1/4 219/1/4
f 219/1/4 218/1/4 220/1/4
f 221/4/4 222/4/4 223/4/4
f 223/4/4 222/4/4 224/4/4
f 227/1/5 226/1/5 225/1/5
f 228/1/5 226/1/5 227/1/5
f 229/1/5 226/1/5 228/1/5
f 230/1/5 226/1/5 229/1/5
f 231/4/5 229/4/5 228/4/5
f 232/4/5 229/4/5 231/4/5
f 237/4/5 234/4/5 233/4/5
f 238/4/5 234/4/5 237/4/5
f 239/4/5 236/4/5 235/4/5
f 240/4/5 236/4/5 239/4/5
f 245/1/5 242/1/5 241/1/5
f 246/1/5 242/1/5 245/1/5
f 247/1/5 244/1/5 243/1/5
f 248/1/5 244/1/5 247/1/5
f 249/3/5 246/3/5 245/3/5
f 250/3/5 246/3/5 249/3/5
f 251/3/5 248/3/5 247/3/5
f 252/3/5 248/3/5 251/3/5
f 253/1/5 250/1/5 249/1/5
f 254/1/5 250/1/5 253/1/5
f 255/1/5 252/1/5 251/1/5
f 256/1/5 252/1/5 255/1/5
f 257/3/5 254/3/5 253/3/5
f 258/3/5 254/3/5 257/3/5
f 259/3/5 256/3/5 255/3/5
f 260/3/5 256/3/5 259/3/5
f 265/4/5 262/4/5 261/4/5
f 266/4/5 262/4/5 265/4/5
f 267/4/5 264/4/5 263/4/5
f 268/4/5 264/4/5 267/4/5
f 273/1/5 270/1/5 269/1/5
f 274/1/5 270/1/5 273/1/5
f 275/1/5 272/1/5 271/1/5
f 276/1/5 272/1/5 275/1/5
f 281/4/5 278/4/5 277/4/5
f 282/4/5 278/4/5 281/4/5
f 283/4/5 280/4/5 279/4/5
f 284/4/5 280/4/5 283/4/5
f 285/4/6 286/4/6 289/4/6
f 289/4/6 286/4/6 290/4/6
f 287/4/6 288/4/6 291/4/6
f 291/4/6 288/4/6 292/4/6
f 293/1/6 294/1/6 297/1/6
f 297/1/6 294/1/6 298/1/6
f 295/1/6 296/1/6 299/1/6
f 299/1/6 296/1/6 300/1/6
f 301/4/6 302/4/6 305/4/6
f 305/4/6 302/4/6 306/4/6
f 303/4/6 304/4/6 307/4/6
f 307/4/6 304/4/6 308/4/6
f 309/4/6 310/4/6 313/4/6
f 313/4/6 310/4/6 314/4/6
f 311/4/6 312/4/6 315/4/6
f 315/4/6 312/4/6 316/4/6
f 317/1/6 318/1/6 321/1/6
f 321/1/6 318/1/6 322/1/6
f 319/1/6 320/1/6 323/1/6
f 323/1/6 320/1/6 324/1/6
f 321/3/6 322/3/6 325/3/6
f 325/3/6 322/3/6 326/3/6
f 323/3/6 324/3/6 327/3/6
f 327/3/6 324/3/6 328/3/6
f 325/1/6 326/1/6 329/1/6
f 329/1/6 326/1/6 330/1/6
f 327/1/6 328/1/6 331/1/6
f 331/1/6 328/1/6 332/1/6
f 329/3/6 330/3/6 333/3/6
f 333/3/6 330/3/6 334/3/6
f 331/3/6 332/3/6 335/3/6
f 335/3/6 332/3/6 336/3/6
f 337/1/6 338/1/6 339/1/6
f 339/1/6 338/1/6 340/1/6
f 337/1/6 339/1/6 341/1/6
f 341/1/6 339/1/6 342/1/6
f 340/1/6 338/1/6 343/1/6
f 343/1/6 338/1/6 344/1/6
f 345/4/6 346/4/6 347/4/6
f 347/4/6 346/4/6 348/4/6
