# Alias OBJ Model File
# Exported from SketchUp, (c) 2000-2012 Trimble Navigation Limited
# File units = meters

mtllib Test Model Ship 01.mtl

g Mesh1 Model

usemtl M_0129_WhiteSmoke
v -106.044 14.85 180.884
vt 4174.94 -7121.4
vn 0 -1 -0
v -82.8756 14.85 180.884
vt 3262.82 -7121.4
v -82.8756 14.85 239.934
vt 3262.82 -9446.21
v -106.044 14.85 239.934
vt 4174.94 -9446.21
f 1/1/1 2/2/1 3/3/1 4/4/1 

vt 3262.82 584.646
vn 0 0 -1
vt 4174.94 584.646
v -106.044 24.11 180.884
vt 4174.94 949.213
v -82.8756 24.11 180.884
vt 3262.82 949.213
f 2/5/2 1/6/2 5/7/2 6/8/2 

vt -7121.4 584.646
vn 1 0 -0
v -106.044 10.37 171.747
vt -6761.68 408.268
vt -7121.4 949.213
f 1/9/3 7/10/3 5/11/3

vt -9446.21 584.646
f 4/12/3 7/10/3 1/9/3

v -106.044 10.37 247.068
vt -9727.1 408.268
f 4/12/3 8/13/3 7/10/3

v -106.044 28.01 247.068
vt -9727.1 1102.76
f 8/13/3 4/12/3 9/14/3

v -106.044 24.11 239.934
vt -9446.21 949.213
f 10/15/3 9/14/3 4/12/3

v -106.044 28.01 171.747
vt -6761.68 1102.76
f 9/14/3 10/15/3 11/16/3

f 11/16/3 10/15/3 5/11/3

vt -3262.82 -7121.4
vn 9.9712e-016 1 -0
vt -4174.94 -7121.4
vt -4174.94 -9446.21
v -82.8756 24.11 239.934
vt -3262.82 -9446.21
f 6/17/4 5/18/4 10/19/4 12/20/4 

vt -4174.94 584.646
vn 0 0 1
vt -3262.82 584.646
vt -3262.82 949.213
vt -4174.94 949.213
f 4/21/5 3/22/5 12/23/5 10/24/5 

f 3/12/3 2/9/3 6/11/3 12/15/3 

f 11/16/3 5/11/3 7/10/3

vt 4174.94 1102.76
vt 4174.94 408.268
v -126.395 10.37 171.747
vt 4976.19 408.268
v -126.395 28.01 171.747
vt 4976.19 1102.76
f 11/25/2 7/26/2 13/27/2 14/28/2 

vt 4174.94 -6761.68
vn 3.42431e-019 -1 -1.92609e-017
vt 4174.94 -9727.1
v -126.395 10.37 246.345
vt 4976.19 -9698.61
vt 4976.19 -6761.68
f 7/29/6 8/30/6 15/31/6 13/32/6 

usemtl M_0100_SteelBlue
v -126.395 10.37 252.465
vt 4976.19 -9939.57
v -106.044 10.37 252.465
vt 4174.94 -9939.57
f 16/33/1 15/31/1 8/30/1 17/34/1 

usemtl M_0129_WhiteSmoke
vt -9939.57 408.268
v -126.395 5.79 162.36
vt -6392.13 227.953
vt -9698.61 408.268
f 16/35/3 18/36/3 15/37/3

v -126.395 10.37 258.433
vt -10174.5 408.268
f 19/38/3 18/36/3 16/35/3

v -126.395 10.37 272.717
vt -10736.9 408.268
f 20/39/3 18/36/3 19/38/3

v -126.395 5.79 304.56
vt -11990.6 227.953
f 20/39/3 21/40/3 18/36/3

v -126.395 35.38 304.56
vt -11990.6 1392.91
f 21/40/3 20/39/3 22/41/3

v -126.395 28.01 272.717
vt -10736.9 1102.76
f 23/42/3 22/41/3 20/39/3

v -126.395 35.38 162.36
vt -6392.13 1392.91
f 22/41/3 23/42/3 24/43/3

v -126.395 28.01 258.433
vt -10174.5 1102.76
f 24/43/3 23/42/3 25/44/3

usemtl M_0100_SteelBlue
v -106.044 28.01 272.717
vt -4174.94 -10736.9
vn 0 1 -0
v -106.044 28.01 258.433
vt -4174.94 -10174.5
vt -4976.19 -10174.5
vt -4976.19 -10736.9
f 26/45/7 27/46/7 25/47/7 23/48/7 

v -106.044 10.37 272.717
v -106.044 10.37 258.433
f 28/39/3 29/38/3 27/44/3 26/42/3 

vt 4976.19 -10736.9
vn 0 -1 1.01083e-016
vt 4976.19 -10174.5
vt 4174.94 -10174.5
vt 4174.94 -10736.9
f 20/49/8 19/50/8 29/51/8 28/52/8 

usemtl M_0129_WhiteSmoke
f 19/50/1 16/33/1 17/34/1 29/51/1 

v -106.044 28.01 252.465
vt -9939.57 1102.76
f 29/38/3 17/35/3 30/53/3 27/44/3 

usemtl M_0100_SteelBlue
f 9/14/3 30/53/3 17/35/3 8/13/3 

vt -4174.94 -9939.57
vt -4174.94 -9727.1
v -126.395 28.01 247.068
vt -4976.19 -9727.1
v -126.395 28.01 252.465
vt -4976.19 -9939.57
f 30/54/7 9/55/7 31/56/7 32/57/7 

usemtl M_0129_WhiteSmoke
vt -4976.19 -6761.68
vt -4174.94 -6761.68
f 14/58/7 31/56/7 9/55/7 11/59/7 

f 24/43/3 31/14/3 14/16/3

f 24/43/3 32/53/3 31/14/3

f 24/43/3 25/44/3 32/53/3

f 27/46/7 30/54/7 32/57/7 25/47/7 

f 24/43/3 14/16/3 18/36/3

f 13/10/3 18/36/3 14/16/3

f 15/37/3 18/36/3 13/10/3

vt 4976.19 227.953
v -150.81 7.67 162.36
vt 5937.41 301.969
vt 4976.19 1392.91
f 18/60/2 33/61/2 24/62/2

v -240.589 7.67 162.36
vt 9472.02 301.969
f 33/61/2 18/60/2 34/63/2

v -265.004 5.79 162.36
vt 10433.2 227.953
f 35/64/2 34/63/2 18/60/2

v -265.004 35.38 162.36
vt 10433.2 1392.91
f 34/63/2 35/64/2 36/65/2

vt 6392.13 227.953
vn -1 0 -0
v -265.004 10.37 171.747
vt 6761.68 408.268
vt 6392.13 1392.91
f 35/66/9 37/67/9 36/68/9

v -265.004 10.37 246.345
vt 9698.61 408.268
f 35/66/9 38/69/9 37/67/9

v -265.004 10.37 252.465
vt 9939.57 408.268
f 35/66/9 39/70/9 38/69/9

v -265.004 10.37 258.433
vt 10174.5 408.268
f 35/66/9 40/71/9 39/70/9

v -265.004 10.37 272.717
vt 10736.9 408.268
f 35/66/9 41/72/9 40/71/9

v -265.004 5.79 304.56
vt 11990.6 227.953
f 42/73/9 41/72/9 35/66/9

v -265.004 28.01 272.717
vt 10736.9 1102.76
f 41/72/9 42/73/9 43/74/9

v -265.004 35.38 304.56
vt 11990.6 1392.91
f 44/75/9 43/74/9 42/73/9

f 43/74/9 44/75/9 36/68/9

v -243.4 35.38 304.56
vt -9582.68 -11990.6
v -243.4 35.38 268.383
vt -9582.68 -10566.3
v -147.999 35.38 268.383
vt -5826.75 -10566.3
v -147.999 35.38 304.56
vt -5826.75 -11990.6
vt -4976.19 -11990.6
vt -4976.19 -6392.13
vt -10433.2 -6392.13
vt -10433.2 -11990.6
f 45/76/7 46/77/7 47/78/7 48/79/7 22/80/7 24/81/7 36/82/7 44/83/7 

usemtl M_0133_Gray
v -243.4 5.79 304.56
v -243.4 5.79 268.383
vt 10566.3 227.953
v -243.4 0 268.383
vt 10566.3 0
v -243.4 0 343.35
vt 13517.7 0
v -243.4 42.62 343.35
vt 13517.7 1677.95
v -243.4 42.62 268.383
vt 10566.3 1677.95
vt 10566.3 1392.91
f 49/73/9 50/84/9 51/85/9 52/86/9 53/87/9 54/88/9 46/89/9 45/75/9 

usemtl M_0129_WhiteSmoke
vt 10433.2 -11990.6
vt 10433.2 -6392.13
vt 4976.19 -6392.13
vt 4976.19 -11990.6
v -147.999 5.79 304.56
vt 5826.75 -11990.6
v -147.999 5.79 268.383
vt 5826.75 -10566.3
vt 9582.68 -10566.3
vt 9582.68 -11990.6
f 42/90/1 35/91/1 18/92/1 21/93/1 55/94/1 56/95/1 50/96/1 49/97/1 

vt -5826.75 1392.91
vt -5826.75 227.953
vt -4976.19 227.953
vt -4976.19 1392.91
f 48/98/5 55/99/5 21/100/5 22/101/5 

usemtl M_0133_Gray
vt -10566.3 227.953
vt -10566.3 1392.91
v -147.999 42.62 268.383
vt -10566.3 1677.95
v -147.999 42.62 343.35
vt -13517.7 1677.95
v -147.999 0 343.35
vt -13517.7 0
v -147.999 0 268.383
vt -10566.3 0
f 56/102/3 55/40/3 48/41/3 47/103/3 57/104/3 58/105/3 59/106/3 60/107/3 

vt 9582.68 1392.91
vt 9582.68 1677.95
vt 5826.75 1677.95
vt 5826.75 1392.91
f 46/108/2 54/109/2 57/110/2 47/111/2 

vt -9582.68 -13517.7
vt -5826.75 -13517.7
f 54/77/7 53/112/7 58/113/7 57/78/7 

vt -9582.68 1677.95
vt -9582.68 0
vt -5826.75 0
vt -5826.75 1677.95
f 53/114/5 52/115/5 59/116/5 58/117/5 

vt 9582.68 -13517.7
vt 5826.75 -13517.7
f 52/118/1 51/96/1 60/95/1 59/119/1 

vt 9582.68 0
vt 9582.68 227.953
vt 5826.75 227.953
vt 5826.75 0
f 51/120/2 50/121/2 56/122/2 60/123/2 

usemtl M_0129_WhiteSmoke
vt -9582.68 227.953
vt -9582.68 1392.91
vt -10433.2 1392.91
vt -10433.2 227.953
f 49/124/5 45/125/5 44/126/5 42/127/5 

v -150.81 30.36 162.36
vt 5937.41 1195.28
f 24/62/2 61/128/2 36/65/2

f 24/62/2 33/61/2 61/128/2

usemtl M_0133_Gray
vt -6392.13 1195.28
vt -6392.13 301.969
v -150.81 7.67 148.959
vt -5864.51 301.969
v -150.81 30.36 148.959
vt -5864.51 1195.28
f 61/129/3 33/130/3 62/131/3 63/132/3 

vt 5937.41 -5864.51
vt 5937.41 -6392.13
v -187.701 7.67 162.36
vt 7389.79 -6392.13
v -187.701 7.67 148.959
vt 7389.79 -5864.51
f 62/133/1 33/134/1 64/135/1 65/136/1 

usemtl M_0129_WhiteSmoke
v -203.699 7.67 162.36
vt 8019.64 301.969
vt 7389.79 301.969
f 33/61/2 66/137/2 64/138/2

f 33/61/2 34/63/2 66/137/2

usemtl M_0133_Gray
vt 9472.02 -6392.13
v -240.589 7.67 148.959
vt 9472.02 -5864.51
v -203.699 7.67 148.959
vt 8019.64 -5864.51
vt 8019.64 -6392.13
f 34/139/1 67/140/1 68/141/1 66/142/1 

vt 6392.13 301.969
v -240.589 30.36 162.36
vt 6392.13 1195.28
v -240.589 30.36 148.959
vt 5864.51 1195.28
vt 5864.51 301.969
f 34/143/9 69/144/9 70/145/9 67/146/9 

usemtl M_0129_WhiteSmoke
vt 9472.02 1195.28
f 34/63/2 36/65/2 69/147/2

v -203.699 30.36 162.36
vt 8019.64 1195.28
f 69/147/2 36/65/2 71/148/2

v -187.701 30.36 162.36
vt 7389.79 1195.28
f 71/148/2 36/65/2 72/149/2

f 72/149/2 36/65/2 61/128/2

usemtl M_0133_Gray
vt -5937.41 -6392.13
vn 0 1 -1.72375e-015
vt -5937.41 -5864.51
v -187.701 30.36 148.959
vt -7389.79 -5864.51
vt -7389.79 -6392.13
f 61/150/10 63/151/10 73/152/10 72/153/10 

v -155.745 27.66 148.959
vt 6131.7 1088.98
f 63/128/2 74/154/2 73/149/2

v -155.745 11.27 148.959
vt 6131.7 443.701
f 63/128/2 75/155/2 74/154/2

f 62/61/2 75/155/2 63/128/2

v -182.115 11.27 148.959
vt 7169.89 443.701
f 75/155/2 62/61/2 76/156/2

f 65/138/2 76/156/2 62/61/2

f 76/156/2 65/138/2 73/149/2

f 73/145/9 65/146/9 64/143/9 72/144/9 

usemtl M_0129_WhiteSmoke
f 64/138/2 71/148/2 72/149/2

f 71/148/2 64/138/2 66/137/2

usemtl M_0133_Gray
v -203.699 30.36 148.959
f 68/131/3 77/132/3 71/129/3 66/130/3 

v -209.284 11.27 148.959
vt 8239.54 443.701
f 68/137/2 78/157/2 77/148/2

v -235.654 11.27 148.959
vt 9277.73 443.701
f 78/157/2 68/137/2 79/158/2

f 67/63/2 79/158/2 68/137/2

f 79/158/2 67/63/2 70/147/2

v -235.654 27.66 148.959
vt 9277.73 1088.98
f 79/158/2 70/147/2 80/159/2

v -209.284 27.66 148.959
vt 8239.54 1088.98
f 80/159/2 70/147/2 81/160/2

f 77/148/2 81/160/2 70/147/2

f 77/148/2 78/157/2 81/160/2

v -209.284 27.66 131.299
vt -5169.23 1088.98
vt -5864.51 1088.98
vt -5864.51 443.701
v -209.284 11.27 131.299
vt -5169.23 443.701
f 82/161/3 81/162/3 78/163/3 83/164/3 

vt -8239.54 -5864.51
vt -8239.54 -5169.23
v -235.654 27.66 131.299
vt -9277.73 -5169.23
vt -9277.73 -5864.51
f 81/165/7 82/166/7 84/167/7 80/168/7 

vt -8239.54 1088.98
v -207.225 30.71 131.299
vt -8158.48 1209.06
vt -9277.73 1088.98
f 82/169/5 85/170/5 84/171/5

vt -8239.54 443.701
f 83/172/5 85/170/5 82/169/5

v -207.225 8.32 131.299
vt -8158.48 327.559
f 83/172/5 86/173/5 85/170/5

v -238.469 8.32 131.299
vt -9388.54 327.559
f 86/173/5 83/172/5 87/174/5

v -235.654 11.27 131.299
vt -9277.73 443.701
f 88/175/5 87/174/5 83/172/5

v -238.469 30.71 131.299
vt -9388.54 1209.06
f 87/174/5 88/175/5 89/176/5

f 89/176/5 88/175/5 84/171/5

vt 5864.51 443.701
vt 5864.51 1088.98
vt 5169.23 1088.98
vt 5169.23 443.701
f 79/177/9 80/178/9 84/179/9 88/180/9 

vt 8239.54 -5864.51
vt 9277.73 -5864.51
vt 9277.73 -5169.23
vt 8239.54 -5169.23
f 78/181/1 79/182/1 88/183/1 83/184/1 

f 89/176/5 84/171/5 85/170/5

v -207.225 30.71 113.229
vt -8158.48 -4457.82
v -238.469 30.71 113.229
vt -9388.54 -4457.82
vt -9388.54 -5169.23
vt -8158.48 -5169.23
f 90/185/7 91/186/7 89/187/7 85/188/7 

vt 8158.48 1209.06
v -211.287 27.5623 113.229
vt 8318.41 1085.13
vt 9388.54 1209.06
f 90/189/2 92/190/2 91/191/2

v -211.287 10.3023 113.229
vt 8318.41 405.604
f 90/189/2 93/192/2 92/190/2

v -207.225 8.32 113.229
vt 8158.48 327.559
f 94/193/2 93/192/2 90/189/2

v -235.243 10.3023 113.229
vt 9261.52 405.604
f 93/192/2 94/193/2 95/194/2

v -238.469 8.32 113.229
vt 9388.54 327.559
f 96/195/2 95/194/2 94/193/2

f 95/194/2 96/195/2 91/191/2

vt 4457.82 327.559
vt 5169.23 327.559
vt 5169.23 1209.06
vt 4457.82 1209.06
f 96/196/9 87/197/9 89/198/9 91/199/9 

vt 9388.54 -4457.82
vt 8158.48 -4457.82
vt 8158.48 -5169.23
vt 9388.54 -5169.23
f 96/200/1 94/201/1 86/202/1 87/203/1 

vt -5169.23 327.559
vt -4457.82 327.559
vt -4457.82 1209.06
vt -5169.23 1209.06
f 86/204/3 94/205/3 90/206/3 85/207/3 

v -235.243 27.5623 113.229
vt 9261.52 1085.13
f 95/194/2 91/191/2 97/208/2

f 97/208/2 91/191/2 92/190/2

vt 9261.52 -4457.82
vt 8318.41 -4457.82
v -211.287 27.5623 119.819
vt 8318.41 -4717.27
v -235.243 27.5623 119.819
vt 9261.52 -4717.27
f 97/209/1 92/210/1 98/211/1 99/212/1 

vt 4457.82 1085.13
vt 4457.82 405.604
v -211.287 10.3023 119.819
vt 4717.27 405.604
vt 4717.27 1085.13
f 92/213/9 93/214/9 100/215/9 98/216/9 

vt -8318.41 -4457.82
vt -9261.52 -4457.82
v -235.243 10.3023 119.819
vt -9261.52 -4717.27
vt -8318.41 -4717.27
f 93/217/7 95/218/7 101/219/7 100/220/7 

vt -4457.82 405.604
vt -4457.82 1085.13
vt -4717.27 1085.13
vt -4717.27 405.604
f 95/221/3 97/222/3 99/223/3 101/224/3 

usemtl M_0137_Black
f 99/208/2 98/190/2 100/192/2 101/194/2 

usemtl M_0133_Gray
vt -9472.02 -5864.51
vt -9472.02 -6392.13
vt -8019.64 -6392.13
vt -8019.64 -5864.51
f 70/225/10 69/226/10 71/227/10 77/228/10 

v -182.115 27.66 148.959
vt 7169.89 1088.98
f 76/156/2 73/149/2 102/229/2

f 102/229/2 73/149/2 74/154/2

v -182.115 27.66 131.299
vt -7169.89 -5169.23
vt -7169.89 -5864.51
vt -6131.7 -5864.51
v -155.745 27.66 131.299
vt -6131.7 -5169.23
f 103/230/7 102/231/7 74/232/7 104/233/7 

v -182.115 11.27 131.299
f 102/178/9 103/179/9 105/180/9 76/177/9 

v -184.174 30.71 131.299
vt -7250.95 1209.06
vt -7169.89 443.701
vt -7169.89 1088.98
f 106/234/5 105/235/5 103/236/5

v -184.174 8.32 131.299
vt -7250.95 327.559
f 107/237/5 105/235/5 106/234/5

v -155.745 11.27 131.299
vt -6131.7 443.701
f 105/235/5 107/237/5 108/238/5

v -152.931 8.32 131.299
vt -6020.89 327.559
f 109/239/5 108/238/5 107/237/5

v -152.931 30.71 131.299
vt -6020.89 1209.06
f 108/238/5 109/239/5 110/240/5

v -152.931 8.32 113.229
v -152.931 30.71 113.229
f 109/204/3 111/205/3 112/206/3 110/207/3 

v -184.174 8.32 113.229
vt 7250.95 -4457.82
vt 6020.89 -4457.82
vt 6020.89 -5169.23
vt 7250.95 -5169.23
f 113/241/1 111/242/1 109/243/1 107/244/1 

vt 7250.95 327.559
v -180.112 10.3023 113.229
vt 7091.02 405.604
vt 6020.89 327.559
f 113/245/2 114/246/2 111/247/2

v -184.174 30.71 113.229
vt 7250.95 1209.06
f 114/246/2 113/245/2 115/248/2

f 113/196/9 107/197/9 106/198/9 115/199/9 

vt -6020.89 -4457.82
vt -7250.95 -4457.82
vt -7250.95 -5169.23
vt -6020.89 -5169.23
f 112/249/7 115/250/7 106/251/7 110/252/7 

vt 6020.89 1209.06
v -156.157 27.5623 113.229
vt 6147.91 1085.13
f 112/253/2 116/254/2 115/248/2

v -156.157 10.3023 113.229
vt 6147.91 405.604
f 112/253/2 117/255/2 116/254/2

f 111/247/2 117/255/2 112/253/2

f 117/255/2 111/247/2 114/246/2

vt -6147.91 -4457.82
vt -7091.02 -4457.82
v -180.112 10.3023 119.819
vt -7091.02 -4717.27
v -156.157 10.3023 119.819
vt -6147.91 -4717.27
f 117/256/7 114/257/7 118/258/7 119/259/7 

v -180.112 27.5623 113.229
v -180.112 27.5623 119.819
f 114/221/3 120/222/3 121/223/3 118/224/3 

vt 7091.02 1085.13
f 114/246/2 115/248/2 120/260/2

f 120/260/2 115/248/2 116/254/2

vt 7091.02 -4457.82
vt 6147.91 -4457.82
v -156.157 27.5623 119.819
vt 6147.91 -4717.27
vt 7091.02 -4717.27
f 120/261/1 116/262/1 122/263/1 121/264/1 

f 116/213/9 117/214/9 119/215/9 122/216/9 

usemtl M_0137_Black
f 121/260/2 122/254/2 119/255/2 118/246/2 

usemtl M_0133_Gray
f 106/234/5 103/236/5 110/240/5

vt -6131.7 1088.98
f 104/265/5 110/240/5 103/236/5

f 108/238/5 110/240/5 104/265/5

f 74/162/3 75/163/3 108/164/3 104/161/3 

vt 6131.7 -5864.51
vt 7169.89 -5864.51
vt 7169.89 -5169.23
vt 6131.7 -5169.23
f 75/266/1 76/267/1 105/268/1 108/269/1 

usemtl M_0129_WhiteSmoke
v -265.004 28.01 258.433
vt 10174.5 1102.76
f 43/74/9 36/68/9 123/270/9

v -265.004 28.01 252.465
vt 9939.57 1102.76
f 123/270/9 36/68/9 124/271/9

v -265.004 28.01 247.068
vt 9727.1 1102.76
f 124/271/9 36/68/9 125/272/9

v -265.004 28.01 171.747
vt 6761.68 1102.76
f 125/272/9 36/68/9 126/273/9

f 126/273/9 36/68/9 37/67/9

v -285.356 10.37 171.747
vt 11234.5 408.268
v -285.356 28.01 171.747
vt 11234.5 1102.76
vt 10433.2 1102.76
vt 10433.2 408.268
f 127/274/2 128/275/2 126/276/2 37/277/2 

v -285.356 14.85 180.884
vt 7121.4 584.646
f 127/67/9 129/278/9 128/273/9

v -285.356 14.85 239.934
vt 9446.21 584.646
f 127/67/9 130/279/9 129/278/9

v -285.356 10.37 247.068
vt 9727.1 408.268
f 131/280/9 130/279/9 127/67/9

v -285.356 24.11 239.934
vt 9446.21 949.213
f 130/279/9 131/280/9 132/281/9

v -285.356 28.01 247.068
f 133/272/9 132/281/9 131/280/9

f 132/281/9 133/272/9 128/273/9

vt -10433.2 -9727.1
vt -10433.2 -6761.68
vt -11234.5 -6761.68
vt -11234.5 -9727.1
f 125/282/7 126/283/7 128/284/7 133/285/7 

usemtl M_0100_SteelBlue
v -285.356 28.01 252.465
vt -11234.5 -9939.57
vt -10433.2 -9939.57
f 133/285/7 134/286/7 124/287/7 125/282/7 

v -285.356 10.37 252.465
f 134/271/9 133/272/9 131/280/9 135/70/9 

vt 10433.2 -9698.61
vt 10433.2 -9939.57
vt 11234.5 -9939.57
vt 11234.5 -9727.1
f 38/288/1 39/289/1 135/290/1 131/291/1 

usemtl M_0129_WhiteSmoke
vt 10433.2 -10174.5
v -285.356 10.37 258.433
vt 11234.5 -10174.5
f 39/289/1 40/292/1 136/293/1 135/290/1 

usemtl M_0100_SteelBlue
vt 10433.2 -10736.9
v -285.356 10.37 272.717
vt 11234.5 -10736.9
f 40/292/8 41/294/8 137/295/8 136/293/8 

vt -10433.2 408.268
vt -10433.2 1102.76
v -285.356 28.01 272.717
vt -11234.5 1102.76
vt -11234.5 408.268
f 41/296/5 43/297/5 138/298/5 137/299/5 

v -285.356 28.01 258.433
vt -11234.5 -10174.5
vt -11234.5 -10736.9
vt -10433.2 -10736.9
vt -10433.2 -10174.5
f 139/300/7 138/301/7 43/302/7 123/303/7 

f 136/71/9 137/72/9 138/74/9 139/270/9 

usemtl M_0129_WhiteSmoke
f 135/70/9 136/71/9 139/270/9 134/271/9 

f 134/286/7 139/300/7 123/303/7 124/287/7 

vn -3.42431e-019 -1 -1.92609e-017
vt 11234.5 -6761.68
vt 10433.2 -6761.68
f 131/291/11 127/304/11 37/305/11 38/288/11 

v -285.356 24.11 180.884
vt 7121.4 949.213
f 132/281/9 128/273/9 140/306/9

f 140/306/9 128/273/9 129/278/9

vt 11234.5 584.646
v -308.524 14.85 180.884
vt 12146.6 584.646
v -308.524 24.11 180.884
vt 12146.6 949.213
vt 11234.5 949.213
f 129/307/2 141/308/2 142/309/2 140/310/2 

vt 12146.6 -7121.4
vt 11234.5 -7121.4
vt 11234.5 -9446.21
v -308.524 14.85 239.934
vt 12146.6 -9446.21
f 141/311/1 129/312/1 130/313/1 143/314/1 

vt -12146.6 584.646
vt -11234.5 584.646
vt -11234.5 949.213
v -308.524 24.11 239.934
vt -12146.6 949.213
f 143/315/5 130/316/5 132/317/5 144/318/5 

vt -11234.5 -7121.4
vn -9.9712e-016 1 -0
vt -12146.6 -7121.4
vt -12146.6 -9446.21
vt -11234.5 -9446.21
f 140/319/12 142/320/12 144/321/12 132/322/12 

f 141/278/9 143/279/9 144/281/9 142/306/9 

usemtl M_0100_SteelBlue
vt -4976.19 1102.76
vt -4976.19 408.268
vt -4174.94 408.268
vt -4174.94 1102.76
f 23/323/5 20/324/5 28/325/5 26/326/5 

