# MagicaVoxel @ ephtracy

# material
mtllib 2x1 - 2.mtl
usemtl palette

# normals
vn -1 0 0
vn 1 0 0
vn 0 -1 0
vn 0 1 0
vn 0 0 -1
vn 0 0 1

# texcoords
vt 0.642578 0.5

# verts
v 8 34 18
v 8 37 18
v 8 34 21
v 8 37 21
v 9 32 18
v 9 34 18
v 9 37 18
v 9 38 18
v 9 34 21
v 9 37 21
v 9 32 23
v 9 38 23
v 10 0 18
v 10 3 18
v 10 9 18
v 10 13 18
v 10 38 18
v 10 40 18
v 10 9 20
v 10 13 20
v 10 36 23
v 10 38 23
v 10 0 24
v 10 3 24
v 10 36 24
v 10 40 24
v 11 7 18
v 11 9 18
v 11 13 18
v 11 14 18
v 11 31 18
v 11 32 18
v 11 9 20
v 11 13 20
v 11 7 21
v 11 14 21
v 11 31 21
v 11 32 21
v 12 3 18
v 12 7 18
v 12 27 18
v 12 31 18
v 12 7 21
v 12 12 21
v 12 31 21
v 12 32 21
v 12 32 23
v 12 36 23
v 12 3 24
v 12 12 24
v 12 27 24
v 12 36 24
v 13 25 18
v 13 27 18
v 13 25 22
v 13 27 22
v 14 14 18
v 14 25 18
v 14 12 21
v 14 14 21
v 14 25 22
v 14 27 22
v 14 12 24
v 14 27 24
v 19 6 24
v 19 10 24
v 19 32 24
v 19 35 24
v 19 6 27
v 19 10 27
v 19 32 28
v 19 35 28
v 20 0 24
v 20 6 24
v 20 35 24
v 20 40 24
v 20 6 27
v 20 8 27
v 20 33 28
v 20 35 28
v 20 0 30
v 20 8 30
v 20 33 30
v 20 40 30
v 22 10 24
v 22 15 24
v 22 25 24
v 22 32 24
v 22 8 27
v 22 10 27
v 22 32 28
v 22 33 28
v 22 8 30
v 22 15 30
v 22 25 30
v 22 33 30
v 24 15 24
v 24 25 24
v 24 15 30
v 24 25 30
v 30 0 30
v 30 8 30
v 30 33 30
v 30 40 30
v 30 0 36
v 30 8 36
v 30 33 36
v 30 40 36
v 33 27 30
v 33 33 30
v 33 27 33
v 33 33 33
v 34 8 30
v 34 12 30
v 34 28 33
v 34 33 33
v 34 8 36
v 34 12 36
v 34 28 36
v 34 33 36
v 36 14 30
v 36 18 30
v 36 14 33
v 36 18 33
v 37 12 30
v 37 14 30
v 37 23 30
v 37 27 30
v 37 14 33
v 37 16 33
v 37 27 33
v 37 28 33
v 37 12 36
v 37 16 36
v 37 23 36
v 37 28 36
v 39 18 30
v 39 23 30
v 39 16 33
v 39 18 33
v 39 16 36
v 39 23 36
v 40 0 18
v 40 40 18
v 40 0 36
v 40 40 36
v 10 0 18
v 10 0 24
v 20 0 24
v 20 0 30
v 30 0 30
v 30 0 36
v 40 0 18
v 40 0 36
v 19 6 24
v 19 6 27
v 20 6 24
v 20 6 27
v 11 7 18
v 11 7 21
v 12 7 18
v 12 7 21
v 10 9 18
v 10 9 20
v 11 9 18
v 11 9 20
v 36 14 30
v 36 14 33
v 37 14 30
v 37 14 33
v 37 23 30
v 37 23 36
v 39 23 30
v 39 23 36
v 13 25 18
v 13 25 22
v 14 25 18
v 14 25 22
v 22 25 24
v 22 25 30
v 24 25 24
v 24 25 30
v 12 27 18
v 12 27 24
v 13 27 18
v 13 27 22
v 14 27 22
v 14 27 24
v 33 27 30
v 33 27 33
v 37 27 30
v 37 27 33
v 34 28 33
v 34 28 36
v 37 28 33
v 37 28 36
v 11 31 18
v 11 31 21
v 12 31 18
v 12 31 21
v 9 32 18
v 9 32 23
v 11 32 18
v 11 32 21
v 12 32 21
v 12 32 23
v 19 32 24
v 19 32 28
v 22 32 24
v 22 32 28
v 20 33 28
v 20 33 30
v 22 33 28
v 22 33 30
v 30 33 30
v 30 33 36
v 33 33 30
v 33 33 33
v 34 33 33
v 34 33 36
v 8 34 18
v 8 34 21
v 9 34 18
v 9 34 21
v 10 36 23
v 10 36 24
v 12 36 23
v 12 36 24
v 10 3 18
v 10 3 24
v 12 3 18
v 12 3 24
v 20 8 27
v 20 8 30
v 22 8 27
v 22 8 30
v 30 8 30
v 30 8 36
v 34 8 30
v 34 8 36
v 19 10 24
v 19 10 27
v 22 10 24
v 22 10 27
v 12 12 21
v 12 12 24
v 14 12 21
v 14 12 24
v 34 12 30
v 34 12 36
v 37 12 30
v 37 12 36
v 10 13 18
v 10 13 20
v 11 13 18
v 11 13 20
v 11 14 18
v 11 14 21
v 14 14 18
v 14 14 21
v 22 15 24
v 22 15 30
v 24 15 24
v 24 15 30
v 37 16 33
v 37 16 36
v 39 16 33
v 39 16 36
v 36 18 30
v 36 18 33
v 39 18 30
v 39 18 33
v 19 35 24
v 19 35 28
v 20 35 24
v 20 35 28
v 8 37 18
v 8 37 21
v 9 37 18
v 9 37 21
v 9 38 18
v 9 38 23
v 10 38 18
v 10 38 23
v 10 40 18
v 10 40 24
v 20 40 24
v 20 40 30
v 30 40 30
v 30 40 36
v 40 40 18
v 40 40 36
v 10 0 18
v 40 0 18
v 10 3 18
v 12 3 18
v 11 7 18
v 12 7 18
v 10 9 18
v 11 9 18
v 10 13 18
v 11 13 18
v 11 14 18
v 14 14 18
v 13 25 18
v 14 25 18
v 12 27 18
v 13 27 18
v 11 31 18
v 12 31 18
v 9 32 18
v 11 32 18
v 8 34 18
v 9 34 18
v 8 37 18
v 9 37 18
v 9 38 18
v 10 38 18
v 10 40 18
v 40 40 18
v 10 9 20
v 11 9 20
v 10 13 20
v 11 13 20
v 11 7 21
v 12 7 21
v 12 12 21
v 14 12 21
v 11 14 21
v 14 14 21
v 11 31 21
v 12 31 21
v 11 32 21
v 12 32 21
v 8 34 21
v 9 34 21
v 8 37 21
v 9 37 21
v 13 25 22
v 14 25 22
v 13 27 22
v 14 27 22
v 9 32 23
v 12 32 23
v 10 36 23
v 12 36 23
v 9 38 23
v 10 38 23
v 10 0 24
v 20 0 24
v 10 3 24
v 12 3 24
v 19 6 24
v 20 6 24
v 19 10 24
v 22 10 24
v 12 12 24
v 14 12 24
v 22 15 24
v 24 15 24
v 22 25 24
v 24 25 24
v 12 27 24
v 14 27 24
v 19 32 24
v 22 32 24
v 19 35 24
v 20 35 24
v 10 36 24
v 12 36 24
v 10 40 24
v 20 40 24
v 19 6 27
v 20 6 27
v 20 8 27
v 22 8 27
v 19 10 27
v 22 10 27
v 19 32 28
v 22 32 28
v 20 33 28
v 22 33 28
v 19 35 28
v 20 35 28
v 20 0 30
v 30 0 30
v 20 8 30
v 22 8 30
v 30 8 30
v 34 8 30
v 34 12 30
v 37 12 30
v 36 14 30
v 37 14 30
v 22 15 30
v 24 15 30
v 36 18 30
v 39 18 30
v 37 23 30
v 39 23 30
v 22 25 30
v 24 25 30
v 33 27 30
v 37 27 30
v 20 33 30
v 22 33 30
v 30 33 30
v 33 33 30
v 20 40 30
v 30 40 30
v 36 14 33
v 37 14 33
v 37 16 33
v 39 16 33
v 36 18 33
v 39 18 33
v 33 27 33
v 37 27 33
v 34 28 33
v 37 28 33
v 33 33 33
v 34 33 33
v 30 0 36
v 40 0 36
v 30 8 36
v 34 8 36
v 34 12 36
v 37 12 36
v 37 16 36
v 39 16 36
v 37 23 36
v 39 23 36
v 34 28 36
v 37 28 36
v 30 33 36
v 34 33 36
v 30 40 36
v 40 40 36

# faces
f 3/1/1 2/1/1 1/1/1
f 4/1/1 2/1/1 3/1/1
f 9/1/1 6/1/1 5/1/1
f 10/1/1 8/1/1 7/1/1
f 11/1/1 9/1/1 5/1/1
f 11/1/1 10/1/1 9/1/1
f 12/1/1 8/1/1 10/1/1
f 12/1/1 10/1/1 11/1/1
f 19/1/1 16/1/1 15/1/1
f 20/1/1 16/1/1 19/1/1
f 22/1/1 18/1/1 17/1/1
f 23/1/1 14/1/1 13/1/1
f 24/1/1 14/1/1 23/1/1
f 25/1/1 22/1/1 21/1/1
f 26/1/1 18/1/1 22/1/1
f 26/1/1 22/1/1 25/1/1
f 33/1/1 28/1/1 27/1/1
f 34/1/1 30/1/1 29/1/1
f 35/1/1 33/1/1 27/1/1
f 35/1/1 34/1/1 33/1/1
f 36/1/1 30/1/1 34/1/1
f 36/1/1 34/1/1 35/1/1
f 37/1/1 32/1/1 31/1/1
f 38/1/1 32/1/1 37/1/1
f 43/1/1 40/1/1 39/1/1
f 45/1/1 42/1/1 41/1/1
f 47/1/1 46/1/1 45/1/1
f 49/1/1 44/1/1 43/1/1
f 49/1/1 43/1/1 39/1/1
f 50/1/1 44/1/1 49/1/1
f 51/1/1 48/1/1 47/1/1
f 51/1/1 47/1/1 45/1/1
f 51/1/1 45/1/1 41/1/1
f 52/1/1 48/1/1 51/1/1
f 55/1/1 54/1/1 53/1/1
f 56/1/1 54/1/1 55/1/1
f 60/1/1 58/1/1 57/1/1
f 61/1/1 58/1/1 60/1/1
f 61/1/1 60/1/1 59/1/1
f 63/1/1 61/1/1 59/1/1
f 63/1/1 62/1/1 61/1/1
f 64/1/1 62/1/1 63/1/1
f 69/1/1 66/1/1 65/1/1
f 70/1/1 66/1/1 69/1/1
f 71/1/1 68/1/1 67/1/1
f 72/1/1 68/1/1 71/1/1
f 77/1/1 74/1/1 73/1/1
f 80/1/1 76/1/1 75/1/1
f 81/1/1 78/1/1 77/1/1
f 81/1/1 77/1/1 73/1/1
f 82/1/1 78/1/1 81/1/1
f 83/1/1 80/1/1 79/1/1
f 84/1/1 76/1/1 80/1/1
f 84/1/1 80/1/1 83/1/1
f 90/1/1 86/1/1 85/1/1
f 91/1/1 88/1/1 87/1/1
f 93/1/1 90/1/1 89/1/1
f 94/1/1 86/1/1 90/1/1
f 94/1/1 90/1/1 93/1/1
f 95/1/1 92/1/1 91/1/1
f 95/1/1 91/1/1 87/1/1
f 96/1/1 92/1/1 95/1/1
f 99/1/1 98/1/1 97/1/1
f 100/1/1 98/1/1 99/1/1
f 105/1/1 102/1/1 101/1/1
f 106/1/1 102/1/1 105/1/1
f 107/1/1 104/1/1 103/1/1
f 108/1/1 104/1/1 107/1/1
f 111/1/1 110/1/1 109/1/1
f 112/1/1 110/1/1 111/1/1
f 117/1/1 114/1/1 113/1/1
f 118/1/1 114/1/1 117/1/1
f 119/1/1 116/1/1 115/1/1
f 120/1/1 116/1/1 119/1/1
f 123/1/1 122/1/1 121/1/1
f 124/1/1 122/1/1 123/1/1
f 129/1/1 126/1/1 125/1/1
f 131/1/1 128/1/1 127/1/1
f 133/1/1 130/1/1 129/1/1
f 133/1/1 129/1/1 125/1/1
f 134/1/1 130/1/1 133/1/1
f 135/1/1 132/1/1 131/1/1
f 135/1/1 131/1/1 127/1/1
f 136/1/1 132/1/1 135/1/1
f 140/1/1 138/1/1 137/1/1
f 141/1/1 140/1/1 139/1/1
f 142/1/1 138/1/1 140/1/1
f 142/1/1 140/1/1 141/1/1
f 143/1/2 144/1/2 145/1/2
f 145/1/2 144/1/2 146/1/2
f 149/1/3 148/1/3 147/1/3
f 151/1/3 150/1/3 149/1/3
f 153/1/3 149/1/3 147/1/3
f 153/1/3 152/1/3 151/1/3
f 153/1/3 151/1/3 149/1/3
f 154/1/3 152/1/3 153/1/3
f 157/1/3 156/1/3 155/1/3
f 158/1/3 156/1/3 157/1/3
f 161/1/3 160/1/3 159/1/3
f 162/1/3 160/1/3 161/1/3
f 165/1/3 164/1/3 163/1/3
f 166/1/3 164/1/3 165/1/3
f 169/1/3 168/1/3 167/1/3
f 170/1/3 168/1/3 169/1/3
f 173/1/3 172/1/3 171/1/3
f 174/1/3 172/1/3 173/1/3
f 177/1/3 176/1/3 175/1/3
f 178/1/3 176/1/3 177/1/3
f 181/1/3 180/1/3 179/1/3
f 182/1/3 180/1/3 181/1/3
f 185/1/3 184/1/3 183/1/3
f 186/1/3 184/1/3 185/1/3
f 187/1/3 184/1/3 186/1/3
f 188/1/3 184/1/3 187/1/3
f 191/1/3 190/1/3 189/1/3
f 192/1/3 190/1/3 191/1/3
f 195/1/3 194/1/3 193/1/3
f 196/1/3 194/1/3 195/1/3
f 199/1/3 198/1/3 197/1/3
f 200/1/3 198/1/3 199/1/3
f 203/1/3 202/1/3 201/1/3
f 204/1/3 202/1/3 203/1/3
f 205/1/3 202/1/3 204/1/3
f 206/1/3 202/1/3 205/1/3
f 209/1/3 208/1/3 207/1/3
f 210/1/3 208/1/3 209/1/3
f 213/1/3 212/1/3 211/1/3
f 214/1/3 212/1/3 213/1/3
f 217/1/3 216/1/3 215/1/3
f 218/1/3 216/1/3 217/1/3
f 219/1/3 216/1/3 218/1/3
f 220/1/3 216/1/3 219/1/3
f 223/1/3 222/1/3 221/1/3
f 224/1/3 222/1/3 223/1/3
f 227/1/3 226/1/3 225/1/3
f 228/1/3 226/1/3 227/1/3
f 229/1/4 230/1/4 231/1/4
f 231/1/4 230/1/4 232/1/4
f 233/1/4 234/1/4 235/1/4
f 235/1/4 234/1/4 236/1/4
f 237/1/4 238/1/4 239/1/4
f 239/1/4 238/1/4 240/1/4
f 241/1/4 242/1/4 243/1/4
f 243/1/4 242/1/4 244/1/4
f 245/1/4 246/1/4 247/1/4
f 247/1/4 246/1/4 248/1/4
f 249/1/4 250/1/4 251/1/4
f 251/1/4 250/1/4 252/1/4
f 253/1/4 254/1/4 255/1/4
f 255/1/4 254/1/4 256/1/4
f 257/1/4 258/1/4 259/1/4
f 259/1/4 258/1/4 260/1/4
f 261/1/4 262/1/4 263/1/4
f 263/1/4 262/1/4 264/1/4
f 265/1/4 266/1/4 267/1/4
f 267/1/4 266/1/4 268/1/4
f 269/1/4 270/1/4 271/1/4
f 271/1/4 270/1/4 272/1/4
f 273/1/4 274/1/4 275/1/4
f 275/1/4 274/1/4 276/1/4
f 277/1/4 278/1/4 279/1/4
f 279/1/4 278/1/4 280/1/4
f 281/1/4 282/1/4 283/1/4
f 283/1/4 282/1/4 284/1/4
f 285/1/4 286/1/4 287/1/4
f 287/1/4 288/1/4 289/1/4
f 285/1/4 287/1/4 291/1/4
f 289/1/4 290/1/4 291/1/4
f 287/1/4 289/1/4 291/1/4
f 291/1/4 290/1/4 292/1/4
f 295/1/5 294/1/5 293/1/5
f 296/1/5 294/1/5 295/1/5
f 298/1/5 294/1/5 296/1/5
f 300/1/5 298/1/5 297/1/5
f 301/1/5 300/1/5 299/1/5
f 302/1/5 298/1/5 300/1/5
f 302/1/5 300/1/5 301/1/5
f 303/1/5 298/1/5 302/1/5
f 304/1/5 294/1/5 298/1/5
f 304/1/5 298/1/5 303/1/5
f 306/1/5 294/1/5 304/1/5
f 308/1/5 306/1/5 305/1/5
f 310/1/5 308/1/5 307/1/5
f 312/1/5 310/1/5 309/1/5
f 314/1/5 312/1/5 311/1/5
f 315/1/5 314/1/5 313/1/5
f 316/1/5 312/1/5 314/1/5
f 316/1/5 314/1/5 315/1/5
f 317/1/5 312/1/5 316/1/5
f 318/1/5 312/1/5 317/1/5
f 319/1/5 312/1/5 318/1/5
f 320/1/5 294/1/5 306/1/5
f 320/1/5 312/1/5 319/1/5
f 320/1/5 306/1/5 308/1/5
f 320/1/5 308/1/5 310/1/5
f 320/1/5 310/1/5 312/1/5
f 321/1/6 322/1/6 323/1/6
f 323/1/6 322/1/6 324/1/6
f 325/1/6 326/1/6 327/1/6
f 325/1/6 327/1/6 329/1/6
f 327/1/6 328/1/6 329/1/6
f 329/1/6 328/1/6 330/1/6
f 331/1/6 332/1/6 333/1/6
f 333/1/6 332/1/6 334/1/6
f 335/1/6 336/1/6 337/1/6
f 337/1/6 336/1/6 338/1/6
f 339/1/6 340/1/6 341/1/6
f 341/1/6 340/1/6 342/1/6
f 343/1/6 344/1/6 345/1/6
f 345/1/6 344/1/6 346/1/6
f 343/1/6 345/1/6 347/1/6
f 347/1/6 345/1/6 348/1/6
f 349/1/6 350/1/6 351/1/6
f 351/1/6 350/1/6 352/1/6
f 352/1/6 350/1/6 353/1/6
f 353/1/6 350/1/6 354/1/6
f 352/1/6 353/1/6 355/1/6
f 352/1/6 355/1/6 357/1/6
f 355/1/6 356/1/6 357/1/6
f 357/1/6 356/1/6 358/1/6
f 358/1/6 356/1/6 359/1/6
f 358/1/6 359/1/6 361/1/6
f 359/1/6 360/1/6 361/1/6
f 361/1/6 360/1/6 362/1/6
f 358/1/6 361/1/6 364/1/6
f 364/1/6 361/1/6 365/1/6
f 363/1/6 364/1/6 365/1/6
f 365/1/6 361/1/6 366/1/6
f 363/1/6 365/1/6 367/1/6
f 363/1/6 367/1/6 370/1/6
f 367/1/6 368/1/6 370/1/6
f 369/1/6 370/1/6 371/1/6
f 370/1/6 368/1/6 372/1/6
f 371/1/6 370/1/6 372/1/6
f 373/1/6 374/1/6 375/1/6
f 373/1/6 375/1/6 377/1/6
f 375/1/6 376/1/6 377/1/6
f 377/1/6 376/1/6 378/1/6
f 379/1/6 380/1/6 381/1/6
f 381/1/6 380/1/6 382/1/6
f 379/1/6 381/1/6 383/1/6
f 383/1/6 381/1/6 384/1/6
f 385/1/6 386/1/6 387/1/6
f 387/1/6 386/1/6 388/1/6
f 388/1/6 386/1/6 389/1/6
f 389/1/6 390/1/6 391/1/6
f 388/1/6 389/1/6 391/1/6
f 391/1/6 392/1/6 393/1/6
f 393/1/6 392/1/6 394/1/6
f 388/1/6 391/1/6 395/1/6
f 391/1/6 393/1/6 395/1/6
f 395/1/6 393/1/6 396/1/6
f 396/1/6 393/1/6 397/1/6
f 397/1/6 398/1/6 399/1/6
f 399/1/6 398/1/6 400/1/6
f 396/1/6 397/1/6 402/1/6
f 397/1/6 399/1/6 402/1/6
f 402/1/6 399/1/6 403/1/6
f 401/1/6 402/1/6 403/1/6
f 403/1/6 399/1/6 404/1/6
f 401/1/6 403/1/6 406/1/6
f 406/1/6 403/1/6 407/1/6
f 407/1/6 403/1/6 408/1/6
f 405/1/6 406/1/6 409/1/6
f 406/1/6 407/1/6 409/1/6
f 409/1/6 407/1/6 410/1/6
f 411/1/6 412/1/6 413/1/6
f 411/1/6 413/1/6 415/1/6
f 413/1/6 414/1/6 415/1/6
f 415/1/6 414/1/6 416/1/6
f 417/1/6 418/1/6 419/1/6
f 419/1/6 418/1/6 420/1/6
f 417/1/6 419/1/6 421/1/6
f 421/1/6 419/1/6 422/1/6
f 423/1/6 424/1/6 425/1/6
f 425/1/6 424/1/6 426/1/6
f 426/1/6 424/1/6 427/1/6
f 427/1/6 424/1/6 428/1/6
f 428/1/6 424/1/6 429/1/6
f 429/1/6 424/1/6 430/1/6
f 430/1/6 424/1/6 432/1/6
f 431/1/6 432/1/6 434/1/6
f 433/1/6 434/1/6 436/1/6
f 435/1/6 436/1/6 437/1/6
f 432/1/6 424/1/6 438/1/6
f 437/1/6 436/1/6 438/1/6
f 434/1/6 432/1/6 438/1/6
f 436/1/6 434/1/6 438/1/6
