# MagicaVoxel @ ephtracy

# material
mtllib 2x1.mtl
usemtl palette

# normals
vn -1 0 0
vn 1 0 0
vn 0 -1 0
vn 0 1 0
vn 0 0 -1
vn 0 0 1

# texcoords
vt 0.642578 0.5

# verts
v 6 14 18
v 6 24 18
v 6 14 24
v 6 24 24
v 7 10 18
v 7 14 18
v 7 24 18
v 7 30 18
v 7 10 24
v 7 14 24
v 7 24 24
v 7 30 24
v 8 6 18
v 8 10 18
v 8 6 22
v 8 10 22
v 9 30 18
v 9 36 18
v 9 30 22
v 9 36 22
v 10 0 18
v 10 6 18
v 10 36 18
v 10 40 18
v 10 6 22
v 10 10 22
v 10 30 22
v 10 36 22
v 10 0 24
v 10 10 24
v 10 30 24
v 10 40 24
v 16 12 24
v 16 26 24
v 16 12 30
v 16 26 30
v 17 8 24
v 17 12 24
v 17 26 24
v 17 28 24
v 17 26 26
v 17 28 26
v 17 8 27
v 17 12 27
v 18 6 24
v 18 8 24
v 18 28 24
v 18 32 24
v 18 26 26
v 18 28 26
v 18 8 27
v 18 12 27
v 18 6 30
v 18 12 30
v 18 26 30
v 18 32 30
v 19 4 24
v 19 6 24
v 19 32 24
v 19 36 24
v 19 4 26
v 19 6 26
v 19 32 28
v 19 36 28
v 20 0 24
v 20 4 24
v 20 36 24
v 20 40 24
v 20 4 26
v 20 6 26
v 20 32 28
v 20 36 28
v 20 0 30
v 20 6 30
v 20 32 30
v 20 40 30
v 23 14 30
v 23 18 30
v 23 14 33
v 23 18 33
v 24 12 30
v 24 14 30
v 24 18 30
v 24 22 30
v 24 14 33
v 24 18 33
v 24 12 36
v 24 22 36
v 26 6 30
v 26 12 30
v 26 22 30
v 26 32 30
v 26 6 36
v 26 12 36
v 26 22 36
v 26 32 36
v 28 32 30
v 28 36 30
v 28 32 31
v 28 36 31
v 30 0 30
v 30 6 30
v 30 36 30
v 30 40 30
v 30 32 31
v 30 36 31
v 30 0 36
v 30 6 36
v 30 32 36
v 30 40 36
v 40 0 18
v 40 40 18
v 40 0 36
v 40 40 36
v 10 0 18
v 10 0 24
v 20 0 24
v 20 0 30
v 30 0 30
v 30 0 36
v 40 0 18
v 40 0 36
v 19 4 24
v 19 4 26
v 20 4 24
v 20 4 26
v 8 6 18
v 8 6 22
v 10 6 18
v 10 6 22
v 18 6 24
v 18 6 30
v 19 6 24
v 19 6 26
v 20 6 26
v 20 6 30
v 26 6 30
v 26 6 36
v 30 6 30
v 30 6 36
v 17 8 24
v 17 8 27
v 18 8 24
v 18 8 27
v 7 10 18
v 7 10 24
v 8 10 18
v 8 10 22
v 10 10 22
v 10 10 24
v 16 12 24
v 16 12 30
v 17 12 24
v 17 12 27
v 18 12 27
v 18 12 30
v 24 12 30
v 24 12 36
v 26 12 30
v 26 12 36
v 6 14 18
v 6 14 24
v 7 14 18
v 7 14 24
v 23 14 30
v 23 14 33
v 24 14 30
v 24 14 33
v 23 18 30
v 23 18 33
v 24 18 30
v 24 18 33
v 24 22 30
v 24 22 36
v 26 22 30
v 26 22 36
v 6 24 18
v 6 24 24
v 7 24 18
v 7 24 24
v 16 26 24
v 16 26 30
v 17 26 24
v 17 26 26
v 18 26 26
v 18 26 30
v 17 28 24
v 17 28 26
v 18 28 24
v 18 28 26
v 7 30 18
v 7 30 24
v 9 30 18
v 9 30 22
v 10 30 22
v 10 30 24
v 18 32 24
v 18 32 30
v 19 32 24
v 19 32 28
v 20 32 28
v 20 32 30
v 26 32 30
v 26 32 36
v 28 32 30
v 28 32 31
v 30 32 31
v 30 32 36
v 9 36 18
v 9 36 22
v 10 36 18
v 10 36 22
v 19 36 24
v 19 36 28
v 20 36 24
v 20 36 28
v 28 36 30
v 28 36 31
v 30 36 30
v 30 36 31
v 10 40 18
v 10 40 24
v 20 40 24
v 20 40 30
v 30 40 30
v 30 40 36
v 40 40 18
v 40 40 36
v 10 0 18
v 40 0 18
v 8 6 18
v 10 6 18
v 7 10 18
v 8 10 18
v 6 14 18
v 7 14 18
v 6 24 18
v 7 24 18
v 7 30 18
v 9 30 18
v 9 36 18
v 10 36 18
v 10 40 18
v 40 40 18
v 8 6 22
v 10 6 22
v 8 10 22
v 10 10 22
v 9 30 22
v 10 30 22
v 9 36 22
v 10 36 22
v 10 0 24
v 20 0 24
v 19 4 24
v 20 4 24
v 18 6 24
v 19 6 24
v 17 8 24
v 18 8 24
v 7 10 24
v 10 10 24
v 16 12 24
v 17 12 24
v 6 14 24
v 7 14 24
v 6 24 24
v 7 24 24
v 16 26 24
v 17 26 24
v 17 28 24
v 18 28 24
v 7 30 24
v 10 30 24
v 18 32 24
v 19 32 24
v 19 36 24
v 20 36 24
v 10 40 24
v 20 40 24
v 19 4 26
v 20 4 26
v 19 6 26
v 20 6 26
v 17 26 26
v 18 26 26
v 17 28 26
v 18 28 26
v 17 8 27
v 18 8 27
v 17 12 27
v 18 12 27
v 19 32 28
v 20 32 28
v 19 36 28
v 20 36 28
v 20 0 30
v 30 0 30
v 18 6 30
v 20 6 30
v 26 6 30
v 30 6 30
v 16 12 30
v 18 12 30
v 24 12 30
v 26 12 30
v 23 14 30
v 24 14 30
v 23 18 30
v 24 18 30
v 24 22 30
v 26 22 30
v 16 26 30
v 18 26 30
v 18 32 30
v 20 32 30
v 26 32 30
v 28 32 30
v 28 36 30
v 30 36 30
v 20 40 30
v 30 40 30
v 28 32 31
v 30 32 31
v 28 36 31
v 30 36 31
v 23 14 33
v 24 14 33
v 23 18 33
v 24 18 33
v 30 0 36
v 40 0 36
v 26 6 36
v 30 6 36
v 24 12 36
v 26 12 36
v 24 22 36
v 26 22 36
v 26 32 36
v 30 32 36
v 30 40 36
v 40 40 36

# faces
f 3/1/1 2/1/1 1/1/1
f 4/1/1 2/1/1 3/1/1
f 9/1/1 6/1/1 5/1/1
f 10/1/1 6/1/1 9/1/1
f 11/1/1 8/1/1 7/1/1
f 12/1/1 8/1/1 11/1/1
f 15/1/1 14/1/1 13/1/1
f 16/1/1 14/1/1 15/1/1
f 19/1/1 18/1/1 17/1/1
f 20/1/1 18/1/1 19/1/1
f 25/1/1 22/1/1 21/1/1
f 28/1/1 24/1/1 23/1/1
f 29/1/1 26/1/1 25/1/1
f 29/1/1 25/1/1 21/1/1
f 30/1/1 26/1/1 29/1/1
f 31/1/1 28/1/1 27/1/1
f 32/1/1 24/1/1 28/1/1
f 32/1/1 28/1/1 31/1/1
f 35/1/1 34/1/1 33/1/1
f 36/1/1 34/1/1 35/1/1
f 41/1/1 40/1/1 39/1/1
f 42/1/1 40/1/1 41/1/1
f 43/1/1 38/1/1 37/1/1
f 44/1/1 38/1/1 43/1/1
f 50/1/1 48/1/1 47/1/1
f 51/1/1 46/1/1 45/1/1
f 53/1/1 51/1/1 45/1/1
f 53/1/1 52/1/1 51/1/1
f 54/1/1 52/1/1 53/1/1
f 55/1/1 50/1/1 49/1/1
f 56/1/1 48/1/1 50/1/1
f 56/1/1 50/1/1 55/1/1
f 61/1/1 58/1/1 57/1/1
f 62/1/1 58/1/1 61/1/1
f 63/1/1 60/1/1 59/1/1
f 64/1/1 60/1/1 63/1/1
f 69/1/1 66/1/1 65/1/1
f 72/1/1 68/1/1 67/1/1
f 73/1/1 70/1/1 69/1/1
f 73/1/1 69/1/1 65/1/1
f 74/1/1 70/1/1 73/1/1
f 75/1/1 72/1/1 71/1/1
f 76/1/1 68/1/1 72/1/1
f 76/1/1 72/1/1 75/1/1
f 79/1/1 78/1/1 77/1/1
f 80/1/1 78/1/1 79/1/1
f 85/1/1 82/1/1 81/1/1
f 86/1/1 84/1/1 83/1/1
f 87/1/1 85/1/1 81/1/1
f 87/1/1 86/1/1 85/1/1
f 88/1/1 84/1/1 86/1/1
f 88/1/1 86/1/1 87/1/1
f 93/1/1 90/1/1 89/1/1
f 94/1/1 90/1/1 93/1/1
f 95/1/1 92/1/1 91/1/1
f 96/1/1 92/1/1 95/1/1
f 99/1/1 98/1/1 97/1/1
f 100/1/1 98/1/1 99/1/1
f 106/1/1 104/1/1 103/1/1
f 107/1/1 102/1/1 101/1/1
f 108/1/1 102/1/1 107/1/1
f 109/1/1 106/1/1 105/1/1
f 110/1/1 104/1/1 106/1/1
f 110/1/1 106/1/1 109/1/1
f 111/1/2 112/1/2 113/1/2
f 113/1/2 112/1/2 114/1/2
f 117/1/3 116/1/3 115/1/3
f 119/1/3 118/1/3 117/1/3
f 121/1/3 117/1/3 115/1/3
f 121/1/3 120/1/3 119/1/3
f 121/1/3 119/1/3 117/1/3
f 122/1/3 120/1/3 121/1/3
f 125/1/3 124/1/3 123/1/3
f 126/1/3 124/1/3 125/1/3
f 129/1/3 128/1/3 127/1/3
f 130/1/3 128/1/3 129/1/3
f 133/1/3 132/1/3 131/1/3
f 134/1/3 132/1/3 133/1/3
f 135/1/3 132/1/3 134/1/3
f 136/1/3 132/1/3 135/1/3
f 139/1/3 138/1/3 137/1/3
f 140/1/3 138/1/3 139/1/3
f 143/1/3 142/1/3 141/1/3
f 144/1/3 142/1/3 143/1/3
f 147/1/3 146/1/3 145/1/3
f 148/1/3 146/1/3 147/1/3
f 149/1/3 146/1/3 148/1/3
f 150/1/3 146/1/3 149/1/3
f 153/1/3 152/1/3 151/1/3
f 154/1/3 152/1/3 153/1/3
f 155/1/3 152/1/3 154/1/3
f 156/1/3 152/1/3 155/1/3
f 159/1/3 158/1/3 157/1/3
f 160/1/3 158/1/3 159/1/3
f 163/1/3 162/1/3 161/1/3
f 164/1/3 162/1/3 163/1/3
f 167/1/3 166/1/3 165/1/3
f 168/1/3 166/1/3 167/1/3
f 169/1/4 170/1/4 171/1/4
f 171/1/4 170/1/4 172/1/4
f 173/1/4 174/1/4 175/1/4
f 175/1/4 174/1/4 176/1/4
f 177/1/4 178/1/4 179/1/4
f 179/1/4 178/1/4 180/1/4
f 181/1/4 182/1/4 183/1/4
f 183/1/4 182/1/4 184/1/4
f 184/1/4 182/1/4 185/1/4
f 185/1/4 182/1/4 186/1/4
f 187/1/4 188/1/4 189/1/4
f 189/1/4 188/1/4 190/1/4
f 191/1/4 192/1/4 193/1/4
f 193/1/4 192/1/4 194/1/4
f 194/1/4 192/1/4 195/1/4
f 195/1/4 192/1/4 196/1/4
f 197/1/4 198/1/4 199/1/4
f 199/1/4 198/1/4 200/1/4
f 200/1/4 198/1/4 201/1/4
f 201/1/4 198/1/4 202/1/4
f 203/1/4 204/1/4 205/1/4
f 205/1/4 204/1/4 206/1/4
f 206/1/4 204/1/4 207/1/4
f 207/1/4 204/1/4 208/1/4
f 209/1/4 210/1/4 211/1/4
f 211/1/4 210/1/4 212/1/4
f 213/1/4 214/1/4 215/1/4
f 215/1/4 214/1/4 216/1/4
f 217/1/4 218/1/4 219/1/4
f 219/1/4 218/1/4 220/1/4
f 221/1/4 222/1/4 223/1/4
f 223/1/4 224/1/4 225/1/4
f 221/1/4 223/1/4 227/1/4
f 225/1/4 226/1/4 227/1/4
f 223/1/4 225/1/4 227/1/4
f 227/1/4 226/1/4 228/1/4
f 232/1/5 230/1/5 229/1/5
f 234/1/5 232/1/5 231/1/5
f 236/1/5 234/1/5 233/1/5
f 237/1/5 236/1/5 235/1/5
f 238/1/5 234/1/5 236/1/5
f 238/1/5 236/1/5 237/1/5
f 239/1/5 234/1/5 238/1/5
f 240/1/5 232/1/5 234/1/5
f 240/1/5 234/1/5 239/1/5
f 241/1/5 232/1/5 240/1/5
f 242/1/5 230/1/5 232/1/5
f 242/1/5 232/1/5 241/1/5
f 243/1/5 230/1/5 242/1/5
f 244/1/5 230/1/5 243/1/5
f 245/1/6 246/1/6 247/1/6
f 247/1/6 246/1/6 248/1/6
f 249/1/6 250/1/6 251/1/6
f 251/1/6 250/1/6 252/1/6
f 253/1/6 254/1/6 255/1/6
f 255/1/6 254/1/6 256/1/6
f 253/1/6 255/1/6 257/1/6
f 257/1/6 255/1/6 258/1/6
f 253/1/6 257/1/6 259/1/6
f 259/1/6 257/1/6 260/1/6
f 253/1/6 259/1/6 262/1/6
f 262/1/6 259/1/6 263/1/6
f 261/1/6 262/1/6 263/1/6
f 263/1/6 259/1/6 264/1/6
f 261/1/6 263/1/6 266/1/6
f 265/1/6 266/1/6 267/1/6
f 266/1/6 263/1/6 268/1/6
f 267/1/6 266/1/6 268/1/6
f 268/1/6 263/1/6 269/1/6
f 269/1/6 270/1/6 271/1/6
f 269/1/6 271/1/6 273/1/6
f 271/1/6 272/1/6 273/1/6
f 268/1/6 269/1/6 273/1/6
f 273/1/6 272/1/6 274/1/6
f 274/1/6 272/1/6 275/1/6
f 275/1/6 276/1/6 277/1/6
f 275/1/6 277/1/6 279/1/6
f 277/1/6 278/1/6 279/1/6
f 274/1/6 275/1/6 279/1/6
f 279/1/6 278/1/6 280/1/6
f 281/1/6 282/1/6 283/1/6
f 283/1/6 282/1/6 284/1/6
f 285/1/6 286/1/6 287/1/6
f 287/1/6 286/1/6 288/1/6
f 289/1/6 290/1/6 291/1/6
f 291/1/6 290/1/6 292/1/6
f 293/1/6 294/1/6 295/1/6
f 295/1/6 294/1/6 296/1/6
f 297/1/6 298/1/6 300/1/6
f 300/1/6 298/1/6 301/1/6
f 301/1/6 298/1/6 302/1/6
f 299/1/6 300/1/6 304/1/6
f 300/1/6 301/1/6 304/1/6
f 304/1/6 301/1/6 305/1/6
f 305/1/6 301/1/6 306/1/6
f 303/1/6 304/1/6 307/1/6
f 304/1/6 305/1/6 307/1/6
f 307/1/6 305/1/6 308/1/6
f 303/1/6 307/1/6 309/1/6
f 309/1/6 310/1/6 311/1/6
f 309/1/6 311/1/6 313/1/6
f 311/1/6 312/1/6 313/1/6
f 303/1/6 309/1/6 313/1/6
f 313/1/6 312/1/6 314/1/6
f 314/1/6 312/1/6 315/1/6
f 315/1/6 312/1/6 316/1/6
f 316/1/6 312/1/6 317/1/6
f 316/1/6 317/1/6 319/1/6
f 317/1/6 318/1/6 319/1/6
f 316/1/6 319/1/6 321/1/6
f 319/1/6 320/1/6 321/1/6
f 321/1/6 320/1/6 322/1/6
f 323/1/6 324/1/6 325/1/6
f 325/1/6 324/1/6 326/1/6
f 327/1/6 328/1/6 329/1/6
f 329/1/6 328/1/6 330/1/6
f 331/1/6 332/1/6 334/1/6
f 333/1/6 334/1/6 336/1/6
f 335/1/6 336/1/6 337/1/6
f 336/1/6 334/1/6 338/1/6
f 337/1/6 336/1/6 338/1/6
f 338/1/6 334/1/6 339/1/6
f 334/1/6 332/1/6 340/1/6
f 339/1/6 334/1/6 340/1/6
f 340/1/6 332/1/6 341/1/6
f 341/1/6 332/1/6 342/1/6
