# MagicaVoxel @ ephtracy

# material
mtllib 4x1 - 2.mtl
usemtl palette

# normals
vn -1 0 0
vn 1 0 0
vn 0 -1 0
vn 0 1 0
vn 0 0 -1
vn 0 0 1

# texcoords
vt 0.642578 0.5

# verts
v 0 23 18
v 0 50 18
v 0 23 24
v 0 50 24
v 3 16 18
v 3 23 18
v 3 50 18
v 3 61 18
v 3 16 24
v 3 23 24
v 3 50 24
v 3 61 24
v 6 11 18
v 6 16 18
v 6 61 18
v 6 68 18
v 6 11 24
v 6 16 24
v 6 61 24
v 6 68 24
v 8 3 18
v 8 11 18
v 8 68 18
v 8 76 18
v 8 3 24
v 8 11 24
v 8 68 24
v 8 76 24
v 10 0 18
v 10 3 18
v 10 76 18
v 10 80 18
v 10 0 24
v 10 3 24
v 10 76 24
v 10 80 24
v 12 30 24
v 12 44 24
v 12 30 30
v 12 44 30
v 13 44 24
v 13 55 24
v 13 44 26
v 13 55 26
v 14 44 26
v 14 53 26
v 14 44 30
v 14 53 30
v 15 23 24
v 15 30 24
v 15 55 24
v 15 61 24
v 15 53 26
v 15 55 26
v 15 23 30
v 15 30 30
v 15 53 30
v 15 61 30
v 16 61 24
v 16 67 24
v 16 61 30
v 16 67 30
v 17 15 24
v 17 23 24
v 17 15 30
v 17 23 30
v 18 9 24
v 18 15 24
v 18 67 24
v 18 72 24
v 18 9 30
v 18 15 30
v 18 67 30
v 18 72 30
v 19 5 24
v 19 9 24
v 19 5 27
v 19 9 27
v 19 25 30
v 19 41 30
v 19 25 32
v 19 41 32
v 20 0 24
v 20 5 24
v 20 72 24
v 20 80 24
v 20 5 27
v 20 9 27
v 20 0 30
v 20 9 30
v 20 72 30
v 20 80 30
v 20 28 32
v 20 38 32
v 20 28 36
v 20 38 36
v 22 41 30
v 22 53 30
v 22 38 32
v 22 41 32
v 22 38 36
v 22 53 36
v 23 17 30
v 23 25 30
v 23 25 32
v 23 28 32
v 23 17 36
v 23 28 36
v 25 11 30
v 25 17 30
v 25 53 30
v 25 65 30
v 25 11 36
v 25 17 36
v 25 53 36
v 25 65 36
v 28 4 30
v 28 11 30
v 28 65 30
v 28 77 30
v 28 4 36
v 28 11 36
v 28 65 36
v 28 77 36
v 30 0 30
v 30 4 30
v 30 77 30
v 30 80 30
v 30 0 36
v 30 4 36
v 30 77 36
v 30 80 36
v 40 0 18
v 40 80 18
v 40 0 36
v 40 80 36
v 10 0 18
v 10 0 24
v 20 0 24
v 20 0 30
v 30 0 30
v 30 0 36
v 40 0 18
v 40 0 36
v 8 3 18
v 8 3 24
v 10 3 18
v 10 3 24
v 28 4 30
v 28 4 36
v 30 4 30
v 30 4 36
v 19 5 24
v 19 5 27
v 20 5 24
v 20 5 27
v 18 9 24
v 18 9 30
v 19 9 24
v 19 9 27
v 20 9 27
v 20 9 30
v 6 11 18
v 6 11 24
v 8 11 18
v 8 11 24
v 25 11 30
v 25 11 36
v 28 11 30
v 28 11 36
v 17 15 24
v 17 15 30
v 18 15 24
v 18 15 30
v 3 16 18
v 3 16 24
v 6 16 18
v 6 16 24
v 23 17 30
v 23 17 36
v 25 17 30
v 25 17 36
v 0 23 18
v 0 23 24
v 3 23 18
v 3 23 24
v 15 23 24
v 15 23 30
v 17 23 24
v 17 23 30
v 19 25 30
v 19 25 32
v 23 25 30
v 23 25 32
v 20 28 32
v 20 28 36
v 23 28 32
v 23 28 36
v 12 30 24
v 12 30 30
v 15 30 24
v 15 30 30
v 20 38 32
v 20 38 36
v 22 38 32
v 22 38 36
v 19 41 30
v 19 41 32
v 22 41 30
v 22 41 32
v 12 44 24
v 12 44 30
v 13 44 24
v 13 44 26
v 14 44 26
v 14 44 30
v 0 50 18
v 0 50 24
v 3 50 18
v 3 50 24
v 14 53 26
v 14 53 30
v 15 53 26
v 15 53 30
v 22 53 30
v 22 53 36
v 25 53 30
v 25 53 36
v 13 55 24
v 13 55 26
v 15 55 24
v 15 55 26
v 3 61 18
v 3 61 24
v 6 61 18
v 6 61 24
v 15 61 24
v 15 61 30
v 16 61 24
v 16 61 30
v 25 65 30
v 25 65 36
v 28 65 30
v 28 65 36
v 16 67 24
v 16 67 30
v 18 67 24
v 18 67 30
v 6 68 18
v 6 68 24
v 8 68 18
v 8 68 24
v 18 72 24
v 18 72 30
v 20 72 24
v 20 72 30
v 8 76 18
v 8 76 24
v 10 76 18
v 10 76 24
v 28 77 30
v 28 77 36
v 30 77 30
v 30 77 36
v 10 80 18
v 10 80 24
v 20 80 24
v 20 80 30
v 30 80 30
v 30 80 36
v 40 80 18
v 40 80 36
v 10 0 18
v 40 0 18
v 8 3 18
v 10 3 18
v 6 11 18
v 8 11 18
v 3 16 18
v 6 16 18
v 0 23 18
v 3 23 18
v 0 50 18
v 3 50 18
v 3 61 18
v 6 61 18
v 6 68 18
v 8 68 18
v 8 76 18
v 10 76 18
v 10 80 18
v 40 80 18
v 10 0 24
v 20 0 24
v 8 3 24
v 10 3 24
v 19 5 24
v 20 5 24
v 18 9 24
v 19 9 24
v 6 11 24
v 8 11 24
v 17 15 24
v 18 15 24
v 3 16 24
v 6 16 24
v 0 23 24
v 3 23 24
v 15 23 24
v 17 23 24
v 12 30 24
v 15 30 24
v 12 44 24
v 13 44 24
v 0 50 24
v 3 50 24
v 13 55 24
v 15 55 24
v 3 61 24
v 6 61 24
v 15 61 24
v 16 61 24
v 16 67 24
v 18 67 24
v 6 68 24
v 8 68 24
v 18 72 24
v 20 72 24
v 8 76 24
v 10 76 24
v 10 80 24
v 20 80 24
v 13 44 26
v 14 44 26
v 14 53 26
v 15 53 26
v 13 55 26
v 15 55 26
v 19 5 27
v 20 5 27
v 19 9 27
v 20 9 27
v 20 0 30
v 30 0 30
v 28 4 30
v 30 4 30
v 18 9 30
v 20 9 30
v 25 11 30
v 28 11 30
v 17 15 30
v 18 15 30
v 23 17 30
v 25 17 30
v 15 23 30
v 17 23 30
v 19 25 30
v 23 25 30
v 12 30 30
v 15 30 30
v 19 41 30
v 22 41 30
v 12 44 30
v 14 44 30
v 14 53 30
v 15 53 30
v 22 53 30
v 25 53 30
v 15 61 30
v 16 61 30
v 25 65 30
v 28 65 30
v 16 67 30
v 18 67 30
v 18 72 30
v 20 72 30
v 28 77 30
v 30 77 30
v 20 80 30
v 30 80 30
v 19 25 32
v 23 25 32
v 20 28 32
v 23 28 32
v 20 38 32
v 22 38 32
v 19 41 32
v 22 41 32
v 30 0 36
v 40 0 36
v 28 4 36
v 30 4 36
v 25 11 36
v 28 11 36
v 23 17 36
v 25 17 36
v 20 28 36
v 23 28 36
v 20 38 36
v 22 38 36
v 22 53 36
v 25 53 36
v 25 65 36
v 28 65 36
v 28 77 36
v 30 77 36
v 30 80 36
v 40 80 36

# faces
f 3/1/1 2/1/1 1/1/1
f 4/1/1 2/1/1 3/1/1
f 9/1/1 6/1/1 5/1/1
f 10/1/1 6/1/1 9/1/1
f 11/1/1 8/1/1 7/1/1
f 12/1/1 8/1/1 11/1/1
f 17/1/1 14/1/1 13/1/1
f 18/1/1 14/1/1 17/1/1
f 19/1/1 16/1/1 15/1/1
f 20/1/1 16/1/1 19/1/1
f 25/1/1 22/1/1 21/1/1
f 26/1/1 22/1/1 25/1/1
f 27/1/1 24/1/1 23/1/1
f 28/1/1 24/1/1 27/1/1
f 33/1/1 30/1/1 29/1/1
f 34/1/1 30/1/1 33/1/1
f 35/1/1 32/1/1 31/1/1
f 36/1/1 32/1/1 35/1/1
f 39/1/1 38/1/1 37/1/1
f 40/1/1 38/1/1 39/1/1
f 43/1/1 42/1/1 41/1/1
f 44/1/1 42/1/1 43/1/1
f 47/1/1 46/1/1 45/1/1
f 48/1/1 46/1/1 47/1/1
f 54/1/1 52/1/1 51/1/1
f 55/1/1 50/1/1 49/1/1
f 56/1/1 50/1/1 55/1/1
f 57/1/1 54/1/1 53/1/1
f 58/1/1 52/1/1 54/1/1
f 58/1/1 54/1/1 57/1/1
f 61/1/1 60/1/1 59/1/1
f 62/1/1 60/1/1 61/1/1
f 65/1/1 64/1/1 63/1/1
f 66/1/1 64/1/1 65/1/1
f 71/1/1 68/1/1 67/1/1
f 72/1/1 68/1/1 71/1/1
f 73/1/1 70/1/1 69/1/1
f 74/1/1 70/1/1 73/1/1
f 77/1/1 76/1/1 75/1/1
f 78/1/1 76/1/1 77/1/1
f 81/1/1 80/1/1 79/1/1
f 82/1/1 80/1/1 81/1/1
f 87/1/1 84/1/1 83/1/1
f 89/1/1 87/1/1 83/1/1
f 89/1/1 88/1/1 87/1/1
f 90/1/1 88/1/1 89/1/1
f 91/1/1 86/1/1 85/1/1
f 92/1/1 86/1/1 91/1/1
f 95/1/1 94/1/1 93/1/1
f 96/1/1 94/1/1 95/1/1
f 100/1/1 98/1/1 97/1/1
f 101/1/1 100/1/1 99/1/1
f 102/1/1 98/1/1 100/1/1
f 102/1/1 100/1/1 101/1/1
f 105/1/1 104/1/1 103/1/1
f 107/1/1 105/1/1 103/1/1
f 107/1/1 106/1/1 105/1/1
f 108/1/1 106/1/1 107/1/1
f 113/1/1 110/1/1 109/1/1
f 114/1/1 110/1/1 113/1/1
f 115/1/1 112/1/1 111/1/1
f 116/1/1 112/1/1 115/1/1
f 121/1/1 118/1/1 117/1/1
f 122/1/1 118/1/1 121/1/1
f 123/1/1 120/1/1 119/1/1
f 124/1/1 120/1/1 123/1/1
f 129/1/1 126/1/1 125/1/1
f 130/1/1 126/1/1 129/1/1
f 131/1/1 128/1/1 127/1/1
f 132/1/1 128/1/1 131/1/1
f 133/1/2 134/1/2 135/1/2
f 135/1/2 134/1/2 136/1/2
f 139/1/3 138/1/3 137/1/3
f 141/1/3 140/1/3 139/1/3
f 143/1/3 139/1/3 137/1/3
f 143/1/3 142/1/3 141/1/3
f 143/1/3 141/1/3 139/1/3
f 144/1/3 142/1/3 143/1/3
f 147/1/3 146/1/3 145/1/3
f 148/1/3 146/1/3 147/1/3
f 151/1/3 150/1/3 149/1/3
f 152/1/3 150/1/3 151/1/3
f 155/1/3 154/1/3 153/1/3
f 156/1/3 154/1/3 155/1/3
f 159/1/3 158/1/3 157/1/3
f 160/1/3 158/1/3 159/1/3
f 161/1/3 158/1/3 160/1/3
f 162/1/3 158/1/3 161/1/3
f 165/1/3 164/1/3 163/1/3
f 166/1/3 164/1/3 165/1/3
f 169/1/3 168/1/3 167/1/3
f 170/1/3 168/1/3 169/1/3
f 173/1/3 172/1/3 171/1/3
f 174/1/3 172/1/3 173/1/3
f 177/1/3 176/1/3 175/1/3
f 178/1/3 176/1/3 177/1/3
f 181/1/3 180/1/3 179/1/3
f 182/1/3 180/1/3 181/1/3
f 185/1/3 184/1/3 183/1/3
f 186/1/3 184/1/3 185/1/3
f 189/1/3 188/1/3 187/1/3
f 190/1/3 188/1/3 189/1/3
f 193/1/3 192/1/3 191/1/3
f 194/1/3 192/1/3 193/1/3
f 197/1/3 196/1/3 195/1/3
f 198/1/3 196/1/3 197/1/3
f 201/1/3 200/1/3 199/1/3
f 202/1/3 200/1/3 201/1/3
f 203/1/4 204/1/4 205/1/4
f 205/1/4 204/1/4 206/1/4
f 207/1/4 208/1/4 209/1/4
f 209/1/4 208/1/4 210/1/4
f 211/1/4 212/1/4 213/1/4
f 213/1/4 212/1/4 214/1/4
f 214/1/4 212/1/4 215/1/4
f 215/1/4 212/1/4 216/1/4
f 217/1/4 218/1/4 219/1/4
f 219/1/4 218/1/4 220/1/4
f 221/1/4 222/1/4 223/1/4
f 223/1/4 222/1/4 224/1/4
f 225/1/4 226/1/4 227/1/4
f 227/1/4 226/1/4 228/1/4
f 229/1/4 230/1/4 231/1/4
f 231/1/4 230/1/4 232/1/4
f 233/1/4 234/1/4 235/1/4
f 235/1/4 234/1/4 236/1/4
f 237/1/4 238/1/4 239/1/4
f 239/1/4 238/1/4 240/1/4
f 241/1/4 242/1/4 243/1/4
f 243/1/4 242/1/4 244/1/4
f 245/1/4 246/1/4 247/1/4
f 247/1/4 246/1/4 248/1/4
f 249/1/4 250/1/4 251/1/4
f 251/1/4 250/1/4 252/1/4
f 253/1/4 254/1/4 255/1/4
f 255/1/4 254/1/4 256/1/4
f 257/1/4 258/1/4 259/1/4
f 259/1/4 258/1/4 260/1/4
f 261/1/4 262/1/4 263/1/4
f 263/1/4 262/1/4 264/1/4
f 265/1/4 266/1/4 267/1/4
f 267/1/4 268/1/4 269/1/4
f 265/1/4 267/1/4 271/1/4
f 269/1/4 270/1/4 271/1/4
f 267/1/4 269/1/4 271/1/4
f 271/1/4 270/1/4 272/1/4
f 276/1/5 274/1/5 273/1/5
f 278/1/5 276/1/5 275/1/5
f 280/1/5 278/1/5 277/1/5
f 282/1/5 280/1/5 279/1/5
f 283/1/5 282/1/5 281/1/5
f 284/1/5 280/1/5 282/1/5
f 284/1/5 282/1/5 283/1/5
f 285/1/5 280/1/5 284/1/5
f 286/1/5 278/1/5 280/1/5
f 286/1/5 280/1/5 285/1/5
f 287/1/5 278/1/5 286/1/5
f 288/1/5 276/1/5 278/1/5
f 288/1/5 278/1/5 287/1/5
f 289/1/5 276/1/5 288/1/5
f 290/1/5 274/1/5 276/1/5
f 290/1/5 276/1/5 289/1/5
f 291/1/5 274/1/5 290/1/5
f 292/1/5 274/1/5 291/1/5
f 293/1/6 294/1/6 296/1/6
f 296/1/6 294/1/6 297/1/6
f 295/1/6 296/1/6 297/1/6
f 297/1/6 294/1/6 298/1/6
f 295/1/6 297/1/6 299/1/6
f 299/1/6 297/1/6 300/1/6
f 295/1/6 299/1/6 302/1/6
f 302/1/6 299/1/6 303/1/6
f 301/1/6 302/1/6 303/1/6
f 303/1/6 299/1/6 304/1/6
f 301/1/6 303/1/6 306/1/6
f 305/1/6 306/1/6 308/1/6
f 306/1/6 303/1/6 309/1/6
f 308/1/6 306/1/6 309/1/6
f 309/1/6 303/1/6 310/1/6
f 307/1/6 308/1/6 311/1/6
f 308/1/6 309/1/6 311/1/6
f 311/1/6 309/1/6 312/1/6
f 307/1/6 311/1/6 313/1/6
f 307/1/6 313/1/6 315/1/6
f 313/1/6 314/1/6 315/1/6
f 315/1/6 314/1/6 316/1/6
f 316/1/6 314/1/6 317/1/6
f 316/1/6 317/1/6 319/1/6
f 317/1/6 318/1/6 319/1/6
f 319/1/6 318/1/6 320/1/6
f 320/1/6 318/1/6 321/1/6
f 320/1/6 321/1/6 323/1/6
f 321/1/6 322/1/6 323/1/6
f 320/1/6 323/1/6 325/1/6
f 323/1/6 324/1/6 325/1/6
f 325/1/6 324/1/6 326/1/6
f 326/1/6 324/1/6 327/1/6
f 326/1/6 327/1/6 329/1/6
f 327/1/6 328/1/6 329/1/6
f 329/1/6 328/1/6 330/1/6
f 330/1/6 328/1/6 331/1/6
f 331/1/6 328/1/6 332/1/6
f 333/1/6 334/1/6 335/1/6
f 333/1/6 335/1/6 337/1/6
f 335/1/6 336/1/6 337/1/6
f 337/1/6 336/1/6 338/1/6
f 339/1/6 340/1/6 341/1/6
f 341/1/6 340/1/6 342/1/6
f 343/1/6 344/1/6 345/1/6
f 345/1/6 344/1/6 346/1/6
f 343/1/6 345/1/6 348/1/6
f 348/1/6 345/1/6 349/1/6
f 347/1/6 348/1/6 349/1/6
f 349/1/6 345/1/6 350/1/6
f 347/1/6 349/1/6 352/1/6
f 352/1/6 349/1/6 353/1/6
f 351/1/6 352/1/6 353/1/6
f 353/1/6 349/1/6 354/1/6
f 351/1/6 353/1/6 356/1/6
f 356/1/6 353/1/6 357/1/6
f 355/1/6 356/1/6 357/1/6
f 357/1/6 353/1/6 358/1/6
f 355/1/6 357/1/6 360/1/6
f 360/1/6 357/1/6 361/1/6
f 359/1/6 360/1/6 361/1/6
f 359/1/6 361/1/6 363/1/6
f 361/1/6 362/1/6 363/1/6
f 363/1/6 362/1/6 364/1/6
f 364/1/6 362/1/6 365/1/6
f 365/1/6 362/1/6 366/1/6
f 366/1/6 362/1/6 367/1/6
f 366/1/6 367/1/6 369/1/6
f 367/1/6 368/1/6 369/1/6
f 369/1/6 368/1/6 370/1/6
f 370/1/6 368/1/6 371/1/6
f 370/1/6 371/1/6 373/1/6
f 371/1/6 372/1/6 373/1/6
f 373/1/6 372/1/6 374/1/6
f 374/1/6 372/1/6 375/1/6
f 375/1/6 372/1/6 376/1/6
f 376/1/6 372/1/6 377/1/6
f 376/1/6 377/1/6 379/1/6
f 377/1/6 378/1/6 379/1/6
f 379/1/6 378/1/6 380/1/6
f 381/1/6 382/1/6 383/1/6
f 383/1/6 382/1/6 384/1/6
f 381/1/6 383/1/6 385/1/6
f 381/1/6 385/1/6 387/1/6
f 385/1/6 386/1/6 387/1/6
f 387/1/6 386/1/6 388/1/6
f 389/1/6 390/1/6 392/1/6
f 391/1/6 392/1/6 394/1/6
f 393/1/6 394/1/6 396/1/6
f 395/1/6 396/1/6 398/1/6
f 397/1/6 398/1/6 399/1/6
f 399/1/6 398/1/6 400/1/6
f 400/1/6 398/1/6 401/1/6
f 396/1/6 394/1/6 402/1/6
f 401/1/6 398/1/6 402/1/6
f 398/1/6 396/1/6 402/1/6
f 402/1/6 394/1/6 403/1/6
f 394/1/6 392/1/6 404/1/6
f 403/1/6 394/1/6 404/1/6
f 404/1/6 392/1/6 405/1/6
f 392/1/6 390/1/6 406/1/6
f 405/1/6 392/1/6 406/1/6
f 406/1/6 390/1/6 407/1/6
f 407/1/6 390/1/6 408/1/6
