# MagicaVoxel @ ephtracy

# material
mtllib 4x1.mtl
usemtl palette

# normals
vn -1 0 0
vn 1 0 0
vn 0 -1 0
vn 0 1 0
vn 0 0 -1
vn 0 0 1

# texcoords
vt 0.642578 0.5

# verts
v 10 0 18
v 10 8 18
v 10 68 18
v 10 80 18
v 10 0 24
v 10 8 24
v 10 68 24
v 10 80 24
v 12 8 18
v 12 15 18
v 12 60 18
v 12 68 18
v 12 8 24
v 12 15 24
v 12 60 24
v 12 68 24
v 15 15 18
v 15 22 18
v 15 54 18
v 15 60 18
v 15 15 24
v 15 22 24
v 15 54 24
v 15 60 24
v 17 47 18
v 17 54 18
v 17 47 24
v 17 54 24
v 18 22 18
v 18 27 18
v 18 22 24
v 18 27 24
v 18 71 24
v 18 80 24
v 18 71 28
v 18 80 28
v 20 0 24
v 20 10 24
v 20 63 24
v 20 71 24
v 20 71 28
v 20 80 28
v 20 0 30
v 20 10 30
v 20 63 30
v 20 80 30
v 21 27 18
v 21 32 18
v 21 42 18
v 21 47 18
v 21 27 24
v 21 32 24
v 21 42 24
v 21 47 24
v 22 55 24
v 22 63 24
v 22 55 30
v 22 63 30
v 23 32 18
v 23 42 18
v 23 10 24
v 23 16 24
v 23 32 24
v 23 42 24
v 23 10 30
v 23 16 30
v 25 50 24
v 25 55 24
v 25 50 30
v 25 55 30
v 26 16 24
v 26 21 24
v 26 16 30
v 26 21 30
v 28 21 24
v 28 24 24
v 28 21 27
v 28 24 27
v 29 46 24
v 29 50 24
v 29 46 30
v 29 50 30
v 30 0 30
v 30 8 30
v 30 67 30
v 30 80 30
v 30 0 36
v 30 8 36
v 30 67 36
v 30 80 36
v 31 24 24
v 31 29 24
v 31 41 24
v 31 46 24
v 31 21 27
v 31 24 27
v 31 21 30
v 31 29 30
v 31 41 30
v 31 46 30
v 32 8 30
v 32 16 30
v 32 58 30
v 32 67 30
v 32 8 36
v 32 16 36
v 32 58 36
v 32 67 36
v 34 29 24
v 34 41 24
v 34 29 30
v 34 41 30
v 35 16 30
v 35 26 30
v 35 16 36
v 35 26 36
v 36 50 30
v 36 58 30
v 36 50 36
v 36 58 36
v 38 26 30
v 38 50 30
v 38 26 36
v 38 50 36
v 40 0 18
v 40 80 18
v 40 0 36
v 40 80 36
v 10 0 18
v 10 0 24
v 20 0 24
v 20 0 30
v 30 0 30
v 30 0 36
v 40 0 18
v 40 0 36
v 31 41 24
v 31 41 30
v 34 41 24
v 34 41 30
v 21 42 18
v 21 42 24
v 23 42 18
v 23 42 24
v 29 46 24
v 29 46 30
v 31 46 24
v 31 46 30
v 17 47 18
v 17 47 24
v 21 47 18
v 21 47 24
v 25 50 24
v 25 50 30
v 29 50 24
v 29 50 30
v 36 50 30
v 36 50 36
v 38 50 30
v 38 50 36
v 15 54 18
v 15 54 24
v 17 54 18
v 17 54 24
v 22 55 24
v 22 55 30
v 25 55 24
v 25 55 30
v 32 58 30
v 32 58 36
v 36 58 30
v 36 58 36
v 12 60 18
v 12 60 24
v 15 60 18
v 15 60 24
v 20 63 24
v 20 63 30
v 22 63 24
v 22 63 30
v 30 67 30
v 30 67 36
v 32 67 30
v 32 67 36
v 10 68 18
v 10 68 24
v 12 68 18
v 12 68 24
v 18 71 24
v 18 71 28
v 20 71 24
v 20 71 28
v 10 8 18
v 10 8 24
v 12 8 18
v 12 8 24
v 30 8 30
v 30 8 36
v 32 8 30
v 32 8 36
v 20 10 24
v 20 10 30
v 23 10 24
v 23 10 30
v 12 15 18
v 12 15 24
v 15 15 18
v 15 15 24
v 23 16 24
v 23 16 30
v 26 16 24
v 26 16 30
v 32 16 30
v 32 16 36
v 35 16 30
v 35 16 36
v 26 21 24
v 26 21 30
v 28 21 24
v 28 21 27
v 31 21 27
v 31 21 30
v 15 22 18
v 15 22 24
v 18 22 18
v 18 22 24
v 28 24 24
v 28 24 27
v 31 24 24
v 31 24 27
v 35 26 30
v 35 26 36
v 38 26 30
v 38 26 36
v 18 27 18
v 18 27 24
v 21 27 18
v 21 27 24
v 31 29 24
v 31 29 30
v 34 29 24
v 34 29 30
v 21 32 18
v 21 32 24
v 23 32 18
v 23 32 24
v 10 80 18
v 10 80 24
v 18 80 24
v 18 80 28
v 20 80 28
v 20 80 30
v 30 80 30
v 30 80 36
v 40 80 18
v 40 80 36
v 10 0 18
v 40 0 18
v 10 8 18
v 12 8 18
v 12 15 18
v 15 15 18
v 15 22 18
v 18 22 18
v 18 27 18
v 21 27 18
v 21 32 18
v 23 32 18
v 21 42 18
v 23 42 18
v 17 47 18
v 21 47 18
v 15 54 18
v 17 54 18
v 12 60 18
v 15 60 18
v 10 68 18
v 12 68 18
v 10 80 18
v 40 80 18
v 10 0 24
v 20 0 24
v 10 8 24
v 12 8 24
v 20 10 24
v 23 10 24
v 12 15 24
v 15 15 24
v 23 16 24
v 26 16 24
v 26 21 24
v 28 21 24
v 15 22 24
v 18 22 24
v 28 24 24
v 31 24 24
v 18 27 24
v 21 27 24
v 31 29 24
v 34 29 24
v 21 32 24
v 23 32 24
v 31 41 24
v 34 41 24
v 21 42 24
v 23 42 24
v 29 46 24
v 31 46 24
v 17 47 24
v 21 47 24
v 25 50 24
v 29 50 24
v 15 54 24
v 17 54 24
v 22 55 24
v 25 55 24
v 12 60 24
v 15 60 24
v 20 63 24
v 22 63 24
v 10 68 24
v 12 68 24
v 18 71 24
v 20 71 24
v 10 80 24
v 18 80 24
v 28 21 27
v 31 21 27
v 28 24 27
v 31 24 27
v 18 71 28
v 20 71 28
v 18 80 28
v 20 80 28
v 20 0 30
v 30 0 30
v 30 8 30
v 32 8 30
v 20 10 30
v 23 10 30
v 23 16 30
v 26 16 30
v 32 16 30
v 35 16 30
v 26 21 30
v 31 21 30
v 35 26 30
v 38 26 30
v 31 29 30
v 34 29 30
v 31 41 30
v 34 41 30
v 29 46 30
v 31 46 30
v 25 50 30
v 29 50 30
v 36 50 30
v 38 50 30
v 22 55 30
v 25 55 30
v 32 58 30
v 36 58 30
v 20 63 30
v 22 63 30
v 30 67 30
v 32 67 30
v 20 80 30
v 30 80 30
v 30 0 36
v 40 0 36
v 30 8 36
v 32 8 36
v 32 16 36
v 35 16 36
v 35 26 36
v 38 26 36
v 36 50 36
v 38 50 36
v 32 58 36
v 36 58 36
v 30 67 36
v 32 67 36
v 30 80 36
v 40 80 36

# faces
f 5/1/1 2/1/1 1/1/1
f 6/1/1 2/1/1 5/1/1
f 7/1/1 4/1/1 3/1/1
f 8/1/1 4/1/1 7/1/1
f 13/1/1 10/1/1 9/1/1
f 14/1/1 10/1/1 13/1/1
f 15/1/1 12/1/1 11/1/1
f 16/1/1 12/1/1 15/1/1
f 21/1/1 18/1/1 17/1/1
f 22/1/1 18/1/1 21/1/1
f 23/1/1 20/1/1 19/1/1
f 24/1/1 20/1/1 23/1/1
f 27/1/1 26/1/1 25/1/1
f 28/1/1 26/1/1 27/1/1
f 31/1/1 30/1/1 29/1/1
f 32/1/1 30/1/1 31/1/1
f 35/1/1 34/1/1 33/1/1
f 36/1/1 34/1/1 35/1/1
f 41/1/1 40/1/1 39/1/1
f 43/1/1 38/1/1 37/1/1
f 44/1/1 38/1/1 43/1/1
f 45/1/1 42/1/1 41/1/1
f 45/1/1 41/1/1 39/1/1
f 46/1/1 42/1/1 45/1/1
f 51/1/1 48/1/1 47/1/1
f 52/1/1 48/1/1 51/1/1
f 53/1/1 50/1/1 49/1/1
f 54/1/1 50/1/1 53/1/1
f 57/1/1 56/1/1 55/1/1
f 58/1/1 56/1/1 57/1/1
f 63/1/1 60/1/1 59/1/1
f 64/1/1 60/1/1 63/1/1
f 65/1/1 62/1/1 61/1/1
f 66/1/1 62/1/1 65/1/1
f 69/1/1 68/1/1 67/1/1
f 70/1/1 68/1/1 69/1/1
f 73/1/1 72/1/1 71/1/1
f 74/1/1 72/1/1 73/1/1
f 77/1/1 76/1/1 75/1/1
f 78/1/1 76/1/1 77/1/1
f 81/1/1 80/1/1 79/1/1
f 82/1/1 80/1/1 81/1/1
f 87/1/1 84/1/1 83/1/1
f 88/1/1 84/1/1 87/1/1
f 89/1/1 86/1/1 85/1/1
f 90/1/1 86/1/1 89/1/1
f 96/1/1 92/1/1 91/1/1
f 97/1/1 96/1/1 95/1/1
f 98/1/1 92/1/1 96/1/1
f 98/1/1 96/1/1 97/1/1
f 99/1/1 94/1/1 93/1/1
f 100/1/1 94/1/1 99/1/1
f 105/1/1 102/1/1 101/1/1
f 106/1/1 102/1/1 105/1/1
f 107/1/1 104/1/1 103/1/1
f 108/1/1 104/1/1 107/1/1
f 111/1/1 110/1/1 109/1/1
f 112/1/1 110/1/1 111/1/1
f 115/1/1 114/1/1 113/1/1
f 116/1/1 114/1/1 115/1/1
f 119/1/1 118/1/1 117/1/1
f 120/1/1 118/1/1 119/1/1
f 123/1/1 122/1/1 121/1/1
f 124/1/1 122/1/1 123/1/1
f 125/1/2 126/1/2 127/1/2
f 127/1/2 126/1/2 128/1/2
f 131/1/3 130/1/3 129/1/3
f 133/1/3 132/1/3 131/1/3
f 135/1/3 131/1/3 129/1/3
f 135/1/3 134/1/3 133/1/3
f 135/1/3 133/1/3 131/1/3
f 136/1/3 134/1/3 135/1/3
f 139/1/3 138/1/3 137/1/3
f 140/1/3 138/1/3 139/1/3
f 143/1/3 142/1/3 141/1/3
f 144/1/3 142/1/3 143/1/3
f 147/1/3 146/1/3 145/1/3
f 148/1/3 146/1/3 147/1/3
f 151/1/3 150/1/3 149/1/3
f 152/1/3 150/1/3 151/1/3
f 155/1/3 154/1/3 153/1/3
f 156/1/3 154/1/3 155/1/3
f 159/1/3 158/1/3 157/1/3
f 160/1/3 158/1/3 159/1/3
f 163/1/3 162/1/3 161/1/3
f 164/1/3 162/1/3 163/1/3
f 167/1/3 166/1/3 165/1/3
f 168/1/3 166/1/3 167/1/3
f 171/1/3 170/1/3 169/1/3
f 172/1/3 170/1/3 171/1/3
f 175/1/3 174/1/3 173/1/3
f 176/1/3 174/1/3 175/1/3
f 179/1/3 178/1/3 177/1/3
f 180/1/3 178/1/3 179/1/3
f 183/1/3 182/1/3 181/1/3
f 184/1/3 182/1/3 183/1/3
f 187/1/3 186/1/3 185/1/3
f 188/1/3 186/1/3 187/1/3
f 191/1/3 190/1/3 189/1/3
f 192/1/3 190/1/3 191/1/3
f 193/1/4 194/1/4 195/1/4
f 195/1/4 194/1/4 196/1/4
f 197/1/4 198/1/4 199/1/4
f 199/1/4 198/1/4 200/1/4
f 201/1/4 202/1/4 203/1/4
f 203/1/4 202/1/4 204/1/4
f 205/1/4 206/1/4 207/1/4
f 207/1/4 206/1/4 208/1/4
f 209/1/4 210/1/4 211/1/4
f 211/1/4 210/1/4 212/1/4
f 213/1/4 214/1/4 215/1/4
f 215/1/4 214/1/4 216/1/4
f 217/1/4 218/1/4 219/1/4
f 219/1/4 218/1/4 220/1/4
f 220/1/4 218/1/4 221/1/4
f 221/1/4 218/1/4 222/1/4
f 223/1/4 224/1/4 225/1/4
f 225/1/4 224/1/4 226/1/4
f 227/1/4 228/1/4 229/1/4
f 229/1/4 228/1/4 230/1/4
f 231/1/4 232/1/4 233/1/4
f 233/1/4 232/1/4 234/1/4
f 235/1/4 236/1/4 237/1/4
f 237/1/4 236/1/4 238/1/4
f 239/1/4 240/1/4 241/1/4
f 241/1/4 240/1/4 242/1/4
f 243/1/4 244/1/4 245/1/4
f 245/1/4 244/1/4 246/1/4
f 247/1/4 248/1/4 249/1/4
f 249/1/4 250/1/4 251/1/4
f 251/1/4 252/1/4 253/1/4
f 247/1/4 249/1/4 255/1/4
f 253/1/4 254/1/4 255/1/4
f 251/1/4 253/1/4 255/1/4
f 249/1/4 251/1/4 255/1/4
f 255/1/4 254/1/4 256/1/4
f 259/1/5 258/1/5 257/1/5
f 260/1/5 258/1/5 259/1/5
f 261/1/5 258/1/5 260/1/5
f 262/1/5 258/1/5 261/1/5
f 263/1/5 258/1/5 262/1/5
f 264/1/5 258/1/5 263/1/5
f 265/1/5 258/1/5 264/1/5
f 266/1/5 258/1/5 265/1/5
f 267/1/5 258/1/5 266/1/5
f 268/1/5 258/1/5 267/1/5
f 270/1/5 258/1/5 268/1/5
f 272/1/5 270/1/5 269/1/5
f 274/1/5 272/1/5 271/1/5
f 276/1/5 274/1/5 273/1/5
f 278/1/5 276/1/5 275/1/5
f 279/1/5 278/1/5 277/1/5
f 280/1/5 258/1/5 270/1/5
f 280/1/5 278/1/5 279/1/5
f 280/1/5 270/1/5 272/1/5
f 280/1/5 276/1/5 278/1/5
f 280/1/5 272/1/5 274/1/5
f 280/1/5 274/1/5 276/1/5
f 281/1/6 282/1/6 283/1/6
f 283/1/6 282/1/6 284/1/6
f 284/1/6 282/1/6 285/1/6
f 284/1/6 285/1/6 287/1/6
f 285/1/6 286/1/6 287/1/6
f 287/1/6 286/1/6 288/1/6
f 288/1/6 286/1/6 289/1/6
f 289/1/6 290/1/6 291/1/6
f 288/1/6 289/1/6 293/1/6
f 291/1/6 292/1/6 293/1/6
f 289/1/6 291/1/6 293/1/6
f 293/1/6 292/1/6 294/1/6
f 294/1/6 292/1/6 295/1/6
f 294/1/6 295/1/6 297/1/6
f 295/1/6 296/1/6 297/1/6
f 297/1/6 296/1/6 298/1/6
f 298/1/6 296/1/6 299/1/6
f 298/1/6 299/1/6 301/1/6
f 299/1/6 300/1/6 301/1/6
f 301/1/6 300/1/6 302/1/6
f 302/1/6 300/1/6 303/1/6
f 303/1/6 300/1/6 304/1/6
f 302/1/6 303/1/6 306/1/6
f 306/1/6 303/1/6 307/1/6
f 305/1/6 306/1/6 307/1/6
f 307/1/6 303/1/6 308/1/6
f 305/1/6 307/1/6 310/1/6
f 310/1/6 307/1/6 311/1/6
f 309/1/6 310/1/6 311/1/6
f 311/1/6 307/1/6 312/1/6
f 309/1/6 311/1/6 314/1/6
f 314/1/6 311/1/6 315/1/6
f 313/1/6 314/1/6 315/1/6
f 315/1/6 311/1/6 316/1/6
f 313/1/6 315/1/6 318/1/6
f 318/1/6 315/1/6 319/1/6
f 317/1/6 318/1/6 319/1/6
f 319/1/6 315/1/6 320/1/6
f 317/1/6 319/1/6 322/1/6
f 322/1/6 319/1/6 323/1/6
f 321/1/6 322/1/6 323/1/6
f 323/1/6 319/1/6 324/1/6
f 321/1/6 323/1/6 325/1/6
f 325/1/6 323/1/6 326/1/6
f 327/1/6 328/1/6 329/1/6
f 329/1/6 328/1/6 330/1/6
f 331/1/6 332/1/6 333/1/6
f 333/1/6 332/1/6 334/1/6
f 335/1/6 336/1/6 337/1/6
f 335/1/6 337/1/6 339/1/6
f 337/1/6 338/1/6 339/1/6
f 339/1/6 338/1/6 340/1/6
f 340/1/6 338/1/6 341/1/6
f 341/1/6 338/1/6 342/1/6
f 342/1/6 338/1/6 343/1/6
f 343/1/6 344/1/6 345/1/6
f 342/1/6 343/1/6 345/1/6
f 345/1/6 344/1/6 346/1/6
f 346/1/6 344/1/6 347/1/6
f 346/1/6 347/1/6 349/1/6
f 347/1/6 348/1/6 349/1/6
f 349/1/6 348/1/6 350/1/6
f 350/1/6 348/1/6 352/1/6
f 351/1/6 352/1/6 354/1/6
f 353/1/6 354/1/6 356/1/6
f 352/1/6 348/1/6 357/1/6
f 354/1/6 352/1/6 357/1/6
f 356/1/6 354/1/6 357/1/6
f 357/1/6 348/1/6 358/1/6
f 355/1/6 356/1/6 360/1/6
f 356/1/6 357/1/6 360/1/6
f 360/1/6 357/1/6 361/1/6
f 359/1/6 360/1/6 361/1/6
f 361/1/6 357/1/6 362/1/6
f 359/1/6 361/1/6 364/1/6
f 364/1/6 361/1/6 365/1/6
f 363/1/6 364/1/6 365/1/6
f 365/1/6 361/1/6 366/1/6
f 363/1/6 365/1/6 367/1/6
f 367/1/6 365/1/6 368/1/6
f 369/1/6 370/1/6 371/1/6
f 371/1/6 370/1/6 372/1/6
f 372/1/6 370/1/6 373/1/6
f 373/1/6 370/1/6 374/1/6
f 374/1/6 370/1/6 375/1/6
f 375/1/6 370/1/6 376/1/6
f 376/1/6 370/1/6 378/1/6
f 377/1/6 378/1/6 380/1/6
f 379/1/6 380/1/6 382/1/6
f 381/1/6 382/1/6 383/1/6
f 378/1/6 370/1/6 384/1/6
f 383/1/6 382/1/6 384/1/6
f 380/1/6 378/1/6 384/1/6
f 382/1/6 380/1/6 384/1/6
