# MagicaVoxel @ ephtracy

# material
mtllib 7x1.mtl
usemtl palette

# normals
vn -1 0 0
vn 1 0 0
vn 0 -1 0
vn 0 1 0
vn 0 0 -1
vn 0 0 1

# texcoords
vt 0.642578 0.5

# verts
v 1 7 9
v 1 11 9
v 1 34 9
v 1 42 9
v 1 34 11
v 1 42 11
v 1 7 14
v 1 11 14
v 2 5 9
v 2 7 9
v 2 11 9
v 2 13 9
v 2 31 9
v 2 34 9
v 2 42 9
v 2 45 9
v 2 34 11
v 2 42 11
v 2 31 12
v 2 45 12
v 2 7 14
v 2 11 14
v 2 5 16
v 2 13 16
v 3 2 9
v 3 5 9
v 3 13 9
v 3 17 9
v 3 25 9
v 3 31 9
v 3 45 9
v 3 52 9
v 3 25 12
v 3 31 12
v 3 45 12
v 3 52 12
v 3 2 13
v 3 5 13
v 3 13 13
v 3 17 13
v 4 17 9
v 4 25 9
v 4 52 9
v 4 58 9
v 4 17 12
v 4 25 12
v 4 52 12
v 4 58 12
v 5 0 9
v 5 2 9
v 5 58 9
v 5 60 9
v 5 0 12
v 5 2 12
v 5 32 12
v 5 39 12
v 5 58 12
v 5 60 12
v 5 13 13
v 5 15 13
v 5 13 14
v 5 15 14
v 5 32 14
v 5 39 14
v 5 7 16
v 5 12 16
v 5 7 18
v 5 12 18
v 6 26 12
v 6 32 12
v 6 39 12
v 6 42 12
v 6 4 13
v 6 5 13
v 6 4 14
v 6 5 14
v 6 32 14
v 6 39 14
v 6 26 15
v 6 42 15
v 7 24 12
v 7 26 12
v 7 42 12
v 7 45 12
v 7 42 13
v 7 45 13
v 7 24 14
v 7 26 14
v 8 21 12
v 8 24 12
v 8 45 12
v 8 48 12
v 8 42 13
v 8 45 13
v 8 24 14
v 8 26 14
v 8 21 15
v 8 26 15
v 8 42 15
v 8 48 15
v 9 17 12
v 9 21 12
v 9 48 12
v 9 54 12
v 9 15 13
v 9 17 13
v 9 13 14
v 9 15 14
v 9 13 15
v 9 21 15
v 9 48 15
v 9 54 15
v 10 0 12
v 10 2 12
v 10 54 12
v 10 60 12
v 10 2 13
v 10 4 13
v 10 4 14
v 10 5 14
v 10 0 15
v 10 5 15
v 10 29 15
v 10 35 15
v 10 54 15
v 10 60 15
v 10 29 17
v 10 35 17
v 11 35 15
v 11 37 15
v 11 35 16
v 11 37 16
v 12 27 15
v 12 29 15
v 12 37 15
v 12 40 15
v 12 35 16
v 12 37 16
v 12 29 17
v 12 35 17
v 12 27 18
v 12 40 18
v 13 21 15
v 13 27 15
v 13 40 15
v 13 45 15
v 13 21 18
v 13 27 18
v 13 40 18
v 13 45 18
v 14 17 15
v 14 21 15
v 14 45 15
v 14 50 15
v 14 17 18
v 14 21 18
v 14 45 18
v 14 50 18
v 15 0 15
v 15 5 15
v 15 13 15
v 15 17 15
v 15 50 15
v 15 60 15
v 15 5 16
v 15 7 16
v 15 12 16
v 15 13 16
v 15 0 18
v 15 7 18
v 15 12 18
v 15 17 18
v 15 50 18
v 15 60 18
v 20 0 9
v 20 60 9
v 20 0 18
v 20 60 18
v 5 0 9
v 5 0 12
v 10 0 12
v 10 0 15
v 15 0 15
v 15 0 18
v 20 0 9
v 20 0 18
v 3 2 9
v 3 2 13
v 5 2 9
v 5 2 12
v 10 2 12
v 10 2 13
v 6 4 13
v 6 4 14
v 10 4 13
v 10 4 14
v 2 5 9
v 2 5 16
v 3 5 9
v 3 5 13
v 6 5 13
v 6 5 14
v 10 5 14
v 10 5 15
v 15 5 15
v 15 5 16
v 1 7 9
v 1 7 14
v 2 7 9
v 2 7 14
v 5 7 16
v 5 7 18
v 15 7 16
v 15 7 18
v 14 17 15
v 14 17 18
v 15 17 15
v 15 17 18
v 8 21 12
v 8 21 15
v 9 21 12
v 9 21 15
v 13 21 15
v 13 21 18
v 14 21 15
v 14 21 18
v 7 24 12
v 7 24 14
v 8 24 12
v 8 24 14
v 3 25 9
v 3 25 12
v 4 25 9
v 4 25 12
v 6 26 12
v 6 26 15
v 7 26 12
v 7 26 14
v 8 26 14
v 8 26 15
v 12 27 15
v 12 27 18
v 13 27 15
v 13 27 18
v 10 29 15
v 10 29 17
v 12 29 15
v 12 29 17
v 2 31 9
v 2 31 12
v 3 31 9
v 3 31 12
v 5 32 12
v 5 32 14
v 6 32 12
v 6 32 14
v 1 34 9
v 1 34 11
v 2 34 9
v 2 34 11
v 1 11 9
v 1 11 14
v 2 11 9
v 2 11 14
v 5 12 16
v 5 12 18
v 15 12 16
v 15 12 18
v 2 13 9
v 2 13 16
v 3 13 9
v 3 13 13
v 5 13 13
v 5 13 14
v 9 13 14
v 9 13 15
v 15 13 15
v 15 13 16
v 5 15 13
v 5 15 14
v 9 15 13
v 9 15 14
v 3 17 9
v 3 17 13
v 4 17 9
v 4 17 12
v 9 17 12
v 9 17 13
v 10 35 15
v 10 35 17
v 11 35 15
v 11 35 16
v 12 35 16
v 12 35 17
v 11 37 15
v 11 37 16
v 12 37 15
v 12 37 16
v 5 39 12
v 5 39 14
v 6 39 12
v 6 39 14
v 12 40 15
v 12 40 18
v 13 40 15
v 13 40 18
v 1 42 9
v 1 42 11
v 2 42 9
v 2 42 11
v 6 42 12
v 6 42 15
v 7 42 12
v 7 42 13
v 8 42 13
v 8 42 15
v 2 45 9
v 2 45 12
v 3 45 9
v 3 45 12
v 7 45 12
v 7 45 13
v 8 45 12
v 8 45 13
v 13 45 15
v 13 45 18
v 14 45 15
v 14 45 18
v 8 48 12
v 8 48 15
v 9 48 12
v 9 48 15
v 14 50 15
v 14 50 18
v 15 50 15
v 15 50 18
v 3 52 9
v 3 52 12
v 4 52 9
v 4 52 12
v 9 54 12
v 9 54 15
v 10 54 12
v 10 54 15
v 4 58 9
v 4 58 12
v 5 58 9
v 5 58 12
v 5 60 9
v 5 60 12
v 10 60 12
v 10 60 15
v 15 60 15
v 15 60 18
v 20 60 9
v 20 60 18
v 5 0 9
v 20 0 9
v 3 2 9
v 5 2 9
v 2 5 9
v 3 5 9
v 1 7 9
v 2 7 9
v 1 11 9
v 2 11 9
v 2 13 9
v 3 13 9
v 3 17 9
v 4 17 9
v 3 25 9
v 4 25 9
v 2 31 9
v 3 31 9
v 1 34 9
v 2 34 9
v 1 42 9
v 2 42 9
v 2 45 9
v 3 45 9
v 3 52 9
v 4 52 9
v 4 58 9
v 5 58 9
v 5 60 9
v 20 60 9
v 1 34 11
v 2 34 11
v 1 42 11
v 2 42 11
v 5 0 12
v 10 0 12
v 5 2 12
v 10 2 12
v 4 17 12
v 9 17 12
v 8 21 12
v 9 21 12
v 7 24 12
v 8 24 12
v 3 25 12
v 4 25 12
v 6 26 12
v 7 26 12
v 2 31 12
v 3 31 12
v 5 32 12
v 6 32 12
v 5 39 12
v 6 39 12
v 6 42 12
v 7 42 12
v 2 45 12
v 3 45 12
v 7 45 12
v 8 45 12
v 8 48 12
v 9 48 12
v 3 52 12
v 4 52 12
v 9 54 12
v 10 54 12
v 4 58 12
v 5 58 12
v 5 60 12
v 10 60 12
v 3 2 13
v 10 2 13
v 6 4 13
v 10 4 13
v 3 5 13
v 6 5 13
v 3 13 13
v 5 13 13
v 5 15 13
v 9 15 13
v 3 17 13
v 9 17 13
v 7 42 13
v 8 42 13
v 7 45 13
v 8 45 13
v 6 4 14
v 10 4 14
v 6 5 14
v 10 5 14
v 1 7 14
v 2 7 14
v 1 11 14
v 2 11 14
v 5 13 14
v 9 13 14
v 5 15 14
v 9 15 14
v 7 24 14
v 8 24 14
v 7 26 14
v 8 26 14
v 5 32 14
v 6 32 14
v 5 39 14
v 6 39 14
v 10 0 15
v 15 0 15
v 10 5 15
v 15 5 15
v 9 13 15
v 15 13 15
v 14 17 15
v 15 17 15
v 8 21 15
v 9 21 15
v 13 21 15
v 14 21 15
v 6 26 15
v 8 26 15
v 12 27 15
v 13 27 15
v 10 29 15
v 12 29 15
v 10 35 15
v 11 35 15
v 11 37 15
v 12 37 15
v 12 40 15
v 13 40 15
v 6 42 15
v 8 42 15
v 13 45 15
v 14 45 15
v 8 48 15
v 9 48 15
v 14 50 15
v 15 50 15
v 9 54 15
v 10 54 15
v 10 60 15
v 15 60 15
v 2 5 16
v 15 5 16
v 5 7 16
v 15 7 16
v 5 12 16
v 15 12 16
v 2 13 16
v 15 13 16
v 11 35 16
v 12 35 16
v 11 37 16
v 12 37 16
v 10 29 17
v 12 29 17
v 10 35 17
v 12 35 17
v 15 0 18
v 20 0 18
v 5 7 18
v 15 7 18
v 5 12 18
v 15 12 18
v 14 17 18
v 15 17 18
v 13 21 18
v 14 21 18
v 12 27 18
v 13 27 18
v 12 40 18
v 13 40 18
v 13 45 18
v 14 45 18
v 14 50 18
v 15 50 18
v 15 60 18
v 20 60 18

# faces
f 5/1/1 4/1/1 3/1/1
f 6/1/1 4/1/1 5/1/1
f 7/1/1 2/1/1 1/1/1
f 8/1/1 2/1/1 7/1/1
f 17/1/1 14/1/1 13/1/1
f 18/1/1 16/1/1 15/1/1
f 19/1/1 17/1/1 13/1/1
f 19/1/1 18/1/1 17/1/1
f 20/1/1 16/1/1 18/1/1
f 20/1/1 18/1/1 19/1/1
f 21/1/1 10/1/1 9/1/1
f 22/1/1 12/1/1 11/1/1
f 23/1/1 21/1/1 9/1/1
f 23/1/1 22/1/1 21/1/1
f 24/1/1 12/1/1 22/1/1
f 24/1/1 22/1/1 23/1/1
f 33/1/1 30/1/1 29/1/1
f 34/1/1 30/1/1 33/1/1
f 35/1/1 32/1/1 31/1/1
f 36/1/1 32/1/1 35/1/1
f 37/1/1 26/1/1 25/1/1
f 38/1/1 26/1/1 37/1/1
f 39/1/1 28/1/1 27/1/1
f 40/1/1 28/1/1 39/1/1
f 45/1/1 42/1/1 41/1/1
f 46/1/1 42/1/1 45/1/1
f 47/1/1 44/1/1 43/1/1
f 48/1/1 44/1/1 47/1/1
f 53/1/1 50/1/1 49/1/1
f 54/1/1 50/1/1 53/1/1
f 57/1/1 52/1/1 51/1/1
f 58/1/1 52/1/1 57/1/1
f 61/1/1 60/1/1 59/1/1
f 62/1/1 60/1/1 61/1/1
f 63/1/1 56/1/1 55/1/1
f 64/1/1 56/1/1 63/1/1
f 67/1/1 66/1/1 65/1/1
f 68/1/1 66/1/1 67/1/1
f 75/1/1 74/1/1 73/1/1
f 76/1/1 74/1/1 75/1/1
f 77/1/1 70/1/1 69/1/1
f 78/1/1 72/1/1 71/1/1
f 79/1/1 78/1/1 77/1/1
f 79/1/1 77/1/1 69/1/1
f 80/1/1 72/1/1 78/1/1
f 80/1/1 78/1/1 79/1/1
f 85/1/1 84/1/1 83/1/1
f 86/1/1 84/1/1 85/1/1
f 87/1/1 82/1/1 81/1/1
f 88/1/1 82/1/1 87/1/1
f 94/1/1 92/1/1 91/1/1
f 95/1/1 90/1/1 89/1/1
f 97/1/1 95/1/1 89/1/1
f 97/1/1 96/1/1 95/1/1
f 98/1/1 96/1/1 97/1/1
f 99/1/1 94/1/1 93/1/1
f 100/1/1 92/1/1 94/1/1
f 100/1/1 94/1/1 99/1/1
f 106/1/1 102/1/1 101/1/1
f 108/1/1 106/1/1 105/1/1
f 109/1/1 108/1/1 107/1/1
f 110/1/1 102/1/1 106/1/1
f 110/1/1 108/1/1 109/1/1
f 110/1/1 106/1/1 108/1/1
f 111/1/1 104/1/1 103/1/1
f 112/1/1 104/1/1 111/1/1
f 117/1/1 114/1/1 113/1/1
f 119/1/1 118/1/1 117/1/1
f 121/1/1 117/1/1 113/1/1
f 121/1/1 120/1/1 119/1/1
f 121/1/1 119/1/1 117/1/1
f 122/1/1 120/1/1 121/1/1
f 125/1/1 116/1/1 115/1/1
f 126/1/1 116/1/1 125/1/1
f 127/1/1 124/1/1 123/1/1
f 128/1/1 124/1/1 127/1/1
f 131/1/1 130/1/1 129/1/1
f 132/1/1 130/1/1 131/1/1
f 138/1/1 136/1/1 135/1/1
f 139/1/1 134/1/1 133/1/1
f 140/1/1 138/1/1 137/1/1
f 141/1/1 139/1/1 133/1/1
f 141/1/1 140/1/1 139/1/1
f 142/1/1 138/1/1 140/1/1
f 142/1/1 140/1/1 141/1/1
f 142/1/1 136/1/1 138/1/1
f 147/1/1 144/1/1 143/1/1
f 148/1/1 144/1/1 147/1/1
f 149/1/1 146/1/1 145/1/1
f 150/1/1 146/1/1 149/1/1
f 155/1/1 152/1/1 151/1/1
f 156/1/1 152/1/1 155/1/1
f 157/1/1 154/1/1 153/1/1
f 158/1/1 154/1/1 157/1/1
f 165/1/1 160/1/1 159/1/1
f 168/1/1 162/1/1 161/1/1
f 169/1/1 166/1/1 165/1/1
f 169/1/1 165/1/1 159/1/1
f 170/1/1 166/1/1 169/1/1
f 171/1/1 168/1/1 167/1/1
f 172/1/1 162/1/1 168/1/1
f 172/1/1 168/1/1 171/1/1
f 173/1/1 164/1/1 163/1/1
f 174/1/1 164/1/1 173/1/1
f 175/1/2 176/1/2 177/1/2
f 177/1/2 176/1/2 178/1/2
f 181/1/3 180/1/3 179/1/3
f 183/1/3 182/1/3 181/1/3
f 185/1/3 181/1/3 179/1/3
f 185/1/3 184/1/3 183/1/3
f 185/1/3 183/1/3 181/1/3
f 186/1/3 184/1/3 185/1/3
f 189/1/3 188/1/3 187/1/3
f 190/1/3 188/1/3 189/1/3
f 191/1/3 188/1/3 190/1/3
f 192/1/3 188/1/3 191/1/3
f 195/1/3 194/1/3 193/1/3
f 196/1/3 194/1/3 195/1/3
f 199/1/3 198/1/3 197/1/3
f 200/1/3 198/1/3 199/1/3
f 201/1/3 198/1/3 200/1/3
f 202/1/3 198/1/3 201/1/3
f 203/1/3 198/1/3 202/1/3
f 204/1/3 198/1/3 203/1/3
f 205/1/3 198/1/3 204/1/3
f 206/1/3 198/1/3 205/1/3
f 209/1/3 208/1/3 207/1/3
f 210/1/3 208/1/3 209/1/3
f 213/1/3 212/1/3 211/1/3
f 214/1/3 212/1/3 213/1/3
f 217/1/3 216/1/3 215/1/3
f 218/1/3 216/1/3 217/1/3
f 221/1/3 220/1/3 219/1/3
f 222/1/3 220/1/3 221/1/3
f 225/1/3 224/1/3 223/1/3
f 226/1/3 224/1/3 225/1/3
f 229/1/3 228/1/3 227/1/3
f 230/1/3 228/1/3 229/1/3
f 233/1/3 232/1/3 231/1/3
f 234/1/3 232/1/3 233/1/3
f 237/1/3 236/1/3 235/1/3
f 238/1/3 236/1/3 237/1/3
f 239/1/3 236/1/3 238/1/3
f 240/1/3 236/1/3 239/1/3
f 243/1/3 242/1/3 241/1/3
f 244/1/3 242/1/3 243/1/3
f 247/1/3 246/1/3 245/1/3
f 248/1/3 246/1/3 247/1/3
f 251/1/3 250/1/3 249/1/3
f 252/1/3 250/1/3 251/1/3
f 255/1/3 254/1/3 253/1/3
f 256/1/3 254/1/3 255/1/3
f 259/1/3 258/1/3 257/1/3
f 260/1/3 258/1/3 259/1/3
f 261/1/4 262/1/4 263/1/4
f 263/1/4 262/1/4 264/1/4
f 265/1/4 266/1/4 267/1/4
f 267/1/4 266/1/4 268/1/4
f 269/1/4 270/1/4 271/1/4
f 271/1/4 270/1/4 272/1/4
f 272/1/4 270/1/4 273/1/4
f 273/1/4 270/1/4 274/1/4
f 274/1/4 270/1/4 275/1/4
f 275/1/4 270/1/4 276/1/4
f 276/1/4 270/1/4 277/1/4
f 277/1/4 270/1/4 278/1/4
f 279/1/4 280/1/4 281/1/4
f 281/1/4 280/1/4 282/1/4
f 283/1/4 284/1/4 285/1/4
f 285/1/4 284/1/4 286/1/4
f 286/1/4 284/1/4 287/1/4
f 287/1/4 284/1/4 288/1/4
f 289/1/4 290/1/4 291/1/4
f 291/1/4 290/1/4 292/1/4
f 292/1/4 290/1/4 293/1/4
f 293/1/4 290/1/4 294/1/4
f 295/1/4 296/1/4 297/1/4
f 297/1/4 296/1/4 298/1/4
f 299/1/4 300/1/4 301/1/4
f 301/1/4 300/1/4 302/1/4
f 303/1/4 304/1/4 305/1/4
f 305/1/4 304/1/4 306/1/4
f 307/1/4 308/1/4 309/1/4
f 309/1/4 308/1/4 310/1/4
f 311/1/4 312/1/4 313/1/4
f 313/1/4 312/1/4 314/1/4
f 314/1/4 312/1/4 315/1/4
f 315/1/4 312/1/4 316/1/4
f 317/1/4 318/1/4 319/1/4
f 319/1/4 318/1/4 320/1/4
f 321/1/4 322/1/4 323/1/4
f 323/1/4 322/1/4 324/1/4
f 325/1/4 326/1/4 327/1/4
f 327/1/4 326/1/4 328/1/4
f 329/1/4 330/1/4 331/1/4
f 331/1/4 330/1/4 332/1/4
f 333/1/4 334/1/4 335/1/4
f 335/1/4 334/1/4 336/1/4
f 337/1/4 338/1/4 339/1/4
f 339/1/4 338/1/4 340/1/4
f 341/1/4 342/1/4 343/1/4
f 343/1/4 342/1/4 344/1/4
f 345/1/4 346/1/4 347/1/4
f 347/1/4 346/1/4 348/1/4
f 349/1/4 350/1/4 351/1/4
f 351/1/4 352/1/4 353/1/4
f 349/1/4 351/1/4 355/1/4
f 353/1/4 354/1/4 355/1/4
f 351/1/4 353/1/4 355/1/4
f 355/1/4 354/1/4 356/1/4
f 360/1/5 358/1/5 357/1/5
f 362/1/5 360/1/5 359/1/5
f 364/1/5 362/1/5 361/1/5
f 365/1/5 364/1/5 363/1/5
f 366/1/5 362/1/5 364/1/5
f 366/1/5 364/1/5 365/1/5
f 367/1/5 362/1/5 366/1/5
f 368/1/5 360/1/5 362/1/5
f 368/1/5 362/1/5 367/1/5
f 369/1/5 360/1/5 368/1/5
f 370/1/5 360/1/5 369/1/5
f 372/1/5 360/1/5 370/1/5
f 374/1/5 372/1/5 371/1/5
f 376/1/5 374/1/5 373/1/5
f 377/1/5 376/1/5 375/1/5
f 378/1/5 374/1/5 376/1/5
f 378/1/5 376/1/5 377/1/5
f 379/1/5 374/1/5 378/1/5
f 380/1/5 372/1/5 374/1/5
f 380/1/5 374/1/5 379/1/5
f 381/1/5 372/1/5 380/1/5
f 382/1/5 360/1/5 372/1/5
f 382/1/5 372/1/5 381/1/5
f 383/1/5 360/1/5 382/1/5
f 384/1/5 358/1/5 360/1/5
f 384/1/5 360/1/5 383/1/5
f 385/1/5 358/1/5 384/1/5
f 386/1/5 358/1/5 385/1/5
f 387/1/6 388/1/6 389/1/6
f 389/1/6 388/1/6 390/1/6
f 391/1/6 392/1/6 393/1/6
f 393/1/6 392/1/6 394/1/6
f 395/1/6 396/1/6 397/1/6
f 397/1/6 396/1/6 398/1/6
f 395/1/6 397/1/6 399/1/6
f 399/1/6 397/1/6 400/1/6
f 395/1/6 399/1/6 402/1/6
f 402/1/6 399/1/6 403/1/6
f 401/1/6 402/1/6 403/1/6
f 403/1/6 399/1/6 404/1/6
f 401/1/6 403/1/6 406/1/6
f 406/1/6 403/1/6 407/1/6
f 405/1/6 406/1/6 407/1/6
f 407/1/6 403/1/6 408/1/6
f 405/1/6 407/1/6 409/1/6
f 409/1/6 410/1/6 411/1/6
f 409/1/6 411/1/6 413/1/6
f 411/1/6 412/1/6 413/1/6
f 405/1/6 409/1/6 413/1/6
f 413/1/6 412/1/6 414/1/6
f 414/1/6 412/1/6 415/1/6
f 414/1/6 415/1/6 417/1/6
f 415/1/6 416/1/6 417/1/6
f 414/1/6 417/1/6 419/1/6
f 417/1/6 418/1/6 419/1/6
f 419/1/6 418/1/6 420/1/6
f 420/1/6 418/1/6 421/1/6
f 420/1/6 421/1/6 423/1/6
f 421/1/6 422/1/6 423/1/6
f 423/1/6 422/1/6 424/1/6
f 424/1/6 422/1/6 425/1/6
f 425/1/6 422/1/6 426/1/6
f 427/1/6 428/1/6 429/1/6
f 429/1/6 428/1/6 430/1/6
f 427/1/6 429/1/6 431/1/6
f 431/1/6 429/1/6 432/1/6
f 433/1/6 434/1/6 435/1/6
f 433/1/6 435/1/6 437/1/6
f 435/1/6 436/1/6 437/1/6
f 437/1/6 436/1/6 438/1/6
f 439/1/6 440/1/6 441/1/6
f 441/1/6 440/1/6 442/1/6
f 443/1/6 444/1/6 445/1/6
f 445/1/6 444/1/6 446/1/6
f 447/1/6 448/1/6 449/1/6
f 449/1/6 448/1/6 450/1/6
f 451/1/6 452/1/6 453/1/6
f 453/1/6 452/1/6 454/1/6
f 455/1/6 456/1/6 457/1/6
f 457/1/6 456/1/6 458/1/6
f 459/1/6 460/1/6 461/1/6
f 461/1/6 460/1/6 462/1/6
f 463/1/6 464/1/6 465/1/6
f 465/1/6 464/1/6 466/1/6
f 467/1/6 468/1/6 469/1/6
f 469/1/6 468/1/6 470/1/6
f 467/1/6 469/1/6 472/1/6
f 472/1/6 469/1/6 473/1/6
f 473/1/6 469/1/6 474/1/6
f 471/1/6 472/1/6 476/1/6
f 472/1/6 473/1/6 476/1/6
f 476/1/6 473/1/6 477/1/6
f 475/1/6 476/1/6 477/1/6
f 477/1/6 473/1/6 478/1/6
f 475/1/6 477/1/6 479/1/6
f 479/1/6 477/1/6 480/1/6
f 475/1/6 479/1/6 481/1/6
f 481/1/6 482/1/6 483/1/6
f 483/1/6 484/1/6 485/1/6
f 483/1/6 485/1/6 487/1/6
f 485/1/6 486/1/6 487/1/6
f 481/1/6 483/1/6 487/1/6
f 475/1/6 481/1/6 487/1/6
f 487/1/6 486/1/6 488/1/6
f 488/1/6 486/1/6 489/1/6
f 488/1/6 489/1/6 491/1/6
f 489/1/6 490/1/6 491/1/6
f 491/1/6 490/1/6 492/1/6
f 492/1/6 490/1/6 493/1/6
f 492/1/6 493/1/6 495/1/6
f 493/1/6 494/1/6 495/1/6
f 495/1/6 494/1/6 496/1/6
f 496/1/6 494/1/6 497/1/6
f 497/1/6 494/1/6 498/1/6
f 499/1/6 500/1/6 501/1/6
f 501/1/6 500/1/6 502/1/6
f 499/1/6 501/1/6 503/1/6
f 499/1/6 503/1/6 505/1/6
f 503/1/6 504/1/6 505/1/6
f 505/1/6 504/1/6 506/1/6
f 507/1/6 508/1/6 509/1/6
f 509/1/6 508/1/6 510/1/6
f 511/1/6 512/1/6 513/1/6
f 513/1/6 512/1/6 514/1/6
f 515/1/6 516/1/6 518/1/6
f 517/1/6 518/1/6 519/1/6
f 518/1/6 516/1/6 520/1/6
f 519/1/6 518/1/6 520/1/6
f 520/1/6 516/1/6 522/1/6
f 521/1/6 522/1/6 524/1/6
f 523/1/6 524/1/6 526/1/6
f 525/1/6 526/1/6 527/1/6
f 526/1/6 524/1/6 528/1/6
f 527/1/6 526/1/6 528/1/6
f 528/1/6 524/1/6 529/1/6
f 524/1/6 522/1/6 530/1/6
f 529/1/6 524/1/6 530/1/6
f 530/1/6 522/1/6 531/1/6
f 522/1/6 516/1/6 532/1/6
f 531/1/6 522/1/6 532/1/6
f 532/1/6 516/1/6 533/1/6
f 533/1/6 516/1/6 534/1/6
