# MagicaVoxel @ ephtracy

# material
mtllib corner inner 2.mtl
usemtl palette

# normals
vn -1 0 0
vn 1 0 0
vn 0 -1 0
vn 0 1 0
vn 0 0 -1
vn 0 0 1

# texcoords
vt 0.642578 0.5

# verts
v 0 0 18
v 0 30 18
v 0 20 24
v 0 30 24
v 0 10 30
v 0 20 30
v 0 0 36
v 0 10 36
v 6 30 18
v 6 37 18
v 6 30 21
v 6 37 21
v 7 20 24
v 7 26 24
v 7 10 30
v 7 16 30
v 7 20 30
v 7 26 30
v 7 10 36
v 7 16 36
v 10 37 18
v 10 40 18
v 10 30 21
v 10 37 21
v 10 30 24
v 10 40 24
v 14 16 30
v 14 19 30
v 14 16 33
v 14 19 33
v 18 26 24
v 18 34 24
v 18 26 30
v 18 34 30
v 20 34 24
v 20 40 24
v 20 34 30
v 20 40 30
v 22 19 30
v 22 23 30
v 22 16 33
v 22 19 33
v 22 16 36
v 22 23 36
v 26 23 30
v 26 31 30
v 26 23 36
v 26 31 36
v 30 31 30
v 30 40 30
v 30 31 36
v 30 40 36
v 40 0 18
v 40 40 18
v 40 0 36
v 40 40 36
v 0 0 18
v 0 0 36
v 40 0 18
v 40 0 36
v 0 10 30
v 0 10 36
v 7 10 30
v 7 10 36
v 7 16 30
v 7 16 36
v 14 16 30
v 14 16 33
v 22 16 33
v 22 16 36
v 14 19 30
v 14 19 33
v 22 19 30
v 22 19 33
v 0 20 24
v 0 20 30
v 7 20 24
v 7 20 30
v 22 23 30
v 22 23 36
v 26 23 30
v 26 23 36
v 7 26 24
v 7 26 30
v 18 26 24
v 18 26 30
v 0 30 18
v 0 30 24
v 6 30 18
v 6 30 21
v 10 30 21
v 10 30 24
v 26 31 30
v 26 31 36
v 30 31 30
v 30 31 36
v 18 34 24
v 18 34 30
v 20 34 24
v 20 34 30
v 6 37 18
v 6 37 21
v 10 37 18
v 10 37 21
v 10 40 18
v 10 40 24
v 20 40 24
v 20 40 30
v 30 40 30
v 30 40 36
v 40 40 18
v 40 40 36
v 0 0 18
v 40 0 18
v 0 30 18
v 6 30 18
v 6 37 18
v 10 37 18
v 10 40 18
v 40 40 18
v 6 30 21
v 10 30 21
v 6 37 21
v 10 37 21
v 0 20 24
v 7 20 24
v 7 26 24
v 18 26 24
v 0 30 24
v 10 30 24
v 18 34 24
v 20 34 24
v 10 40 24
v 20 40 24
v 0 10 30
v 7 10 30
v 7 16 30
v 14 16 30
v 14 19 30
v 22 19 30
v 0 20 30
v 7 20 30
v 22 23 30
v 26 23 30
v 7 26 30
v 18 26 30
v 26 31 30
v 30 31 30
v 18 34 30
v 20 34 30
v 20 40 30
v 30 40 30
v 14 16 33
v 22 16 33
v 14 19 33
v 22 19 33
v 0 0 36
v 40 0 36
v 0 10 36
v 7 10 36
v 7 16 36
v 22 16 36
v 22 23 36
v 26 23 36
v 26 31 36
v 30 31 36
v 30 40 36
v 40 40 36

# faces
f 3/1/1 2/1/1 1/1/1
f 4/1/1 2/1/1 3/1/1
f 5/1/1 3/1/1 1/1/1
f 6/1/1 3/1/1 5/1/1
f 7/1/1 5/1/1 1/1/1
f 8/1/1 5/1/1 7/1/1
f 11/1/1 10/1/1 9/1/1
f 12/1/1 10/1/1 11/1/1
f 17/1/1 14/1/1 13/1/1
f 18/1/1 14/1/1 17/1/1
f 19/1/1 16/1/1 15/1/1
f 20/1/1 16/1/1 19/1/1
f 24/1/1 22/1/1 21/1/1
f 25/1/1 24/1/1 23/1/1
f 26/1/1 22/1/1 24/1/1
f 26/1/1 24/1/1 25/1/1
f 29/1/1 28/1/1 27/1/1
f 30/1/1 28/1/1 29/1/1
f 33/1/1 32/1/1 31/1/1
f 34/1/1 32/1/1 33/1/1
f 37/1/1 36/1/1 35/1/1
f 38/1/1 36/1/1 37/1/1
f 42/1/1 40/1/1 39/1/1
f 43/1/1 42/1/1 41/1/1
f 44/1/1 40/1/1 42/1/1
f 44/1/1 42/1/1 43/1/1
f 47/1/1 46/1/1 45/1/1
f 48/1/1 46/1/1 47/1/1
f 51/1/1 50/1/1 49/1/1
f 52/1/1 50/1/1 51/1/1
f 53/1/2 54/1/2 55/1/2
f 55/1/2 54/1/2 56/1/2
f 59/1/3 58/1/3 57/1/3
f 60/1/3 58/1/3 59/1/3
f 61/1/4 62/1/4 63/1/4
f 63/1/4 62/1/4 64/1/4
f 65/1/4 66/1/4 67/1/4
f 67/1/4 66/1/4 68/1/4
f 68/1/4 66/1/4 69/1/4
f 69/1/4 66/1/4 70/1/4
f 71/1/4 72/1/4 73/1/4
f 73/1/4 72/1/4 74/1/4
f 75/1/4 76/1/4 77/1/4
f 77/1/4 76/1/4 78/1/4
f 79/1/4 80/1/4 81/1/4
f 81/1/4 80/1/4 82/1/4
f 83/1/4 84/1/4 85/1/4
f 85/1/4 84/1/4 86/1/4
f 87/1/4 88/1/4 89/1/4
f 89/1/4 88/1/4 90/1/4
f 90/1/4 88/1/4 91/1/4
f 91/1/4 88/1/4 92/1/4
f 93/1/4 94/1/4 95/1/4
f 95/1/4 94/1/4 96/1/4
f 97/1/4 98/1/4 99/1/4
f 99/1/4 98/1/4 100/1/4
f 101/1/4 102/1/4 103/1/4
f 103/1/4 102/1/4 104/1/4
f 105/1/4 106/1/4 107/1/4
f 107/1/4 108/1/4 109/1/4
f 105/1/4 107/1/4 111/1/4
f 109/1/4 110/1/4 111/1/4
f 107/1/4 109/1/4 111/1/4
f 111/1/4 110/1/4 112/1/4
f 115/1/5 114/1/5 113/1/5
f 116/1/5 114/1/5 115/1/5
f 117/1/5 114/1/5 116/1/5
f 118/1/5 114/1/5 117/1/5
f 119/1/5 114/1/5 118/1/5
f 120/1/5 114/1/5 119/1/5
f 121/1/6 122/1/6 123/1/6
f 123/1/6 122/1/6 124/1/6
f 125/1/6 126/1/6 127/1/6
f 125/1/6 127/1/6 129/1/6
f 127/1/6 128/1/6 129/1/6
f 129/1/6 128/1/6 130/1/6
f 130/1/6 128/1/6 131/1/6
f 130/1/6 131/1/6 133/1/6
f 131/1/6 132/1/6 133/1/6
f 133/1/6 132/1/6 134/1/6
f 135/1/6 136/1/6 137/1/6
f 137/1/6 138/1/6 139/1/6
f 135/1/6 137/1/6 141/1/6
f 139/1/6 140/1/6 141/1/6
f 137/1/6 139/1/6 141/1/6
f 141/1/6 140/1/6 142/1/6
f 142/1/6 140/1/6 143/1/6
f 142/1/6 143/1/6 145/1/6
f 143/1/6 144/1/6 145/1/6
f 145/1/6 144/1/6 146/1/6
f 146/1/6 144/1/6 147/1/6
f 146/1/6 147/1/6 149/1/6
f 147/1/6 148/1/6 149/1/6
f 149/1/6 148/1/6 150/1/6
f 150/1/6 148/1/6 151/1/6
f 151/1/6 148/1/6 152/1/6
f 153/1/6 154/1/6 155/1/6
f 155/1/6 154/1/6 156/1/6
f 157/1/6 158/1/6 159/1/6
f 159/1/6 158/1/6 160/1/6
f 160/1/6 158/1/6 161/1/6
f 161/1/6 158/1/6 162/1/6
f 162/1/6 158/1/6 163/1/6
f 163/1/6 158/1/6 164/1/6
f 164/1/6 158/1/6 165/1/6
f 165/1/6 158/1/6 166/1/6
f 166/1/6 158/1/6 167/1/6
f 167/1/6 158/1/6 168/1/6
