# MagicaVoxel @ ephtracy

# material
mtllib 2x1 - pipes.mtl
usemtl palette

# normals
vn -1 0 0
vn 1 0 0
vn 0 -1 0
vn 0 1 0
vn 0 0 -1
vn 0 0 1

# texcoords
vt 0.642578 0.5
vt 0.677734 0.5

# verts
v 2 0 24
v 2 8 24
v 2 32 24
v 2 40 24
v 2 0 30
v 2 8 30
v 2 32 30
v 2 40 30
v 4 8 24
v 4 12 24
v 4 28 24
v 4 32 24
v 4 8 30
v 4 12 30
v 4 28 30
v 4 32 30
v 8 12 24
v 8 16 24
v 8 24 24
v 8 28 24
v 8 12 30
v 8 16 30
v 8 24 30
v 8 28 30
v 10 2 30
v 10 10 30
v 10 28 30
v 10 38 30
v 10 2 32
v 10 10 32
v 10 28 34
v 10 38 34
v 12 0 30
v 12 2 30
v 12 38 30
v 12 40 30
v 12 2 32
v 12 8 32
v 12 36 34
v 12 38 34
v 12 0 36
v 12 8 36
v 12 36 36
v 12 40 36
v 14 16 24
v 14 18 24
v 14 22 24
v 14 24 24
v 14 16 30
v 14 18 30
v 14 22 30
v 14 24 30
v 14 30 34
v 14 36 34
v 14 30 36
v 14 36 36
v 16 10 30
v 16 14 30
v 16 24 30
v 16 28 30
v 16 8 32
v 16 10 32
v 16 28 34
v 16 30 34
v 16 8 36
v 16 14 36
v 16 24 36
v 16 30 36
v 18 14 31
v 18 24 31
v 18 14 33
v 18 24 33
v 18 4 36
v 18 8 36
v 18 4 40
v 18 8 40
v 20 28 36
v 20 40 36
v 20 28 42
v 20 40 42
v 22 0 36
v 22 4 36
v 22 4 40
v 22 8 40
v 22 0 42
v 22 8 42
v 22 30 42
v 22 36 42
v 22 30 44
v 22 36 44
v 24 2 42
v 24 6 42
v 24 2 44
v 24 6 44
v 25 14 38
v 25 28 38
v 25 16 40
v 25 28 40
v 25 3 44
v 25 5 44
v 25 5 46
v 25 14 46
v 25 3 48
v 25 16 48
v 26 14 30
v 26 16 30
v 26 14 36
v 26 16 36
v 26 36 42
v 26 38 42
v 26 36 44
v 26 38 44
v 30 18 24
v 30 22 24
v 30 18 30
v 30 22 30
v 30 8 36
v 30 12 36
v 30 26 36
v 30 28 36
v 30 8 42
v 30 12 42
v 30 26 42
v 30 28 42
v 32 6 42
v 32 10 42
v 32 28 42
v 32 30 42
v 32 6 44
v 32 30 44
v 32 6 46
v 32 10 46
v 32 28 46
v 32 30 46
v 33 12 38
v 33 26 38
v 33 12 40
v 33 26 40
v 34 16 30
v 34 24 30
v 34 16 36
v 34 24 36
v 36 12 36
v 36 16 36
v 36 22 36
v 36 26 36
v 36 12 42
v 36 16 42
v 36 22 42
v 36 26 42
v 38 10 42
v 38 14 42
v 38 10 46
v 38 14 46
v 40 24 42
v 40 28 42
v 40 24 46
v 40 28 46
v 42 19 36
v 42 21 36
v 42 12 46
v 42 14 46
v 42 19 46
v 42 12 48
v 42 21 48
v 44 16 36
v 44 19 36
v 44 21 36
v 44 22 36
v 44 16 42
v 44 19 42
v 44 21 42
v 44 22 42
v 46 14 42
v 46 24 42
v 46 14 46
v 46 24 46
v 56 12 42
v 56 14 42
v 56 12 46
v 56 14 46
v 20 14 31
v 20 24 31
v 20 14 33
v 20 24 33
v 27 14 38
v 27 28 38
v 27 16 40
v 27 28 40
v 27 3 44
v 27 5 44
v 27 5 46
v 27 14 46
v 27 3 48
v 27 16 48
v 35 12 38
v 35 26 38
v 35 12 40
v 35 26 40
v 36 2 42
v 36 6 42
v 36 2 44
v 36 6 44
v 38 32 42
v 38 38 42
v 38 32 44
v 38 38 44
v 44 6 42
v 44 10 42
v 44 19 42
v 44 21 42
v 44 10 44
v 44 12 44
v 44 6 46
v 44 12 46
v 44 14 46
v 44 19 46
v 44 14 48
v 44 21 48
v 46 26 44
v 46 30 44
v 46 26 46
v 46 30 46
v 50 12 44
v 50 26 44
v 50 12 46
v 50 14 46
v 50 26 46
v 52 26 42
v 52 32 42
v 52 26 44
v 52 32 44
v 54 10 42
v 54 16 42
v 54 10 44
v 54 16 44
v 58 12 42
v 58 14 42
v 58 12 48
v 58 14 48
v 60 16 42
v 60 26 42
v 60 16 44
v 60 26 44
v 63 0 24
v 63 40 24
v 63 0 42
v 63 40 42
v 2 0 24
v 2 0 30
v 12 0 30
v 12 0 36
v 22 0 36
v 22 0 42
v 63 0 24
v 63 0 42
v 10 2 30
v 10 2 32
v 12 2 30
v 12 2 32
v 24 2 42
v 24 2 44
v 36 2 42
v 36 2 44
v 25 3 44
v 25 3 48
v 27 3 44
v 27 3 48
v 18 4 36
v 18 4 40
v 22 4 36
v 22 4 40
v 32 6 44
v 32 6 46
v 36 6 42
v 36 6 44
v 44 6 42
v 44 6 46
v 44 10 42
v 44 10 44
v 54 10 42
v 54 10 44
v 42 12 46
v 42 12 48
v 44 12 44
v 44 12 46
v 50 12 44
v 50 12 46
v 56 12 42
v 56 12 46
v 58 12 42
v 58 12 48
v 25 14 38
v 25 14 46
v 27 14 38
v 27 14 46
v 54 16 42
v 54 16 44
v 60 16 42
v 60 16 44
v 42 19 36
v 42 19 46
v 44 19 36
v 44 19 42
v 44 19 46
v 14 22 24
v 14 22 30
v 30 22 24
v 30 22 30
v 36 22 36
v 36 22 42
v 44 22 36
v 44 22 42
v 8 24 24
v 8 24 30
v 14 24 24
v 14 24 30
v 16 24 30
v 16 24 36
v 18 24 31
v 18 24 33
v 20 24 31
v 20 24 33
v 34 24 30
v 34 24 36
v 40 24 42
v 40 24 46
v 46 24 42
v 46 24 46
v 30 26 36
v 30 26 42
v 33 26 38
v 33 26 40
v 35 26 38
v 35 26 40
v 36 26 36
v 36 26 42
v 4 28 24
v 4 28 30
v 8 28 24
v 8 28 30
v 10 28 30
v 10 28 34
v 16 28 30
v 16 28 34
v 20 28 36
v 20 28 42
v 25 28 38
v 25 28 40
v 27 28 38
v 27 28 40
v 30 28 36
v 30 28 42
v 32 28 42
v 32 28 46
v 40 28 42
v 40 28 46
v 14 30 34
v 14 30 36
v 16 30 34
v 16 30 36
v 22 30 42
v 22 30 44
v 32 30 42
v 32 30 44
v 2 32 24
v 2 32 30
v 4 32 24
v 4 32 30
v 12 36 34
v 12 36 36
v 14 36 34
v 14 36 36
v 25 5 44
v 25 5 46
v 27 5 44
v 27 5 46
v 24 6 42
v 24 6 44
v 32 6 42
v 32 6 44
v 2 8 24
v 2 8 30
v 4 8 24
v 4 8 30
v 12 8 32
v 12 8 36
v 16 8 32
v 16 8 36
v 18 8 36
v 18 8 40
v 22 8 40
v 22 8 42
v 30 8 36
v 30 8 42
v 10 10 30
v 10 10 32
v 16 10 30
v 16 10 32
v 32 10 42
v 32 10 46
v 38 10 42
v 38 10 46
v 4 12 24
v 4 12 30
v 8 12 24
v 8 12 30
v 30 12 36
v 30 12 42
v 33 12 38
v 33 12 40
v 35 12 38
v 35 12 40
v 36 12 36
v 36 12 42
v 16 14 30
v 16 14 36
v 18 14 31
v 18 14 33
v 20 14 31
v 20 14 33
v 26 14 30
v 26 14 36
v 38 14 42
v 38 14 46
v 42 14 46
v 44 14 46
v 44 14 48
v 46 14 42
v 46 14 46
v 50 14 46
v 56 14 42
v 56 14 46
v 58 14 42
v 58 14 48
v 8 16 24
v 8 16 30
v 14 16 24
v 14 16 30
v 25 16 40
v 25 16 48
v 26 16 30
v 26 16 36
v 27 16 40
v 27 16 48
v 34 16 30
v 34 16 36
v 36 16 36
v 36 16 42
v 44 16 36
v 44 16 42
v 14 18 24
v 14 18 30
v 30 18 24
v 30 18 30
v 42 21 36
v 42 21 48
v 44 21 36
v 44 21 42
v 44 21 48
v 46 26 44
v 46 26 46
v 50 26 44
v 50 26 46
v 52 26 42
v 52 26 44
v 60 26 42
v 60 26 44
v 32 30 44
v 32 30 46
v 46 30 44
v 46 30 46
v 38 32 42
v 38 32 44
v 52 32 42
v 52 32 44
v 22 36 42
v 22 36 44
v 26 36 42
v 26 36 44
v 10 38 30
v 10 38 34
v 12 38 30
v 12 38 34
v 26 38 42
v 26 38 44
v 38 38 42
v 38 38 44
v 2 40 24
v 2 40 30
v 12 40 30
v 12 40 36
v 20 40 36
v 20 40 42
v 63 40 24
v 63 40 42
v 2 0 24
v 63 0 24
v 2 8 24
v 4 8 24
v 4 12 24
v 8 12 24
v 8 16 24
v 14 16 24
v 14 18 24
v 30 18 24
v 14 22 24
v 30 22 24
v 8 24 24
v 14 24 24
v 4 28 24
v 8 28 24
v 2 32 24
v 4 32 24
v 2 40 24
v 63 40 24
v 18 14 31
v 20 14 31
v 18 24 31
v 20 24 31
v 33 12 38
v 35 12 38
v 25 14 38
v 27 14 38
v 33 26 38
v 35 26 38
v 25 28 38
v 27 28 38
v 25 5 46
v 27 5 46
v 50 12 46
v 56 12 46
v 25 14 46
v 27 14 46
v 42 14 46
v 44 14 46
v 50 14 46
v 56 14 46
v 42 19 46
v 44 19 46
v 2 0 30
v 12 0 30
v 10 2 30
v 12 2 30
v 2 8 30
v 4 8 30
v 10 10 30
v 16 10 30
v 4 12 30
v 8 12 30
v 16 14 30
v 26 14 30
v 8 16 30
v 14 16 30
v 26 16 30
v 34 16 30
v 14 18 30
v 30 18 30
v 14 22 30
v 30 22 30
v 8 24 30
v 14 24 30
v 16 24 30
v 34 24 30
v 4 28 30
v 8 28 30
v 10 28 30
v 16 28 30
v 2 32 30
v 4 32 30
v 10 38 30
v 12 38 30
v 2 40 30
v 12 40 30
v 10 2 32
v 12 2 32
v 12 8 32
v 16 8 32
v 10 10 32
v 16 10 32
v 18 14 33
v 20 14 33
v 18 24 33
v 20 24 33
v 10 28 34
v 16 28 34
v 14 30 34
v 16 30 34
v 12 36 34
v 14 36 34
v 10 38 34
v 12 38 34
v 12 0 36
v 22 0 36
v 18 4 36
v 22 4 36
v 12 8 36
v 16 8 36
v 18 8 36
v 30 8 36
v 30 12 36
v 36 12 36
v 16 14 36
v 26 14 36
v 26 16 36
v 34 16 36
v 36 16 36
v 44 16 36
v 42 19 36
v 44 19 36
v 42 21 36
v 44 21 36
v 36 22 36
v 44 22 36
v 16 24 36
v 34 24 36
v 30 26 36
v 36 26 36
v 20 28 36
v 30 28 36
v 14 30 36
v 16 30 36
v 12 36 36
v 14 36 36
v 12 40 36
v 20 40 36
v 18 4 40
v 22 4 40
v 18 8 40
v 22 8 40
v 33 12 40
v 35 12 40
v 25 16 40
v 27 16 40
v 33 26 40
v 35 26 40
v 25 28 40
v 27 28 40
v 22 0 42
v 63 0 42
v 24 2 42
v 36 2 42
v 24 6 42
v 32 6 42
v 36 6 42
v 44 6 42
v 22 8 42
v 30 8 42
v 32 10 42
v 38 10 42
v 44 10 42
v 54 10 42
v 30 12 42
v 36 12 42
v 56 12 42
v 58 12 42
v 38 14 42
v 46 14 42
v 56 14 42
v 58 14 42
v 36 16 42
v 44 16 42
v 54 16 42
v 60 16 42
v 44 19 42
v 44 21 42
v 36 22 42
v 44 22 42
v 40 24 42
v 46 24 42
v 30 26 42
v 36 26 42
v 52 26 42
v 60 26 42
v 20 28 42
v 30 28 42
v 32 28 42
v 40 28 42
v 22 30 42
v 32 30 42
v 38 32 42
v 52 32 42
v 22 36 42
v 26 36 42
v 26 38 42
v 38 38 42
v 20 40 42
v 63 40 42
v 24 2 44
v 36 2 44
v 25 3 44
v 27 3 44
v 25 5 44
v 27 5 44
v 24 6 44
v 32 6 44
v 36 6 44
v 44 10 44
v 54 10 44
v 44 12 44
v 50 12 44
v 54 16 44
v 60 16 44
v 46 26 44
v 50 26 44
v 52 26 44
v 60 26 44
v 22 30 44
v 32 30 44
v 46 30 44
v 38 32 44
v 52 32 44
v 22 36 44
v 26 36 44
v 26 38 44
v 38 38 44
v 32 6 46
v 44 6 46
v 32 10 46
v 38 10 46
v 42 12 46
v 44 12 46
v 38 14 46
v 42 14 46
v 46 14 46
v 50 14 46
v 40 24 46
v 46 24 46
v 46 26 46
v 50 26 46
v 32 28 46
v 40 28 46
v 32 30 46
v 46 30 46
v 25 3 48
v 27 3 48
v 42 12 48
v 58 12 48
v 44 14 48
v 58 14 48
v 25 16 48
v 27 16 48
v 42 21 48
v 44 21 48

# faces
f 5/1/1 2/1/1 1/1/1
f 6/1/1 2/1/1 5/1/1
f 7/1/1 4/1/1 3/1/1
f 8/1/1 4/1/1 7/1/1
f 13/1/1 10/1/1 9/1/1
f 14/1/1 10/1/1 13/1/1
f 15/1/1 12/1/1 11/1/1
f 16/1/1 12/1/1 15/1/1
f 21/1/1 18/1/1 17/1/1
f 22/1/1 18/1/1 21/1/1
f 23/1/1 20/1/1 19/1/1
f 24/1/1 20/1/1 23/1/1
f 29/1/1 26/1/1 25/1/1
f 30/1/1 26/1/1 29/1/1
f 31/1/1 28/1/1 27/1/1
f 32/1/1 28/1/1 31/1/1
f 37/1/1 34/1/1 33/1/1
f 40/1/1 36/1/1 35/1/1
f 41/1/1 38/1/1 37/1/1
f 41/1/1 37/1/1 33/1/1
f 42/1/1 38/1/1 41/1/1
f 43/1/1 40/1/1 39/1/1
f 44/1/1 36/1/1 40/1/1
f 44/1/1 40/1/1 43/1/1
f 49/1/1 46/1/1 45/1/1
f 50/1/1 46/1/1 49/1/1
f 51/1/1 48/1/1 47/1/1
f 52/1/1 48/1/1 51/1/1
f 55/1/1 54/1/1 53/1/1
f 56/1/1 54/1/1 55/1/1
f 62/1/1 58/1/1 57/1/1
f 63/1/1 60/1/1 59/1/1
f 65/1/1 62/1/1 61/1/1
f 66/1/1 58/1/1 62/1/1
f 66/1/1 62/1/1 65/1/1
f 67/1/1 64/1/1 63/1/1
f 67/1/1 63/1/1 59/1/1
f 68/1/1 64/1/1 67/1/1
f 71/2/1 70/2/1 69/2/1
f 72/2/1 70/2/1 71/2/1
f 75/1/1 74/1/1 73/1/1
f 76/1/1 74/1/1 75/1/1
f 79/1/1 78/1/1 77/1/1
f 80/1/1 78/1/1 79/1/1
f 83/1/1 82/1/1 81/1/1
f 85/1/1 83/1/1 81/1/1
f 85/1/1 84/1/1 83/1/1
f 86/1/1 84/1/1 85/1/1
f 89/1/1 88/1/1 87/1/1
f 90/1/1 88/1/1 89/1/1
f 93/1/1 92/1/1 91/1/1
f 94/1/1 92/1/1 93/1/1
f 97/2/1 96/2/1 95/2/1
f 98/2/1 96/2/1 97/2/1
f 101/2/1 100/2/1 99/2/1
f 102/2/1 97/2/1 95/2/1
f 103/2/1 101/2/1 99/2/1
f 103/2/1 102/2/1 101/2/1
f 104/2/1 97/2/1 102/2/1
f 104/2/1 102/2/1 103/2/1
f 107/1/1 106/1/1 105/1/1
f 108/1/1 106/1/1 107/1/1
f 111/1/1 110/1/1 109/1/1
f 112/1/1 110/1/1 111/1/1
f 115/1/1 114/1/1 113/1/1
f 116/1/1 114/1/1 115/1/1
f 121/1/1 118/1/1 117/1/1
f 122/1/1 118/1/1 121/1/1
f 123/1/1 120/1/1 119/1/1
f 124/1/1 120/1/1 123/1/1
f 129/1/1 126/1/1 125/1/1
f 130/1/1 128/1/1 127/1/1
f 131/1/1 126/1/1 129/1/1
f 132/1/1 126/1/1 131/1/1
f 133/1/1 130/1/1 127/1/1
f 134/1/1 130/1/1 133/1/1
f 137/2/1 136/2/1 135/2/1
f 138/2/1 136/2/1 137/2/1
f 141/1/1 140/1/1 139/1/1
f 142/1/1 140/1/1 141/1/1
f 147/1/1 144/1/1 143/1/1
f 148/1/1 144/1/1 147/1/1
f 149/1/1 146/1/1 145/1/1
f 150/1/1 146/1/1 149/1/1
f 153/1/1 152/1/1 151/1/1
f 154/1/1 152/1/1 153/1/1
f 157/1/1 156/1/1 155/1/1
f 158/1/1 156/1/1 157/1/1
f 163/2/1 160/2/1 159/2/1
f 164/2/1 162/2/1 161/2/1
f 164/2/1 163/2/1 162/2/1
f 165/2/1 160/2/1 163/2/1
f 165/2/1 163/2/1 164/2/1
f 170/1/1 167/1/1 166/1/1
f 171/1/1 167/1/1 170/1/1
f 172/1/1 169/1/1 168/1/1
f 173/1/1 169/1/1 172/1/1
f 176/1/1 175/1/1 174/1/1
f 177/1/1 175/1/1 176/1/1
f 180/2/1 179/2/1 178/2/1
f 181/2/1 179/2/1 180/2/1
f 182/2/2 183/2/2 184/2/2
f 184/2/2 183/2/2 185/2/2
f 186/2/2 187/2/2 188/2/2
f 188/2/2 187/2/2 189/2/2
f 190/2/2 191/2/2 192/2/2
f 186/2/2 188/2/2 193/2/2
f 190/2/2 192/2/2 194/2/2
f 192/2/2 193/2/2 194/2/2
f 193/2/2 188/2/2 195/2/2
f 194/2/2 193/2/2 195/2/2
f 196/2/2 197/2/2 198/2/2
f 198/2/2 197/2/2 199/2/2
f 200/1/2 201/1/2 202/1/2
f 202/1/2 201/1/2 203/1/2
f 204/1/2 205/1/2 206/1/2
f 206/1/2 205/1/2 207/1/2
f 208/1/2 209/1/2 212/1/2
f 208/1/2 212/1/2 214/1/2
f 212/1/2 213/1/2 214/1/2
f 214/1/2 213/1/2 215/1/2
f 210/2/2 211/2/2 217/2/2
f 216/2/2 217/2/2 218/2/2
f 217/2/2 211/2/2 219/2/2
f 218/2/2 217/2/2 219/2/2
f 220/1/2 221/1/2 222/1/2
f 222/1/2 221/1/2 223/1/2
f 224/1/2 225/1/2 226/1/2
f 226/1/2 225/1/2 227/1/2
f 227/1/2 225/1/2 228/1/2
f 229/1/2 230/1/2 231/1/2
f 231/1/2 230/1/2 232/1/2
f 233/1/2 234/1/2 235/1/2
f 235/1/2 234/1/2 236/1/2
f 237/2/2 238/2/2 239/2/2
f 239/2/2 238/2/2 240/2/2
f 241/1/2 242/1/2 243/1/2
f 243/1/2 242/1/2 244/1/2
f 245/1/2 246/1/2 247/1/2
f 247/1/2 246/1/2 248/1/2
f 251/1/3 250/1/3 249/1/3
f 253/1/3 252/1/3 251/1/3
f 255/1/3 251/1/3 249/1/3
f 255/1/3 254/1/3 253/1/3
f 255/1/3 253/1/3 251/1/3
f 256/1/3 254/1/3 255/1/3
f 259/1/3 258/1/3 257/1/3
f 260/1/3 258/1/3 259/1/3
f 263/1/3 262/1/3 261/1/3
f 264/1/3 262/1/3 263/1/3
f 267/2/3 266/2/3 265/2/3
f 268/2/3 266/2/3 267/2/3
f 271/1/3 270/1/3 269/1/3
f 272/1/3 270/1/3 271/1/3
f 276/1/3 274/1/3 273/1/3
f 277/1/3 276/1/3 275/1/3
f 278/1/3 274/1/3 276/1/3
f 278/1/3 276/1/3 277/1/3
f 281/1/3 280/1/3 279/1/3
f 282/1/3 280/1/3 281/1/3
f 286/2/3 284/2/3 283/2/3
f 287/1/3 286/1/3 285/1/3
f 288/2/3 284/2/3 286/2/3
f 288/1/3 286/1/3 287/1/3
f 290/2/3 284/2/3 288/2/3
f 291/2/3 290/2/3 289/2/3
f 292/2/3 284/2/3 290/2/3
f 292/2/3 290/2/3 291/2/3
f 295/2/3 294/2/3 293/2/3
f 296/2/3 294/2/3 295/2/3
f 299/1/3 298/1/3 297/1/3
f 300/1/3 298/1/3 299/1/3
f 303/2/3 302/2/3 301/2/3
f 304/2/3 302/2/3 303/2/3
f 305/2/3 302/2/3 304/2/3
f 308/1/3 307/1/3 306/1/3
f 309/1/3 307/1/3 308/1/3
f 312/1/3 311/1/3 310/1/3
f 313/1/3 311/1/3 312/1/3
f 316/1/3 315/1/3 314/1/3
f 317/1/3 315/1/3 316/1/3
f 320/1/3 319/1/3 318/1/3
f 321/1/3 319/1/3 320/1/3
f 322/1/3 320/1/3 318/1/3
f 323/1/3 319/1/3 321/1/3
f 324/1/3 322/1/3 318/1/3
f 324/1/3 323/1/3 322/1/3
f 325/1/3 319/1/3 323/1/3
f 325/1/3 323/1/3 324/1/3
f 328/1/3 327/1/3 326/1/3
f 329/1/3 327/1/3 328/1/3
f 332/1/3 331/1/3 330/1/3
f 333/1/3 331/1/3 332/1/3
f 334/1/3 332/1/3 330/1/3
f 335/1/3 331/1/3 333/1/3
f 336/1/3 334/1/3 330/1/3
f 336/1/3 335/1/3 334/1/3
f 337/1/3 331/1/3 335/1/3
f 337/1/3 335/1/3 336/1/3
f 340/1/3 339/1/3 338/1/3
f 341/1/3 339/1/3 340/1/3
f 344/1/3 343/1/3 342/1/3
f 345/1/3 343/1/3 344/1/3
f 348/1/3 347/1/3 346/1/3
f 349/1/3 347/1/3 348/1/3
f 350/1/3 348/1/3 346/1/3
f 351/1/3 347/1/3 349/1/3
f 352/1/3 350/1/3 346/1/3
f 352/1/3 351/1/3 350/1/3
f 353/1/3 347/1/3 351/1/3
f 353/1/3 351/1/3 352/1/3
f 356/1/3 355/1/3 354/1/3
f 357/1/3 355/1/3 356/1/3
f 360/1/3 359/1/3 358/1/3
f 361/1/3 359/1/3 360/1/3
f 364/1/3 363/1/3 362/1/3
f 365/1/3 363/1/3 364/1/3
f 368/1/3 367/1/3 366/1/3
f 369/1/3 367/1/3 368/1/3
f 372/1/3 371/1/3 370/1/3
f 373/1/3 371/1/3 372/1/3
f 374/2/4 375/2/4 376/2/4
f 376/2/4 375/2/4 377/2/4
f 378/1/4 379/1/4 380/1/4
f 380/1/4 379/1/4 381/1/4
f 382/1/4 383/1/4 384/1/4
f 384/1/4 383/1/4 385/1/4
f 386/1/4 387/1/4 388/1/4
f 388/1/4 387/1/4 389/1/4
f 390/1/4 391/1/4 392/1/4
f 390/1/4 392/1/4 394/1/4
f 392/1/4 393/1/4 394/1/4
f 394/1/4 393/1/4 395/1/4
f 396/1/4 397/1/4 398/1/4
f 398/1/4 397/1/4 399/1/4
f 400/1/4 401/1/4 402/1/4
f 402/1/4 401/1/4 403/1/4
f 404/1/4 405/1/4 406/1/4
f 406/1/4 405/1/4 407/1/4
f 408/1/4 409/1/4 410/1/4
f 410/1/4 409/1/4 411/1/4
f 408/1/4 410/1/4 412/1/4
f 411/1/4 409/1/4 413/1/4
f 408/1/4 412/1/4 414/1/4
f 412/1/4 413/1/4 414/1/4
f 413/1/4 409/1/4 415/1/4
f 414/1/4 413/1/4 415/1/4
f 416/1/4 417/1/4 418/1/4
f 418/1/4 417/1/4 419/1/4
f 416/1/4 418/1/4 420/1/4
f 419/1/4 417/1/4 421/1/4
f 416/1/4 420/1/4 422/1/4
f 420/1/4 421/1/4 422/1/4
f 421/1/4 417/1/4 423/1/4
f 422/1/4 421/1/4 423/1/4
f 424/1/4 425/1/4 426/1/4
f 424/1/4 426/1/4 427/1/4
f 424/1/4 427/1/4 429/1/4
f 427/2/4 428/2/4 430/2/4
f 429/1/4 427/1/4 430/1/4
f 430/2/4 428/2/4 431/2/4
f 431/2/4 428/2/4 433/2/4
f 432/2/4 433/2/4 434/2/4
f 433/2/4 428/2/4 435/2/4
f 434/2/4 433/2/4 435/2/4
f 436/1/4 437/1/4 438/1/4
f 438/1/4 437/1/4 439/1/4
f 440/2/4 441/2/4 444/2/4
f 444/2/4 441/2/4 445/2/4
f 442/1/4 443/1/4 446/1/4
f 446/1/4 443/1/4 447/1/4
f 448/1/4 449/1/4 450/1/4
f 450/1/4 449/1/4 451/1/4
f 452/1/4 453/1/4 454/1/4
f 454/1/4 453/1/4 455/1/4
f 456/2/4 457/2/4 458/2/4
f 458/2/4 457/2/4 459/2/4
f 459/2/4 457/2/4 460/2/4
f 461/1/4 462/1/4 463/1/4
f 463/1/4 462/1/4 464/1/4
f 465/1/4 466/1/4 467/1/4
f 467/1/4 466/1/4 468/1/4
f 469/1/4 470/1/4 471/1/4
f 471/1/4 470/1/4 472/1/4
f 473/1/4 474/1/4 475/1/4
f 475/1/4 474/1/4 476/1/4
f 477/1/4 478/1/4 479/1/4
f 479/1/4 478/1/4 480/1/4
f 481/1/4 482/1/4 483/1/4
f 483/1/4 482/1/4 484/1/4
f 485/1/4 486/1/4 487/1/4
f 487/1/4 486/1/4 488/1/4
f 489/1/4 490/1/4 491/1/4
f 491/1/4 492/1/4 493/1/4
f 489/1/4 491/1/4 495/1/4
f 493/1/4 494/1/4 495/1/4
f 491/1/4 493/1/4 495/1/4
f 495/1/4 494/1/4 496/1/4
f 499/1/5 498/1/5 497/1/5
f 500/1/5 498/1/5 499/1/5
f 501/1/5 498/1/5 500/1/5
f 502/1/5 498/1/5 501/1/5
f 503/1/5 498/1/5 502/1/5
f 504/1/5 498/1/5 503/1/5
f 505/1/5 498/1/5 504/1/5
f 506/1/5 498/1/5 505/1/5
f 508/1/5 498/1/5 506/1/5
f 510/1/5 508/1/5 507/1/5
f 512/1/5 510/1/5 509/1/5
f 514/1/5 512/1/5 511/1/5
f 515/1/5 514/1/5 513/1/5
f 516/1/5 498/1/5 508/1/5
f 516/1/5 514/1/5 515/1/5
f 516/1/5 508/1/5 510/1/5
f 516/1/5 512/1/5 514/1/5
f 516/1/5 510/1/5 512/1/5
f 519/2/5 518/2/5 517/2/5
f 520/2/5 518/2/5 519/2/5
f 525/2/5 522/2/5 521/2/5
f 526/2/5 522/2/5 525/2/5
f 527/2/5 524/2/5 523/2/5
f 528/2/5 524/2/5 527/2/5
f 533/2/5 530/2/5 529/2/5
f 534/2/5 530/2/5 533/2/5
f 537/2/5 532/2/5 531/2/5
f 538/2/5 532/2/5 537/2/5
f 539/2/5 536/2/5 535/2/5
f 540/2/5 536/2/5 539/2/5
f 541/1/6 542/1/6 543/1/6
f 543/1/6 542/1/6 544/1/6
f 541/1/6 543/1/6 545/1/6
f 545/1/6 543/1/6 546/1/6
f 546/1/6 543/1/6 547/1/6
f 546/1/6 547/1/6 549/1/6
f 547/1/6 548/1/6 549/1/6
f 549/1/6 548/1/6 550/1/6
f 550/1/6 548/1/6 551/1/6
f 550/1/6 551/1/6 553/1/6
f 551/1/6 552/1/6 553/1/6
f 553/1/6 552/1/6 554/1/6
f 554/1/6 552/1/6 555/1/6
f 555/1/6 556/1/6 557/1/6
f 554/1/6 555/1/6 557/1/6
f 557/1/6 556/1/6 558/1/6
f 558/1/6 556/1/6 560/1/6
f 559/1/6 560/1/6 562/1/6
f 562/1/6 560/1/6 563/1/6
f 560/1/6 556/1/6 564/1/6
f 563/1/6 560/1/6 564/1/6
f 562/1/6 563/1/6 566/1/6
f 561/1/6 562/1/6 566/1/6
f 566/1/6 563/1/6 567/1/6
f 567/1/6 563/1/6 568/1/6
f 565/1/6 566/1/6 570/1/6
f 566/1/6 567/1/6 570/1/6
f 570/1/6 567/1/6 571/1/6
f 569/1/6 570/1/6 571/1/6
f 569/1/6 571/1/6 573/1/6
f 571/1/6 572/1/6 573/1/6
f 573/1/6 572/1/6 574/1/6
f 575/1/6 576/1/6 577/1/6
f 575/1/6 577/1/6 579/1/6
f 577/1/6 578/1/6 579/1/6
f 579/1/6 578/1/6 580/1/6
f 581/2/6 582/2/6 583/2/6
f 583/2/6 582/2/6 584/2/6
f 585/1/6 586/1/6 587/1/6
f 587/1/6 586/1/6 588/1/6
f 585/1/6 587/1/6 589/1/6
f 589/1/6 587/1/6 590/1/6
f 585/1/6 589/1/6 591/1/6
f 591/1/6 589/1/6 592/1/6
f 593/1/6 594/1/6 595/1/6
f 595/1/6 594/1/6 596/1/6
f 593/1/6 595/1/6 597/1/6
f 597/1/6 595/1/6 598/1/6
f 598/1/6 595/1/6 599/1/6
f 598/1/6 599/1/6 601/1/6
f 599/1/6 600/1/6 601/1/6
f 598/1/6 601/1/6 603/1/6
f 601/1/6 602/1/6 603/1/6
f 603/1/6 602/1/6 604/1/6
f 604/1/6 602/1/6 605/1/6
f 605/1/6 602/1/6 606/1/6
f 606/1/6 602/1/6 607/1/6
f 607/1/6 608/1/6 609/1/6
f 606/1/6 607/1/6 609/1/6
f 609/1/6 608/1/6 610/1/6
f 606/1/6 609/1/6 611/1/6
f 606/1/6 611/1/6 613/1/6
f 611/1/6 612/1/6 613/1/6
f 613/1/6 612/1/6 614/1/6
f 606/1/6 613/1/6 616/1/6
f 615/1/6 616/1/6 617/1/6
f 616/1/6 613/1/6 618/1/6
f 617/1/6 616/1/6 618/1/6
f 615/1/6 617/1/6 619/1/6
f 619/1/6 617/1/6 620/1/6
f 615/1/6 619/1/6 622/1/6
f 621/1/6 622/1/6 624/1/6
f 623/1/6 624/1/6 625/1/6
f 622/1/6 619/1/6 626/1/6
f 625/1/6 624/1/6 626/1/6
f 624/1/6 622/1/6 626/1/6
f 627/1/6 628/1/6 629/1/6
f 629/1/6 628/1/6 630/1/6
f 631/2/6 632/2/6 635/2/6
f 635/2/6 632/2/6 636/2/6
f 633/2/6 634/2/6 637/2/6
f 637/2/6 634/2/6 638/2/6
f 639/1/6 640/1/6 641/1/6
f 641/1/6 640/1/6 642/1/6
f 639/1/6 641/1/6 643/1/6
f 642/1/6 640/1/6 645/1/6
f 645/1/6 640/1/6 646/1/6
f 643/1/6 644/1/6 647/1/6
f 639/1/6 643/1/6 647/1/6
f 647/1/6 644/1/6 648/1/6
f 648/1/6 644/1/6 649/1/6
f 646/1/6 640/1/6 651/1/6
f 651/1/6 640/1/6 652/1/6
f 649/1/6 650/1/6 653/1/6
f 648/1/6 649/1/6 653/1/6
f 653/1/6 650/1/6 654/1/6
f 652/1/6 640/1/6 655/1/6
f 655/1/6 640/1/6 656/1/6
f 654/1/6 650/1/6 657/1/6
f 652/1/6 655/1/6 659/1/6
f 656/1/6 640/1/6 660/1/6
f 657/1/6 658/1/6 661/1/6
f 654/1/6 657/1/6 661/1/6
f 661/1/6 658/1/6 662/1/6
f 652/1/6 659/1/6 663/1/6
f 659/1/6 660/1/6 663/1/6
f 660/1/6 640/1/6 664/1/6
f 663/1/6 660/1/6 664/1/6
f 662/1/6 658/1/6 665/1/6
f 665/1/6 658/1/6 666/1/6
f 666/1/6 658/1/6 668/1/6
f 667/1/6 668/1/6 669/1/6
f 668/1/6 658/1/6 670/1/6
f 669/1/6 668/1/6 670/1/6
f 667/1/6 669/1/6 672/1/6
f 664/1/6 640/1/6 674/1/6
f 671/1/6 672/1/6 676/1/6
f 676/1/6 672/1/6 677/1/6
f 672/1/6 669/1/6 678/1/6
f 677/1/6 672/1/6 678/1/6
f 676/1/6 677/1/6 679/1/6
f 675/1/6 676/1/6 679/1/6
f 679/1/6 677/1/6 680/1/6
f 673/1/6 674/1/6 682/1/6
f 675/1/6 679/1/6 683/1/6
f 683/1/6 684/1/6 685/1/6
f 681/1/6 682/1/6 686/1/6
f 683/1/6 685/1/6 687/1/6
f 685/1/6 686/1/6 687/1/6
f 675/1/6 683/1/6 687/1/6
f 686/1/6 682/1/6 688/1/6
f 687/1/6 686/1/6 688/1/6
f 674/1/6 640/1/6 688/1/6
f 682/1/6 674/1/6 688/1/6
f 689/1/6 690/1/6 691/1/6
f 691/1/6 690/1/6 692/1/6
f 689/1/6 691/1/6 693/1/6
f 692/1/6 690/1/6 694/1/6
f 689/1/6 693/1/6 695/1/6
f 693/1/6 694/1/6 695/1/6
f 694/1/6 690/1/6 696/1/6
f 695/1/6 694/1/6 696/1/6
f 696/1/6 690/1/6 697/1/6
f 698/1/6 699/1/6 700/1/6
f 700/1/6 699/1/6 701/1/6
f 701/1/6 699/1/6 702/1/6
f 701/1/6 702/1/6 705/1/6
f 702/1/6 703/1/6 705/1/6
f 705/1/6 703/1/6 706/1/6
f 706/1/6 703/1/6 707/1/6
f 704/1/6 705/1/6 710/1/6
f 705/1/6 706/1/6 710/1/6
f 708/1/6 709/1/6 711/1/6
f 709/1/6 710/1/6 711/1/6
f 710/1/6 706/1/6 712/1/6
f 711/1/6 710/1/6 712/1/6
f 708/1/6 711/1/6 713/1/6
f 713/1/6 711/1/6 714/1/6
f 714/1/6 711/1/6 715/1/6
f 715/1/6 711/1/6 716/1/6
f 717/1/6 718/1/6 719/1/6
f 719/1/6 718/1/6 720/1/6
f 720/1/6 718/1/6 721/1/6
f 721/1/6 718/1/6 722/1/6
f 720/1/6 721/1/6 723/1/6
f 723/1/6 721/1/6 724/1/6
f 725/1/6 726/1/6 728/1/6
f 728/1/6 726/1/6 729/1/6
f 727/1/6 728/1/6 729/1/6
f 729/1/6 726/1/6 730/1/6
f 727/1/6 729/1/6 732/1/6
f 731/1/6 732/1/6 733/1/6
f 732/1/6 729/1/6 734/1/6
f 733/1/6 732/1/6 734/1/6
f 737/2/6 738/2/6 739/2/6
f 739/2/6 738/2/6 740/2/6
f 735/2/6 736/2/6 741/2/6
f 741/2/6 736/2/6 742/2/6
f 737/2/6 739/2/6 743/2/6
f 743/2/6 739/2/6 744/2/6
