# MagicaVoxel @ ephtracy

# material
mtllib 2x1 - fade.mtl
usemtl palette

# normals
vn -1 0 0
vn 1 0 0
vn 0 -1 0
vn 0 1 0
vn 0 0 -1
vn 0 0 1

# texcoords
vt 0.642578 0.5
vt 0.841797 0.5

# verts
v 5 0 9
v 5 5 9
v 5 15 9
v 5 20 9
v 5 0 12
v 5 5 12
v 5 15 12
v 5 20 12
v 6 5 9
v 6 7 9
v 6 12 9
v 6 15 9
v 6 5 11
v 6 7 11
v 6 12 12
v 6 15 12
v 7 10 9
v 7 12 9
v 7 5 11
v 7 6 11
v 7 5 12
v 7 6 12
v 7 10 12
v 7 12 12
v 8 7 9
v 8 10 9
v 8 7 11
v 8 10 11
v 10 6 11
v 10 8 11
v 10 0 12
v 10 4 12
v 10 6 12
v 10 8 12
v 10 16 12
v 10 20 12
v 10 3 14
v 10 4 14
v 10 0 15
v 10 3 15
v 10 16 15
v 10 20 15
v 11 12 11
v 11 13 11
v 11 4 12
v 11 6 12
v 11 12 12
v 11 13 12
v 11 15 12
v 11 16 12
v 11 4 14
v 11 6 14
v 11 15 14
v 11 16 14
v 12 10 11
v 12 12 11
v 12 10 12
v 12 12 12
v 12 13 12
v 12 15 12
v 12 15 14
v 12 16 14
v 12 13 15
v 12 16 15
v 13 8 11
v 13 10 11
v 13 6 12
v 13 8 12
v 13 10 12
v 13 13 12
v 13 3 14
v 13 5 14
v 13 6 14
v 13 9 14
v 13 10 14
v 13 3 15
v 13 5 15
v 13 9 15
v 13 13 15
v 14 7 14
v 14 9 14
v 14 7 15
v 14 9 15
v 15 0 15
v 15 3 15
v 15 19 15
v 15 20 15
v 15 0 18
v 15 3 18
v 15 19 18
v 15 20 18
v 17 6 14
v 17 8 14
v 17 3 15
v 17 4 15
v 17 6 15
v 17 8 15
v 17 16 15
v 17 19 15
v 17 3 18
v 17 4 18
v 17 16 18
v 17 19 18
v 18 6 15
v 18 8 15
v 18 6 17
v 18 8 17
v 19 5 14
v 19 6 14
v 19 8 14
v 19 10 14
v 19 4 15
v 19 5 15
v 19 10 15
v 19 16 15
v 19 6 17
v 19 8 17
v 19 4 18
v 19 10 18
v 19 16 18
v 8 10 11
v 8 12 11
v 8 10 12
v 8 12 12
v 9 12 11
v 9 13 11
v 9 12 12
v 9 13 12
v 15 7 14
v 15 8 14
v 15 7 15
v 15 8 15
v 16 8 14
v 16 10 14
v 16 8 15
v 16 10 15
v 20 0 9
v 20 10 9
v 20 20 9
v 20 0 18
v 20 10 18
v 20 20 18
v 5 0 9
v 5 0 12
v 10 0 12
v 10 0 15
v 15 0 15
v 15 0 18
v 20 0 9
v 20 0 18
v 17 6 14
v 17 6 15
v 18 6 15
v 18 6 17
v 19 6 14
v 19 6 17
v 14 7 14
v 14 7 15
v 15 7 14
v 15 7 15
v 15 8 14
v 15 8 15
v 16 8 14
v 16 8 15
v 13 9 14
v 13 9 15
v 14 9 14
v 14 9 15
v 7 10 9
v 7 10 12
v 8 10 9
v 8 10 11
v 8 10 12
v 12 10 11
v 12 10 12
v 13 10 11
v 13 10 12
v 16 10 14
v 16 10 15
v 19 10 14
v 19 10 15
v 6 12 9
v 6 12 12
v 7 12 9
v 7 12 12
v 8 12 11
v 8 12 12
v 9 12 11
v 9 12 12
v 11 12 11
v 11 12 12
v 12 12 11
v 12 12 12
v 9 13 11
v 9 13 12
v 11 13 11
v 11 13 12
v 12 13 12
v 12 13 15
v 13 13 12
v 13 13 15
v 5 15 9
v 5 15 12
v 6 15 9
v 6 15 12
v 11 15 12
v 11 15 14
v 12 15 12
v 12 15 14
v 10 16 12
v 10 16 15
v 11 16 12
v 11 16 14
v 12 16 14
v 12 16 15
v 17 16 15
v 17 16 18
v 19 16 15
v 19 16 18
v 15 19 15
v 15 19 18
v 17 19 15
v 17 19 18
v 10 3 14
v 10 3 15
v 13 3 14
v 13 3 15
v 15 3 15
v 15 3 18
v 17 3 15
v 17 3 18
v 10 4 12
v 10 4 14
v 11 4 12
v 11 4 14
v 17 4 15
v 17 4 18
v 19 4 15
v 19 4 18
v 5 5 9
v 5 5 12
v 6 5 9
v 6 5 11
v 7 5 11
v 7 5 12
v 13 5 14
v 13 5 15
v 19 5 14
v 19 5 15
v 7 6 11
v 7 6 12
v 10 6 11
v 10 6 12
v 11 6 12
v 11 6 14
v 13 6 12
v 13 6 14
v 6 7 9
v 6 7 11
v 8 7 9
v 8 7 11
v 10 8 11
v 10 8 12
v 13 8 11
v 13 8 12
v 17 8 14
v 17 8 15
v 18 8 15
v 18 8 17
v 19 8 14
v 19 8 17
v 5 20 9
v 5 20 12
v 10 20 12
v 10 20 15
v 15 20 15
v 15 20 18
v 20 20 9
v 20 20 18
v 5 0 9
v 20 0 9
v 5 5 9
v 6 5 9
v 6 7 9
v 8 7 9
v 7 10 9
v 8 10 9
v 20 10 9
v 6 12 9
v 7 12 9
v 5 15 9
v 6 15 9
v 5 20 9
v 20 20 9
v 6 5 11
v 7 5 11
v 7 6 11
v 10 6 11
v 6 7 11
v 8 7 11
v 10 8 11
v 13 8 11
v 8 10 11
v 12 10 11
v 13 10 11
v 8 12 11
v 9 12 11
v 11 12 11
v 12 12 11
v 9 13 11
v 11 13 11
v 5 0 12
v 10 0 12
v 7 2 12
v 9 2 12
v 7 4 12
v 9 4 12
v 10 4 12
v 11 4 12
v 5 5 12
v 7 5 12
v 7 6 12
v 10 6 12
v 11 6 12
v 13 6 12
v 10 8 12
v 13 8 12
v 7 10 12
v 8 10 12
v 12 10 12
v 13 10 12
v 6 12 12
v 7 12 12
v 8 12 12
v 9 12 12
v 11 12 12
v 12 12 12
v 9 13 12
v 11 13 12
v 12 13 12
v 13 13 12
v 7 14 12
v 9 14 12
v 5 15 12
v 6 15 12
v 11 15 12
v 12 15 12
v 7 16 12
v 9 16 12
v 10 16 12
v 11 16 12
v 5 20 12
v 10 20 12
v 10 3 14
v 13 3 14
v 10 4 14
v 11 4 14
v 13 5 14
v 19 5 14
v 11 6 14
v 13 6 14
v 17 6 14
v 19 6 14
v 14 7 14
v 15 7 14
v 15 8 14
v 16 8 14
v 17 8 14
v 19 8 14
v 13 9 14
v 14 9 14
v 16 10 14
v 19 10 14
v 11 15 14
v 12 15 14
v 11 16 14
v 12 16 14
v 10 0 15
v 15 0 15
v 10 3 15
v 13 3 15
v 15 3 15
v 17 3 15
v 17 4 15
v 19 4 15
v 13 5 15
v 19 5 15
v 17 6 15
v 18 6 15
v 14 7 15
v 15 7 15
v 15 8 15
v 16 8 15
v 17 8 15
v 18 8 15
v 13 9 15
v 14 9 15
v 16 10 15
v 19 10 15
v 14 11 15
v 16 11 15
v 12 13 15
v 13 13 15
v 14 14 15
v 16 14 15
v 10 16 15
v 12 16 15
v 13 16 15
v 14 16 15
v 17 16 15
v 19 16 15
v 13 18 15
v 14 18 15
v 15 19 15
v 17 19 15
v 10 20 15
v 15 20 15
v 18 6 17
v 19 6 17
v 18 8 17
v 19 8 17
v 15 0 18
v 20 0 18
v 15 3 18
v 17 3 18
v 17 4 18
v 19 4 18
v 19 10 18
v 20 10 18
v 17 16 18
v 19 16 18
v 15 19 18
v 17 19 18
v 15 20 18
v 20 20 18

# faces
f 5/1/1 2/1/1 1/1/1
f 6/1/1 2/1/1 5/1/1
f 7/2/1 4/2/1 3/2/1
f 8/2/1 4/2/1 7/2/1
f 13/1/1 10/1/1 9/1/1
f 14/1/1 10/1/1 13/1/1
f 15/2/1 12/2/1 11/2/1
f 16/2/1 12/2/1 15/2/1
f 21/1/1 20/1/1 19/1/1
f 22/1/1 20/1/1 21/1/1
f 23/2/1 18/2/1 17/2/1
f 24/2/1 18/2/1 23/2/1
f 27/1/1 26/1/1 25/1/1
f 28/1/1 26/1/1 27/1/1
f 33/1/1 30/1/1 29/1/1
f 34/1/1 30/1/1 33/1/1
f 37/1/1 32/1/1 31/1/1
f 38/1/1 32/1/1 37/1/1
f 39/1/1 37/1/1 31/1/1
f 40/1/1 37/1/1 39/1/1
f 41/2/1 36/2/1 35/2/1
f 42/2/1 36/2/1 41/2/1
f 47/2/1 44/2/1 43/2/1
f 48/2/1 44/2/1 47/2/1
f 51/1/1 46/1/1 45/1/1
f 52/1/1 46/1/1 51/1/1
f 53/2/1 50/2/1 49/2/1
f 54/2/1 50/2/1 53/2/1
f 57/2/1 56/2/1 55/2/1
f 58/2/1 56/2/1 57/2/1
f 61/2/1 60/2/1 59/2/1
f 63/2/1 61/2/1 59/2/1
f 63/2/1 62/2/1 61/2/1
f 64/2/1 62/2/1 63/2/1
f 68/1/1 66/1/1 65/1/1
f 69/1/1 66/1/1 68/1/1
f 73/1/1 68/1/1 67/1/1
f 73/1/1 69/1/1 68/1/1
f 74/1/1 69/1/1 73/1/1
f 75/2/1 70/2/1 69/2/1
f 75/1/1 69/1/1 74/1/1
f 76/1/1 72/1/1 71/1/1
f 77/1/1 72/1/1 76/1/1
f 78/2/1 75/2/1 74/2/1
f 79/2/1 70/2/1 75/2/1
f 79/2/1 75/2/1 78/2/1
f 82/2/1 81/2/1 80/2/1
f 83/2/1 81/2/1 82/2/1
f 88/1/1 85/1/1 84/1/1
f 89/1/1 85/1/1 88/1/1
f 90/2/1 87/2/1 86/2/1
f 91/2/1 87/2/1 90/2/1
f 96/2/1 93/2/1 92/2/1
f 97/2/1 93/2/1 96/2/1
f 100/1/1 95/1/1 94/1/1
f 101/1/1 95/1/1 100/1/1
f 102/2/1 99/2/1 98/2/1
f 103/2/1 99/2/1 102/2/1
f 106/2/1 105/2/1 104/2/1
f 107/2/1 105/2/1 106/2/1
f 113/1/1 109/1/1 108/1/1
f 114/1/1 111/1/1 110/1/1
f 116/1/1 113/1/1 112/1/1
f 116/1/1 109/1/1 113/1/1
f 117/1/1 114/1/1 110/1/1
f 118/1/1 116/1/1 112/1/1
f 118/1/1 117/1/1 116/1/1
f 119/2/1 115/2/1 114/2/1
f 119/1/1 117/1/1 118/1/1
f 119/1/1 114/1/1 117/1/1
f 120/2/1 115/2/1 119/2/1
f 121/2/2 122/2/2 123/2/2
f 123/2/2 122/2/2 124/2/2
f 125/2/2 126/2/2 127/2/2
f 127/2/2 126/2/2 128/2/2
f 129/2/2 130/2/2 131/2/2
f 131/2/2 130/2/2 132/2/2
f 133/2/2 134/2/2 135/2/2
f 135/2/2 134/2/2 136/2/2
f 137/1/2 138/1/2 140/1/2
f 138/2/2 139/2/2 141/2/2
f 140/1/2 138/1/2 141/1/2
f 141/2/2 139/2/2 142/2/2
f 145/1/3 144/1/3 143/1/3
f 147/1/3 146/1/3 145/1/3
f 149/1/3 145/1/3 143/1/3
f 149/1/3 148/1/3 147/1/3
f 149/1/3 147/1/3 145/1/3
f 150/1/3 148/1/3 149/1/3
f 153/2/3 152/2/3 151/2/3
f 155/2/3 153/2/3 151/2/3
f 155/2/3 154/2/3 153/2/3
f 156/2/3 154/2/3 155/2/3
f 159/2/3 158/2/3 157/2/3
f 160/2/3 158/2/3 159/2/3
f 163/2/3 162/2/3 161/2/3
f 164/2/3 162/2/3 163/2/3
f 167/2/3 166/2/3 165/2/3
f 168/2/3 166/2/3 167/2/3
f 171/2/3 170/2/3 169/2/3
f 172/2/3 170/2/3 171/2/3
f 173/2/3 170/2/3 172/2/3
f 176/2/3 175/2/3 174/2/3
f 177/2/3 175/2/3 176/2/3
f 180/2/3 179/2/3 178/2/3
f 181/2/3 179/2/3 180/2/3
f 184/2/3 183/2/3 182/2/3
f 185/2/3 183/2/3 184/2/3
f 188/2/3 187/2/3 186/2/3
f 189/2/3 187/2/3 188/2/3
f 192/2/3 191/2/3 190/2/3
f 193/2/3 191/2/3 192/2/3
f 196/2/3 195/2/3 194/2/3
f 197/2/3 195/2/3 196/2/3
f 200/2/3 199/2/3 198/2/3
f 201/2/3 199/2/3 200/2/3
f 204/2/3 203/2/3 202/2/3
f 205/2/3 203/2/3 204/2/3
f 208/2/3 207/2/3 206/2/3
f 209/2/3 207/2/3 208/2/3
f 212/2/3 211/2/3 210/2/3
f 213/2/3 211/2/3 212/2/3
f 214/2/3 211/2/3 213/2/3
f 215/2/3 211/2/3 214/2/3
f 218/2/3 217/2/3 216/2/3
f 219/2/3 217/2/3 218/2/3
f 222/2/3 221/2/3 220/2/3
f 223/2/3 221/2/3 222/2/3
f 224/1/4 225/1/4 226/1/4
f 226/1/4 225/1/4 227/1/4
f 228/1/4 229/1/4 230/1/4
f 230/1/4 229/1/4 231/1/4
f 232/1/4 233/1/4 234/1/4
f 234/1/4 233/1/4 235/1/4
f 236/1/4 237/1/4 238/1/4
f 238/1/4 237/1/4 239/1/4
f 240/1/4 241/1/4 242/1/4
f 242/1/4 241/1/4 243/1/4
f 243/1/4 241/1/4 244/1/4
f 244/1/4 241/1/4 245/1/4
f 246/1/4 247/1/4 248/1/4
f 248/1/4 247/1/4 249/1/4
f 250/1/4 251/1/4 252/1/4
f 252/1/4 251/1/4 253/1/4
f 254/1/4 255/1/4 256/1/4
f 256/1/4 255/1/4 257/1/4
f 258/1/4 259/1/4 260/1/4
f 260/1/4 259/1/4 261/1/4
f 262/1/4 263/1/4 264/1/4
f 264/1/4 263/1/4 265/1/4
f 266/2/4 267/2/4 268/2/4
f 266/2/4 268/2/4 270/2/4
f 268/2/4 269/2/4 270/2/4
f 270/2/4 269/2/4 271/2/4
f 272/2/4 273/2/4 274/2/4
f 274/2/4 275/2/4 276/2/4
f 272/2/4 274/2/4 278/2/4
f 276/2/4 277/2/4 278/2/4
f 274/2/4 276/2/4 278/2/4
f 278/2/4 277/2/4 279/2/4
f 282/1/5 281/1/5 280/1/5
f 283/1/5 281/1/5 282/1/5
f 284/1/5 281/1/5 283/1/5
f 285/1/5 281/1/5 284/1/5
f 287/1/5 281/1/5 285/1/5
f 288/1/5 281/1/5 287/1/5
f 290/2/5 287/2/5 286/2/5
f 290/2/5 288/2/5 287/2/5
f 292/2/5 290/2/5 289/2/5
f 293/2/5 292/2/5 291/2/5
f 294/2/5 288/2/5 290/2/5
f 294/2/5 292/2/5 293/2/5
f 294/2/5 290/2/5 292/2/5
f 295/1/6 296/1/6 297/1/6
f 295/1/6 297/1/6 299/1/6
f 297/1/6 298/1/6 299/1/6
f 299/1/6 298/1/6 300/1/6
f 300/1/6 298/1/6 301/1/6
f 300/1/6 301/1/6 303/1/6
f 301/1/6 302/1/6 303/1/6
f 303/1/6 302/1/6 304/1/6
f 304/1/6 302/1/6 305/1/6
f 303/1/6 304/1/6 306/1/6
f 306/1/6 304/1/6 307/1/6
f 307/1/6 304/1/6 308/1/6
f 308/1/6 304/1/6 309/1/6
f 307/1/6 308/1/6 310/1/6
f 310/1/6 308/1/6 311/1/6
f 312/1/6 313/1/6 314/1/6
f 314/1/6 313/1/6 315/1/6
f 312/1/6 314/1/6 316/1/6
f 314/2/6 315/2/6 316/2/6
f 315/1/6 313/1/6 317/1/6
f 316/2/6 315/2/6 317/2/6
f 317/1/6 313/1/6 318/1/6
f 312/1/6 316/1/6 320/1/6
f 318/1/6 319/1/6 320/1/6
f 317/1/6 318/1/6 320/1/6
f 316/1/6 317/1/6 320/1/6
f 320/1/6 319/1/6 321/1/6
f 321/1/6 319/1/6 322/1/6
f 322/1/6 319/1/6 323/1/6
f 323/1/6 319/1/6 324/1/6
f 324/1/6 325/1/6 326/1/6
f 323/1/6 324/1/6 326/1/6
f 326/1/6 325/1/6 327/1/6
f 328/2/6 329/2/6 333/2/6
f 333/2/6 329/2/6 334/2/6
f 330/2/6 331/2/6 337/2/6
f 334/2/6 335/2/6 338/2/6
f 332/2/6 333/2/6 338/2/6
f 333/2/6 334/2/6 338/2/6
f 336/2/6 337/2/6 339/2/6
f 337/2/6 331/2/6 340/2/6
f 339/2/6 337/2/6 340/2/6
f 340/2/6 331/2/6 341/2/6
f 332/2/6 338/2/6 342/2/6
f 338/2/6 339/2/6 342/2/6
f 339/2/6 340/2/6 342/2/6
f 342/2/6 340/2/6 343/2/6
f 332/2/6 342/2/6 345/2/6
f 343/2/6 340/2/6 346/2/6
f 346/2/6 340/2/6 347/2/6
f 344/2/6 345/2/6 348/2/6
f 342/1/6 343/1/6 348/1/6
f 345/2/6 342/2/6 348/2/6
f 343/2/6 346/2/6 349/2/6
f 348/1/6 343/1/6 349/1/6
f 349/2/6 346/2/6 350/2/6
f 350/2/6 346/2/6 351/2/6
f 344/2/6 348/2/6 352/2/6
f 348/2/6 349/2/6 352/2/6
f 349/2/6 350/2/6 352/2/6
f 352/2/6 350/2/6 353/2/6
f 354/1/6 355/1/6 356/1/6
f 356/1/6 355/1/6 357/1/6
f 357/1/6 355/1/6 358/1/6
f 357/1/6 358/1/6 360/1/6
f 358/1/6 359/1/6 360/1/6
f 360/1/6 359/1/6 361/1/6
f 361/1/6 359/1/6 362/1/6
f 362/1/6 359/1/6 363/1/6
f 361/1/6 362/1/6 364/1/6
f 364/1/6 362/1/6 365/1/6
f 365/1/6 362/1/6 366/1/6
f 366/1/6 362/1/6 367/1/6
f 367/1/6 362/1/6 368/1/6
f 361/1/6 364/1/6 370/1/6
f 370/1/6 364/1/6 371/1/6
f 368/1/6 369/1/6 372/1/6
f 367/1/6 368/1/6 372/1/6
f 372/1/6 369/1/6 373/1/6
f 374/2/6 375/2/6 376/2/6
f 376/2/6 375/2/6 377/2/6
f 378/1/6 379/1/6 380/1/6
f 380/1/6 379/1/6 381/1/6
f 381/1/6 379/1/6 382/1/6
f 382/1/6 383/1/6 384/1/6
f 381/1/6 382/1/6 384/1/6
f 381/1/6 384/1/6 386/1/6
f 384/1/6 385/1/6 386/1/6
f 386/1/6 385/1/6 387/1/6
f 390/2/6 391/2/6 392/2/6
f 388/2/6 389/2/6 394/2/6
f 394/2/6 389/2/6 395/2/6
f 392/2/6 393/2/6 397/2/6
f 390/2/6 392/2/6 397/2/6
f 397/2/6 393/2/6 398/2/6
f 396/2/6 397/2/6 398/2/6
f 396/2/6 398/2/6 400/2/6
f 398/2/6 399/2/6 400/2/6
f 400/2/6 399/2/6 401/2/6
f 396/2/6 400/2/6 403/2/6
f 400/1/6 401/1/6 404/1/6
f 402/2/6 403/2/6 404/2/6
f 403/2/6 400/2/6 404/2/6
f 401/2/6 399/2/6 405/2/6
f 404/1/6 401/1/6 405/1/6
f 402/2/6 404/2/6 407/2/6
f 404/2/6 405/2/6 407/2/6
f 407/2/6 405/2/6 408/2/6
f 408/2/6 405/2/6 409/2/6
f 405/2/6 399/2/6 410/2/6
f 409/2/6 405/2/6 410/2/6
f 410/2/6 399/2/6 411/2/6
f 408/1/6 409/1/6 412/1/6
f 406/2/6 407/2/6 412/2/6
f 407/2/6 408/2/6 412/2/6
f 409/2/6 410/2/6 413/2/6
f 412/1/6 409/1/6 413/1/6
f 412/2/6 413/2/6 414/2/6
f 413/2/6 410/2/6 414/2/6
f 414/2/6 410/2/6 415/2/6
f 406/2/6 412/2/6 416/2/6
f 412/2/6 414/2/6 416/2/6
f 416/2/6 414/2/6 417/2/6
f 418/2/6 419/2/6 420/2/6
f 420/2/6 419/2/6 421/2/6
f 422/1/6 423/1/6 424/1/6
f 424/1/6 423/1/6 425/1/6
f 425/1/6 423/1/6 426/1/6
f 426/1/6 423/1/6 427/1/6
f 427/1/6 423/1/6 428/1/6
f 428/1/6 423/1/6 429/1/6
f 428/2/6 429/2/6 431/2/6
f 430/2/6 431/2/6 433/2/6
f 432/2/6 433/2/6 434/2/6
f 431/2/6 429/2/6 435/2/6
f 434/2/6 433/2/6 435/2/6
f 433/2/6 431/2/6 435/2/6
