# MagicaVoxel @ ephtracy

# material
mtllib cliff corner1.mtl
usemtl palette

# normals
vn -1 0 0
vn 1 0 0
vn 0 0 1
vn 0 0 -1
vn 0 -1 0
vn 0 1 0

# texcoords
vt 0.380859 0.5

# verts
v -4.5 0 2.5
v -4.5 0 -4.5
v -4.5 1 3.5
v -4.5 1 2.5
v -4.5 6 3.5
v -4.5 6 -4.5
v -0.5 2 4.5
v -0.5 2 3.5
v -0.5 4 4.5
v -0.5 4 3.5
v -2.5 5 3.5
v -2.5 5 1.5
v -2.5 6 3.5
v -2.5 6 1.5
v 0.5 0 2.5
v 0.5 0 0.5
v 0.5 1 2.5
v 0.5 1 0.5
v 1.5 1 3.5
v 1.5 1 1.5
v 1.5 2 3.5
v 1.5 2 1.5
v 1.5 4 3.5
v 1.5 4 2.5
v 1.5 5 3.5
v 1.5 5 2.5
v 1.5 5 1.5
v 1.5 5 -0.5
v 1.5 6 1.5
v 1.5 6 -0.5
v 2.5 0 0.5
v 2.5 0 -4.5
v 2.5 1 1.5
v 2.5 1 0.5
v 2.5 1 -4.5
v 2.5 2 4.5
v 2.5 2 3.5
v 2.5 2 1.5
v 2.5 2 0.5
v 2.5 4 4.5
v 2.5 4 3.5
v 3.5 1 0.5
v 3.5 1 -4.5
v 3.5 2 3.5
v 3.5 2 0.5
v 3.5 3 3.5
v 3.5 3 -2.5
v 3.5 4 2.5
v 3.5 4 0.5
v 3.5 5 2.5
v 3.5 5 0.5
v 3.5 5 -0.5
v 3.5 5 -2.5
v 3.5 6 -0.5
v 3.5 6 -4.5
v 4.5 3 3.5
v 4.5 3 -2.5
v 4.5 4 3.5
v 4.5 4 0.5
v 4.5 5 0.5
v 4.5 5 -2.5
v -0.5 2 4.5
v -0.5 4 4.5
v 2.5 2 4.5
v 2.5 4 4.5
v -4.5 1 3.5
v -4.5 6 3.5
v -2.5 5 3.5
v -2.5 6 3.5
v -0.5 2 3.5
v -0.5 4 3.5
v 1.5 1 3.5
v 1.5 2 3.5
v 1.5 4 3.5
v 1.5 5 3.5
v 2.5 2 3.5
v 2.5 4 3.5
v 3.5 2 3.5
v 3.5 3 3.5
v 4.5 3 3.5
v 4.5 4 3.5
v -4.5 0 2.5
v -4.5 1 2.5
v 0.5 0 2.5
v 0.5 1 2.5
v 1.5 4 2.5
v 1.5 5 2.5
v 3.5 4 2.5
v 3.5 5 2.5
v -2.5 5 1.5
v -2.5 6 1.5
v 1.5 1 1.5
v 1.5 2 1.5
v 1.5 5 1.5
v 1.5 6 1.5
v 2.5 1 1.5
v 2.5 2 1.5
v 0.5 0 0.5
v 0.5 1 0.5
v 2.5 0 0.5
v 2.5 1 0.5
v 2.5 2 0.5
v 3.5 1 0.5
v 3.5 2 0.5
v 3.5 4 0.5
v 3.5 5 0.5
v 4.5 4 0.5
v 4.5 5 0.5
v 1.5 5 -0.5
v 1.5 6 -0.5
v 3.5 5 -0.5
v 3.5 6 -0.5
v 3.5 3 -2.5
v 3.5 5 -2.5
v 4.5 3 -2.5
v 4.5 5 -2.5
v -4.5 0 -4.5
v -4.5 6 -4.5
v 2.5 0 -4.5
v 2.5 1 -4.5
v 3.5 1 -4.5
v 3.5 6 -4.5
v -4.5 0 2.5
v 0.5 0 2.5
v 0.5 0 0.5
v 2.5 0 0.5
v -4.5 0 -4.5
v 2.5 0 -4.5
v -4.5 1 3.5
v 1.5 1 3.5
v -4.5 1 2.5
v 0.5 1 2.5
v 1.5 1 1.5
v 2.5 1 1.5
v 0.5 1 0.5
v 2.5 1 0.5
v 3.5 1 0.5
v 2.5 1 -4.5
v 3.5 1 -4.5
v -0.5 2 4.5
v 2.5 2 4.5
v -0.5 2 3.5
v 1.5 2 3.5
v 2.5 2 3.5
v 3.5 2 3.5
v 1.5 2 1.5
v 2.5 2 1.5
v 2.5 2 0.5
v 3.5 2 0.5
v 3.5 3 3.5
v 4.5 3 3.5
v 3.5 3 -2.5
v 4.5 3 -2.5
v -0.5 4 4.5
v 2.5 4 4.5
v -0.5 4 3.5
v 1.5 4 3.5
v 2.5 4 3.5
v 4.5 4 3.5
v 1.5 4 2.5
v 3.5 4 2.5
v 3.5 4 0.5
v 4.5 4 0.5
v -2.5 5 3.5
v 1.5 5 3.5
v 1.5 5 2.5
v 3.5 5 2.5
v -2.5 5 1.5
v 1.5 5 1.5
v 3.5 5 0.5
v 4.5 5 0.5
v 1.5 5 -0.5
v 3.5 5 -0.5
v 3.5 5 -2.5
v 4.5 5 -2.5
v -4.5 6 3.5
v -2.5 6 3.5
v -2.5 6 1.5
v 1.5 6 1.5
v 1.5 6 -0.5
v 3.5 6 -0.5
v -4.5 6 -4.5
v 3.5 6 -4.5

# faces
f 4/1/1 2/1/1 1/1/1
f 5/1/1 4/1/1 3/1/1
f 6/1/1 2/1/1 4/1/1
f 6/1/1 4/1/1 5/1/1
f 9/1/1 8/1/1 7/1/1
f 10/1/1 8/1/1 9/1/1
f 11/1/2 12/1/2 13/1/2
f 13/1/2 12/1/2 14/1/2
f 15/1/2 16/1/2 17/1/2
f 17/1/2 16/1/2 18/1/2
f 19/1/2 20/1/2 21/1/2
f 21/1/2 20/1/2 22/1/2
f 23/1/2 24/1/2 25/1/2
f 25/1/2 24/1/2 26/1/2
f 27/1/2 28/1/2 29/1/2
f 29/1/2 28/1/2 30/1/2
f 31/1/2 32/1/2 34/1/2
f 34/1/2 32/1/2 35/1/2
f 33/1/2 34/1/2 38/1/2
f 38/1/2 34/1/2 39/1/2
f 36/1/2 37/1/2 40/1/2
f 40/1/2 37/1/2 41/1/2
f 42/1/2 43/1/2 45/1/2
f 44/1/2 45/1/2 46/1/2
f 45/1/2 43/1/2 47/1/2
f 46/1/2 45/1/2 47/1/2
f 48/1/2 49/1/2 50/1/2
f 50/1/2 49/1/2 51/1/2
f 47/1/2 43/1/2 53/1/2
f 52/1/2 53/1/2 54/1/2
f 53/1/2 43/1/2 55/1/2
f 54/1/2 53/1/2 55/1/2
f 56/1/2 57/1/2 58/1/2
f 58/1/2 57/1/2 59/1/2
f 59/1/2 57/1/2 60/1/2
f 60/1/2 57/1/2 61/1/2
f 64/1/3 63/1/3 62/1/3
f 65/1/3 63/1/3 64/1/3
f 68/1/3 67/1/3 66/1/3
f 69/1/3 67/1/3 68/1/3
f 70/1/3 68/1/3 66/1/3
f 71/1/3 68/1/3 70/1/3
f 72/1/3 70/1/3 66/1/3
f 73/1/3 70/1/3 72/1/3
f 74/1/3 68/1/3 71/1/3
f 75/1/3 68/1/3 74/1/3
f 78/1/3 77/1/3 76/1/3
f 79/1/3 77/1/3 78/1/3
f 80/1/3 77/1/3 79/1/3
f 81/1/3 77/1/3 80/1/3
f 84/1/3 83/1/3 82/1/3
f 85/1/3 83/1/3 84/1/3
f 88/1/3 87/1/3 86/1/3
f 89/1/3 87/1/3 88/1/3
f 94/1/3 91/1/3 90/1/3
f 95/1/3 91/1/3 94/1/3
f 96/1/3 93/1/3 92/1/3
f 97/1/3 93/1/3 96/1/3
f 100/1/3 99/1/3 98/1/3
f 101/1/3 99/1/3 100/1/3
f 103/1/3 102/1/3 101/1/3
f 104/1/3 102/1/3 103/1/3
f 107/1/3 106/1/3 105/1/3
f 108/1/3 106/1/3 107/1/3
f 111/1/3 110/1/3 109/1/3
f 112/1/3 110/1/3 111/1/3
f 113/1/4 114/1/4 115/1/4
f 115/1/4 114/1/4 116/1/4
f 117/1/4 118/1/4 119/1/4
f 119/1/4 118/1/4 120/1/4
f 120/1/4 118/1/4 121/1/4
f 121/1/4 118/1/4 122/1/4
f 125/1/5 124/1/5 123/1/5
f 127/1/5 125/1/5 123/1/5
f 127/1/5 126/1/5 125/1/5
f 128/1/5 126/1/5 127/1/5
f 131/1/5 130/1/5 129/1/5
f 132/1/5 130/1/5 131/1/5
f 133/1/5 130/1/5 132/1/5
f 135/1/5 133/1/5 132/1/5
f 135/1/5 134/1/5 133/1/5
f 136/1/5 134/1/5 135/1/5
f 138/1/5 137/1/5 136/1/5
f 139/1/5 137/1/5 138/1/5
f 142/1/5 141/1/5 140/1/5
f 143/1/5 141/1/5 142/1/5
f 144/1/5 141/1/5 143/1/5
f 146/1/5 145/1/5 144/1/5
f 146/1/5 144/1/5 143/1/5
f 147/1/5 145/1/5 146/1/5
f 148/1/5 145/1/5 147/1/5
f 149/1/5 145/1/5 148/1/5
f 152/1/5 151/1/5 150/1/5
f 153/1/5 151/1/5 152/1/5
f 154/1/6 155/1/6 156/1/6
f 156/1/6 155/1/6 157/1/6
f 157/1/6 155/1/6 158/1/6
f 158/1/6 159/1/6 160/1/6
f 157/1/6 158/1/6 160/1/6
f 160/1/6 159/1/6 161/1/6
f 161/1/6 159/1/6 162/1/6
f 162/1/6 159/1/6 163/1/6
f 164/1/6 165/1/6 166/1/6
f 164/1/6 166/1/6 168/1/6
f 166/1/6 167/1/6 168/1/6
f 168/1/6 167/1/6 169/1/6
f 169/1/6 167/1/6 170/1/6
f 169/1/6 170/1/6 172/1/6
f 170/1/6 171/1/6 172/1/6
f 172/1/6 171/1/6 173/1/6
f 173/1/6 171/1/6 174/1/6
f 174/1/6 171/1/6 175/1/6
f 176/1/6 177/1/6 178/1/6
f 178/1/6 179/1/6 180/1/6
f 176/1/6 178/1/6 182/1/6
f 180/1/6 181/1/6 182/1/6
f 178/1/6 180/1/6 182/1/6
f 182/1/6 181/1/6 183/1/6
