# MagicaVoxel @ ephtracy

# material
mtllib cliff inner corner 1.mtl
usemtl palette

# normals
vn -1 0 0
vn 1 0 0
vn 0 -1 0
vn 0 1 0
vn 0 0 -1
vn 0 0 1

# texcoords
vt 0.380859 0.5

# verts
v 0 5 12
v 0 12 12
v 0 4 13
v 0 5 13
v 0 4 18
v 0 12 18
v 1 2 14
v 1 4 14
v 1 2 17
v 1 4 17
v 4 0 13
v 4 4 13
v 4 2 14
v 4 4 14
v 4 2 17
v 4 4 17
v 4 0 18
v 4 4 18
v 5 0 12
v 5 5 12
v 5 0 13
v 5 5 13
v 12 0 12
v 12 12 12
v 12 0 18
v 12 12 18
v 4 0 13
v 4 0 18
v 5 0 12
v 5 0 13
v 12 0 12
v 12 0 18
v 1 2 14
v 1 2 17
v 4 2 14
v 4 2 17
v 0 4 13
v 0 4 18
v 1 4 14
v 1 4 17
v 4 4 13
v 4 4 14
v 4 4 17
v 4 4 18
v 0 5 12
v 0 5 13
v 5 5 12
v 5 5 13
v 0 12 12
v 0 12 18
v 12 12 12
v 12 12 18
v 5 0 12
v 12 0 12
v 0 5 12
v 5 5 12
v 0 12 12
v 12 12 12
v 4 0 13
v 5 0 13
v 0 4 13
v 4 4 13
v 0 5 13
v 5 5 13
v 1 2 14
v 4 2 14
v 1 4 14
v 4 4 14
v 1 2 17
v 4 2 17
v 1 4 17
v 4 4 17
v 4 0 18
v 12 0 18
v 0 4 18
v 4 4 18
v 0 12 18
v 12 12 18

# faces
f 4/1/1 2/1/1 1/1/1
f 5/1/1 4/1/1 3/1/1
f 6/1/1 2/1/1 4/1/1
f 6/1/1 4/1/1 5/1/1
f 9/1/1 8/1/1 7/1/1
f 10/1/1 8/1/1 9/1/1
f 13/1/1 12/1/1 11/1/1
f 14/1/1 12/1/1 13/1/1
f 15/1/1 13/1/1 11/1/1
f 17/1/1 15/1/1 11/1/1
f 17/1/1 16/1/1 15/1/1
f 18/1/1 16/1/1 17/1/1
f 21/1/1 20/1/1 19/1/1
f 22/1/1 20/1/1 21/1/1
f 23/1/2 24/1/2 25/1/2
f 25/1/2 24/1/2 26/1/2
f 30/1/3 28/1/3 27/1/3
f 31/1/3 30/1/3 29/1/3
f 32/1/3 28/1/3 30/1/3
f 32/1/3 30/1/3 31/1/3
f 35/1/3 34/1/3 33/1/3
f 36/1/3 34/1/3 35/1/3
f 39/1/3 38/1/3 37/1/3
f 40/1/3 38/1/3 39/1/3
f 41/1/3 39/1/3 37/1/3
f 42/1/3 39/1/3 41/1/3
f 43/1/3 38/1/3 40/1/3
f 44/1/3 38/1/3 43/1/3
f 47/1/3 46/1/3 45/1/3
f 48/1/3 46/1/3 47/1/3
f 49/1/4 50/1/4 51/1/4
f 51/1/4 50/1/4 52/1/4
f 56/1/5 54/1/5 53/1/5
f 57/1/5 56/1/5 55/1/5
f 58/1/5 54/1/5 56/1/5
f 58/1/5 56/1/5 57/1/5
f 62/1/5 60/1/5 59/1/5
f 63/1/5 62/1/5 61/1/5
f 64/1/5 60/1/5 62/1/5
f 64/1/5 62/1/5 63/1/5
f 67/1/5 66/1/5 65/1/5
f 68/1/5 66/1/5 67/1/5
f 69/1/6 70/1/6 71/1/6
f 71/1/6 70/1/6 72/1/6
f 73/1/6 74/1/6 76/1/6
f 75/1/6 76/1/6 77/1/6
f 76/1/6 74/1/6 78/1/6
f 77/1/6 76/1/6 78/1/6
