# MagicaVoxel @ ephtracy

# material
mtllib cliff joiner 2.mtl
usemtl palette

# normals
vn -1 0 0
vn 1 0 0
vn 0 -1 0
vn 0 1 0
vn 0 0 -1
vn 0 0 1

# texcoords
vt 0.404297 0.5

# verts
v 0 4 6
v 0 24 6
v 0 4 12
v 0 24 12
v 2 4 6
v 2 9 6
v 2 7 7
v 2 9 7
v 2 7 11
v 2 9 11
v 2 4 12
v 2 9 12
v 3 7 7
v 3 9 7
v 3 7 11
v 3 9 11
v 5 9 6
v 5 14 6
v 5 11 7
v 5 14 7
v 5 11 11
v 5 14 11
v 5 9 12
v 5 14 12
v 7 11 7
v 7 14 7
v 7 11 11
v 7 14 11
v 9 14 6
v 9 17 6
v 9 15 7
v 9 17 7
v 9 15 10
v 9 17 10
v 9 14 12
v 9 17 12
v 10 15 7
v 10 17 7
v 10 15 10
v 10 17 10
v 12 17 6
v 12 24 6
v 12 17 12
v 12 24 12
v 0 4 6
v 0 4 12
v 2 4 6
v 2 4 12
v 2 7 7
v 2 7 11
v 3 7 7
v 3 7 11
v 2 9 6
v 2 9 7
v 2 9 11
v 2 9 12
v 3 9 7
v 3 9 11
v 5 9 6
v 5 9 12
v 5 11 7
v 5 11 11
v 7 11 7
v 7 11 11
v 5 14 6
v 5 14 7
v 5 14 11
v 5 14 12
v 7 14 7
v 7 14 11
v 9 14 6
v 9 14 12
v 9 15 7
v 9 15 10
v 10 15 7
v 10 15 10
v 9 17 6
v 9 17 7
v 9 17 10
v 9 17 12
v 10 17 7
v 10 17 10
v 12 17 6
v 12 17 12
v 0 24 6
v 0 24 12
v 12 24 6
v 12 24 12
v 0 4 6
v 2 4 6
v 2 9 6
v 5 9 6
v 5 14 6
v 9 14 6
v 9 17 6
v 12 17 6
v 0 24 6
v 12 24 6
v 2 7 7
v 3 7 7
v 2 9 7
v 3 9 7
v 5 11 7
v 7 11 7
v 5 14 7
v 7 14 7
v 9 15 7
v 10 15 7
v 9 17 7
v 10 17 7
v 9 15 10
v 10 15 10
v 9 17 10
v 10 17 10
v 2 7 11
v 3 7 11
v 2 9 11
v 3 9 11
v 5 11 11
v 7 11 11
v 5 14 11
v 7 14 11
v 0 4 12
v 2 4 12
v 2 9 12
v 5 9 12
v 5 14 12
v 9 14 12
v 9 17 12
v 12 17 12
v 0 24 12
v 12 24 12

# faces
f 3/1/1 2/1/1 1/1/1
f 4/1/1 2/1/1 3/1/1
f 5/1/2 6/1/2 7/1/2
f 7/1/2 6/1/2 8/1/2
f 5/1/2 7/1/2 9/1/2
f 5/1/2 9/1/2 11/1/2
f 9/1/2 10/1/2 11/1/2
f 11/1/2 10/1/2 12/1/2
f 13/1/2 14/1/2 15/1/2
f 15/1/2 14/1/2 16/1/2
f 17/1/2 18/1/2 19/1/2
f 19/1/2 18/1/2 20/1/2
f 17/1/2 19/1/2 21/1/2
f 17/1/2 21/1/2 23/1/2
f 21/1/2 22/1/2 23/1/2
f 23/1/2 22/1/2 24/1/2
f 25/1/2 26/1/2 27/1/2
f 27/1/2 26/1/2 28/1/2
f 29/1/2 30/1/2 31/1/2
f 31/1/2 30/1/2 32/1/2
f 29/1/2 31/1/2 33/1/2
f 29/1/2 33/1/2 35/1/2
f 33/1/2 34/1/2 35/1/2
f 35/1/2 34/1/2 36/1/2
f 37/1/2 38/1/2 39/1/2
f 39/1/2 38/1/2 40/1/2
f 41/1/2 42/1/2 43/1/2
f 43/1/2 42/1/2 44/1/2
f 47/1/3 46/1/3 45/1/3
f 48/1/3 46/1/3 47/1/3
f 51/1/3 50/1/3 49/1/3
f 52/1/3 50/1/3 51/1/3
f 57/1/3 54/1/3 53/1/3
f 58/1/3 56/1/3 55/1/3
f 59/1/3 57/1/3 53/1/3
f 59/1/3 58/1/3 57/1/3
f 60/1/3 56/1/3 58/1/3
f 60/1/3 58/1/3 59/1/3
f 63/1/3 62/1/3 61/1/3
f 64/1/3 62/1/3 63/1/3
f 69/1/3 66/1/3 65/1/3
f 70/1/3 68/1/3 67/1/3
f 71/1/3 69/1/3 65/1/3
f 71/1/3 70/1/3 69/1/3
f 72/1/3 68/1/3 70/1/3
f 72/1/3 70/1/3 71/1/3
f 75/1/3 74/1/3 73/1/3
f 76/1/3 74/1/3 75/1/3
f 81/1/3 78/1/3 77/1/3
f 82/1/3 80/1/3 79/1/3
f 83/1/3 81/1/3 77/1/3
f 83/1/3 82/1/3 81/1/3
f 84/1/3 80/1/3 82/1/3
f 84/1/3 82/1/3 83/1/3
f 85/1/4 86/1/4 87/1/4
f 87/1/4 86/1/4 88/1/4
f 91/1/5 90/1/5 89/1/5
f 93/1/5 92/1/5 91/1/5
f 95/1/5 94/1/5 93/1/5
f 97/1/5 91/1/5 89/1/5
f 97/1/5 96/1/5 95/1/5
f 97/1/5 95/1/5 93/1/5
f 97/1/5 93/1/5 91/1/5
f 98/1/5 96/1/5 97/1/5
f 101/1/5 100/1/5 99/1/5
f 102/1/5 100/1/5 101/1/5
f 105/1/5 104/1/5 103/1/5
f 106/1/5 104/1/5 105/1/5
f 109/1/5 108/1/5 107/1/5
f 110/1/5 108/1/5 109/1/5
f 111/1/6 112/1/6 113/1/6
f 113/1/6 112/1/6 114/1/6
f 115/1/6 116/1/6 117/1/6
f 117/1/6 116/1/6 118/1/6
f 119/1/6 120/1/6 121/1/6
f 121/1/6 120/1/6 122/1/6
f 123/1/6 124/1/6 125/1/6
f 125/1/6 126/1/6 127/1/6
f 127/1/6 128/1/6 129/1/6
f 123/1/6 125/1/6 131/1/6
f 129/1/6 130/1/6 131/1/6
f 127/1/6 129/1/6 131/1/6
f 125/1/6 127/1/6 131/1/6
f 131/1/6 130/1/6 132/1/6
