# MagicaVoxel @ ephtracy

# material
mtllib corner 1x1.mtl
usemtl palette

# normals
vn -1 0 0
vn 1 0 0
vn 0 -1 0
vn 0 1 0
vn 0 0 -1
vn 0 0 1

# texcoords
vt 0.642578 0.5

# verts
v 5 15 9
v 5 20 9
v 5 15 12
v 5 20 12
v 6 11 9
v 6 15 9
v 6 11 10
v 6 15 10
v 7 12 10
v 7 15 10
v 7 12 12
v 7 15 12
v 9 9 9
v 9 11 9
v 9 11 10
v 9 12 10
v 9 9 12
v 9 12 12
v 10 17 12
v 10 20 12
v 10 17 15
v 10 20 15
v 11 8 9
v 11 9 9
v 11 8 11
v 11 9 11
v 12 16 12
v 12 17 12
v 12 16 14
v 12 17 14
v 13 7 9
v 13 8 9
v 13 8 11
v 13 9 11
v 13 7 12
v 13 9 12
v 13 14 12
v 13 16 12
v 13 16 14
v 13 17 14
v 13 14 15
v 13 17 15
v 15 6 9
v 15 7 9
v 15 6 10
v 15 7 10
v 15 11 10
v 15 13 10
v 15 11 11
v 15 13 11
v 15 19 15
v 15 20 15
v 15 19 18
v 15 20 18
v 16 5 9
v 16 6 9
v 16 6 10
v 16 7 10
v 16 5 12
v 16 7 12
v 17 10 12
v 17 14 12
v 17 10 15
v 17 14 15
v 19 15 15
v 19 19 15
v 19 15 18
v 19 19 18
v 14 11 10
v 14 13 10
v 14 11 11
v 14 13 11
v 20 5 9
v 20 20 9
v 20 5 12
v 20 10 12
v 20 10 15
v 20 15 15
v 20 15 18
v 20 20 18
v 16 5 9
v 16 5 12
v 20 5 9
v 20 5 12
v 15 6 9
v 15 6 10
v 16 6 9
v 16 6 10
v 13 7 9
v 13 7 12
v 15 7 9
v 15 7 10
v 16 7 10
v 16 7 12
v 11 8 9
v 11 8 11
v 13 8 9
v 13 8 11
v 9 9 9
v 9 9 12
v 11 9 9
v 11 9 11
v 13 9 11
v 13 9 12
v 17 10 12
v 17 10 15
v 20 10 12
v 20 10 15
v 6 11 9
v 6 11 10
v 9 11 9
v 9 11 10
v 7 12 10
v 7 12 12
v 9 12 10
v 9 12 12
v 14 13 10
v 14 13 11
v 15 13 10
v 15 13 11
v 13 14 12
v 13 14 15
v 17 14 12
v 17 14 15
v 5 15 9
v 5 15 12
v 6 15 9
v 6 15 10
v 7 15 10
v 7 15 12
v 19 15 15
v 19 15 18
v 20 15 15
v 20 15 18
v 12 16 12
v 12 16 14
v 13 16 12
v 13 16 14
v 10 17 12
v 10 17 15
v 12 17 12
v 12 17 14
v 13 17 14
v 13 17 15
v 15 19 15
v 15 19 18
v 19 19 15
v 19 19 18
v 14 11 10
v 14 11 11
v 15 11 10
v 15 11 11
v 5 20 9
v 5 20 12
v 10 20 12
v 10 20 15
v 15 20 15
v 15 20 18
v 20 20 9
v 20 20 18
v 16 5 9
v 20 5 9
v 15 6 9
v 16 6 9
v 13 7 9
v 15 7 9
v 11 8 9
v 13 8 9
v 9 9 9
v 11 9 9
v 6 11 9
v 9 11 9
v 5 15 9
v 6 15 9
v 5 20 9
v 20 20 9
v 14 11 11
v 15 11 11
v 14 13 11
v 15 13 11
v 15 6 10
v 16 6 10
v 15 7 10
v 16 7 10
v 6 11 10
v 9 11 10
v 14 11 10
v 15 11 10
v 7 12 10
v 9 12 10
v 14 13 10
v 15 13 10
v 6 15 10
v 7 15 10
v 11 8 11
v 13 8 11
v 11 9 11
v 13 9 11
v 16 5 12
v 20 5 12
v 13 7 12
v 16 7 12
v 9 9 12
v 13 9 12
v 17 10 12
v 20 10 12
v 7 12 12
v 9 12 12
v 13 14 12
v 17 14 12
v 5 15 12
v 7 15 12
v 12 16 12
v 13 16 12
v 10 17 12
v 12 17 12
v 5 20 12
v 10 20 12
v 12 16 14
v 13 16 14
v 12 17 14
v 13 17 14
v 17 10 15
v 20 10 15
v 13 14 15
v 17 14 15
v 19 15 15
v 20 15 15
v 10 17 15
v 13 17 15
v 15 19 15
v 19 19 15
v 10 20 15
v 15 20 15
v 19 15 18
v 20 15 18
v 15 19 18
v 19 19 18
v 15 20 18
v 20 20 18

# faces
f 3/1/1 2/1/1 1/1/1
f 4/1/1 2/1/1 3/1/1
f 7/1/1 6/1/1 5/1/1
f 8/1/1 6/1/1 7/1/1
f 11/1/1 10/1/1 9/1/1
f 12/1/1 10/1/1 11/1/1
f 15/1/1 14/1/1 13/1/1
f 17/1/1 15/1/1 13/1/1
f 17/1/1 16/1/1 15/1/1
f 18/1/1 16/1/1 17/1/1
f 21/1/1 20/1/1 19/1/1
f 22/1/1 20/1/1 21/1/1
f 25/1/1 24/1/1 23/1/1
f 26/1/1 24/1/1 25/1/1
f 29/1/1 28/1/1 27/1/1
f 30/1/1 28/1/1 29/1/1
f 33/1/1 32/1/1 31/1/1
f 35/1/1 33/1/1 31/1/1
f 35/1/1 34/1/1 33/1/1
f 36/1/1 34/1/1 35/1/1
f 39/1/1 38/1/1 37/1/1
f 41/1/1 39/1/1 37/1/1
f 41/1/1 40/1/1 39/1/1
f 42/1/1 40/1/1 41/1/1
f 45/1/1 44/1/1 43/1/1
f 46/1/1 44/1/1 45/1/1
f 49/1/1 48/1/1 47/1/1
f 50/1/1 48/1/1 49/1/1
f 53/1/1 52/1/1 51/1/1
f 54/1/1 52/1/1 53/1/1
f 57/1/1 56/1/1 55/1/1
f 59/1/1 57/1/1 55/1/1
f 59/1/1 58/1/1 57/1/1
f 60/1/1 58/1/1 59/1/1
f 63/1/1 62/1/1 61/1/1
f 64/1/1 62/1/1 63/1/1
f 67/1/1 66/1/1 65/1/1
f 68/1/1 66/1/1 67/1/1
f 69/1/2 70/1/2 71/1/2
f 71/1/2 70/1/2 72/1/2
f 73/1/2 74/1/2 75/1/2
f 75/1/2 74/1/2 76/1/2
f 76/1/2 74/1/2 77/1/2
f 77/1/2 74/1/2 78/1/2
f 78/1/2 74/1/2 79/1/2
f 79/1/2 74/1/2 80/1/2
f 83/1/3 82/1/3 81/1/3
f 84/1/3 82/1/3 83/1/3
f 87/1/3 86/1/3 85/1/3
f 88/1/3 86/1/3 87/1/3
f 91/1/3 90/1/3 89/1/3
f 92/1/3 90/1/3 91/1/3
f 93/1/3 90/1/3 92/1/3
f 94/1/3 90/1/3 93/1/3
f 97/1/3 96/1/3 95/1/3
f 98/1/3 96/1/3 97/1/3
f 101/1/3 100/1/3 99/1/3
f 102/1/3 100/1/3 101/1/3
f 103/1/3 100/1/3 102/1/3
f 104/1/3 100/1/3 103/1/3
f 107/1/3 106/1/3 105/1/3
f 108/1/3 106/1/3 107/1/3
f 111/1/3 110/1/3 109/1/3
f 112/1/3 110/1/3 111/1/3
f 115/1/3 114/1/3 113/1/3
f 116/1/3 114/1/3 115/1/3
f 119/1/3 118/1/3 117/1/3
f 120/1/3 118/1/3 119/1/3
f 123/1/3 122/1/3 121/1/3
f 124/1/3 122/1/3 123/1/3
f 127/1/3 126/1/3 125/1/3
f 128/1/3 126/1/3 127/1/3
f 129/1/3 126/1/3 128/1/3
f 130/1/3 126/1/3 129/1/3
f 133/1/3 132/1/3 131/1/3
f 134/1/3 132/1/3 133/1/3
f 137/1/3 136/1/3 135/1/3
f 138/1/3 136/1/3 137/1/3
f 141/1/3 140/1/3 139/1/3
f 142/1/3 140/1/3 141/1/3
f 143/1/3 140/1/3 142/1/3
f 144/1/3 140/1/3 143/1/3
f 147/1/3 146/1/3 145/1/3
f 148/1/3 146/1/3 147/1/3
f 149/1/4 150/1/4 151/1/4
f 151/1/4 150/1/4 152/1/4
f 153/1/4 154/1/4 155/1/4
f 155/1/4 156/1/4 157/1/4
f 153/1/4 155/1/4 159/1/4
f 157/1/4 158/1/4 159/1/4
f 155/1/4 157/1/4 159/1/4
f 159/1/4 158/1/4 160/1/4
f 164/1/5 162/1/5 161/1/5
f 166/1/5 164/1/5 163/1/5
f 168/1/5 166/1/5 165/1/5
f 170/1/5 168/1/5 167/1/5
f 172/1/5 170/1/5 169/1/5
f 174/1/5 172/1/5 171/1/5
f 175/1/5 174/1/5 173/1/5
f 176/1/5 162/1/5 164/1/5
f 176/1/5 174/1/5 175/1/5
f 176/1/5 164/1/5 166/1/5
f 176/1/5 172/1/5 174/1/5
f 176/1/5 166/1/5 168/1/5
f 176/1/5 170/1/5 172/1/5
f 176/1/5 168/1/5 170/1/5
f 179/1/5 178/1/5 177/1/5
f 180/1/5 178/1/5 179/1/5
f 181/1/6 182/1/6 183/1/6
f 183/1/6 182/1/6 184/1/6
f 185/1/6 186/1/6 189/1/6
f 189/1/6 186/1/6 190/1/6
f 187/1/6 188/1/6 191/1/6
f 191/1/6 188/1/6 192/1/6
f 185/1/6 189/1/6 193/1/6
f 193/1/6 189/1/6 194/1/6
f 195/1/6 196/1/6 197/1/6
f 197/1/6 196/1/6 198/1/6
f 199/1/6 200/1/6 202/1/6
f 201/1/6 202/1/6 204/1/6
f 202/1/6 200/1/6 205/1/6
f 203/1/6 204/1/6 205/1/6
f 204/1/6 202/1/6 205/1/6
f 205/1/6 200/1/6 206/1/6
f 203/1/6 205/1/6 208/1/6
f 208/1/6 205/1/6 209/1/6
f 207/1/6 208/1/6 209/1/6
f 209/1/6 205/1/6 210/1/6
f 207/1/6 209/1/6 212/1/6
f 212/1/6 209/1/6 213/1/6
f 211/1/6 212/1/6 213/1/6
f 213/1/6 209/1/6 214/1/6
f 211/1/6 213/1/6 215/1/6
f 215/1/6 213/1/6 216/1/6
f 211/1/6 215/1/6 217/1/6
f 217/1/6 215/1/6 218/1/6
f 219/1/6 220/1/6 221/1/6
f 221/1/6 220/1/6 222/1/6
f 223/1/6 224/1/6 226/1/6
f 226/1/6 224/1/6 227/1/6
f 225/1/6 226/1/6 227/1/6
f 227/1/6 224/1/6 228/1/6
f 225/1/6 227/1/6 230/1/6
f 230/1/6 227/1/6 231/1/6
f 229/1/6 230/1/6 231/1/6
f 231/1/6 227/1/6 232/1/6
f 229/1/6 231/1/6 233/1/6
f 233/1/6 231/1/6 234/1/6
f 235/1/6 236/1/6 238/1/6
f 237/1/6 238/1/6 239/1/6
f 238/1/6 236/1/6 240/1/6
f 239/1/6 238/1/6 240/1/6
