# MagicaVoxel @ ephtracy

# material
mtllib crator.mtl
usemtl palette

# normals
vn -1 0 0
vn 1 0 0
vn 0 -1 0
vn 0 1 0
vn 0 0 -1
vn 0 0 1

# texcoords
vt 0.638672 0.5
vt 0.642578 0.5

# verts
v 0 0 15
v 0 20 15
v 0 0 24
v 0 7 24
v 0 14 24
v 0 20 24
v 0 7 27
v 0 14 27
v 1 4 24
v 1 7 24
v 1 14 24
v 1 17 24
v 1 4 27
v 1 7 27
v 1 14 27
v 1 17 27
v 2 7 27
v 2 15 27
v 2 7 29
v 2 15 29
v 3 17 24
v 3 20 24
v 3 17 27
v 3 20 27
v 4 1 24
v 4 4 24
v 4 1 27
v 4 4 27
v 4 5 27
v 4 7 27
v 4 5 29
v 4 7 29
v 5 15 27
v 5 19 27
v 5 15 29
v 5 19 29
v 6 2 27
v 6 5 27
v 6 2 29
v 6 5 29
v 9 16 27
v 9 17 27
v 9 16 29
v 9 17 29
v 10 0 24
v 10 1 24
v 10 0 27
v 10 1 27
v 12 12 23
v 12 14 23
v 12 15 23
v 12 14 26
v 12 15 26
v 12 12 27
v 12 15 27
v 13 9 23
v 13 12 23
v 13 9 27
v 13 12 27
v 14 10 27
v 14 16 27
v 14 10 29
v 14 16 29
v 15 6 23
v 15 9 23
v 15 6 27
v 15 9 27
v 16 4 27
v 16 10 27
v 16 4 29
v 16 10 29
v 5 7 27
v 5 14 27
v 5 7 29
v 5 14 29
v 6 9 23
v 6 13 23
v 6 9 27
v 6 13 27
v 6 14 27
v 6 17 27
v 6 14 29
v 6 17 29
v 7 13 23
v 7 15 23
v 7 13 27
v 7 15 27
v 8 4 27
v 8 7 27
v 8 4 29
v 8 7 29
v 9 6 23
v 9 9 23
v 9 6 27
v 9 9 27
v 11 18 27
v 11 19 27
v 11 18 29
v 11 19 29
v 12 19 24
v 12 20 24
v 12 19 27
v 12 20 27
v 14 2 27
v 14 3 27
v 14 2 29
v 14 3 29
v 15 0 24
v 15 1 24
v 15 0 27
v 15 1 27
v 15 14 27
v 15 18 27
v 15 14 29
v 15 18 29
v 16 16 24
v 16 19 24
v 16 11 27
v 16 14 27
v 16 16 27
v 16 19 27
v 16 11 29
v 16 14 29
v 18 13 24
v 18 16 24
v 18 3 27
v 18 11 27
v 18 13 27
v 18 16 27
v 18 3 29
v 18 11 29
v 19 1 24
v 19 6 24
v 19 10 24
v 19 13 24
v 19 1 27
v 19 6 27
v 19 10 27
v 19 13 27
v 20 0 15
v 20 20 15
v 20 0 24
v 20 6 24
v 20 10 24
v 20 20 24
v 20 6 27
v 20 10 27
v 0 0 15
v 0 0 24
v 10 0 24
v 10 0 27
v 15 0 24
v 15 0 27
v 20 0 15
v 20 0 24
v 4 1 24
v 4 1 27
v 10 1 24
v 10 1 27
v 15 1 24
v 15 1 27
v 19 1 24
v 19 1 27
v 6 2 27
v 6 2 29
v 14 2 27
v 14 2 29
v 14 3 27
v 14 3 29
v 18 3 27
v 18 3 29
v 1 4 24
v 1 4 27
v 4 4 24
v 4 4 27
v 4 5 27
v 4 5 29
v 6 5 27
v 6 5 29
v 19 6 24
v 19 6 27
v 20 6 24
v 20 6 27
v 0 7 24
v 0 7 27
v 1 7 24
v 1 7 27
v 2 7 27
v 2 7 29
v 4 7 27
v 4 7 29
v 13 9 23
v 13 9 27
v 15 9 23
v 15 9 27
v 14 10 27
v 14 10 29
v 16 10 27
v 16 10 29
v 12 12 23
v 12 12 27
v 13 12 23
v 13 12 27
v 6 13 23
v 6 13 27
v 7 13 23
v 7 13 27
v 5 14 27
v 5 14 29
v 6 14 27
v 6 14 29
v 7 15 23
v 7 15 27
v 12 15 23
v 12 15 26
v 12 15 27
v 9 16 27
v 9 16 29
v 14 16 27
v 14 16 29
v 6 17 27
v 6 17 29
v 9 17 27
v 9 17 29
v 8 4 27
v 8 4 29
v 16 4 27
v 16 4 29
v 9 6 23
v 9 6 27
v 15 6 23
v 15 6 27
v 5 7 27
v 5 7 29
v 8 7 27
v 8 7 29
v 6 9 23
v 6 9 27
v 9 9 23
v 9 9 27
v 19 10 24
v 19 10 27
v 20 10 24
v 20 10 27
v 16 11 27
v 16 11 29
v 18 11 27
v 18 11 29
v 18 13 24
v 18 13 27
v 19 13 24
v 19 13 27
v 0 14 24
v 0 14 27
v 1 14 24
v 1 14 27
v 15 14 27
v 15 14 29
v 16 14 27
v 16 14 29
v 2 15 27
v 2 15 29
v 5 15 27
v 5 15 29
v 16 16 24
v 16 16 27
v 18 16 24
v 18 16 27
v 1 17 24
v 1 17 27
v 3 17 24
v 3 17 27
v 11 18 27
v 11 18 29
v 15 18 27
v 15 18 29
v 5 19 27
v 5 19 29
v 11 19 27
v 11 19 29
v 12 19 24
v 12 19 27
v 16 19 24
v 16 19 27
v 0 20 15
v 0 20 24
v 3 20 24
v 3 20 27
v 12 20 24
v 12 20 27
v 20 20 15
v 20 20 24
v 0 0 15
v 20 0 15
v 0 20 15
v 20 20 15
v 9 6 23
v 15 6 23
v 6 9 23
v 9 9 23
v 13 9 23
v 15 9 23
v 12 12 23
v 13 12 23
v 6 13 23
v 7 13 23
v 12 14 23
v 7 15 23
v 12 15 23
v 0 0 24
v 10 0 24
v 15 0 24
v 20 0 24
v 4 1 24
v 10 1 24
v 15 1 24
v 19 1 24
v 1 4 24
v 4 4 24
v 19 6 24
v 20 6 24
v 0 7 24
v 1 7 24
v 19 10 24
v 20 10 24
v 18 13 24
v 19 13 24
v 0 14 24
v 1 14 24
v 16 16 24
v 18 16 24
v 1 17 24
v 3 17 24
v 12 19 24
v 16 19 24
v 0 20 24
v 3 20 24
v 12 20 24
v 20 20 24
v 10 0 27
v 15 0 27
v 4 1 27
v 10 1 27
v 15 1 27
v 19 1 27
v 6 2 27
v 14 2 27
v 14 3 27
v 18 3 27
v 1 4 27
v 4 4 27
v 8 4 27
v 16 4 27
v 4 5 27
v 6 5 27
v 9 6 27
v 15 6 27
v 19 6 27
v 20 6 27
v 0 7 27
v 1 7 27
v 2 7 27
v 4 7 27
v 5 7 27
v 8 7 27
v 6 9 27
v 9 9 27
v 13 9 27
v 15 9 27
v 14 10 27
v 16 10 27
v 19 10 27
v 20 10 27
v 16 11 27
v 18 11 27
v 12 12 27
v 13 12 27
v 6 13 27
v 7 13 27
v 18 13 27
v 19 13 27
v 0 14 27
v 1 14 27
v 5 14 27
v 6 14 27
v 15 14 27
v 16 14 27
v 2 15 27
v 5 15 27
v 7 15 27
v 12 15 27
v 9 16 27
v 14 16 27
v 16 16 27
v 18 16 27
v 1 17 27
v 3 17 27
v 6 17 27
v 9 17 27
v 11 18 27
v 15 18 27
v 5 19 27
v 11 19 27
v 12 19 27
v 16 19 27
v 3 20 27
v 12 20 27
v 6 2 29
v 14 2 29
v 14 3 29
v 18 3 29
v 8 4 29
v 16 4 29
v 4 5 29
v 6 5 29
v 2 7 29
v 4 7 29
v 5 7 29
v 8 7 29
v 14 10 29
v 16 10 29
v 16 11 29
v 18 11 29
v 5 14 29
v 6 14 29
v 15 14 29
v 16 14 29
v 2 15 29
v 5 15 29
v 9 16 29
v 14 16 29
v 6 17 29
v 9 17 29
v 11 18 29
v 15 18 29
v 5 19 29
v 11 19 29

# faces
f 3/2/1 2/2/1 1/2/1
f 4/2/1 2/2/1 3/2/1
f 5/2/1 2/2/1 4/2/1
f 6/2/1 2/2/1 5/2/1
f 7/2/1 5/2/1 4/2/1
f 8/2/1 5/2/1 7/2/1
f 13/2/1 10/2/1 9/2/1
f 14/2/1 10/2/1 13/2/1
f 15/2/1 12/2/1 11/2/1
f 16/2/1 12/2/1 15/2/1
f 19/2/1 18/2/1 17/2/1
f 20/2/1 18/2/1 19/2/1
f 23/2/1 22/2/1 21/2/1
f 24/2/1 22/2/1 23/2/1
f 27/2/1 26/2/1 25/2/1
f 28/2/1 26/2/1 27/2/1
f 31/2/1 30/2/1 29/2/1
f 32/2/1 30/2/1 31/2/1
f 35/2/1 34/2/1 33/2/1
f 36/2/1 34/2/1 35/2/1
f 39/2/1 38/2/1 37/2/1
f 40/2/1 38/2/1 39/2/1
f 43/2/1 42/2/1 41/2/1
f 44/2/1 42/2/1 43/2/1
f 47/2/1 46/2/1 45/2/1
f 48/2/1 46/2/1 47/2/1
f 52/1/1 50/1/1 49/1/1
f 52/2/1 51/2/1 50/2/1
f 53/2/1 51/2/1 52/2/1
f 54/1/1 52/1/1 49/1/1
f 54/1/1 53/1/1 52/1/1
f 55/1/1 53/1/1 54/1/1
f 58/1/1 57/1/1 56/1/1
f 59/1/1 57/1/1 58/1/1
f 62/2/1 61/2/1 60/2/1
f 63/2/1 61/2/1 62/2/1
f 66/1/1 65/1/1 64/1/1
f 67/1/1 65/1/1 66/1/1
f 70/2/1 69/2/1 68/2/1
f 71/2/1 69/2/1 70/2/1
f 72/2/2 73/2/2 74/2/2
f 74/2/2 73/2/2 75/2/2
f 76/1/2 77/1/2 78/1/2
f 78/1/2 77/1/2 79/1/2
f 80/2/2 81/2/2 82/2/2
f 82/2/2 81/2/2 83/2/2
f 84/1/2 85/1/2 86/1/2
f 86/1/2 85/1/2 87/1/2
f 88/2/2 89/2/2 90/2/2
f 90/2/2 89/2/2 91/2/2
f 92/1/2 93/1/2 94/1/2
f 94/1/2 93/1/2 95/1/2
f 96/2/2 97/2/2 98/2/2
f 98/2/2 97/2/2 99/2/2
f 100/2/2 101/2/2 102/2/2
f 102/2/2 101/2/2 103/2/2
f 104/2/2 105/2/2 106/2/2
f 106/2/2 105/2/2 107/2/2
f 108/2/2 109/2/2 110/2/2
f 110/2/2 109/2/2 111/2/2
f 112/2/2 113/2/2 114/2/2
f 114/2/2 113/2/2 115/2/2
f 116/2/2 117/2/2 120/2/2
f 120/2/2 117/2/2 121/2/2
f 118/2/2 119/2/2 122/2/2
f 122/2/2 119/2/2 123/2/2
f 124/2/2 125/2/2 128/2/2
f 128/2/2 125/2/2 129/2/2
f 126/2/2 127/2/2 130/2/2
f 130/2/2 127/2/2 131/2/2
f 132/2/2 133/2/2 136/2/2
f 136/2/2 133/2/2 137/2/2
f 134/2/2 135/2/2 138/2/2
f 138/2/2 135/2/2 139/2/2
f 140/2/2 141/2/2 142/2/2
f 142/2/2 141/2/2 143/2/2
f 143/2/2 141/2/2 144/2/2
f 144/2/2 141/2/2 145/2/2
f 143/2/2 144/2/2 146/2/2
f 146/2/2 144/2/2 147/2/2
f 150/2/3 149/2/3 148/2/3
f 152/2/3 150/2/3 148/2/3
f 152/2/3 151/2/3 150/2/3
f 153/2/3 151/2/3 152/2/3
f 154/2/3 152/2/3 148/2/3
f 155/2/3 152/2/3 154/2/3
f 158/2/3 157/2/3 156/2/3
f 159/2/3 157/2/3 158/2/3
f 162/2/3 161/2/3 160/2/3
f 163/2/3 161/2/3 162/2/3
f 166/2/3 165/2/3 164/2/3
f 167/2/3 165/2/3 166/2/3
f 170/2/3 169/2/3 168/2/3
f 171/2/3 169/2/3 170/2/3
f 174/2/3 173/2/3 172/2/3
f 175/2/3 173/2/3 174/2/3
f 178/2/3 177/2/3 176/2/3
f 179/2/3 177/2/3 178/2/3
f 182/2/3 181/2/3 180/2/3
f 183/2/3 181/2/3 182/2/3
f 186/2/3 185/2/3 184/2/3
f 187/2/3 185/2/3 186/2/3
f 190/2/3 189/2/3 188/2/3
f 191/2/3 189/2/3 190/2/3
f 194/1/3 193/1/3 192/1/3
f 195/1/3 193/1/3 194/1/3
f 198/2/3 197/2/3 196/2/3
f 199/2/3 197/2/3 198/2/3
f 202/1/3 201/1/3 200/1/3
f 203/1/3 201/1/3 202/1/3
f 206/1/3 205/1/3 204/1/3
f 207/1/3 205/1/3 206/1/3
f 210/2/3 209/2/3 208/2/3
f 211/2/3 209/2/3 210/2/3
f 214/1/3 213/1/3 212/1/3
f 215/1/3 213/1/3 214/1/3
f 216/1/3 213/1/3 215/1/3
f 219/2/3 218/2/3 217/2/3
f 220/2/3 218/2/3 219/2/3
f 223/2/3 222/2/3 221/2/3
f 224/2/3 222/2/3 223/2/3
f 225/2/4 226/2/4 227/2/4
f 227/2/4 226/2/4 228/2/4
f 229/1/4 230/1/4 231/1/4
f 231/1/4 230/1/4 232/1/4
f 233/2/4 234/2/4 235/2/4
f 235/2/4 234/2/4 236/2/4
f 237/1/4 238/1/4 239/1/4
f 239/1/4 238/1/4 240/1/4
f 241/2/4 242/2/4 243/2/4
f 243/2/4 242/2/4 244/2/4
f 245/2/4 246/2/4 247/2/4
f 247/2/4 246/2/4 248/2/4
f 249/2/4 250/2/4 251/2/4
f 251/2/4 250/2/4 252/2/4
f 253/2/4 254/2/4 255/2/4
f 255/2/4 254/2/4 256/2/4
f 257/2/4 258/2/4 259/2/4
f 259/2/4 258/2/4 260/2/4
f 261/2/4 262/2/4 263/2/4
f 263/2/4 262/2/4 264/2/4
f 265/2/4 266/2/4 267/2/4
f 267/2/4 266/2/4 268/2/4
f 269/2/4 270/2/4 271/2/4
f 271/2/4 270/2/4 272/2/4
f 273/2/4 274/2/4 275/2/4
f 275/2/4 274/2/4 276/2/4
f 277/2/4 278/2/4 279/2/4
f 279/2/4 278/2/4 280/2/4
f 281/2/4 282/2/4 283/2/4
f 283/2/4 282/2/4 284/2/4
f 285/2/4 286/2/4 287/2/4
f 285/2/4 287/2/4 289/2/4
f 287/2/4 288/2/4 289/2/4
f 289/2/4 288/2/4 290/2/4
f 285/2/4 289/2/4 291/2/4
f 291/2/4 289/2/4 292/2/4
f 295/2/5 294/2/5 293/2/5
f 296/2/5 294/2/5 295/2/5
f 297/1/6 298/1/6 300/1/6
f 300/1/6 298/1/6 301/1/6
f 301/1/6 298/1/6 302/1/6
f 299/1/6 300/1/6 303/1/6
f 300/1/6 301/1/6 303/1/6
f 303/1/6 301/1/6 304/1/6
f 299/1/6 303/1/6 305/1/6
f 305/1/6 303/1/6 306/1/6
f 306/1/6 303/1/6 307/1/6
f 306/1/6 307/1/6 308/1/6
f 308/1/6 307/1/6 309/1/6
f 310/2/6 311/2/6 314/2/6
f 314/2/6 311/2/6 315/2/6
f 312/2/6 313/2/6 316/2/6
f 316/2/6 313/2/6 317/2/6
f 310/2/6 314/2/6 318/2/6
f 318/2/6 314/2/6 319/2/6
f 317/2/6 313/2/6 320/2/6
f 320/2/6 313/2/6 321/2/6
f 310/2/6 318/2/6 322/2/6
f 322/2/6 318/2/6 323/2/6
f 324/2/6 325/2/6 327/2/6
f 326/2/6 327/2/6 331/2/6
f 328/2/6 329/2/6 332/2/6
f 330/2/6 331/2/6 335/2/6
f 332/2/6 333/2/6 336/2/6
f 328/2/6 332/2/6 336/2/6
f 336/2/6 333/2/6 337/2/6
f 334/2/6 335/2/6 338/2/6
f 327/2/6 325/2/6 339/2/6
f 338/2/6 335/2/6 339/2/6
f 331/2/6 327/2/6 339/2/6
f 335/2/6 331/2/6 339/2/6
f 340/2/6 341/2/6 343/2/6
f 343/2/6 341/2/6 344/2/6
f 342/2/6 343/2/6 346/2/6
f 344/2/6 345/2/6 346/2/6
f 343/2/6 344/2/6 346/2/6
f 346/2/6 345/2/6 347/2/6
f 347/2/6 345/2/6 348/2/6
f 348/2/6 345/2/6 349/2/6
f 342/2/6 346/2/6 351/2/6
f 351/2/6 346/2/6 354/2/6
f 350/2/6 351/2/6 354/2/6
f 354/2/6 346/2/6 355/2/6
f 352/1/6 353/1/6 356/1/6
f 356/1/6 353/1/6 357/1/6
f 349/2/6 345/2/6 358/2/6
f 350/2/6 354/2/6 361/2/6
f 361/2/6 354/2/6 362/2/6
f 362/2/6 354/2/6 363/2/6
f 352/1/6 356/1/6 365/1/6
f 364/1/6 365/1/6 366/1/6
f 365/1/6 356/1/6 367/1/6
f 366/1/6 365/1/6 367/1/6
f 357/1/6 353/1/6 369/1/6
f 368/1/6 369/1/6 370/1/6
f 369/1/6 353/1/6 371/1/6
f 370/1/6 369/1/6 371/1/6
f 349/2/6 358/2/6 372/2/6
f 358/2/6 359/2/6 372/2/6
f 372/2/6 359/2/6 373/2/6
f 349/2/6 372/2/6 375/2/6
f 368/1/6 370/1/6 377/1/6
f 364/1/6 366/1/6 378/1/6
f 374/2/6 375/2/6 380/2/6
f 375/2/6 372/2/6 380/2/6
f 380/2/6 372/2/6 381/2/6
f 360/2/6 361/2/6 382/2/6
f 361/2/6 362/2/6 382/2/6
f 382/2/6 362/2/6 383/2/6
f 378/1/6 379/1/6 384/1/6
f 364/1/6 378/1/6 384/1/6
f 384/1/6 379/1/6 385/1/6
f 374/2/6 380/2/6 387/2/6
f 383/2/6 362/2/6 388/2/6
f 385/1/6 379/1/6 390/1/6
f 376/1/6 377/1/6 391/1/6
f 390/1/6 391/1/6 392/1/6
f 377/1/6 370/1/6 393/1/6
f 392/1/6 391/1/6 393/1/6
f 391/1/6 377/1/6 393/1/6
f 386/2/6 387/2/6 394/2/6
f 387/2/6 380/2/6 394/2/6
f 394/2/6 380/2/6 395/2/6
f 388/2/6 389/2/6 396/2/6
f 383/2/6 388/2/6 396/2/6
f 396/2/6 389/2/6 397/2/6
f 385/1/6 390/1/6 398/1/6
f 390/1/6 392/1/6 398/1/6
f 398/1/6 392/1/6 399/1/6
f 386/2/6 394/2/6 401/2/6
f 397/2/6 389/2/6 402/2/6
f 400/2/6 401/2/6 403/2/6
f 403/2/6 401/2/6 404/2/6
f 401/2/6 394/2/6 405/2/6
f 404/2/6 401/2/6 405/2/6
f 397/2/6 402/2/6 406/2/6
f 403/2/6 404/2/6 406/2/6
f 402/2/6 403/2/6 406/2/6
f 406/2/6 404/2/6 407/2/6
f 408/2/6 409/2/6 410/2/6
f 408/2/6 410/2/6 412/2/6
f 410/2/6 411/2/6 412/2/6
f 412/2/6 411/2/6 413/2/6
f 408/2/6 412/2/6 415/2/6
f 414/2/6 415/2/6 417/2/6
f 417/2/6 415/2/6 418/2/6
f 415/2/6 412/2/6 419/2/6
f 418/2/6 415/2/6 419/2/6
f 413/2/6 411/2/6 421/2/6
f 421/2/6 411/2/6 422/2/6
f 420/2/6 421/2/6 422/2/6
f 422/2/6 411/2/6 423/2/6
f 416/2/6 417/2/6 424/2/6
f 417/2/6 418/2/6 424/2/6
f 420/2/6 422/2/6 426/2/6
f 426/2/6 422/2/6 427/2/6
f 424/2/6 425/2/6 428/2/6
f 416/2/6 424/2/6 428/2/6
f 428/2/6 425/2/6 429/2/6
f 420/2/6 426/2/6 431/2/6
f 429/2/6 425/2/6 432/2/6
f 430/2/6 431/2/6 433/2/6
f 433/2/6 431/2/6 434/2/6
f 432/2/6 433/2/6 434/2/6
f 431/2/6 426/2/6 435/2/6
f 434/2/6 431/2/6 435/2/6
f 429/2/6 432/2/6 436/2/6
f 432/2/6 434/2/6 436/2/6
f 436/2/6 434/2/6 437/2/6
