# MagicaVoxel @ ephtracy

# material
mtllib joiner 1x2.mtl
usemtl palette

# normals
vn -1 0 0
vn 1 0 0
vn 0 -1 0
vn 0 1 0
vn 0 0 -1
vn 0 0 1

# texcoords
vt 0.642578 0.5

# verts
v 5 17 9
v 5 20 9
v 5 17 12
v 5 20 12
v 6 14 9
v 6 17 9
v 6 14 12
v 6 17 12
v 8 11 9
v 8 14 9
v 8 11 12
v 8 14 12
v 10 17 12
v 10 20 12
v 10 17 15
v 10 20 15
v 11 9 9
v 11 11 9
v 11 9 12
v 11 11 12
v 12 15 12
v 12 17 12
v 12 15 15
v 12 17 15
v 14 8 9
v 14 9 9
v 14 8 12
v 14 9 12
v 15 13 12
v 15 15 12
v 15 13 15
v 15 15 15
v 15 19 15
v 15 20 15
v 15 19 18
v 15 20 18
v 18 6 9
v 18 8 9
v 18 6 12
v 18 8 12
v 20 11 12
v 20 13 12
v 20 11 15
v 20 13 15
v 20 17 15
v 20 19 15
v 20 17 17
v 20 19 17
v 22 5 9
v 22 6 9
v 22 5 12
v 22 6 12
v 24 2 9
v 24 5 9
v 24 2 12
v 24 5 12
v 24 15 15
v 24 17 15
v 24 17 17
v 24 19 17
v 24 15 18
v 24 19 18
v 25 0 9
v 25 2 9
v 25 0 12
v 25 2 12
v 25 8 12
v 25 11 12
v 25 8 15
v 25 11 15
v 28 4 12
v 28 8 12
v 28 4 15
v 28 8 15
v 28 11 15
v 28 15 15
v 28 11 17
v 28 15 17
v 30 0 12
v 30 4 12
v 30 0 15
v 30 4 15
v 31 9 15
v 31 11 15
v 31 11 17
v 31 15 17
v 31 9 18
v 31 15 18
v 34 4 15
v 34 9 15
v 34 4 18
v 34 9 18
v 35 0 15
v 35 4 15
v 35 0 18
v 35 4 18
v 40 0 9
v 40 20 9
v 40 0 18
v 40 20 18
v 25 0 9
v 25 0 12
v 30 0 12
v 30 0 15
v 35 0 15
v 35 0 18
v 40 0 9
v 40 0 18
v 24 2 9
v 24 2 12
v 25 2 9
v 25 2 12
v 28 4 12
v 28 4 15
v 30 4 12
v 30 4 15
v 34 4 15
v 34 4 18
v 35 4 15
v 35 4 18
v 22 5 9
v 22 5 12
v 24 5 9
v 24 5 12
v 18 6 9
v 18 6 12
v 22 6 9
v 22 6 12
v 14 8 9
v 14 8 12
v 18 8 9
v 18 8 12
v 25 8 12
v 25 8 15
v 28 8 12
v 28 8 15
v 11 9 9
v 11 9 12
v 14 9 9
v 14 9 12
v 31 9 15
v 31 9 18
v 34 9 15
v 34 9 18
v 8 11 9
v 8 11 12
v 11 11 9
v 11 11 12
v 20 11 12
v 20 11 15
v 25 11 12
v 25 11 15
v 28 11 15
v 28 11 17
v 31 11 15
v 31 11 17
v 15 13 12
v 15 13 15
v 20 13 12
v 20 13 15
v 6 14 9
v 6 14 12
v 8 14 9
v 8 14 12
v 12 15 12
v 12 15 15
v 15 15 12
v 15 15 15
v 24 15 15
v 24 15 18
v 28 15 15
v 28 15 17
v 31 15 17
v 31 15 18
v 5 17 9
v 5 17 12
v 6 17 9
v 6 17 12
v 10 17 12
v 10 17 15
v 12 17 12
v 12 17 15
v 20 17 15
v 20 17 17
v 24 17 15
v 24 17 17
v 15 19 15
v 15 19 18
v 20 19 15
v 20 19 17
v 24 19 17
v 24 19 18
v 5 20 9
v 5 20 12
v 10 20 12
v 10 20 15
v 15 20 15
v 15 20 18
v 40 20 9
v 40 20 18
v 25 0 9
v 40 0 9
v 24 2 9
v 25 2 9
v 22 5 9
v 24 5 9
v 18 6 9
v 22 6 9
v 14 8 9
v 18 8 9
v 11 9 9
v 14 9 9
v 8 11 9
v 11 11 9
v 6 14 9
v 8 14 9
v 5 17 9
v 6 17 9
v 5 20 9
v 40 20 9
v 25 0 12
v 30 0 12
v 24 2 12
v 25 2 12
v 28 4 12
v 30 4 12
v 22 5 12
v 24 5 12
v 18 6 12
v 22 6 12
v 14 8 12
v 18 8 12
v 25 8 12
v 28 8 12
v 11 9 12
v 14 9 12
v 8 11 12
v 11 11 12
v 20 11 12
v 25 11 12
v 15 13 12
v 20 13 12
v 6 14 12
v 8 14 12
v 12 15 12
v 15 15 12
v 5 17 12
v 6 17 12
v 10 17 12
v 12 17 12
v 5 20 12
v 10 20 12
v 30 0 15
v 35 0 15
v 28 4 15
v 30 4 15
v 34 4 15
v 35 4 15
v 25 8 15
v 28 8 15
v 31 9 15
v 34 9 15
v 20 11 15
v 25 11 15
v 28 11 15
v 31 11 15
v 15 13 15
v 20 13 15
v 12 15 15
v 15 15 15
v 24 15 15
v 28 15 15
v 10 17 15
v 12 17 15
v 20 17 15
v 24 17 15
v 15 19 15
v 20 19 15
v 10 20 15
v 15 20 15
v 28 11 17
v 31 11 17
v 28 15 17
v 31 15 17
v 20 17 17
v 24 17 17
v 20 19 17
v 24 19 17
v 35 0 18
v 40 0 18
v 34 4 18
v 35 4 18
v 31 9 18
v 34 9 18
v 24 15 18
v 31 15 18
v 15 19 18
v 24 19 18
v 15 20 18
v 40 20 18

# faces
f 3/1/1 2/1/1 1/1/1
f 4/1/1 2/1/1 3/1/1
f 7/1/1 6/1/1 5/1/1
f 8/1/1 6/1/1 7/1/1
f 11/1/1 10/1/1 9/1/1
f 12/1/1 10/1/1 11/1/1
f 15/1/1 14/1/1 13/1/1
f 16/1/1 14/1/1 15/1/1
f 19/1/1 18/1/1 17/1/1
f 20/1/1 18/1/1 19/1/1
f 23/1/1 22/1/1 21/1/1
f 24/1/1 22/1/1 23/1/1
f 27/1/1 26/1/1 25/1/1
f 28/1/1 26/1/1 27/1/1
f 31/1/1 30/1/1 29/1/1
f 32/1/1 30/1/1 31/1/1
f 35/1/1 34/1/1 33/1/1
f 36/1/1 34/1/1 35/1/1
f 39/1/1 38/1/1 37/1/1
f 40/1/1 38/1/1 39/1/1
f 43/1/1 42/1/1 41/1/1
f 44/1/1 42/1/1 43/1/1
f 47/1/1 46/1/1 45/1/1
f 48/1/1 46/1/1 47/1/1
f 51/1/1 50/1/1 49/1/1
f 52/1/1 50/1/1 51/1/1
f 55/1/1 54/1/1 53/1/1
f 56/1/1 54/1/1 55/1/1
f 59/1/1 58/1/1 57/1/1
f 61/1/1 59/1/1 57/1/1
f 61/1/1 60/1/1 59/1/1
f 62/1/1 60/1/1 61/1/1
f 65/1/1 64/1/1 63/1/1
f 66/1/1 64/1/1 65/1/1
f 69/1/1 68/1/1 67/1/1
f 70/1/1 68/1/1 69/1/1
f 73/1/1 72/1/1 71/1/1
f 74/1/1 72/1/1 73/1/1
f 77/1/1 76/1/1 75/1/1
f 78/1/1 76/1/1 77/1/1
f 81/1/1 80/1/1 79/1/1
f 82/1/1 80/1/1 81/1/1
f 85/1/1 84/1/1 83/1/1
f 87/1/1 85/1/1 83/1/1
f 87/1/1 86/1/1 85/1/1
f 88/1/1 86/1/1 87/1/1
f 91/1/1 90/1/1 89/1/1
f 92/1/1 90/1/1 91/1/1
f 95/1/1 94/1/1 93/1/1
f 96/1/1 94/1/1 95/1/1
f 97/1/2 98/1/2 99/1/2
f 99/1/2 98/1/2 100/1/2
f 103/1/3 102/1/3 101/1/3
f 105/1/3 104/1/3 103/1/3
f 107/1/3 103/1/3 101/1/3
f 107/1/3 106/1/3 105/1/3
f 107/1/3 105/1/3 103/1/3
f 108/1/3 106/1/3 107/1/3
f 111/1/3 110/1/3 109/1/3
f 112/1/3 110/1/3 111/1/3
f 115/1/3 114/1/3 113/1/3
f 116/1/3 114/1/3 115/1/3
f 119/1/3 118/1/3 117/1/3
f 120/1/3 118/1/3 119/1/3
f 123/1/3 122/1/3 121/1/3
f 124/1/3 122/1/3 123/1/3
f 127/1/3 126/1/3 125/1/3
f 128/1/3 126/1/3 127/1/3
f 131/1/3 130/1/3 129/1/3
f 132/1/3 130/1/3 131/1/3
f 135/1/3 134/1/3 133/1/3
f 136/1/3 134/1/3 135/1/3
f 139/1/3 138/1/3 137/1/3
f 140/1/3 138/1/3 139/1/3
f 143/1/3 142/1/3 141/1/3
f 144/1/3 142/1/3 143/1/3
f 147/1/3 146/1/3 145/1/3
f 148/1/3 146/1/3 147/1/3
f 151/1/3 150/1/3 149/1/3
f 152/1/3 150/1/3 151/1/3
f 155/1/3 154/1/3 153/1/3
f 156/1/3 154/1/3 155/1/3
f 159/1/3 158/1/3 157/1/3
f 160/1/3 158/1/3 159/1/3
f 163/1/3 162/1/3 161/1/3
f 164/1/3 162/1/3 163/1/3
f 167/1/3 166/1/3 165/1/3
f 168/1/3 166/1/3 167/1/3
f 171/1/3 170/1/3 169/1/3
f 172/1/3 170/1/3 171/1/3
f 173/1/3 170/1/3 172/1/3
f 174/1/3 170/1/3 173/1/3
f 177/1/3 176/1/3 175/1/3
f 178/1/3 176/1/3 177/1/3
f 181/1/3 180/1/3 179/1/3
f 182/1/3 180/1/3 181/1/3
f 185/1/3 184/1/3 183/1/3
f 186/1/3 184/1/3 185/1/3
f 189/1/3 188/1/3 187/1/3
f 190/1/3 188/1/3 189/1/3
f 191/1/3 188/1/3 190/1/3
f 192/1/3 188/1/3 191/1/3
f 193/1/4 194/1/4 195/1/4
f 195/1/4 196/1/4 197/1/4
f 193/1/4 195/1/4 199/1/4
f 197/1/4 198/1/4 199/1/4
f 195/1/4 197/1/4 199/1/4
f 199/1/4 198/1/4 200/1/4
f 204/1/5 202/1/5 201/1/5
f 206/1/5 204/1/5 203/1/5
f 208/1/5 206/1/5 205/1/5
f 210/1/5 208/1/5 207/1/5
f 212/1/5 210/1/5 209/1/5
f 214/1/5 212/1/5 211/1/5
f 216/1/5 214/1/5 213/1/5
f 218/1/5 216/1/5 215/1/5
f 219/1/5 218/1/5 217/1/5
f 220/1/5 202/1/5 204/1/5
f 220/1/5 218/1/5 219/1/5
f 220/1/5 204/1/5 206/1/5
f 220/1/5 216/1/5 218/1/5
f 220/1/5 206/1/5 208/1/5
f 220/1/5 214/1/5 216/1/5
f 220/1/5 208/1/5 210/1/5
f 220/1/5 212/1/5 214/1/5
f 220/1/5 210/1/5 212/1/5
f 221/1/6 222/1/6 224/1/6
f 224/1/6 222/1/6 225/1/6
f 223/1/6 224/1/6 225/1/6
f 225/1/6 222/1/6 226/1/6
f 223/1/6 225/1/6 228/1/6
f 227/1/6 228/1/6 230/1/6
f 229/1/6 230/1/6 232/1/6
f 228/1/6 225/1/6 233/1/6
f 230/1/6 228/1/6 233/1/6
f 232/1/6 230/1/6 233/1/6
f 233/1/6 225/1/6 234/1/6
f 231/1/6 232/1/6 236/1/6
f 232/1/6 233/1/6 236/1/6
f 235/1/6 236/1/6 238/1/6
f 236/1/6 233/1/6 239/1/6
f 238/1/6 236/1/6 239/1/6
f 239/1/6 233/1/6 240/1/6
f 237/1/6 238/1/6 241/1/6
f 238/1/6 239/1/6 241/1/6
f 241/1/6 239/1/6 242/1/6
f 237/1/6 241/1/6 244/1/6
f 244/1/6 241/1/6 245/1/6
f 243/1/6 244/1/6 245/1/6
f 245/1/6 241/1/6 246/1/6
f 243/1/6 245/1/6 248/1/6
f 248/1/6 245/1/6 249/1/6
f 249/1/6 245/1/6 250/1/6
f 247/1/6 248/1/6 251/1/6
f 248/1/6 249/1/6 251/1/6
f 251/1/6 249/1/6 252/1/6
f 253/1/6 254/1/6 256/1/6
f 256/1/6 254/1/6 257/1/6
f 257/1/6 254/1/6 258/1/6
f 255/1/6 256/1/6 260/1/6
f 256/1/6 257/1/6 260/1/6
f 260/1/6 257/1/6 261/1/6
f 259/1/6 260/1/6 261/1/6
f 261/1/6 257/1/6 262/1/6
f 259/1/6 261/1/6 264/1/6
f 264/1/6 261/1/6 265/1/6
f 265/1/6 261/1/6 266/1/6
f 263/1/6 264/1/6 268/1/6
f 264/1/6 265/1/6 268/1/6
f 267/1/6 268/1/6 270/1/6
f 268/1/6 265/1/6 271/1/6
f 270/1/6 268/1/6 271/1/6
f 271/1/6 265/1/6 272/1/6
f 269/1/6 270/1/6 274/1/6
f 270/1/6 271/1/6 274/1/6
f 274/1/6 271/1/6 275/1/6
f 275/1/6 271/1/6 276/1/6
f 273/1/6 274/1/6 277/1/6
f 274/1/6 275/1/6 277/1/6
f 277/1/6 275/1/6 278/1/6
f 273/1/6 277/1/6 279/1/6
f 279/1/6 277/1/6 280/1/6
f 281/1/6 282/1/6 283/1/6
f 283/1/6 282/1/6 284/1/6
f 285/1/6 286/1/6 287/1/6
f 287/1/6 286/1/6 288/1/6
f 289/1/6 290/1/6 292/1/6
f 291/1/6 292/1/6 294/1/6
f 293/1/6 294/1/6 296/1/6
f 295/1/6 296/1/6 298/1/6
f 297/1/6 298/1/6 299/1/6
f 292/1/6 290/1/6 300/1/6
f 299/1/6 298/1/6 300/1/6
f 294/1/6 292/1/6 300/1/6
f 298/1/6 296/1/6 300/1/6
f 296/1/6 294/1/6 300/1/6
