# MagicaVoxel @ ephtracy

# material
mtllib joiner small.mtl
usemtl palette

# normals
vn -1 0 0
vn 1 0 0
vn 0 -1 0
vn 0 1 0
vn 0 0 -1
vn 0 0 1

# texcoords
vt 0.642578 0.5

# verts
v 5 9 9
v 5 10 9
v 5 9 12
v 5 10 12
v 8 6 9
v 8 9 9
v 8 6 12
v 8 9 12
v 10 8 12
v 10 10 12
v 10 8 15
v 10 10 15
v 11 3 9
v 11 6 9
v 11 3 12
v 11 6 12
v 13 5 12
v 13 8 12
v 13 5 15
v 13 8 15
v 15 0 9
v 15 3 9
v 15 0 12
v 15 3 12
v 15 7 15
v 15 10 15
v 15 7 18
v 15 10 18
v 17 3 12
v 17 5 12
v 17 5 15
v 17 7 15
v 17 3 18
v 17 7 18
v 20 0 12
v 20 3 12
v 20 0 15
v 20 3 15
v 22 1 15
v 22 3 15
v 22 1 17
v 22 3 17
v 25 0 15
v 25 1 15
v 25 1 17
v 25 3 17
v 25 0 18
v 25 3 18
v 30 0 9
v 30 10 9
v 30 0 18
v 30 10 18
v 15 0 9
v 15 0 12
v 20 0 12
v 20 0 15
v 25 0 15
v 25 0 18
v 30 0 9
v 30 0 18
v 22 1 15
v 22 1 17
v 25 1 15
v 25 1 17
v 11 3 9
v 11 3 12
v 15 3 9
v 15 3 12
v 17 3 12
v 17 3 18
v 20 3 12
v 20 3 15
v 22 3 15
v 22 3 17
v 25 3 17
v 25 3 18
v 13 5 12
v 13 5 15
v 17 5 12
v 17 5 15
v 8 6 9
v 8 6 12
v 11 6 9
v 11 6 12
v 15 7 15
v 15 7 18
v 17 7 15
v 17 7 18
v 10 8 12
v 10 8 15
v 13 8 12
v 13 8 15
v 5 9 9
v 5 9 12
v 8 9 9
v 8 9 12
v 5 10 9
v 5 10 12
v 10 10 12
v 10 10 15
v 15 10 15
v 15 10 18
v 30 10 9
v 30 10 18
v 15 0 9
v 30 0 9
v 11 3 9
v 15 3 9
v 8 6 9
v 11 6 9
v 5 9 9
v 8 9 9
v 5 10 9
v 30 10 9
v 15 0 12
v 20 0 12
v 11 3 12
v 15 3 12
v 17 3 12
v 20 3 12
v 13 5 12
v 17 5 12
v 8 6 12
v 11 6 12
v 10 8 12
v 13 8 12
v 5 9 12
v 8 9 12
v 5 10 12
v 10 10 12
v 20 0 15
v 25 0 15
v 22 1 15
v 25 1 15
v 20 3 15
v 22 3 15
v 13 5 15
v 17 5 15
v 15 7 15
v 17 7 15
v 10 8 15
v 13 8 15
v 10 10 15
v 15 10 15
v 22 1 17
v 25 1 17
v 22 3 17
v 25 3 17
v 25 0 18
v 30 0 18
v 17 3 18
v 25 3 18
v 15 7 18
v 17 7 18
v 15 10 18
v 30 10 18

# faces
f 3/1/1 2/1/1 1/1/1
f 4/1/1 2/1/1 3/1/1
f 7/1/1 6/1/1 5/1/1
f 8/1/1 6/1/1 7/1/1
f 11/1/1 10/1/1 9/1/1
f 12/1/1 10/1/1 11/1/1
f 15/1/1 14/1/1 13/1/1
f 16/1/1 14/1/1 15/1/1
f 19/1/1 18/1/1 17/1/1
f 20/1/1 18/1/1 19/1/1
f 23/1/1 22/1/1 21/1/1
f 24/1/1 22/1/1 23/1/1
f 27/1/1 26/1/1 25/1/1
f 28/1/1 26/1/1 27/1/1
f 31/1/1 30/1/1 29/1/1
f 33/1/1 31/1/1 29/1/1
f 33/1/1 32/1/1 31/1/1
f 34/1/1 32/1/1 33/1/1
f 37/1/1 36/1/1 35/1/1
f 38/1/1 36/1/1 37/1/1
f 41/1/1 40/1/1 39/1/1
f 42/1/1 40/1/1 41/1/1
f 45/1/1 44/1/1 43/1/1
f 47/1/1 45/1/1 43/1/1
f 47/1/1 46/1/1 45/1/1
f 48/1/1 46/1/1 47/1/1
f 49/1/2 50/1/2 51/1/2
f 51/1/2 50/1/2 52/1/2
f 55/1/3 54/1/3 53/1/3
f 57/1/3 56/1/3 55/1/3
f 59/1/3 55/1/3 53/1/3
f 59/1/3 58/1/3 57/1/3
f 59/1/3 57/1/3 55/1/3
f 60/1/3 58/1/3 59/1/3
f 63/1/3 62/1/3 61/1/3
f 64/1/3 62/1/3 63/1/3
f 67/1/3 66/1/3 65/1/3
f 68/1/3 66/1/3 67/1/3
f 71/1/3 70/1/3 69/1/3
f 72/1/3 70/1/3 71/1/3
f 73/1/3 70/1/3 72/1/3
f 74/1/3 70/1/3 73/1/3
f 75/1/3 70/1/3 74/1/3
f 76/1/3 70/1/3 75/1/3
f 79/1/3 78/1/3 77/1/3
f 80/1/3 78/1/3 79/1/3
f 83/1/3 82/1/3 81/1/3
f 84/1/3 82/1/3 83/1/3
f 87/1/3 86/1/3 85/1/3
f 88/1/3 86/1/3 87/1/3
f 91/1/3 90/1/3 89/1/3
f 92/1/3 90/1/3 91/1/3
f 95/1/3 94/1/3 93/1/3
f 96/1/3 94/1/3 95/1/3
f 97/1/4 98/1/4 99/1/4
f 99/1/4 100/1/4 101/1/4
f 97/1/4 99/1/4 103/1/4
f 101/1/4 102/1/4 103/1/4
f 99/1/4 101/1/4 103/1/4
f 103/1/4 102/1/4 104/1/4
f 108/1/5 106/1/5 105/1/5
f 110/1/5 108/1/5 107/1/5
f 112/1/5 110/1/5 109/1/5
f 113/1/5 112/1/5 111/1/5
f 114/1/5 106/1/5 108/1/5
f 114/1/5 112/1/5 113/1/5
f 114/1/5 108/1/5 110/1/5
f 114/1/5 110/1/5 112/1/5
f 115/1/6 116/1/6 118/1/6
f 118/1/6 116/1/6 119/1/6
f 119/1/6 116/1/6 120/1/6
f 117/1/6 118/1/6 121/1/6
f 118/1/6 119/1/6 121/1/6
f 121/1/6 119/1/6 122/1/6
f 117/1/6 121/1/6 124/1/6
f 123/1/6 124/1/6 125/1/6
f 124/1/6 121/1/6 126/1/6
f 125/1/6 124/1/6 126/1/6
f 123/1/6 125/1/6 128/1/6
f 127/1/6 128/1/6 129/1/6
f 128/1/6 125/1/6 130/1/6
f 129/1/6 128/1/6 130/1/6
f 131/1/6 132/1/6 133/1/6
f 133/1/6 132/1/6 134/1/6
f 131/1/6 133/1/6 135/1/6
f 135/1/6 133/1/6 136/1/6
f 137/1/6 138/1/6 139/1/6
f 139/1/6 138/1/6 140/1/6
f 137/1/6 139/1/6 142/1/6
f 141/1/6 142/1/6 143/1/6
f 142/1/6 139/1/6 144/1/6
f 143/1/6 142/1/6 144/1/6
f 145/1/6 146/1/6 147/1/6
f 147/1/6 146/1/6 148/1/6
f 149/1/6 150/1/6 152/1/6
f 151/1/6 152/1/6 154/1/6
f 153/1/6 154/1/6 155/1/6
f 152/1/6 150/1/6 156/1/6
f 155/1/6 154/1/6 156/1/6
f 154/1/6 152/1/6 156/1/6
