# MagicaVoxel @ ephtracy

# material
mtllib ship tunnels.mtl
usemtl palette

# normals
vn -1 0 0
vn 1 0 0
vn 0 -1 0
vn 0 1 0
vn 0 0 -1
vn 0 0 1

# texcoords
vt 0.642578 0.5
vt 0.931641 0.5
vt 0.962891 0.5
vt 0.978516 0.5
vt 0.982422 0.5

# verts
v 0 7 67
v 0 33 67
v 0 10 70
v 0 30 70
v 0 3 73
v 0 7 73
v 0 33 73
v 0 37 73
v 0 6 76
v 0 10 76
v 0 30 76
v 0 34 76
v 0 6 84
v 0 10 84
v 0 30 84
v 0 34 84
v 0 3 87
v 0 7 87
v 0 33 87
v 0 37 87
v 0 10 90
v 0 30 90
v 0 7 93
v 0 33 93
v 8 0 56
v 8 40 56
v 8 8 68
v 8 32 68
v 8 4 74
v 8 8 74
v 8 32 74
v 8 36 74
v 8 4 86
v 8 8 86
v 8 32 86
v 8 36 86
v 8 8 92
v 8 32 92
v 8 0 100
v 8 40 100
v 40 12 100
v 40 28 100
v 40 12 112
v 40 28 112
v 48 0 100
v 48 12 100
v 48 28 100
v 48 40 100
v 48 0 112
v 48 12 112
v 48 28 112
v 48 40 112
v 60 10 70
v 60 30 70
v 60 6 76
v 60 10 76
v 60 30 76
v 60 34 76
v 60 6 84
v 60 10 84
v 60 30 84
v 60 34 84
v 60 10 90
v 60 30 90
v 4 7 67
v 4 33 67
v 4 8 68
v 4 32 68
v 4 3 73
v 4 7 73
v 4 8 73
v 4 32 73
v 4 33 73
v 4 37 73
v 4 4 74
v 4 7 74
v 4 8 74
v 4 32 74
v 4 33 74
v 4 36 74
v 4 4 86
v 4 7 86
v 4 8 86
v 4 32 86
v 4 33 86
v 4 36 86
v 4 3 87
v 4 7 87
v 4 8 87
v 4 32 87
v 4 33 87
v 4 37 87
v 4 8 92
v 4 32 92
v 4 7 93
v 4 33 93
v 68 0 56
v 68 40 56
v 68 0 112
v 68 40 112
v 8 0 56
v 8 0 100
v 48 0 100
v 48 0 112
v 68 0 56
v 68 0 112
v 0 3 73
v 0 3 87
v 2 3 73
v 2 3 87
v 4 3 73
v 4 3 87
v 4 4 74
v 4 4 86
v 8 4 74
v 8 4 86
v 0 7 67
v 0 7 73
v 0 7 87
v 0 7 93
v 2 7 67
v 2 7 73
v 2 7 87
v 2 7 93
v 4 7 67
v 4 7 73
v 4 7 87
v 4 7 93
v 4 8 68
v 4 8 73
v 4 8 74
v 4 8 86
v 4 8 87
v 4 8 92
v 8 8 68
v 8 8 74
v 8 8 86
v 8 8 92
v 40 12 100
v 40 12 112
v 48 12 100
v 48 12 112
v 0 30 70
v 0 30 76
v 0 30 84
v 0 30 90
v 2 30 70
v 2 30 76
v 2 30 84
v 2 30 90
v 6 30 70
v 6 30 76
v 6 30 84
v 6 30 90
v 10 30 70
v 10 30 76
v 10 30 84
v 10 30 90
v 14 30 70
v 14 30 76
v 14 30 84
v 14 30 90
v 60 30 70
v 60 30 76
v 60 30 84
v 60 30 90
v 0 34 76
v 0 34 84
v 2 34 76
v 2 34 84
v 6 34 76
v 6 34 84
v 10 34 76
v 10 34 84
v 14 34 76
v 14 34 84
v 60 34 76
v 60 34 84
v 0 6 76
v 0 6 84
v 2 6 76
v 2 6 84
v 6 6 76
v 6 6 84
v 10 6 76
v 10 6 84
v 14 6 76
v 14 6 84
v 60 6 76
v 60 6 84
v 0 10 70
v 0 10 76
v 0 10 84
v 0 10 90
v 2 10 70
v 2 10 76
v 2 10 84
v 2 10 90
v 6 10 70
v 6 10 76
v 6 10 84
v 6 10 90
v 10 10 70
v 10 10 76
v 10 10 84
v 10 10 90
v 14 10 70
v 14 10 76
v 14 10 84
v 14 10 90
v 60 10 70
v 60 10 76
v 60 10 84
v 60 10 90
v 40 28 100
v 40 28 112
v 48 28 100
v 48 28 112
v 4 32 68
v 4 32 73
v 4 32 74
v 4 32 86
v 4 32 87
v 4 32 92
v 8 32 68
v 8 32 74
v 8 32 86
v 8 32 92
v 0 33 67
v 0 33 73
v 0 33 87
v 0 33 93
v 2 33 67
v 2 33 73
v 2 33 87
v 2 33 93
v 4 33 67
v 4 33 73
v 4 33 87
v 4 33 93
v 4 36 74
v 4 36 86
v 8 36 74
v 8 36 86
v 0 37 73
v 0 37 87
v 2 37 73
v 2 37 87
v 4 37 73
v 4 37 87
v 8 40 56
v 8 40 100
v 48 40 100
v 48 40 112
v 68 40 56
v 68 40 112
v 8 0 56
v 68 0 56
v 8 40 56
v 68 40 56
v 0 7 67
v 2 7 67
v 4 7 67
v 0 33 67
v 2 33 67
v 4 33 67
v 4 8 68
v 8 8 68
v 4 32 68
v 8 32 68
v 0 3 73
v 2 3 73
v 4 3 73
v 0 7 73
v 2 7 73
v 4 7 73
v 0 33 73
v 2 33 73
v 4 33 73
v 0 37 73
v 2 37 73
v 4 37 73
v 4 4 74
v 8 4 74
v 4 7 74
v 4 8 74
v 8 8 74
v 4 32 74
v 8 32 74
v 4 33 74
v 4 36 74
v 8 36 74
v 0 6 84
v 2 6 84
v 6 6 84
v 10 6 84
v 14 6 84
v 60 6 84
v 0 10 84
v 2 10 84
v 6 10 84
v 10 10 84
v 14 10 84
v 60 10 84
v 0 30 84
v 2 30 84
v 6 30 84
v 10 30 84
v 14 30 84
v 60 30 84
v 0 34 84
v 2 34 84
v 6 34 84
v 10 34 84
v 14 34 84
v 60 34 84
v 0 10 90
v 2 10 90
v 6 10 90
v 10 10 90
v 14 10 90
v 60 10 90
v 0 30 90
v 2 30 90
v 6 30 90
v 10 30 90
v 14 30 90
v 60 30 90
v 0 10 70
v 2 10 70
v 6 10 70
v 10 10 70
v 14 10 70
v 60 10 70
v 0 30 70
v 2 30 70
v 6 30 70
v 10 30 70
v 14 30 70
v 60 30 70
v 0 6 76
v 2 6 76
v 6 6 76
v 10 6 76
v 14 6 76
v 60 6 76
v 0 10 76
v 2 10 76
v 6 10 76
v 10 10 76
v 14 10 76
v 60 10 76
v 0 30 76
v 2 30 76
v 6 30 76
v 10 30 76
v 14 30 76
v 60 30 76
v 0 34 76
v 2 34 76
v 6 34 76
v 10 34 76
v 14 34 76
v 60 34 76
v 4 4 86
v 8 4 86
v 4 7 86
v 4 8 86
v 8 8 86
v 4 32 86
v 8 32 86
v 4 33 86
v 4 36 86
v 8 36 86
v 0 3 87
v 2 3 87
v 4 3 87
v 0 7 87
v 2 7 87
v 4 7 87
v 0 33 87
v 2 33 87
v 4 33 87
v 0 37 87
v 2 37 87
v 4 37 87
v 4 8 92
v 8 8 92
v 4 32 92
v 8 32 92
v 0 7 93
v 2 7 93
v 4 7 93
v 0 33 93
v 2 33 93
v 4 33 93
v 8 0 100
v 48 0 100
v 40 12 100
v 48 12 100
v 40 28 100
v 48 28 100
v 8 40 100
v 48 40 100
v 48 0 112
v 68 0 112
v 40 12 112
v 48 12 112
v 40 28 112
v 48 28 112
v 48 40 112
v 68 40 112

# faces
f 3/2/1 2/2/1 1/2/1
f 4/2/1 2/2/1 3/2/1
f 6/2/1 3/2/1 1/2/1
f 7/2/1 2/2/1 4/2/1
f 9/2/1 6/2/1 5/2/1
f 10/2/1 3/2/1 6/2/1
f 10/2/1 6/2/1 9/2/1
f 11/2/1 8/2/1 7/2/1
f 11/2/1 7/2/1 4/2/1
f 12/2/1 8/2/1 11/2/1
f 13/2/1 9/2/1 5/2/1
f 16/2/1 8/2/1 12/2/1
f 17/2/1 14/2/1 13/2/1
f 17/2/1 13/2/1 5/2/1
f 18/2/1 14/2/1 17/2/1
f 19/2/1 16/2/1 15/2/1
f 20/2/1 8/2/1 16/2/1
f 20/2/1 16/2/1 19/2/1
f 21/2/1 14/2/1 18/2/1
f 22/2/1 19/2/1 15/2/1
f 23/2/1 21/2/1 18/2/1
f 23/2/1 22/2/1 21/2/1
f 24/2/1 19/2/1 22/2/1
f 24/2/1 22/2/1 23/2/1
f 27/1/1 26/1/1 25/1/1
f 28/1/1 26/1/1 27/1/1
f 29/1/1 27/1/1 25/1/1
f 30/1/1 27/1/1 29/1/1
f 31/1/1 26/1/1 28/1/1
f 32/1/1 26/1/1 31/1/1
f 33/1/1 29/1/1 25/1/1
f 36/1/1 26/1/1 32/1/1
f 37/1/1 34/1/1 33/1/1
f 38/1/1 36/1/1 35/1/1
f 39/1/1 37/1/1 33/1/1
f 39/1/1 38/1/1 37/1/1
f 39/1/1 33/1/1 25/1/1
f 40/1/1 36/1/1 38/1/1
f 40/1/1 38/1/1 39/1/1
f 40/1/1 26/1/1 36/1/1
f 43/1/1 42/1/1 41/1/1
f 44/1/1 42/1/1 43/1/1
f 49/1/1 46/1/1 45/1/1
f 50/1/1 46/1/1 49/1/1
f 51/1/1 48/1/1 47/1/1
f 52/1/1 48/1/1 51/1/1
f 56/2/1 54/2/1 53/2/1
f 57/2/1 54/2/1 56/2/1
f 59/2/1 56/2/1 55/2/1
f 59/2/1 58/2/1 57/2/1
f 59/2/1 57/2/1 56/2/1
f 60/2/1 58/2/1 59/2/1
f 61/2/1 58/2/1 60/2/1
f 62/2/1 58/2/1 61/2/1
f 63/2/1 61/2/1 60/2/1
f 64/2/1 61/2/1 63/2/1
f 65/3/2 66/3/2 67/3/2
f 67/3/2 66/3/2 68/3/2
f 65/3/2 67/3/2 70/3/2
f 70/3/2 67/3/2 71/3/2
f 68/3/2 66/3/2 72/3/2
f 72/3/2 66/3/2 73/3/2
f 69/3/2 70/3/2 75/3/2
f 70/5/2 71/5/2 76/5/2
f 75/3/2 70/3/2 76/3/2
f 76/5/2 71/5/2 77/5/2
f 72/5/2 73/5/2 78/5/2
f 73/3/2 74/3/2 79/3/2
f 78/5/2 73/5/2 79/5/2
f 79/3/2 74/3/2 80/3/2
f 69/3/2 75/3/2 81/3/2
f 80/3/2 74/3/2 86/3/2
f 69/3/2 81/3/2 87/3/2
f 81/3/2 82/3/2 87/3/2
f 82/5/2 83/5/2 88/5/2
f 87/3/2 82/3/2 88/3/2
f 88/5/2 83/5/2 89/5/2
f 84/4/2 85/4/2 90/4/2
f 85/3/2 86/3/2 91/3/2
f 90/4/2 85/4/2 91/4/2
f 86/3/2 74/3/2 92/3/2
f 91/3/2 86/3/2 92/3/2
f 88/3/2 89/3/2 93/3/2
f 90/3/2 91/3/2 94/3/2
f 88/3/2 93/3/2 95/3/2
f 93/3/2 94/3/2 95/3/2
f 94/3/2 91/3/2 96/3/2
f 95/3/2 94/3/2 96/3/2
f 97/1/2 98/1/2 99/1/2
f 99/1/2 98/1/2 100/1/2
f 103/1/3 102/1/3 101/1/3
f 105/1/3 103/1/3 101/1/3
f 105/1/3 104/1/3 103/1/3
f 106/1/3 104/1/3 105/1/3
f 109/2/3 108/2/3 107/2/3
f 110/2/3 108/2/3 109/2/3
f 111/3/3 110/3/3 109/3/3
f 112/3/3 110/3/3 111/3/3
f 115/3/3 114/3/3 113/3/3
f 116/3/3 114/3/3 115/3/3
f 121/2/3 118/2/3 117/2/3
f 122/2/3 118/2/3 121/2/3
f 123/2/3 120/2/3 119/2/3
f 124/2/3 120/2/3 123/2/3
f 125/3/3 122/3/3 121/3/3
f 126/3/3 122/3/3 125/3/3
f 127/3/3 124/3/3 123/3/3
f 128/3/3 124/3/3 127/3/3
f 135/3/3 130/3/3 129/3/3
f 135/3/3 131/3/3 130/3/3
f 136/3/3 131/3/3 135/3/3
f 137/3/3 134/3/3 133/3/3
f 137/3/3 133/3/3 132/3/3
f 138/3/3 134/3/3 137/3/3
f 141/1/3 140/1/3 139/1/3
f 142/1/3 140/1/3 141/1/3
f 147/2/3 144/2/3 143/2/3
f 148/2/3 144/2/3 147/2/3
f 149/2/3 146/2/3 145/2/3
f 150/2/3 146/2/3 149/2/3
f 151/3/3 148/3/3 147/3/3
f 152/3/3 148/3/3 151/3/3
f 153/3/3 150/3/3 149/3/3
f 154/3/3 150/3/3 153/3/3
f 155/2/3 152/2/3 151/2/3
f 156/2/3 152/2/3 155/2/3
f 157/2/3 154/2/3 153/2/3
f 158/2/3 154/2/3 157/2/3
f 159/3/3 156/3/3 155/3/3
f 160/3/3 156/3/3 159/3/3
f 161/3/3 158/3/3 157/3/3
f 162/3/3 158/3/3 161/3/3
f 163/2/3 160/2/3 159/2/3
f 164/2/3 160/2/3 163/2/3
f 165/2/3 162/2/3 161/2/3
f 166/2/3 162/2/3 165/2/3
f 169/2/3 168/2/3 167/2/3
f 170/2/3 168/2/3 169/2/3
f 171/3/3 170/3/3 169/3/3
f 172/3/3 170/3/3 171/3/3
f 173/2/3 172/2/3 171/2/3
f 174/2/3 172/2/3 173/2/3
f 175/3/3 174/3/3 173/3/3
f 176/3/3 174/3/3 175/3/3
f 177/2/3 176/2/3 175/2/3
f 178/2/3 176/2/3 177/2/3
f 179/2/4 180/2/4 181/2/4
f 181/2/4 180/2/4 182/2/4
f 181/3/4 182/3/4 183/3/4
f 183/3/4 182/3/4 184/3/4
f 183/2/4 184/2/4 185/2/4
f 185/2/4 184/2/4 186/2/4
f 185/3/4 186/3/4 187/3/4
f 187/3/4 186/3/4 188/3/4
f 187/2/4 188/2/4 189/2/4
f 189/2/4 188/2/4 190/2/4
f 191/2/4 192/2/4 195/2/4
f 195/2/4 192/2/4 196/2/4
f 193/2/4 194/2/4 197/2/4
f 197/2/4 194/2/4 198/2/4
f 195/3/4 196/3/4 199/3/4
f 199/3/4 196/3/4 200/3/4
f 197/3/4 198/3/4 201/3/4
f 201/3/4 198/3/4 202/3/4
f 199/2/4 200/2/4 203/2/4
f 203/2/4 200/2/4 204/2/4
f 201/2/4 202/2/4 205/2/4
f 205/2/4 202/2/4 206/2/4
f 203/3/4 204/3/4 207/3/4
f 207/3/4 204/3/4 208/3/4
f 205/3/4 206/3/4 209/3/4
f 209/3/4 206/3/4 210/3/4
f 207/2/4 208/2/4 211/2/4
f 211/2/4 208/2/4 212/2/4
f 209/2/4 210/2/4 213/2/4
f 213/2/4 210/2/4 214/2/4
f 215/1/4 216/1/4 217/1/4
f 217/1/4 216/1/4 218/1/4
f 219/3/4 220/3/4 225/3/4
f 220/3/4 221/3/4 225/3/4
f 225/3/4 221/3/4 226/3/4
f 223/3/4 224/3/4 227/3/4
f 222/3/4 223/3/4 227/3/4
f 227/3/4 224/3/4 228/3/4
f 229/2/4 230/2/4 233/2/4
f 233/2/4 230/2/4 234/2/4
f 231/2/4 232/2/4 235/2/4
f 235/2/4 232/2/4 236/2/4
f 233/3/4 234/3/4 237/3/4
f 237/3/4 234/3/4 238/3/4
f 235/3/4 236/3/4 239/3/4
f 239/3/4 236/3/4 240/3/4
f 241/3/4 242/3/4 243/3/4
f 243/3/4 242/3/4 244/3/4
f 245/2/4 246/2/4 247/2/4
f 247/2/4 246/2/4 248/2/4
f 247/3/4 248/3/4 249/3/4
f 249/3/4 248/3/4 250/3/4
f 251/1/4 252/1/4 253/1/4
f 251/1/4 253/1/4 255/1/4
f 253/1/4 254/1/4 255/1/4
f 255/1/4 254/1/4 256/1/4
f 259/1/5 258/1/5 257/1/5
f 260/1/5 258/1/5 259/1/5
f 264/2/5 262/2/5 261/2/5
f 265/3/5 263/3/5 262/3/5
f 265/2/5 262/2/5 264/2/5
f 266/3/5 263/3/5 265/3/5
f 269/3/5 268/3/5 267/3/5
f 270/3/5 268/3/5 269/3/5
f 274/2/5 272/2/5 271/2/5
f 275/3/5 273/3/5 272/3/5
f 275/2/5 272/2/5 274/2/5
f 276/3/5 273/3/5 275/3/5
f 280/2/5 278/2/5 277/2/5
f 281/3/5 279/3/5 278/3/5
f 281/2/5 278/2/5 280/2/5
f 282/3/5 279/3/5 281/3/5
f 285/3/5 284/3/5 283/3/5
f 286/3/5 284/3/5 285/3/5
f 287/3/5 284/3/5 286/3/5
f 290/3/5 289/3/5 288/3/5
f 291/3/5 289/3/5 290/3/5
f 292/3/5 289/3/5 291/3/5
f 299/2/5 294/2/5 293/2/5
f 300/3/5 295/3/5 294/3/5
f 300/2/5 294/2/5 299/2/5
f 301/2/5 296/2/5 295/2/5
f 301/3/5 295/3/5 300/3/5
f 302/3/5 297/3/5 296/3/5
f 302/2/5 296/2/5 301/2/5
f 303/2/5 298/2/5 297/2/5
f 303/3/5 297/3/5 302/3/5
f 304/2/5 298/2/5 303/2/5
f 311/2/5 306/2/5 305/2/5
f 312/3/5 307/3/5 306/3/5
f 312/2/5 306/2/5 311/2/5
f 313/2/5 308/2/5 307/2/5
f 313/3/5 307/3/5 312/3/5
f 314/3/5 309/3/5 308/3/5
f 314/2/5 308/2/5 313/2/5
f 315/2/5 310/2/5 309/2/5
f 315/3/5 309/3/5 314/3/5
f 316/2/5 310/2/5 315/2/5
f 323/2/5 318/2/5 317/2/5
f 324/3/5 319/3/5 318/3/5
f 324/2/5 318/2/5 323/2/5
f 325/2/5 320/2/5 319/2/5
f 325/3/5 319/3/5 324/3/5
f 326/3/5 321/3/5 320/3/5
f 326/2/5 320/2/5 325/2/5
f 327/2/5 322/2/5 321/2/5
f 327/3/5 321/3/5 326/3/5
f 328/2/5 322/2/5 327/2/5
f 329/2/6 330/2/6 335/2/6
f 330/3/6 331/3/6 336/3/6
f 335/2/6 330/2/6 336/2/6
f 331/2/6 332/2/6 337/2/6
f 336/3/6 331/3/6 337/3/6
f 332/3/6 333/3/6 338/3/6
f 337/2/6 332/2/6 338/2/6
f 333/2/6 334/2/6 339/2/6
f 338/3/6 333/3/6 339/3/6
f 339/2/6 334/2/6 340/2/6
f 341/2/6 342/2/6 347/2/6
f 342/3/6 343/3/6 348/3/6
f 347/2/6 342/2/6 348/2/6
f 343/2/6 344/2/6 349/2/6
f 348/3/6 343/3/6 349/3/6
f 344/3/6 345/3/6 350/3/6
f 349/2/6 344/2/6 350/2/6
f 345/2/6 346/2/6 351/2/6
f 350/3/6 345/3/6 351/3/6
f 351/2/6 346/2/6 352/2/6
f 353/2/6 354/2/6 359/2/6
f 354/3/6 355/3/6 360/3/6
f 359/2/6 354/2/6 360/2/6
f 355/2/6 356/2/6 361/2/6
f 360/3/6 355/3/6 361/3/6
f 356/3/6 357/3/6 362/3/6
f 361/2/6 356/2/6 362/2/6
f 357/2/6 358/2/6 363/2/6
f 362/3/6 357/3/6 363/3/6
f 363/2/6 358/2/6 364/2/6
f 365/3/6 366/3/6 367/3/6
f 367/3/6 366/3/6 368/3/6
f 368/3/6 366/3/6 369/3/6
f 370/3/6 371/3/6 372/3/6
f 372/3/6 371/3/6 373/3/6
f 373/3/6 371/3/6 374/3/6
f 375/2/6 376/2/6 378/2/6
f 376/3/6 377/3/6 379/3/6
f 378/2/6 376/2/6 379/2/6
f 379/3/6 377/3/6 380/3/6
f 381/2/6 382/2/6 384/2/6
f 382/3/6 383/3/6 385/3/6
f 384/2/6 382/2/6 385/2/6
f 385/3/6 383/3/6 386/3/6
f 387/3/6 388/3/6 389/3/6
f 389/3/6 388/3/6 390/3/6
f 391/2/6 392/2/6 394/2/6
f 392/3/6 393/3/6 395/3/6
f 394/2/6 392/2/6 395/2/6
f 395/3/6 393/3/6 396/3/6
f 397/1/6 398/1/6 399/1/6
f 399/1/6 398/1/6 400/1/6
f 397/1/6 399/1/6 401/1/6
f 397/1/6 401/1/6 403/1/6
f 401/1/6 402/1/6 403/1/6
f 403/1/6 402/1/6 404/1/6
f 405/1/6 406/1/6 408/1/6
f 407/1/6 408/1/6 409/1/6
f 408/1/6 406/1/6 410/1/6
f 409/1/6 408/1/6 410/1/6
f 410/1/6 406/1/6 411/1/6
f 411/1/6 406/1/6 412/1/6
