# MagicaVoxel @ ephtracy

# material
mtllib top chunk 2.mtl
usemtl palette

# normals
vn -1 0 0
vn 1 0 0
vn 0 -1 0
vn 0 1 0
vn 0 0 -1
vn 0 0 1

# texcoords
vt 0.380859 0.5
vt 0.642578 0.5

# verts
v 0 8 6
v 0 12 6
v 0 8 7
v 0 12 7
v 1 9 7
v 1 11 7
v 1 9 10
v 1 11 10
v 2 7 6
v 2 8 6
v 2 12 6
v 2 15 6
v 2 7 7
v 2 8 7
v 2 12 7
v 2 15 7
v 3 1 6
v 3 5 6
v 3 1 7
v 3 5 7
v 3 7 7
v 3 9 7
v 3 11 7
v 3 14 7
v 3 7 9
v 3 9 9
v 3 9 10
v 3 11 10
v 3 13 10
v 3 14 10
v 3 9 11
v 3 13 11
v 4 0 6
v 4 1 6
v 4 5 6
v 4 6 6
v 4 0 7
v 4 1 7
v 4 2 7
v 4 4 7
v 4 5 7
v 4 6 7
v 4 2 9
v 4 4 9
v 4 9 11
v 4 10 11
v 4 9 12
v 4 10 12
v 5 1 7
v 5 2 7
v 5 4 7
v 5 5 7
v 5 4 8
v 5 5 8
v 5 1 9
v 5 2 9
v 5 8 9
v 5 9 9
v 5 8 11
v 5 9 11
v 5 11 10
v 5 13 10
v 5 11 11
v 5 13 11
v 6 1 7
v 6 2 7
v 6 11 7
v 6 14 7
v 6 2 8
v 6 4 8
v 6 1 9
v 6 4 9
v 6 11 10
v 6 14 10
v 6 9 11
v 6 10 11
v 6 9 12
v 6 10 12
v 7 0 6
v 7 1 6
v 7 0 7
v 7 1 7
v 7 2 7
v 7 5 7
v 7 7 7
v 7 11 7
v 7 2 8
v 7 5 8
v 7 7 9
v 7 8 9
v 7 8 11
v 7 11 11
v 8 1 6
v 8 6 6
v 8 7 6
v 8 15 6
v 8 1 7
v 8 6 7
v 8 7 7
v 8 15 7
v 4 0 6
v 4 0 7
v 7 0 6
v 7 0 7
v 3 1 6
v 3 1 7
v 4 1 6
v 4 1 7
v 5 1 7
v 5 1 9
v 6 1 7
v 6 1 9
v 7 1 6
v 7 1 7
v 8 1 6
v 8 1 7
v 4 2 7
v 4 2 9
v 5 2 7
v 5 2 9
v 6 2 7
v 6 2 8
v 7 2 7
v 7 2 8
v 2 7 6
v 2 7 7
v 3 7 7
v 3 7 9
v 7 7 7
v 7 7 9
v 8 7 6
v 8 7 7
v 0 8 6
v 0 8 7
v 2 8 6
v 2 8 7
v 5 8 9
v 5 8 11
v 7 8 9
v 7 8 11
v 1 9 7
v 1 9 10
v 3 9 7
v 3 9 9
v 3 9 10
v 3 9 11
v 4 9 11
v 4 9 12
v 5 9 9
v 5 9 11
v 6 9 11
v 6 9 12
v 4 4 7
v 4 4 9
v 5 4 7
v 5 4 8
v 6 4 8
v 6 4 9
v 3 5 6
v 3 5 7
v 4 5 6
v 4 5 7
v 5 5 7
v 5 5 8
v 7 5 7
v 7 5 8
v 4 6 6
v 4 6 7
v 8 6 6
v 8 6 7
v 4 10 11
v 4 10 12
v 6 10 11
v 6 10 12
v 1 11 7
v 1 11 10
v 3 11 7
v 3 11 10
v 5 11 10
v 5 11 11
v 6 11 7
v 6 11 10
v 7 11 7
v 7 11 11
v 0 12 6
v 0 12 7
v 2 12 6
v 2 12 7
v 3 13 10
v 3 13 11
v 5 13 10
v 5 13 11
v 3 14 7
v 3 14 10
v 6 14 7
v 6 14 10
v 2 15 6
v 2 15 7
v 8 15 6
v 8 15 7
v 4 0 6
v 7 0 6
v 3 1 6
v 4 1 6
v 7 1 6
v 8 1 6
v 3 5 6
v 4 5 6
v 4 6 6
v 8 6 6
v 2 7 6
v 8 7 6
v 0 8 6
v 2 8 6
v 0 12 6
v 2 12 6
v 2 15 6
v 8 15 6
v 4 0 7
v 7 0 7
v 3 1 7
v 4 1 7
v 5 1 7
v 6 1 7
v 7 1 7
v 8 1 7
v 4 2 7
v 5 2 7
v 6 2 7
v 7 2 7
v 4 4 7
v 5 4 7
v 3 5 7
v 4 5 7
v 5 5 7
v 7 5 7
v 4 6 7
v 8 6 7
v 2 7 7
v 3 7 7
v 7 7 7
v 8 7 7
v 0 8 7
v 2 8 7
v 1 9 7
v 3 9 7
v 1 11 7
v 3 11 7
v 6 11 7
v 7 11 7
v 0 12 7
v 2 12 7
v 3 14 7
v 6 14 7
v 2 15 7
v 8 15 7
v 6 2 8
v 7 2 8
v 5 4 8
v 6 4 8
v 5 5 8
v 7 5 8
v 5 1 9
v 6 1 9
v 4 2 9
v 5 2 9
v 4 4 9
v 6 4 9
v 3 7 9
v 7 7 9
v 5 8 9
v 7 8 9
v 3 9 9
v 5 9 9
v 1 9 10
v 3 9 10
v 1 11 10
v 3 11 10
v 5 11 10
v 6 11 10
v 3 13 10
v 5 13 10
v 3 14 10
v 6 14 10
v 5 8 11
v 7 8 11
v 3 9 11
v 4 9 11
v 5 9 11
v 6 9 11
v 4 10 11
v 6 10 11
v 5 11 11
v 7 11 11
v 3 13 11
v 5 13 11
v 4 9 12
v 6 9 12
v 4 10 12
v 6 10 12

# faces
f 3/2/1 2/2/1 1/2/1
f 4/2/1 2/2/1 3/2/1
f 7/2/1 6/2/1 5/2/1
f 8/2/1 6/2/1 7/2/1
f 13/2/1 10/2/1 9/2/1
f 14/2/1 10/2/1 13/2/1
f 15/2/1 12/2/1 11/2/1
f 16/2/1 12/2/1 15/2/1
f 19/2/1 18/2/1 17/2/1
f 20/2/1 18/2/1 19/2/1
f 25/2/1 22/2/1 21/2/1
f 26/2/1 22/2/1 25/2/1
f 28/2/1 24/2/1 23/2/1
f 29/2/1 24/2/1 28/2/1
f 30/2/1 24/2/1 29/2/1
f 31/2/1 28/2/1 27/2/1
f 31/2/1 29/2/1 28/2/1
f 32/2/1 29/2/1 31/2/1
f 37/2/1 34/2/1 33/2/1
f 38/2/1 34/2/1 37/2/1
f 41/2/1 36/2/1 35/2/1
f 42/2/1 36/2/1 41/2/1
f 43/2/1 40/2/1 39/2/1
f 44/2/1 40/2/1 43/2/1
f 47/2/1 46/2/1 45/2/1
f 48/2/1 46/2/1 47/2/1
f 53/2/1 52/2/1 51/2/1
f 54/2/1 52/2/1 53/2/1
f 55/2/1 50/2/1 49/2/1
f 56/2/1 50/2/1 55/2/1
f 59/2/1 58/2/1 57/2/1
f 60/2/1 58/2/1 59/2/1
f 61/2/2 62/2/2 63/2/2
f 63/2/2 62/2/2 64/2/2
f 65/2/2 66/2/2 69/2/2
f 65/2/2 69/2/2 71/2/2
f 69/2/2 70/2/2 71/2/2
f 71/2/2 70/2/2 72/2/2
f 67/2/2 68/2/2 73/2/2
f 73/2/2 68/2/2 74/2/2
f 75/2/2 76/2/2 77/2/2
f 77/2/2 76/2/2 78/2/2
f 79/2/2 80/2/2 81/2/2
f 81/2/2 80/2/2 82/2/2
f 83/2/2 84/2/2 87/2/2
f 87/2/2 84/2/2 88/2/2
f 85/2/2 86/2/2 89/2/2
f 89/2/2 86/2/2 90/2/2
f 90/2/2 86/2/2 91/2/2
f 91/2/2 86/2/2 92/2/2
f 93/2/2 94/2/2 97/2/2
f 97/2/2 94/2/2 98/2/2
f 95/2/2 96/2/2 99/2/2
f 99/2/2 96/2/2 100/2/2
f 103/2/3 102/2/3 101/2/3
f 104/2/3 102/2/3 103/2/3
f 107/2/3 106/2/3 105/2/3
f 108/2/3 106/2/3 107/2/3
f 111/2/3 110/2/3 109/2/3
f 112/2/3 110/2/3 111/2/3
f 115/2/3 114/2/3 113/2/3
f 116/2/3 114/2/3 115/2/3
f 119/2/3 118/2/3 117/2/3
f 120/2/3 118/2/3 119/2/3
f 123/2/3 122/2/3 121/2/3
f 124/2/3 122/2/3 123/2/3
f 127/2/3 126/2/3 125/2/3
f 129/2/3 127/2/3 125/2/3
f 129/2/3 128/2/3 127/2/3
f 130/2/3 128/2/3 129/2/3
f 131/2/3 129/2/3 125/2/3
f 132/2/3 129/2/3 131/2/3
f 135/2/3 134/2/3 133/2/3
f 136/2/3 134/2/3 135/2/3
f 139/2/3 138/2/3 137/2/3
f 140/2/3 138/2/3 139/2/3
f 143/2/3 142/2/3 141/2/3
f 144/2/3 142/2/3 143/2/3
f 145/2/3 142/2/3 144/2/3
f 147/2/3 146/2/3 145/2/3
f 147/2/3 145/2/3 144/2/3
f 149/2/3 147/2/3 144/2/3
f 149/2/3 148/2/3 147/2/3
f 150/2/3 148/2/3 149/2/3
f 151/2/3 148/2/3 150/2/3
f 152/2/3 148/2/3 151/2/3
f 153/2/4 154/2/4 155/2/4
f 155/2/4 154/2/4 156/2/4
f 156/2/4 154/2/4 157/2/4
f 157/2/4 154/2/4 158/2/4
f 159/2/4 160/2/4 161/2/4
f 161/2/4 160/2/4 162/2/4
f 163/2/4 164/2/4 165/2/4
f 165/2/4 164/2/4 166/2/4
f 167/2/4 168/2/4 169/2/4
f 169/2/4 168/2/4 170/2/4
f 171/2/4 172/2/4 173/2/4
f 173/2/4 172/2/4 174/2/4
f 175/2/4 176/2/4 177/2/4
f 177/2/4 176/2/4 178/2/4
f 179/2/4 180/2/4 182/2/4
f 181/2/4 182/2/4 183/2/4
f 182/2/4 180/2/4 184/2/4
f 183/2/4 182/2/4 184/2/4
f 185/2/4 186/2/4 187/2/4
f 187/2/4 186/2/4 188/2/4
f 189/2/4 190/2/4 191/2/4
f 191/2/4 190/2/4 192/2/4
f 193/2/4 194/2/4 195/2/4
f 195/2/4 194/2/4 196/2/4
f 197/2/4 198/2/4 199/2/4
f 199/2/4 198/2/4 200/2/4
f 204/2/5 202/2/5 201/2/5
f 205/2/5 202/2/5 204/2/5
f 207/2/5 204/2/5 203/2/5
f 207/2/5 206/2/5 205/2/5
f 207/2/5 205/2/5 204/2/5
f 208/2/5 206/2/5 207/2/5
f 209/2/5 206/2/5 208/2/5
f 210/2/5 206/2/5 209/2/5
f 214/2/5 212/2/5 211/2/5
f 215/2/5 214/2/5 213/2/5
f 216/2/5 212/2/5 214/2/5
f 216/2/5 214/2/5 215/2/5
f 217/2/5 212/2/5 216/2/5
f 218/2/5 212/2/5 217/2/5
f 219/2/6 220/2/6 222/2/6
f 222/2/6 220/2/6 223/2/6
f 223/2/6 220/2/6 224/2/6
f 224/2/6 220/2/6 225/2/6
f 221/2/6 222/2/6 227/2/6
f 222/2/6 223/2/6 227/2/6
f 227/2/6 223/2/6 228/2/6
f 225/2/6 226/2/6 229/2/6
f 224/2/6 225/2/6 229/2/6
f 229/2/6 226/2/6 230/2/6
f 221/2/6 227/2/6 231/2/6
f 221/2/6 231/2/6 233/2/6
f 231/2/6 232/2/6 233/2/6
f 233/2/6 232/2/6 234/2/6
f 234/2/6 232/2/6 235/2/6
f 230/2/6 226/2/6 236/2/6
f 234/2/6 235/2/6 237/2/6
f 235/2/6 236/2/6 237/2/6
f 236/2/6 226/2/6 238/2/6
f 237/2/6 236/2/6 238/2/6
f 239/2/6 240/2/6 244/2/6
f 243/2/6 244/2/6 245/2/6
f 244/2/6 240/2/6 246/2/6
f 245/2/6 244/2/6 246/2/6
f 243/2/6 245/2/6 247/2/6
f 241/2/6 242/2/6 250/2/6
f 243/2/6 247/2/6 251/2/6
f 247/2/6 248/2/6 251/2/6
f 251/2/6 248/2/6 252/2/6
f 252/2/6 248/2/6 253/2/6
f 249/2/6 250/2/6 254/2/6
f 252/2/6 253/2/6 255/2/6
f 253/2/6 254/2/6 255/2/6
f 254/2/6 250/2/6 256/2/6
f 255/2/6 254/2/6 256/2/6
f 250/2/6 242/2/6 256/2/6
f 257/2/6 258/2/6 260/2/6
f 259/2/6 260/2/6 261/2/6
f 260/2/6 258/2/6 262/2/6
f 261/2/6 260/2/6 262/2/6
f 263/2/6 264/2/6 266/2/6
f 265/2/6 266/2/6 267/2/6
f 266/2/6 264/2/6 268/2/6
f 267/2/6 266/2/6 268/2/6
f 269/2/6 270/2/6 271/2/6
f 271/2/6 270/2/6 272/2/6
f 269/2/6 271/2/6 273/2/6
f 273/2/6 271/2/6 274/2/6
f 275/2/6 276/2/6 277/2/6
f 277/2/6 276/2/6 278/2/6
f 279/2/6 280/2/6 282/2/6
f 281/2/6 282/2/6 283/2/6
f 282/2/6 280/2/6 284/2/6
f 283/2/6 282/2/6 284/2/6
f 285/2/6 286/2/6 289/2/6
f 289/2/6 286/2/6 290/2/6
f 287/2/6 288/2/6 291/2/6
f 290/2/6 286/2/6 292/2/6
f 291/2/6 292/2/6 293/2/6
f 292/2/6 286/2/6 294/2/6
f 293/2/6 292/2/6 294/2/6
f 287/2/6 291/2/6 295/2/6
f 291/2/6 293/2/6 295/2/6
f 295/2/6 293/2/6 296/2/6
f 297/2/6 298/2/6 299/2/6
f 299/2/6 298/2/6 300/2/6
