# MagicaVoxel @ ephtracy

# material
mtllib wonky.mtl
usemtl palette

# normals
vn -1 0 0
vn 1 0 0
vn 0 -1 0
vn 0 1 0
vn 0 0 -1
vn 0 0 1

# texcoords
vt 0.642578 0.5

# verts
v 11 0 18
v 11 17 18
v 11 0 24
v 11 17 24
v 14 17 18
v 14 25 18
v 14 17 24
v 14 25 24
v 18 25 18
v 18 41 18
v 18 25 24
v 18 41 24
v 21 41 18
v 21 52 18
v 21 0 24
v 21 8 24
v 21 41 24
v 21 52 24
v 21 0 30
v 21 8 30
v 26 8 24
v 26 13 24
v 26 8 30
v 26 13 30
v 27 52 18
v 27 71 18
v 27 52 24
v 27 71 24
v 31 0 30
v 31 9 30
v 31 0 36
v 31 9 36
v 33 71 18
v 33 77 18
v 33 71 24
v 33 77 24
v 34 13 24
v 34 20 24
v 34 13 30
v 34 20 30
v 36 77 18
v 36 86 18
v 36 77 21
v 36 86 21
v 39 86 18
v 39 94 18
v 39 77 21
v 39 86 21
v 39 77 24
v 39 94 24
v 39 9 30
v 39 16 30
v 39 9 36
v 39 16 36
v 43 94 18
v 43 102 18
v 43 94 24
v 43 102 24
v 48 20 24
v 48 26 24
v 48 20 30
v 48 26 30
v 50 102 18
v 50 120 18
v 50 102 24
v 50 120 24
v 53 16 30
v 53 22 30
v 53 16 36
v 53 22 36
v 60 26 24
v 60 30 24
v 60 82 24
v 60 100 24
v 60 109 24
v 60 120 24
v 60 26 30
v 60 30 30
v 60 109 30
v 60 120 30
v 60 82 31
v 60 100 31
v 63 100 24
v 63 109 24
v 63 100 30
v 63 109 30
v 64 30 24
v 64 35 24
v 64 30 30
v 64 35 30
v 65 22 30
v 65 29 30
v 65 22 36
v 65 29 36
v 67 73 24
v 67 82 24
v 67 73 30
v 67 82 30
v 70 112 30
v 70 120 30
v 70 112 36
v 70 120 36
v 72 51 24
v 72 73 24
v 72 51 30
v 72 73 30
v 74 35 24
v 74 51 24
v 74 35 30
v 74 51 30
v 75 83 30
v 75 112 30
v 75 83 36
v 75 112 36
v 77 56 30
v 77 83 30
v 77 56 36
v 77 83 36
v 79 29 30
v 79 56 30
v 79 29 36
v 79 56 36
v 70 82 30
v 70 100 30
v 70 82 31
v 70 100 31
v 80 0 18
v 80 120 18
v 80 0 36
v 80 120 36
v 11 0 18
v 11 0 24
v 21 0 24
v 21 0 30
v 31 0 30
v 31 0 36
v 80 0 18
v 80 0 36
v 72 51 24
v 72 51 30
v 74 51 24
v 74 51 30
v 77 56 30
v 77 56 36
v 79 56 30
v 79 56 36
v 67 73 24
v 67 73 30
v 72 73 24
v 72 73 30
v 60 82 24
v 60 82 31
v 67 82 24
v 67 82 30
v 70 82 30
v 70 82 31
v 75 83 30
v 75 83 36
v 77 83 30
v 77 83 36
v 60 109 24
v 60 109 30
v 63 109 24
v 63 109 30
v 70 112 30
v 70 112 36
v 75 112 30
v 75 112 36
v 21 8 24
v 21 8 30
v 26 8 24
v 26 8 30
v 31 9 30
v 31 9 36
v 39 9 30
v 39 9 36
v 26 13 24
v 26 13 30
v 34 13 24
v 34 13 30
v 39 16 30
v 39 16 36
v 53 16 30
v 53 16 36
v 11 17 18
v 11 17 24
v 14 17 18
v 14 17 24
v 34 20 24
v 34 20 30
v 48 20 24
v 48 20 30
v 53 22 30
v 53 22 36
v 65 22 30
v 65 22 36
v 14 25 18
v 14 25 24
v 18 25 18
v 18 25 24
v 48 26 24
v 48 26 30
v 60 26 24
v 60 26 30
v 65 29 30
v 65 29 36
v 79 29 30
v 79 29 36
v 60 30 24
v 60 30 30
v 64 30 24
v 64 30 30
v 64 35 24
v 64 35 30
v 74 35 24
v 74 35 30
v 18 41 18
v 18 41 24
v 21 41 18
v 21 41 24
v 21 52 18
v 21 52 24
v 27 52 18
v 27 52 24
v 27 71 18
v 27 71 24
v 33 71 18
v 33 71 24
v 33 77 18
v 33 77 24
v 36 77 18
v 36 77 21
v 39 77 21
v 39 77 24
v 36 86 18
v 36 86 21
v 39 86 18
v 39 86 21
v 39 94 18
v 39 94 24
v 43 94 18
v 43 94 24
v 60 100 24
v 60 100 31
v 63 100 24
v 63 100 30
v 70 100 30
v 70 100 31
v 43 102 18
v 43 102 24
v 50 102 18
v 50 102 24
v 50 120 18
v 50 120 24
v 60 120 24
v 60 120 30
v 70 120 30
v 70 120 36
v 80 120 18
v 80 120 36
v 11 0 18
v 80 0 18
v 11 17 18
v 14 17 18
v 14 25 18
v 18 25 18
v 18 41 18
v 21 41 18
v 21 52 18
v 27 52 18
v 27 71 18
v 33 71 18
v 33 77 18
v 36 77 18
v 36 86 18
v 39 86 18
v 39 94 18
v 43 94 18
v 43 102 18
v 50 102 18
v 50 120 18
v 80 120 18
v 36 77 21
v 39 77 21
v 36 86 21
v 39 86 21
v 11 0 24
v 21 0 24
v 21 8 24
v 26 8 24
v 26 13 24
v 34 13 24
v 11 17 24
v 14 17 24
v 34 20 24
v 48 20 24
v 14 25 24
v 18 25 24
v 48 26 24
v 60 26 24
v 60 30 24
v 64 30 24
v 64 35 24
v 74 35 24
v 18 41 24
v 21 41 24
v 72 51 24
v 74 51 24
v 21 52 24
v 27 52 24
v 27 71 24
v 33 71 24
v 67 73 24
v 72 73 24
v 33 77 24
v 39 77 24
v 60 82 24
v 67 82 24
v 39 94 24
v 43 94 24
v 60 100 24
v 63 100 24
v 43 102 24
v 50 102 24
v 60 109 24
v 63 109 24
v 50 120 24
v 60 120 24
v 21 0 30
v 31 0 30
v 21 8 30
v 26 8 30
v 31 9 30
v 39 9 30
v 26 13 30
v 34 13 30
v 39 16 30
v 53 16 30
v 34 20 30
v 48 20 30
v 53 22 30
v 65 22 30
v 48 26 30
v 60 26 30
v 65 29 30
v 79 29 30
v 60 30 30
v 64 30 30
v 64 35 30
v 74 35 30
v 72 51 30
v 74 51 30
v 77 56 30
v 79 56 30
v 67 73 30
v 72 73 30
v 67 82 30
v 70 82 30
v 75 83 30
v 77 83 30
v 63 100 30
v 70 100 30
v 60 109 30
v 63 109 30
v 70 112 30
v 75 112 30
v 60 120 30
v 70 120 30
v 60 82 31
v 70 82 31
v 60 100 31
v 70 100 31
v 31 0 36
v 80 0 36
v 31 9 36
v 39 9 36
v 39 16 36
v 53 16 36
v 53 22 36
v 65 22 36
v 65 29 36
v 79 29 36
v 77 56 36
v 79 56 36
v 75 83 36
v 77 83 36
v 70 112 36
v 75 112 36
v 70 120 36
v 80 120 36

# faces
f 3/1/1 2/1/1 1/1/1
f 4/1/1 2/1/1 3/1/1
f 7/1/1 6/1/1 5/1/1
f 8/1/1 6/1/1 7/1/1
f 11/1/1 10/1/1 9/1/1
f 12/1/1 10/1/1 11/1/1
f 17/1/1 14/1/1 13/1/1
f 18/1/1 14/1/1 17/1/1
f 19/1/1 16/1/1 15/1/1
f 20/1/1 16/1/1 19/1/1
f 23/1/1 22/1/1 21/1/1
f 24/1/1 22/1/1 23/1/1
f 27/1/1 26/1/1 25/1/1
f 28/1/1 26/1/1 27/1/1
f 31/1/1 30/1/1 29/1/1
f 32/1/1 30/1/1 31/1/1
f 35/1/1 34/1/1 33/1/1
f 36/1/1 34/1/1 35/1/1
f 39/1/1 38/1/1 37/1/1
f 40/1/1 38/1/1 39/1/1
f 43/1/1 42/1/1 41/1/1
f 44/1/1 42/1/1 43/1/1
f 48/1/1 46/1/1 45/1/1
f 49/1/1 48/1/1 47/1/1
f 50/1/1 46/1/1 48/1/1
f 50/1/1 48/1/1 49/1/1
f 53/1/1 52/1/1 51/1/1
f 54/1/1 52/1/1 53/1/1
f 57/1/1 56/1/1 55/1/1
f 58/1/1 56/1/1 57/1/1
f 61/1/1 60/1/1 59/1/1
f 62/1/1 60/1/1 61/1/1
f 65/1/1 64/1/1 63/1/1
f 66/1/1 64/1/1 65/1/1
f 69/1/1 68/1/1 67/1/1
f 70/1/1 68/1/1 69/1/1
f 77/1/1 72/1/1 71/1/1
f 78/1/1 72/1/1 77/1/1
f 79/1/1 76/1/1 75/1/1
f 80/1/1 76/1/1 79/1/1
f 81/1/1 74/1/1 73/1/1
f 82/1/1 74/1/1 81/1/1
f 85/1/1 84/1/1 83/1/1
f 86/1/1 84/1/1 85/1/1
f 89/1/1 88/1/1 87/1/1
f 90/1/1 88/1/1 89/1/1
f 93/1/1 92/1/1 91/1/1
f 94/1/1 92/1/1 93/1/1
f 97/1/1 96/1/1 95/1/1
f 98/1/1 96/1/1 97/1/1
f 101/1/1 100/1/1 99/1/1
f 102/1/1 100/1/1 101/1/1
f 105/1/1 104/1/1 103/1/1
f 106/1/1 104/1/1 105/1/1
f 109/1/1 108/1/1 107/1/1
f 110/1/1 108/1/1 109/1/1
f 113/1/1 112/1/1 111/1/1
f 114/1/1 112/1/1 113/1/1
f 117/1/1 116/1/1 115/1/1
f 118/1/1 116/1/1 117/1/1
f 121/1/1 120/1/1 119/1/1
f 122/1/1 120/1/1 121/1/1
f 123/1/2 124/1/2 125/1/2
f 125/1/2 124/1/2 126/1/2
f 127/1/2 128/1/2 129/1/2
f 129/1/2 128/1/2 130/1/2
f 133/1/3 132/1/3 131/1/3
f 135/1/3 134/1/3 133/1/3
f 137/1/3 133/1/3 131/1/3
f 137/1/3 136/1/3 135/1/3
f 137/1/3 135/1/3 133/1/3
f 138/1/3 136/1/3 137/1/3
f 141/1/3 140/1/3 139/1/3
f 142/1/3 140/1/3 141/1/3
f 145/1/3 144/1/3 143/1/3
f 146/1/3 144/1/3 145/1/3
f 149/1/3 148/1/3 147/1/3
f 150/1/3 148/1/3 149/1/3
f 153/1/3 152/1/3 151/1/3
f 154/1/3 152/1/3 153/1/3
f 155/1/3 152/1/3 154/1/3
f 156/1/3 152/1/3 155/1/3
f 159/1/3 158/1/3 157/1/3
f 160/1/3 158/1/3 159/1/3
f 163/1/3 162/1/3 161/1/3
f 164/1/3 162/1/3 163/1/3
f 167/1/3 166/1/3 165/1/3
f 168/1/3 166/1/3 167/1/3
f 169/1/4 170/1/4 171/1/4
f 171/1/4 170/1/4 172/1/4
f 173/1/4 174/1/4 175/1/4
f 175/1/4 174/1/4 176/1/4
f 177/1/4 178/1/4 179/1/4
f 179/1/4 178/1/4 180/1/4
f 181/1/4 182/1/4 183/1/4
f 183/1/4 182/1/4 184/1/4
f 185/1/4 186/1/4 187/1/4
f 187/1/4 186/1/4 188/1/4
f 189/1/4 190/1/4 191/1/4
f 191/1/4 190/1/4 192/1/4
f 193/1/4 194/1/4 195/1/4
f 195/1/4 194/1/4 196/1/4
f 197/1/4 198/1/4 199/1/4
f 199/1/4 198/1/4 200/1/4
f 201/1/4 202/1/4 203/1/4
f 203/1/4 202/1/4 204/1/4
f 205/1/4 206/1/4 207/1/4
f 207/1/4 206/1/4 208/1/4
f 209/1/4 210/1/4 211/1/4
f 211/1/4 210/1/4 212/1/4
f 213/1/4 214/1/4 215/1/4
f 215/1/4 214/1/4 216/1/4
f 217/1/4 218/1/4 219/1/4
f 219/1/4 218/1/4 220/1/4
f 221/1/4 222/1/4 223/1/4
f 223/1/4 222/1/4 224/1/4
f 225/1/4 226/1/4 227/1/4
f 227/1/4 226/1/4 228/1/4
f 229/1/4 230/1/4 231/1/4
f 231/1/4 230/1/4 232/1/4
f 232/1/4 230/1/4 233/1/4
f 233/1/4 230/1/4 234/1/4
f 235/1/4 236/1/4 237/1/4
f 237/1/4 236/1/4 238/1/4
f 239/1/4 240/1/4 241/1/4
f 241/1/4 240/1/4 242/1/4
f 243/1/4 244/1/4 245/1/4
f 245/1/4 244/1/4 246/1/4
f 246/1/4 244/1/4 247/1/4
f 247/1/4 244/1/4 248/1/4
f 249/1/4 250/1/4 251/1/4
f 251/1/4 250/1/4 252/1/4
f 253/1/4 254/1/4 255/1/4
f 255/1/4 256/1/4 257/1/4
f 253/1/4 255/1/4 259/1/4
f 257/1/4 258/1/4 259/1/4
f 255/1/4 257/1/4 259/1/4
f 259/1/4 258/1/4 260/1/4
f 263/1/5 262/1/5 261/1/5
f 264/1/5 262/1/5 263/1/5
f 265/1/5 262/1/5 264/1/5
f 266/1/5 262/1/5 265/1/5
f 267/1/5 262/1/5 266/1/5
f 268/1/5 262/1/5 267/1/5
f 269/1/5 262/1/5 268/1/5
f 270/1/5 262/1/5 269/1/5
f 271/1/5 262/1/5 270/1/5
f 272/1/5 262/1/5 271/1/5
f 273/1/5 262/1/5 272/1/5
f 274/1/5 262/1/5 273/1/5
f 275/1/5 262/1/5 274/1/5
f 276/1/5 262/1/5 275/1/5
f 277/1/5 262/1/5 276/1/5
f 278/1/5 262/1/5 277/1/5
f 279/1/5 262/1/5 278/1/5
f 280/1/5 262/1/5 279/1/5
f 281/1/5 262/1/5 280/1/5
f 282/1/5 262/1/5 281/1/5
f 283/1/6 284/1/6 285/1/6
f 285/1/6 284/1/6 286/1/6
f 287/1/6 288/1/6 289/1/6
f 289/1/6 290/1/6 291/1/6
f 287/1/6 289/1/6 293/1/6
f 291/1/6 292/1/6 293/1/6
f 289/1/6 291/1/6 293/1/6
f 293/1/6 292/1/6 294/1/6
f 294/1/6 292/1/6 295/1/6
f 294/1/6 295/1/6 297/1/6
f 295/1/6 296/1/6 297/1/6
f 297/1/6 296/1/6 298/1/6
f 298/1/6 296/1/6 299/1/6
f 299/1/6 300/1/6 301/1/6
f 301/1/6 302/1/6 303/1/6
f 298/1/6 299/1/6 305/1/6
f 303/1/6 304/1/6 305/1/6
f 301/1/6 303/1/6 305/1/6
f 299/1/6 301/1/6 305/1/6
f 305/1/6 304/1/6 306/1/6
f 306/1/6 304/1/6 307/1/6
f 307/1/6 304/1/6 308/1/6
f 306/1/6 307/1/6 309/1/6
f 309/1/6 307/1/6 310/1/6
f 310/1/6 307/1/6 311/1/6
f 311/1/6 307/1/6 312/1/6
f 312/1/6 307/1/6 313/1/6
f 313/1/6 307/1/6 314/1/6
f 312/1/6 313/1/6 315/1/6
f 315/1/6 313/1/6 316/1/6
f 316/1/6 313/1/6 317/1/6
f 317/1/6 313/1/6 318/1/6
f 316/1/6 317/1/6 319/1/6
f 319/1/6 317/1/6 320/1/6
f 320/1/6 317/1/6 321/1/6
f 320/1/6 321/1/6 323/1/6
f 321/1/6 322/1/6 323/1/6
f 323/1/6 322/1/6 324/1/6
f 324/1/6 322/1/6 325/1/6
f 325/1/6 322/1/6 326/1/6
f 324/1/6 325/1/6 327/1/6
f 327/1/6 325/1/6 328/1/6
f 329/1/6 330/1/6 331/1/6
f 331/1/6 330/1/6 332/1/6
f 332/1/6 330/1/6 333/1/6
f 332/1/6 333/1/6 335/1/6
f 333/1/6 334/1/6 335/1/6
f 335/1/6 334/1/6 336/1/6
f 336/1/6 334/1/6 337/1/6
f 336/1/6 337/1/6 339/1/6
f 337/1/6 338/1/6 339/1/6
f 339/1/6 338/1/6 340/1/6
f 340/1/6 338/1/6 341/1/6
f 340/1/6 341/1/6 343/1/6
f 341/1/6 342/1/6 343/1/6
f 343/1/6 342/1/6 344/1/6
f 344/1/6 342/1/6 345/1/6
f 344/1/6 345/1/6 347/1/6
f 345/1/6 346/1/6 347/1/6
f 347/1/6 346/1/6 348/1/6
f 348/1/6 346/1/6 349/1/6
f 349/1/6 346/1/6 350/1/6
f 350/1/6 346/1/6 352/1/6
f 352/1/6 346/1/6 353/1/6
f 351/1/6 352/1/6 353/1/6
f 353/1/6 346/1/6 354/1/6
f 351/1/6 353/1/6 356/1/6
f 355/1/6 356/1/6 357/1/6
f 357/1/6 356/1/6 358/1/6
f 356/1/6 353/1/6 359/1/6
f 358/1/6 356/1/6 359/1/6
f 359/1/6 353/1/6 360/1/6
f 358/1/6 359/1/6 362/1/6
f 361/1/6 362/1/6 364/1/6
f 362/1/6 359/1/6 365/1/6
f 363/1/6 364/1/6 365/1/6
f 364/1/6 362/1/6 365/1/6
f 365/1/6 359/1/6 366/1/6
f 363/1/6 365/1/6 367/1/6
f 367/1/6 365/1/6 368/1/6
f 369/1/6 370/1/6 371/1/6
f 371/1/6 370/1/6 372/1/6
f 373/1/6 374/1/6 375/1/6
f 375/1/6 374/1/6 376/1/6
f 376/1/6 374/1/6 377/1/6
f 377/1/6 374/1/6 378/1/6
f 378/1/6 374/1/6 379/1/6
f 379/1/6 374/1/6 380/1/6
f 380/1/6 374/1/6 381/1/6
f 381/1/6 374/1/6 382/1/6
f 382/1/6 374/1/6 384/1/6
f 383/1/6 384/1/6 386/1/6
f 385/1/6 386/1/6 388/1/6
f 387/1/6 388/1/6 389/1/6
f 384/1/6 374/1/6 390/1/6
f 389/1/6 388/1/6 390/1/6
f 386/1/6 384/1/6 390/1/6
f 388/1/6 386/1/6 390/1/6
