# MagicaVoxel @ ephtracy

# material
mtllib spaceman.mtl
usemtl palette

# normals
vn -1 0 0
vn 1 0 0
vn 0 -1 0
vn 0 1 0
vn 0 0 -1
vn 0 0 1

# texcoords
vt 0.00195312 0.5
vt 0.00585938 0.5
vt 0.130859 0.5
vt 0.228516 0.5
vt 0.380859 0.5

# verts
v 0 9 36
v 0 15 36
v 0 17 36
v 0 12 39
v 0 15 39
v 0 17 39
v 0 9 41
v 0 12 41
v 2 5 42
v 2 18 42
v 2 10 44
v 2 13 44
v 2 18 44
v 2 5 52
v 2 10 52
v 2 13 52
v 2 18 52
v 3 10 29
v 3 17 29
v 3 10 31
v 3 13 31
v 3 17 31
v 3 6 34
v 3 10 34
v 3 13 34
v 3 16 34
v 3 9 36
v 3 15 36
v 3 16 36
v 3 12 39
v 3 15 39
v 3 16 39
v 3 9 41
v 3 12 41
v 3 6 42
v 3 16 42
v 4 0 36
v 4 6 36
v 4 5 42
v 4 6 42
v 4 0 49
v 4 5 49
v 5 2 49
v 5 3 49
v 5 2 58
v 5 3 58
v 9 10 29
v 9 17 29
v 9 10 31
v 9 13 31
v 9 17 31
v 9 11 33
v 9 12 33
v 9 10 34
v 9 11 34
v 9 12 34
v 9 13 34
v 10 2 49
v 10 3 49
v 10 2 55
v 10 3 55
v 13 16 36
v 13 17 36
v 13 16 39
v 13 17 39
v 3 16 36
v 3 17 36
v 3 16 39
v 3 17 39
v 6 2 49
v 6 3 49
v 6 2 58
v 6 3 58
v 7 10 29
v 7 17 29
v 7 10 31
v 7 13 31
v 7 17 31
v 7 11 33
v 7 12 33
v 7 10 34
v 7 11 34
v 7 12 34
v 7 13 34
v 11 2 49
v 11 3 49
v 11 2 55
v 11 3 55
v 12 0 36
v 12 6 36
v 12 5 42
v 12 6 42
v 12 0 49
v 12 5 49
v 13 10 29
v 13 17 29
v 13 10 31
v 13 13 31
v 13 17 31
v 13 6 34
v 13 10 34
v 13 13 34
v 13 16 34
v 13 9 36
v 13 15 36
v 13 16 36
v 13 12 39
v 13 15 39
v 13 16 39
v 13 9 41
v 13 12 41
v 13 6 42
v 13 16 42
v 14 5 42
v 14 18 42
v 14 10 44
v 14 13 44
v 14 18 44
v 14 5 52
v 14 10 52
v 14 13 52
v 14 18 52
v 16 9 36
v 16 15 36
v 16 17 36
v 16 12 39
v 16 15 39
v 16 17 39
v 16 9 41
v 16 12 41
v 4 0 36
v 4 0 49
v 12 0 36
v 12 0 49
v 5 2 49
v 5 2 58
v 6 2 49
v 6 2 58
v 10 2 49
v 10 2 55
v 11 2 49
v 11 2 55
v 2 5 42
v 2 5 52
v 4 5 42
v 4 5 49
v 12 5 42
v 12 5 49
v 14 5 42
v 14 5 52
v 3 6 34
v 3 6 42
v 4 6 36
v 4 6 42
v 12 6 36
v 12 6 42
v 13 6 34
v 13 6 42
v 0 9 36
v 0 9 41
v 3 9 36
v 3 9 41
v 13 9 36
v 13 9 41
v 16 9 36
v 16 9 41
v 3 10 29
v 3 10 31
v 3 10 34
v 7 10 29
v 7 10 31
v 7 10 34
v 9 10 29
v 9 10 31
v 9 10 34
v 13 10 29
v 13 10 31
v 13 10 34
v 5 3 49
v 5 3 58
v 6 3 49
v 6 3 58
v 10 3 49
v 10 3 55
v 11 3 49
v 11 3 55
v 0 12 39
v 0 12 41
v 3 12 39
v 3 12 41
v 13 12 39
v 13 12 41
v 16 12 39
v 16 12 41
v 3 13 31
v 3 13 34
v 7 13 31
v 7 13 34
v 9 13 31
v 9 13 34
v 13 13 31
v 13 13 34
v 3 16 34
v 3 16 36
v 3 16 39
v 3 16 42
v 13 16 34
v 13 16 36
v 13 16 39
v 13 16 42
v 0 17 36
v 0 17 39
v 3 17 29
v 3 17 31
v 3 17 36
v 3 17 39
v 7 17 29
v 7 17 31
v 9 17 29
v 9 17 31
v 13 17 29
v 13 17 31
v 13 17 36
v 13 17 39
v 16 17 36
v 16 17 39
v 2 18 42
v 2 18 44
v 2 18 52
v 14 18 42
v 14 18 44
v 14 18 52
v 3 10 29
v 7 10 29
v 9 10 29
v 13 10 29
v 3 17 29
v 7 17 29
v 9 17 29
v 13 17 29
v 3 6 34
v 13 6 34
v 3 10 34
v 7 10 34
v 9 10 34
v 13 10 34
v 7 11 34
v 9 11 34
v 7 12 34
v 9 12 34
v 3 13 34
v 7 13 34
v 9 13 34
v 13 13 34
v 3 16 34
v 13 16 34
v 4 0 36
v 12 0 36
v 4 6 36
v 12 6 36
v 0 9 36
v 3 9 36
v 13 9 36
v 16 9 36
v 0 15 36
v 3 15 36
v 13 15 36
v 16 15 36
v 3 16 36
v 13 16 36
v 0 17 36
v 3 17 36
v 13 17 36
v 16 17 36
v 2 5 42
v 4 5 42
v 12 5 42
v 14 5 42
v 3 6 42
v 4 6 42
v 12 6 42
v 13 6 42
v 3 16 42
v 13 16 42
v 3 17 42
v 13 17 42
v 2 18 42
v 14 18 42
v 3 13 31
v 7 13 31
v 9 13 31
v 13 13 31
v 3 17 31
v 7 17 31
v 9 17 31
v 13 17 31
v 0 12 39
v 3 12 39
v 13 12 39
v 16 12 39
v 0 15 39
v 3 15 39
v 13 15 39
v 16 15 39
v 3 16 39
v 13 16 39
v 0 17 39
v 3 17 39
v 13 17 39
v 16 17 39
v 0 9 41
v 3 9 41
v 13 9 41
v 16 9 41
v 0 12 41
v 3 12 41
v 13 12 41
v 16 12 41
v 4 0 49
v 12 0 49
v 5 2 49
v 6 2 49
v 10 2 49
v 11 2 49
v 5 3 49
v 6 3 49
v 10 3 49
v 11 3 49
v 4 5 49
v 12 5 49
v 2 5 52
v 14 5 52
v 2 10 52
v 14 10 52
v 2 13 52
v 14 13 52
v 2 18 52
v 14 18 52
v 10 2 55
v 11 2 55
v 10 3 55
v 11 3 55
v 5 2 58
v 6 2 58
v 5 3 58
v 6 3 58

# faces
f 4/1/1 2/1/1 1/1/1
f 5/5/1 3/5/1 2/5/1
f 5/1/1 2/1/1 4/1/1
f 6/5/1 3/5/1 5/5/1
f 7/1/1 4/1/1 1/1/1
f 8/1/1 4/1/1 7/1/1
f 11/1/1 10/1/1 9/1/1
f 12/1/1 10/1/1 11/1/1
f 13/1/1 10/1/1 12/1/1
f 14/1/1 11/1/1 9/1/1
f 15/4/1 12/4/1 11/4/1
f 15/1/1 11/1/1 14/1/1
f 16/5/1 13/5/1 12/5/1
f 16/4/1 12/4/1 15/4/1
f 17/5/1 13/5/1 16/5/1
f 20/5/1 19/5/1 18/5/1
f 21/5/1 19/5/1 20/5/1
f 22/5/1 19/5/1 21/5/1
f 24/1/1 21/1/1 20/1/1
f 25/1/1 21/1/1 24/1/1
f 27/1/1 24/1/1 23/1/1
f 27/1/1 26/1/1 25/1/1
f 27/1/1 25/1/1 24/1/1
f 28/1/1 26/1/1 27/1/1
f 29/1/1 26/1/1 28/1/1
f 33/1/1 27/1/1 23/1/1
f 34/1/1 32/1/1 31/1/1
f 34/1/1 31/1/1 30/1/1
f 35/1/1 33/1/1 23/1/1
f 35/1/1 34/1/1 33/1/1
f 36/1/1 32/1/1 34/1/1
f 36/1/1 34/1/1 35/1/1
f 39/3/1 38/3/1 37/3/1
f 40/3/1 38/3/1 39/3/1
f 41/3/1 39/3/1 37/3/1
f 42/3/1 39/3/1 41/3/1
f 45/3/1 44/3/1 43/3/1
f 46/3/1 44/3/1 45/3/1
f 49/5/1 48/5/1 47/5/1
f 50/5/1 48/5/1 49/5/1
f 51/5/1 48/5/1 50/5/1
f 52/1/1 50/1/1 49/1/1
f 53/1/1 50/1/1 52/1/1
f 54/1/1 52/1/1 49/1/1
f 55/2/1 53/2/1 52/2/1
f 55/1/1 52/1/1 54/1/1
f 56/1/1 50/1/1 53/1/1
f 56/2/1 53/2/1 55/2/1
f 57/1/1 50/1/1 56/1/1
f 60/3/1 59/3/1 58/3/1
f 61/3/1 59/3/1 60/3/1
f 64/5/1 63/5/1 62/5/1
f 65/5/1 63/5/1 64/5/1
f 66/5/2 67/5/2 68/5/2
f 68/5/2 67/5/2 69/5/2
f 70/3/2 71/3/2 72/3/2
f 72/3/2 71/3/2 73/3/2
f 74/5/2 75/5/2 76/5/2
f 76/5/2 75/5/2 77/5/2
f 77/5/2 75/5/2 78/5/2
f 76/1/2 77/1/2 79/1/2
f 79/1/2 77/1/2 80/1/2
f 76/1/2 79/1/2 81/1/2
f 79/2/2 80/2/2 82/2/2
f 81/1/2 79/1/2 82/1/2
f 80/1/2 77/1/2 83/1/2
f 82/2/2 80/2/2 83/2/2
f 83/1/2 77/1/2 84/1/2
f 85/3/2 86/3/2 87/3/2
f 87/3/2 86/3/2 88/3/2
f 89/3/2 90/3/2 91/3/2
f 91/3/2 90/3/2 92/3/2
f 89/3/2 91/3/2 93/3/2
f 93/3/2 91/3/2 94/3/2
f 95/5/2 96/5/2 97/5/2
f 97/5/2 96/5/2 98/5/2
f 98/5/2 96/5/2 99/5/2
f 97/1/2 98/1/2 101/1/2
f 101/1/2 98/1/2 102/1/2
f 100/1/2 101/1/2 104/1/2
f 102/1/2 103/1/2 104/1/2
f 101/1/2 102/1/2 104/1/2
f 104/1/2 103/1/2 105/1/2
f 105/1/2 103/1/2 106/1/2
f 100/1/2 104/1/2 110/1/2
f 108/1/2 109/1/2 111/1/2
f 107/1/2 108/1/2 111/1/2
f 100/1/2 110/1/2 112/1/2
f 110/1/2 111/1/2 112/1/2
f 111/1/2 109/1/2 113/1/2
f 112/1/2 111/1/2 113/1/2
f 114/1/2 115/1/2 116/1/2
f 116/1/2 115/1/2 117/1/2
f 117/1/2 115/1/2 118/1/2
f 114/1/2 116/1/2 119/1/2
f 116/4/2 117/4/2 120/4/2
f 119/1/2 116/1/2 120/1/2
f 117/5/2 118/5/2 121/5/2
f 120/4/2 117/4/2 121/4/2
f 121/5/2 118/5/2 122/5/2
f 123/1/2 124/1/2 126/1/2
f 124/5/2 125/5/2 127/5/2
f 126/1/2 124/1/2 127/1/2
f 127/5/2 125/5/2 128/5/2
f 123/1/2 126/1/2 129/1/2
f 129/1/2 126/1/2 130/1/2
f 133/3/3 132/3/3 131/3/3
f 134/3/3 132/3/3 133/3/3
f 137/3/3 136/3/3 135/3/3
f 138/3/3 136/3/3 137/3/3
f 141/3/3 140/3/3 139/3/3
f 142/3/3 140/3/3 141/3/3
f 145/1/3 144/1/3 143/1/3
f 146/1/3 144/1/3 145/1/3
f 148/1/3 144/1/3 146/1/3
f 149/1/3 148/1/3 147/1/3
f 150/1/3 144/1/3 148/1/3
f 150/1/3 148/1/3 149/1/3
f 153/1/3 152/1/3 151/1/3
f 154/1/3 152/1/3 153/1/3
f 155/1/3 153/1/3 151/1/3
f 157/1/3 155/1/3 151/1/3
f 157/1/3 156/1/3 155/1/3
f 158/1/3 156/1/3 157/1/3
f 161/1/3 160/1/3 159/1/3
f 162/1/3 160/1/3 161/1/3
f 165/1/3 164/1/3 163/1/3
f 166/1/3 164/1/3 165/1/3
f 170/5/3 168/5/3 167/5/3
f 171/1/3 169/1/3 168/1/3
f 171/5/3 168/5/3 170/5/3
f 172/1/3 169/1/3 171/1/3
f 176/5/3 174/5/3 173/5/3
f 177/1/3 175/1/3 174/1/3
f 177/5/3 174/5/3 176/5/3
f 178/1/3 175/1/3 177/1/3
f 179/3/4 180/3/4 181/3/4
f 181/3/4 180/3/4 182/3/4
f 183/3/4 184/3/4 185/3/4
f 185/3/4 184/3/4 186/3/4
f 187/1/4 188/1/4 189/1/4
f 189/1/4 188/1/4 190/1/4
f 191/1/4 192/1/4 193/1/4
f 193/1/4 192/1/4 194/1/4
f 195/1/4 196/1/4 197/1/4
f 197/1/4 196/1/4 198/1/4
f 199/1/4 200/1/4 201/1/4
f 201/1/4 200/1/4 202/1/4
f 203/1/4 204/1/4 207/1/4
f 205/1/4 206/1/4 207/1/4
f 204/1/4 205/1/4 207/1/4
f 207/1/4 206/1/4 208/1/4
f 208/1/4 206/1/4 209/1/4
f 209/1/4 206/1/4 210/1/4
f 211/5/4 212/5/4 215/5/4
f 215/5/4 212/5/4 216/5/4
f 213/5/4 214/5/4 217/5/4
f 217/5/4 214/5/4 218/5/4
f 219/5/4 220/5/4 221/5/4
f 221/5/4 220/5/4 222/5/4
f 223/5/4 224/5/4 225/5/4
f 225/5/4 224/5/4 226/5/4
f 227/1/4 228/1/4 230/1/4
f 228/5/4 229/5/4 231/5/4
f 230/1/4 228/1/4 231/1/4
f 231/5/4 229/5/4 232/5/4
f 237/5/5 234/5/5 233/5/5
f 238/5/5 234/5/5 237/5/5
f 239/5/5 236/5/5 235/5/5
f 240/5/5 236/5/5 239/5/5
f 243/1/5 242/1/5 241/1/5
f 244/1/5 242/1/5 243/1/5
f 245/1/5 242/1/5 244/1/5
f 246/1/5 242/1/5 245/1/5
f 247/1/5 245/1/5 244/1/5
f 248/1/5 245/1/5 247/1/5
f 249/1/5 248/1/5 247/1/5
f 250/1/5 248/1/5 249/1/5
f 252/1/5 250/1/5 249/1/5
f 253/1/5 250/1/5 252/1/5
f 255/1/5 253/1/5 252/1/5
f 255/1/5 254/1/5 253/1/5
f 255/1/5 252/1/5 251/1/5
f 256/1/5 254/1/5 255/1/5
f 259/3/5 258/3/5 257/3/5
f 260/3/5 258/3/5 259/3/5
f 265/1/5 262/1/5 261/1/5
f 266/1/5 262/1/5 265/1/5
f 267/1/5 264/1/5 263/1/5
f 268/1/5 264/1/5 267/1/5
f 269/5/5 266/5/5 265/5/5
f 270/5/5 268/5/5 267/5/5
f 271/5/5 269/5/5 265/5/5
f 272/5/5 269/5/5 271/5/5
f 273/5/5 268/5/5 270/5/5
f 274/5/5 268/5/5 273/5/5
f 279/1/5 276/1/5 275/1/5
f 280/1/5 276/1/5 279/1/5
f 281/1/5 278/1/5 277/1/5
f 282/1/5 278/1/5 281/1/5
f 283/1/5 279/1/5 275/1/5
f 284/1/5 278/1/5 282/1/5
f 285/1/5 283/1/5 275/1/5
f 285/2/5 284/2/5 283/2/5
f 286/1/5 278/1/5 284/1/5
f 286/2/5 284/2/5 285/2/5
f 287/1/5 285/1/5 275/1/5
f 287/1/5 286/1/5 285/1/5
f 288/1/5 278/1/5 286/1/5
f 288/1/5 286/1/5 287/1/5
f 289/5/6 290/5/6 293/5/6
f 293/5/6 290/5/6 294/5/6
f 291/5/6 292/5/6 295/5/6
f 295/5/6 292/5/6 296/5/6
f 297/1/6 298/1/6 301/1/6
f 301/1/6 298/1/6 302/1/6
f 299/1/6 300/1/6 303/1/6
f 303/1/6 300/1/6 304/1/6
f 301/5/6 302/5/6 305/5/6
f 303/5/6 304/5/6 306/5/6
f 301/5/6 305/5/6 307/5/6
f 307/5/6 305/5/6 308/5/6
f 306/5/6 304/5/6 309/5/6
f 309/5/6 304/5/6 310/5/6
f 311/1/6 312/1/6 315/1/6
f 315/1/6 312/1/6 316/1/6
f 313/1/6 314/1/6 317/1/6
f 317/1/6 314/1/6 318/1/6
f 319/3/6 320/3/6 321/3/6
f 321/3/6 320/3/6 322/3/6
f 322/3/6 320/3/6 323/3/6
f 323/3/6 320/3/6 324/3/6
f 319/3/6 321/3/6 325/3/6
f 322/3/6 323/3/6 326/3/6
f 326/3/6 323/3/6 327/3/6
f 324/3/6 320/3/6 328/3/6
f 326/3/6 327/3/6 329/3/6
f 327/3/6 328/3/6 329/3/6
f 319/3/6 325/3/6 329/3/6
f 325/3/6 326/3/6 329/3/6
f 328/3/6 320/3/6 330/3/6
f 329/3/6 328/3/6 330/3/6
f 331/1/6 332/1/6 333/1/6
f 333/1/6 332/1/6 334/1/6
f 333/4/6 334/4/6 335/4/6
f 335/4/6 334/4/6 336/4/6
f 335/5/6 336/5/6 337/5/6
f 337/5/6 336/5/6 338/5/6
f 339/3/6 340/3/6 341/3/6
f 341/3/6 340/3/6 342/3/6
f 343/3/6 344/3/6 345/3/6
f 345/3/6 344/3/6 346/3/6
