# MagicaVoxel @ ephtracy

# material
mtllib Spaceship small 3.mtl
usemtl palette

# normals
vn -1 0 0
vn 1 0 0
vn 0 -1 0
vn 0 1 0
vn 0 0 -1
vn 0 0 1

# texcoords
vt 0.00195312 0.5
vt 0.103516 0.5
vt 0.287109 0.5
vt 0.318359 0.5
vt 0.373047 0.5
vt 0.501953 0.5

# verts
v 27 50 101
v 27 58 101
v 27 50 105
v 27 58 105
v 34 40 99
v 34 44 99
v 34 46 99
v 34 47 99
v 34 60 99
v 34 50 101
v 34 58 101
v 34 50 105
v 34 58 105
v 34 40 107
v 34 44 107
v 34 46 107
v 34 47 107
v 34 60 107
v 40 36 98
v 40 62 98
v 40 40 99
v 40 44 99
v 40 46 99
v 40 47 99
v 40 60 99
v 40 40 107
v 40 44 107
v 40 46 107
v 40 47 107
v 40 60 107
v 40 36 110
v 40 62 110
v 42 66 99
v 42 70 99
v 42 66 107
v 42 70 107
v 43 62 100
v 43 66 100
v 43 62 106
v 43 66 106
v 44 24 98
v 44 36 98
v 44 36 110
v 44 41 110
v 44 24 112
v 44 41 112
v 49 68 101
v 49 70 101
v 49 68 105
v 49 70 105
v 55 66 99
v 55 70 99
v 55 66 107
v 55 70 107
v 56 62 100
v 56 66 100
v 56 62 106
v 56 66 106
v 62 68 101
v 62 70 101
v 62 68 105
v 62 70 105
v 44 68 101
v 44 70 101
v 44 68 105
v 44 70 105
v 50 62 100
v 50 66 100
v 50 62 106
v 50 66 106
v 51 66 99
v 51 70 99
v 51 66 107
v 51 70 107
v 57 68 101
v 57 70 101
v 57 68 105
v 57 70 105
v 63 24 98
v 63 36 98
v 63 62 100
v 63 66 100
v 63 62 106
v 63 66 106
v 63 36 110
v 63 41 110
v 63 24 112
v 63 41 112
v 64 66 99
v 64 70 99
v 64 66 107
v 64 70 107
v 67 36 98
v 67 62 98
v 67 40 99
v 67 44 99
v 67 46 99
v 67 47 99
v 67 61 99
v 67 40 107
v 67 44 107
v 67 46 107
v 67 47 107
v 67 61 107
v 67 36 110
v 67 62 110
v 73 40 99
v 73 44 99
v 73 46 99
v 73 47 99
v 73 61 99
v 73 50 101
v 73 60 101
v 73 50 105
v 73 60 105
v 73 40 107
v 73 44 107
v 73 46 107
v 73 47 107
v 73 61 107
v 80 50 101
v 80 60 101
v 80 50 105
v 80 60 105
v 44 24 98
v 44 24 112
v 63 24 98
v 63 24 112
v 40 36 98
v 40 36 110
v 44 36 98
v 44 36 110
v 63 36 98
v 63 36 110
v 67 36 98
v 67 36 110
v 34 40 99
v 34 40 107
v 40 40 99
v 40 40 107
v 67 40 99
v 67 40 107
v 73 40 99
v 73 40 107
v 27 50 101
v 27 50 105
v 34 50 101
v 34 50 105
v 73 50 101
v 73 50 105
v 80 50 101
v 80 50 105
v 42 66 99
v 42 66 107
v 43 66 100
v 43 66 106
v 50 66 100
v 50 66 106
v 51 66 99
v 51 66 107
v 55 66 99
v 55 66 107
v 56 66 100
v 56 66 106
v 63 66 100
v 63 66 106
v 64 66 99
v 64 66 107
v 44 41 110
v 44 41 112
v 63 41 110
v 63 41 112
v 27 58 101
v 27 58 105
v 34 58 101
v 34 58 105
v 34 60 99
v 34 60 107
v 40 60 99
v 40 60 107
v 73 60 101
v 73 60 105
v 80 60 101
v 80 60 105
v 67 61 99
v 67 61 107
v 73 61 99
v 73 61 107
v 40 62 98
v 40 62 110
v 43 62 100
v 43 62 106
v 50 62 100
v 50 62 106
v 56 62 100
v 56 62 106
v 63 62 100
v 63 62 106
v 67 62 98
v 67 62 110
v 44 68 101
v 44 68 105
v 49 68 101
v 49 68 105
v 57 68 101
v 57 68 105
v 62 68 101
v 62 68 105
v 42 70 99
v 42 70 107
v 44 70 101
v 44 70 105
v 49 70 101
v 49 70 105
v 51 70 99
v 51 70 107
v 55 70 99
v 55 70 107
v 57 70 101
v 57 70 105
v 62 70 101
v 62 70 105
v 64 70 99
v 64 70 107
v 44 24 98
v 63 24 98
v 40 36 98
v 44 36 98
v 63 36 98
v 67 36 98
v 40 62 98
v 67 62 98
v 34 40 99
v 40 40 99
v 67 40 99
v 73 40 99
v 34 44 99
v 40 44 99
v 67 44 99
v 73 44 99
v 34 46 99
v 40 46 99
v 67 46 99
v 73 46 99
v 34 47 99
v 40 47 99
v 67 47 99
v 73 47 99
v 34 60 99
v 40 60 99
v 67 61 99
v 73 61 99
v 42 66 99
v 51 66 99
v 55 66 99
v 64 66 99
v 42 70 99
v 51 70 99
v 55 70 99
v 64 70 99
v 43 62 100
v 50 62 100
v 56 62 100
v 63 62 100
v 43 66 100
v 50 66 100
v 56 66 100
v 63 66 100
v 27 50 101
v 34 50 101
v 73 50 101
v 80 50 101
v 27 58 101
v 34 58 101
v 73 60 101
v 80 60 101
v 44 68 105
v 49 68 105
v 57 68 105
v 62 68 105
v 44 70 105
v 49 70 105
v 57 70 105
v 62 70 105
v 44 68 101
v 49 68 101
v 57 68 101
v 62 68 101
v 44 70 101
v 49 70 101
v 57 70 101
v 62 70 101
v 27 50 105
v 34 50 105
v 73 50 105
v 80 50 105
v 27 58 105
v 34 58 105
v 73 60 105
v 80 60 105
v 43 62 106
v 50 62 106
v 56 62 106
v 63 62 106
v 43 66 106
v 50 66 106
v 56 66 106
v 63 66 106
v 34 40 107
v 40 40 107
v 67 40 107
v 73 40 107
v 34 44 107
v 40 44 107
v 67 44 107
v 73 44 107
v 34 46 107
v 40 46 107
v 67 46 107
v 73 46 107
v 34 47 107
v 40 47 107
v 67 47 107
v 73 47 107
v 34 60 107
v 40 60 107
v 67 61 107
v 73 61 107
v 42 66 107
v 51 66 107
v 55 66 107
v 64 66 107
v 42 70 107
v 51 70 107
v 55 70 107
v 64 70 107
v 40 36 110
v 44 36 110
v 63 36 110
v 67 36 110
v 44 41 110
v 63 41 110
v 40 62 110
v 67 62 110
v 44 24 112
v 63 24 112
v 44 41 112
v 63 41 112

# faces
f 3/1/1 2/1/1 1/1/1
f 4/1/1 2/1/1 3/1/1
f 10/1/1 9/1/1 8/1/1
f 11/1/1 9/1/1 10/1/1
f 12/1/1 10/1/1 8/1/1
f 13/1/1 9/1/1 11/1/1
f 14/3/1 6/3/1 5/3/1
f 15/1/1 7/1/1 6/1/1
f 15/3/1 6/3/1 14/3/1
f 16/3/1 8/3/1 7/3/1
f 16/1/1 7/1/1 15/1/1
f 17/1/1 13/1/1 12/1/1
f 17/3/1 8/3/1 16/3/1
f 17/1/1 12/1/1 8/1/1
f 18/1/1 9/1/1 13/1/1
f 18/1/1 13/1/1 17/1/1
f 21/1/1 20/1/1 19/1/1
f 22/1/1 20/1/1 21/1/1
f 23/1/1 20/1/1 22/1/1
f 24/1/1 20/1/1 23/1/1
f 25/1/1 20/1/1 24/1/1
f 26/1/1 21/1/1 19/1/1
f 30/1/1 20/1/1 25/1/1
f 31/1/1 29/1/1 28/1/1
f 31/1/1 30/1/1 29/1/1
f 31/1/1 26/1/1 19/1/1
f 31/1/1 27/1/1 26/1/1
f 31/1/1 28/1/1 27/1/1
f 32/1/1 20/1/1 30/1/1
f 32/1/1 30/1/1 31/1/1
f 35/4/1 34/4/1 33/4/1
f 36/4/1 34/4/1 35/4/1
f 39/4/1 38/4/1 37/4/1
f 40/4/1 38/4/1 39/4/1
f 43/4/1 42/4/1 41/4/1
f 45/4/1 43/4/1 41/4/1
f 45/4/1 44/4/1 43/4/1
f 46/4/1 44/4/1 45/4/1
f 49/4/1 48/4/1 47/4/1
f 50/4/1 48/4/1 49/4/1
f 53/4/1 52/4/1 51/4/1
f 54/4/1 52/4/1 53/4/1
f 57/4/1 56/4/1 55/4/1
f 58/4/1 56/4/1 57/4/1
f 61/4/1 60/4/1 59/4/1
f 62/4/1 60/4/1 61/4/1
f 63/4/2 64/4/2 65/4/2
f 65/4/2 64/4/2 66/4/2
f 67/4/2 68/4/2 69/4/2
f 69/4/2 68/4/2 70/4/2
f 71/4/2 72/4/2 73/4/2
f 73/4/2 72/4/2 74/4/2
f 75/4/2 76/4/2 77/4/2
f 77/4/2 76/4/2 78/4/2
f 81/4/2 82/4/2 83/4/2
f 83/4/2 82/4/2 84/4/2
f 79/4/2 80/4/2 85/4/2
f 79/4/2 85/4/2 87/4/2
f 85/4/2 86/4/2 87/4/2
f 87/4/2 86/4/2 88/4/2
f 89/4/2 90/4/2 91/4/2
f 91/4/2 90/4/2 92/4/2
f 93/1/2 94/1/2 95/1/2
f 95/1/2 94/1/2 96/1/2
f 96/1/2 94/1/2 97/1/2
f 97/1/2 94/1/2 98/1/2
f 98/1/2 94/1/2 99/1/2
f 93/1/2 95/1/2 100/1/2
f 99/1/2 94/1/2 104/1/2
f 102/1/2 103/1/2 105/1/2
f 103/1/2 104/1/2 105/1/2
f 93/1/2 100/1/2 105/1/2
f 100/1/2 101/1/2 105/1/2
f 101/1/2 102/1/2 105/1/2
f 104/1/2 94/1/2 106/1/2
f 105/1/2 104/1/2 106/1/2
f 110/1/2 111/1/2 112/1/2
f 112/1/2 111/1/2 113/1/2
f 110/1/2 112/1/2 114/1/2
f 113/1/2 111/1/2 115/1/2
f 107/3/2 108/3/2 116/3/2
f 108/1/2 109/1/2 117/1/2
f 116/3/2 108/3/2 117/3/2
f 109/3/2 110/3/2 118/3/2
f 117/1/2 109/1/2 118/1/2
f 114/1/2 115/1/2 119/1/2
f 118/3/2 110/3/2 119/3/2
f 110/1/2 114/1/2 119/1/2
f 115/1/2 111/1/2 120/1/2
f 119/1/2 115/1/2 120/1/2
f 121/1/2 122/1/2 123/1/2
f 123/1/2 122/1/2 124/1/2
f 127/4/3 126/4/3 125/4/3
f 128/4/3 126/4/3 127/4/3
f 131/1/3 130/1/3 129/1/3
f 132/1/3 130/1/3 131/1/3
f 135/1/3 134/1/3 133/1/3
f 136/1/3 134/1/3 135/1/3
f 139/3/3 138/3/3 137/3/3
f 140/3/3 138/3/3 139/3/3
f 143/3/3 142/3/3 141/3/3
f 144/3/3 142/3/3 143/3/3
f 147/1/3 146/1/3 145/1/3
f 148/1/3 146/1/3 147/1/3
f 151/1/3 150/1/3 149/1/3
f 152/1/3 150/1/3 151/1/3
f 155/4/3 154/4/3 153/4/3
f 156/4/3 154/4/3 155/4/3
f 157/4/3 155/4/3 153/4/3
f 158/4/3 154/4/3 156/4/3
f 159/4/3 157/4/3 153/4/3
f 159/4/3 158/4/3 157/4/3
f 160/4/3 154/4/3 158/4/3
f 160/4/3 158/4/3 159/4/3
f 163/4/3 162/4/3 161/4/3
f 164/4/3 162/4/3 163/4/3
f 165/4/3 163/4/3 161/4/3
f 166/4/3 162/4/3 164/4/3
f 167/4/3 165/4/3 161/4/3
f 167/4/3 166/4/3 165/4/3
f 168/4/3 162/4/3 166/4/3
f 168/4/3 166/4/3 167/4/3
f 169/4/4 170/4/4 171/4/4
f 171/4/4 170/4/4 172/4/4
f 173/1/4 174/1/4 175/1/4
f 175/1/4 174/1/4 176/1/4
f 177/1/4 178/1/4 179/1/4
f 179/1/4 178/1/4 180/1/4
f 181/1/4 182/1/4 183/1/4
f 183/1/4 182/1/4 184/1/4
f 185/1/4 186/1/4 187/1/4
f 187/1/4 186/1/4 188/1/4
f 189/1/4 190/1/4 191/1/4
f 191/1/4 190/1/4 192/1/4
f 189/1/4 191/1/4 193/1/4
f 192/1/4 190/1/4 194/1/4
f 189/1/4 193/1/4 195/1/4
f 193/1/4 194/1/4 195/1/4
f 194/1/4 190/1/4 196/1/4
f 195/1/4 194/1/4 196/1/4
f 189/1/4 195/1/4 197/1/4
f 196/1/4 190/1/4 198/1/4
f 189/1/4 197/1/4 199/1/4
f 197/1/4 198/1/4 199/1/4
f 198/1/4 190/1/4 200/1/4
f 199/1/4 198/1/4 200/1/4
f 201/4/4 202/4/4 203/4/4
f 203/4/4 202/4/4 204/4/4
f 205/4/4 206/4/4 207/4/4
f 207/4/4 206/4/4 208/4/4
f 209/4/4 210/4/4 211/4/4
f 211/4/4 210/4/4 212/4/4
f 209/4/4 211/4/4 213/4/4
f 212/4/4 210/4/4 214/4/4
f 209/4/4 213/4/4 215/4/4
f 213/4/4 214/4/4 215/4/4
f 214/4/4 210/4/4 216/4/4
f 215/4/4 214/4/4 216/4/4
f 217/4/4 218/4/4 219/4/4
f 219/4/4 218/4/4 220/4/4
f 217/4/4 219/4/4 221/4/4
f 220/4/4 218/4/4 222/4/4
f 217/4/4 221/4/4 223/4/4
f 221/4/4 222/4/4 223/4/4
f 222/4/4 218/4/4 224/4/4
f 223/4/4 222/4/4 224/4/4
f 228/4/5 226/4/5 225/4/5
f 229/4/5 226/4/5 228/4/5
f 231/1/5 228/1/5 227/1/5
f 231/1/5 230/1/5 229/1/5
f 231/1/5 229/1/5 228/1/5
f 232/1/5 230/1/5 231/1/5
f 237/3/5 234/3/5 233/3/5
f 238/3/5 234/3/5 237/3/5
f 239/3/5 236/3/5 235/3/5
f 240/3/5 236/3/5 239/3/5
f 241/1/5 238/1/5 237/1/5
f 242/1/5 238/1/5 241/1/5
f 243/1/5 240/1/5 239/1/5
f 244/1/5 240/1/5 243/1/5
f 245/3/5 242/3/5 241/3/5
f 246/3/5 242/3/5 245/3/5
f 247/3/5 244/3/5 243/3/5
f 248/3/5 244/3/5 247/3/5
f 249/1/5 246/1/5 245/1/5
f 250/1/5 246/1/5 249/1/5
f 251/1/5 248/1/5 247/1/5
f 252/1/5 248/1/5 251/1/5
f 257/4/5 254/4/5 253/4/5
f 258/4/5 254/4/5 257/4/5
f 259/4/5 256/4/5 255/4/5
f 260/4/5 256/4/5 259/4/5
f 265/4/5 262/4/5 261/4/5
f 266/4/5 262/4/5 265/4/5
f 267/4/5 264/4/5 263/4/5
f 268/4/5 264/4/5 267/4/5
f 273/1/5 270/1/5 269/1/5
f 274/1/5 270/1/5 273/1/5
f 275/1/5 272/1/5 271/1/5
f 276/1/5 272/1/5 275/1/5
f 281/4/5 278/4/5 277/4/5
f 282/4/5 278/4/5 281/4/5
f 283/4/5 280/4/5 279/4/5
f 284/4/5 280/4/5 283/4/5
f 285/4/6 286/4/6 289/4/6
f 289/4/6 286/4/6 290/4/6
f 287/4/6 288/4/6 291/4/6
f 291/4/6 288/4/6 292/4/6
f 293/1/6 294/1/6 297/1/6
f 297/1/6 294/1/6 298/1/6
f 295/1/6 296/1/6 299/1/6
f 299/1/6 296/1/6 300/1/6
f 301/4/6 302/4/6 305/4/6
f 305/4/6 302/4/6 306/4/6
f 303/4/6 304/4/6 307/4/6
f 307/4/6 304/4/6 308/4/6
f 309/3/6 310/3/6 313/3/6
f 313/3/6 310/3/6 314/3/6
f 311/3/6 312/3/6 315/3/6
f 315/3/6 312/3/6 316/3/6
f 313/1/6 314/1/6 317/1/6
f 317/1/6 314/1/6 318/1/6
f 315/1/6 316/1/6 319/1/6
f 319/1/6 316/1/6 320/1/6
f 317/3/6 318/3/6 321/3/6
f 321/3/6 318/3/6 322/3/6
f 319/3/6 320/3/6 323/3/6
f 323/3/6 320/3/6 324/3/6
f 321/1/6 322/1/6 325/1/6
f 325/1/6 322/1/6 326/1/6
f 323/1/6 324/1/6 327/1/6
f 327/1/6 324/1/6 328/1/6
f 329/4/6 330/4/6 333/4/6
f 333/4/6 330/4/6 334/4/6
f 331/4/6 332/4/6 335/4/6
f 335/4/6 332/4/6 336/4/6
f 337/1/6 338/1/6 341/1/6
f 339/1/6 340/1/6 342/1/6
f 337/1/6 341/1/6 343/1/6
f 341/1/6 342/1/6 343/1/6
f 342/1/6 340/1/6 344/1/6
f 343/1/6 342/1/6 344/1/6
f 345/4/6 346/4/6 347/4/6
f 347/4/6 346/4/6 348/4/6
